G04 #@! TF.FileFunction,Copper,L1,Top,Signal*
%FSLAX46Y46*%
G04 Gerber Fmt 4.6, Leading zero omitted, Abs format (unit mm)*
G04 Created by KiCad (PCBNEW 4.0.6) date 10/19/17 05:59:14*
%MOMM*%
%LPD*%
G01*
G04 APERTURE LIST*
%ADD10C,0.100000*%
%ADD11C,2.000000*%
%ADD12R,3.000000X3.000000*%
%ADD13R,2.500000X2.500000*%
%ADD14R,1.600000X1.600000*%
%ADD15C,1.600000*%
%ADD16R,2.600000X2.000000*%
%ADD17O,2.600000X2.000000*%
%ADD18R,1.250000X1.500000*%
%ADD19R,1.500000X1.250000*%
%ADD20R,0.250000X1.600000*%
%ADD21R,1.500000X2.000000*%
%ADD22R,1.500000X1.300000*%
%ADD23R,1.700000X2.000000*%
%ADD24R,2.000000X1.700000*%
%ADD25R,0.250000X0.700000*%
%ADD26R,0.700000X0.250000*%
%ADD27R,0.825000X0.825000*%
%ADD28R,0.650000X1.060000*%
%ADD29R,2.500000X1.800000*%
%ADD30R,1.099820X3.299460*%
%ADD31C,2.540000*%
%ADD32R,1.700000X1.700000*%
%ADD33O,1.700000X1.700000*%
%ADD34C,0.600000*%
%ADD35C,1.270000*%
%ADD36C,0.508000*%
%ADD37C,0.250000*%
%ADD38C,0.254000*%
G04 APERTURE END LIST*
D10*
D11*
X215442800Y-137088000D03*
X215442800Y-132588000D03*
X208942800Y-137088000D03*
X208942800Y-132588000D03*
D12*
X214200000Y-90591500D03*
X214200000Y-103591500D03*
D13*
X192200000Y-104091500D03*
X192200000Y-90091500D03*
X192200000Y-93341500D03*
X192200000Y-100841500D03*
D14*
X176657000Y-124841000D03*
D15*
X174157000Y-124841000D03*
D16*
X213169500Y-107759500D03*
D17*
X213169500Y-110299500D03*
D18*
X183134000Y-117582000D03*
X183134000Y-115082000D03*
X191262000Y-116947000D03*
X191262000Y-114447000D03*
X188214000Y-118090000D03*
X188214000Y-115590000D03*
D14*
X209550000Y-120586500D03*
D15*
X212050000Y-120586500D03*
D14*
X169672000Y-127558800D03*
D15*
X169672000Y-130058800D03*
D14*
X205422500Y-127889000D03*
D15*
X205422500Y-130389000D03*
D14*
X203708000Y-123190000D03*
D15*
X201208000Y-123190000D03*
D18*
X213868000Y-97429000D03*
X213868000Y-99929000D03*
X205740000Y-119741000D03*
X205740000Y-117241000D03*
D14*
X174244000Y-115443000D03*
D15*
X176744000Y-115443000D03*
D14*
X201168000Y-113919000D03*
D15*
X203668000Y-113919000D03*
D19*
X206268000Y-134670800D03*
X208768000Y-134670800D03*
D20*
X183988000Y-121158000D03*
X184488000Y-121158000D03*
X184988000Y-121158000D03*
X185488000Y-121158000D03*
X185988000Y-121158000D03*
X186488000Y-121158000D03*
X186988000Y-121158000D03*
X187488000Y-121158000D03*
X187988000Y-121158000D03*
X188488000Y-121158000D03*
X188988000Y-121158000D03*
X189488000Y-121158000D03*
X189988000Y-121158000D03*
X190488000Y-121158000D03*
X190988000Y-121158000D03*
X191488000Y-121158000D03*
X191988000Y-121158000D03*
X192488000Y-121158000D03*
X192988000Y-121158000D03*
X193488000Y-121158000D03*
X193988000Y-121158000D03*
X194488000Y-121158000D03*
X194988000Y-121158000D03*
X195488000Y-121158000D03*
D21*
X197088000Y-119858000D03*
X182388000Y-119858000D03*
D10*
G36*
X206271957Y-92192695D02*
X207191195Y-91273457D01*
X208251855Y-92334117D01*
X207332617Y-93253355D01*
X206271957Y-92192695D01*
X206271957Y-92192695D01*
G37*
G36*
X208181145Y-94101883D02*
X209100383Y-93182645D01*
X210161043Y-94243305D01*
X209241805Y-95162543D01*
X208181145Y-94101883D01*
X208181145Y-94101883D01*
G37*
G36*
X207605457Y-90795695D02*
X208524695Y-89876457D01*
X209585355Y-90937117D01*
X208666117Y-91856355D01*
X207605457Y-90795695D01*
X207605457Y-90795695D01*
G37*
G36*
X209514645Y-92704883D02*
X210433883Y-91785645D01*
X211494543Y-92846305D01*
X210575305Y-93765543D01*
X209514645Y-92704883D01*
X209514645Y-92704883D01*
G37*
G36*
X205033362Y-93214280D02*
X203831280Y-94416362D01*
X202417066Y-93002148D01*
X203619148Y-91800066D01*
X205033362Y-93214280D01*
X205033362Y-93214280D01*
G37*
G36*
X202204934Y-90385852D02*
X201002852Y-91587934D01*
X199588638Y-90173720D01*
X200790720Y-88971638D01*
X202204934Y-90385852D01*
X202204934Y-90385852D01*
G37*
G36*
X204224138Y-94809220D02*
X205426220Y-93607138D01*
X206840434Y-95021352D01*
X205638352Y-96223434D01*
X204224138Y-94809220D01*
X204224138Y-94809220D01*
G37*
G36*
X207052566Y-97637648D02*
X208254648Y-96435566D01*
X209668862Y-97849780D01*
X208466780Y-99051862D01*
X207052566Y-97637648D01*
X207052566Y-97637648D01*
G37*
D22*
X197311000Y-116332000D03*
X194611000Y-116332000D03*
D23*
X179705000Y-117126000D03*
X179705000Y-121126000D03*
D24*
X170974000Y-107315000D03*
X174974000Y-107315000D03*
X170974000Y-109728000D03*
X174974000Y-109728000D03*
D11*
X172601500Y-96901000D03*
X177101500Y-96901000D03*
X172601500Y-90401000D03*
X177101500Y-90401000D03*
X168503600Y-132558400D03*
X168503600Y-137058400D03*
X175003600Y-132558400D03*
X175003600Y-137058400D03*
D25*
X210256500Y-126876000D03*
X210756500Y-126876000D03*
X211256500Y-126876000D03*
D26*
X212156500Y-125976000D03*
X212156500Y-125476000D03*
X212156500Y-124976000D03*
D25*
X211256500Y-124076000D03*
X210756500Y-124076000D03*
X210256500Y-124076000D03*
D26*
X209356500Y-124976000D03*
X209356500Y-125476000D03*
X209356500Y-125976000D03*
D27*
X211169000Y-125063500D03*
X210344000Y-125063500D03*
X211169000Y-125888500D03*
X210344000Y-125888500D03*
D28*
X174564000Y-121242000D03*
X175514000Y-121242000D03*
X176464000Y-121242000D03*
X176464000Y-119042000D03*
X174564000Y-119042000D03*
X201488000Y-119845000D03*
X202438000Y-119845000D03*
X203388000Y-119845000D03*
X203388000Y-117645000D03*
X201488000Y-117645000D03*
D29*
X205645000Y-101346000D03*
X209645000Y-101346000D03*
X202723500Y-101282500D03*
X198723500Y-101282500D03*
D30*
X211856320Y-129413000D03*
X209605880Y-129413000D03*
D31*
X192024000Y-111150400D03*
X204571600Y-97942400D03*
X203657200Y-133350000D03*
X187299600Y-110896400D03*
X183946800Y-110896400D03*
X198780400Y-96469200D03*
D24*
X185045600Y-91287600D03*
X189045600Y-91287600D03*
D23*
X176631600Y-104920800D03*
X176631600Y-100920800D03*
D24*
X185096400Y-93878400D03*
X189096400Y-93878400D03*
D22*
X169388800Y-103276400D03*
X172088800Y-103276400D03*
D24*
X185096400Y-96418400D03*
X189096400Y-96418400D03*
X185096400Y-98907600D03*
X189096400Y-98907600D03*
X185147200Y-101447600D03*
X189147200Y-101447600D03*
X185147200Y-104038400D03*
X189147200Y-104038400D03*
X206266800Y-136956800D03*
X202266800Y-136956800D03*
D32*
X214985600Y-128828800D03*
D33*
X214985600Y-126288800D03*
X214985600Y-123748800D03*
X214985600Y-121208800D03*
D34*
X189941200Y-112420400D03*
X189738000Y-117475000D03*
X185166000Y-117729000D03*
X196697600Y-117856000D03*
X190500000Y-124206000D03*
X167449500Y-96520000D03*
X201218800Y-127609600D03*
X195884800Y-115112800D03*
X211010500Y-123317000D03*
X210756500Y-127635000D03*
X211391500Y-96075500D03*
X215900000Y-94170500D03*
X182689500Y-103949500D03*
X182689500Y-101346000D03*
X182689500Y-98933000D03*
X182689500Y-96329500D03*
X182753000Y-93853000D03*
X182753000Y-91313000D03*
X193344800Y-131521200D03*
X193294000Y-128714500D03*
X176085500Y-129794000D03*
X167449500Y-110172500D03*
X172466000Y-118300500D03*
X172466000Y-121158000D03*
X194056000Y-113792000D03*
X182880000Y-113030000D03*
X178689000Y-113919000D03*
X189738000Y-115443000D03*
X184150000Y-119126000D03*
X210248500Y-122428000D03*
X213042500Y-122936000D03*
X209677000Y-118364000D03*
X209677000Y-114300000D03*
X208076800Y-131064000D03*
X196291200Y-130606800D03*
X202501500Y-131445000D03*
X189293500Y-106045000D03*
X168148000Y-110998000D03*
X173355000Y-122555000D03*
X204597000Y-121412000D03*
X201168000Y-121158000D03*
X177546000Y-117729000D03*
X210820000Y-137109200D03*
X196088000Y-129743200D03*
X201777600Y-129844800D03*
X170688000Y-98044000D03*
X184404000Y-118110000D03*
X184658000Y-116586000D03*
X184658000Y-115570000D03*
X186753500Y-114173000D03*
X188658500Y-112966500D03*
X193294000Y-116459000D03*
X183134000Y-121412000D03*
X183388000Y-123444000D03*
X183896000Y-124079000D03*
X191262000Y-119126000D03*
X183388000Y-124841000D03*
X183896000Y-125730000D03*
X192024000Y-126492000D03*
X183896000Y-127000000D03*
X194437000Y-117729000D03*
X193802000Y-123444000D03*
X194310000Y-119380000D03*
X194564000Y-122682000D03*
X208229200Y-124053600D03*
X202285600Y-127203200D03*
X207264000Y-124510800D03*
X203911200Y-125628400D03*
X170637200Y-137109200D03*
X197053200Y-115011200D03*
X177850800Y-133197600D03*
X194691000Y-101600000D03*
X196977000Y-105664000D03*
X195961000Y-93091000D03*
X204724000Y-90297000D03*
X170815000Y-114490500D03*
X178117500Y-127508000D03*
X170815000Y-117157500D03*
X202057000Y-94234000D03*
X196977000Y-93726000D03*
X195389500Y-105600500D03*
X195580000Y-102171500D03*
X170116500Y-116649500D03*
X170116500Y-113855500D03*
X178625500Y-126238000D03*
X170688000Y-104902000D03*
X168097200Y-109524800D03*
X186753500Y-94932500D03*
X172720000Y-104267000D03*
X186690000Y-97345500D03*
X186690000Y-102552500D03*
X186626500Y-105092500D03*
X186563000Y-92138500D03*
X175387000Y-99441000D03*
X174371000Y-104013000D03*
X186944000Y-99822000D03*
D35*
X192457500Y-93599000D02*
X192200000Y-93341500D01*
D36*
X189128400Y-111607600D02*
X188010800Y-111607600D01*
X188010800Y-111607600D02*
X187299600Y-110896400D01*
X189077600Y-111556800D02*
X189128400Y-111607600D01*
X189128400Y-111607600D02*
X189941200Y-112420400D01*
X201168000Y-113919000D02*
X201168000Y-117325000D01*
X201168000Y-117325000D02*
X201488000Y-117645000D01*
X201168000Y-113919000D02*
X198755000Y-113919000D01*
X198755000Y-113919000D02*
X198501000Y-114173000D01*
X194945000Y-114173000D02*
X194437000Y-114681000D01*
X198755000Y-114173000D02*
X198501000Y-114173000D01*
X198501000Y-114173000D02*
X195072000Y-114173000D01*
X195072000Y-114173000D02*
X194945000Y-114173000D01*
X193147000Y-114681000D02*
X191262000Y-116566000D01*
X194437000Y-114681000D02*
X193147000Y-114681000D01*
X191536000Y-116566000D02*
X191262000Y-116566000D01*
X191008000Y-116312000D02*
X189845000Y-117475000D01*
X189845000Y-117475000D02*
X189738000Y-117475000D01*
X191028000Y-116332000D02*
X191008000Y-116312000D01*
D37*
X189845000Y-117475000D02*
X189738000Y-117475000D01*
X185166000Y-117729000D02*
X184785000Y-117348000D01*
X184785000Y-117348000D02*
X183368000Y-117348000D01*
X183368000Y-117348000D02*
X183134000Y-117582000D01*
X189611000Y-117475000D02*
X189484000Y-117475000D01*
X189738000Y-117475000D02*
X189611000Y-117475000D01*
X185488000Y-118051000D02*
X185166000Y-117729000D01*
X185488000Y-121158000D02*
X185488000Y-118051000D01*
X188988000Y-121158000D02*
X188988000Y-119495000D01*
X189738000Y-118745000D02*
X189738000Y-117348000D01*
X188988000Y-119495000D02*
X189738000Y-118745000D01*
D36*
X191363600Y-112435000D02*
X191363600Y-111810800D01*
X191363600Y-111810800D02*
X192024000Y-111150400D01*
X201218800Y-127609600D02*
X201218800Y-127622300D01*
X201218800Y-127622300D02*
X203985500Y-130389000D01*
X203985500Y-130389000D02*
X205422500Y-130389000D01*
D37*
X204470000Y-113919000D02*
X203668000Y-113919000D01*
X207327500Y-115951000D02*
X207030000Y-115951000D01*
X207030000Y-115951000D02*
X205740000Y-117241000D01*
X214200000Y-103591500D02*
X214200000Y-103964000D01*
X214200000Y-103964000D02*
X215963500Y-105727500D01*
X197311000Y-117242600D02*
X197311000Y-116332000D01*
X196697600Y-117856000D02*
X197311000Y-117242600D01*
X190988000Y-121158000D02*
X190988000Y-122712800D01*
X191262000Y-114447000D02*
X190734000Y-114447000D01*
X190734000Y-114447000D02*
X189738000Y-115443000D01*
X190988000Y-122712800D02*
X190988000Y-123718000D01*
X190988000Y-123718000D02*
X190500000Y-124206000D01*
X191262000Y-114447000D02*
X191155000Y-114447000D01*
X191155000Y-114447000D02*
X190246000Y-113538000D01*
D36*
X167449500Y-110172500D02*
X167449500Y-109994700D01*
X167449500Y-96520000D02*
X167449500Y-108839000D01*
X167335200Y-108953300D02*
X167449500Y-108839000D01*
X167335200Y-109880400D02*
X167335200Y-108953300D01*
X167449500Y-109994700D02*
X167335200Y-109880400D01*
X201208000Y-125323600D02*
X202996800Y-125323600D01*
X202996800Y-125323600D02*
X203504800Y-124815600D01*
X203504800Y-124815600D02*
X204673200Y-124815600D01*
X202996800Y-125323600D02*
X203504800Y-124815600D01*
X204673200Y-124815600D02*
X207264000Y-122224800D01*
X207264000Y-118237000D02*
X206268000Y-117241000D01*
X207264000Y-122224800D02*
X207264000Y-118237000D01*
X201208000Y-127609600D02*
X201208000Y-127611500D01*
X201218800Y-127609600D02*
X201208000Y-127609600D01*
D37*
X208768000Y-134670800D02*
X208768000Y-132762800D01*
X208768000Y-132762800D02*
X208942800Y-132588000D01*
D36*
X214985600Y-128828800D02*
X214985600Y-132130800D01*
X214985600Y-132130800D02*
X215442800Y-132588000D01*
D37*
X197311000Y-116332000D02*
X197256400Y-116332000D01*
X197256400Y-116332000D02*
X196037200Y-115112800D01*
X196037200Y-115112800D02*
X195884800Y-115112800D01*
D36*
X201208000Y-123190000D02*
X201208000Y-125323600D01*
X201208000Y-125323600D02*
X201208000Y-127611500D01*
X203985500Y-130389000D02*
X205422500Y-130389000D01*
X201208000Y-127611500D02*
X203985500Y-130389000D01*
D37*
X211010500Y-123317000D02*
X211010500Y-124076000D01*
X211010500Y-124076000D02*
X211010500Y-124015500D01*
X211010500Y-124015500D02*
X211010500Y-124076000D01*
X210756500Y-126876000D02*
X210756500Y-127635000D01*
X211256500Y-124076000D02*
X211010500Y-124076000D01*
X211010500Y-124076000D02*
X210756500Y-124076000D01*
X212050000Y-120586500D02*
X212050000Y-123282500D01*
X212050000Y-123282500D02*
X211256500Y-124076000D01*
D35*
X212280500Y-115951000D02*
X212280500Y-120356000D01*
X212280500Y-120356000D02*
X212050000Y-120586500D01*
X211391500Y-96075500D02*
X210028928Y-96075500D01*
X210028928Y-96075500D02*
X208360714Y-97743714D01*
X213868000Y-99929000D02*
X215348500Y-99929000D01*
X211391500Y-96075500D02*
X209488594Y-94172594D01*
X215900000Y-99377500D02*
X215900000Y-94170500D01*
X215348500Y-99929000D02*
X215900000Y-99377500D01*
X209488594Y-94172594D02*
X209171094Y-94172594D01*
D36*
X167322500Y-111442500D02*
X167322500Y-112268000D01*
X171640500Y-116586000D02*
X172466000Y-116586000D01*
X167322500Y-112268000D02*
X171640500Y-116586000D01*
D35*
X213868000Y-99929000D02*
X213868000Y-103259500D01*
X213868000Y-103259500D02*
X214200000Y-103591500D01*
X215963500Y-110236000D02*
X215963500Y-112268000D01*
X215963500Y-105537000D02*
X215963500Y-105727500D01*
X215963500Y-105727500D02*
X215963500Y-110236000D01*
X214200000Y-103773500D02*
X215963500Y-105537000D01*
X212280500Y-115951000D02*
X207327500Y-115951000D01*
X215963500Y-112268000D02*
X212280500Y-115951000D01*
X214200000Y-103591500D02*
X214200000Y-103773500D01*
X204470000Y-113919000D02*
X204597000Y-113919000D01*
X204597000Y-113919000D02*
X207168750Y-111347250D01*
X205740000Y-117241000D02*
X206037500Y-117241000D01*
X206037500Y-117241000D02*
X207327500Y-115951000D01*
X207327500Y-115951000D02*
X207391000Y-115887500D01*
X207391000Y-111569500D02*
X207168750Y-111347250D01*
X207391000Y-115887500D02*
X207391000Y-111569500D01*
X199913000Y-104091500D02*
X192200000Y-104091500D01*
X207168750Y-111347250D02*
X199913000Y-104091500D01*
D36*
X182689500Y-101346000D02*
X182689500Y-103949500D01*
X182689500Y-98933000D02*
X182689500Y-101346000D01*
X182689500Y-96329500D02*
X182689500Y-98933000D01*
X182753000Y-93853000D02*
X182689500Y-93916500D01*
X182689500Y-93916500D02*
X182689500Y-96329500D01*
X182753000Y-91313000D02*
X182753000Y-93853000D01*
X203668000Y-115169000D02*
X205740000Y-117241000D01*
X203668000Y-113919000D02*
X203668000Y-115169000D01*
X193281300Y-131457700D02*
X193344800Y-131521200D01*
X193294000Y-128714500D02*
X193281300Y-131457700D01*
X176085500Y-129794000D02*
X173799500Y-127508000D01*
X173799500Y-127508000D02*
X173799500Y-125198500D01*
X173799500Y-125198500D02*
X174157000Y-124841000D01*
X167449500Y-110172500D02*
X167322500Y-110299500D01*
X167322500Y-110299500D02*
X167322500Y-111442500D01*
X172466000Y-116586000D02*
X172466000Y-118300500D01*
D37*
X167449500Y-110172500D02*
X167322500Y-110172500D01*
X167322500Y-110172500D02*
X167449500Y-110172500D01*
X167449500Y-110172500D02*
X167322500Y-110172500D01*
D36*
X172466000Y-121158000D02*
X172466000Y-118300500D01*
X174157000Y-124841000D02*
X174157000Y-124754000D01*
X174157000Y-124754000D02*
X172466000Y-123063000D01*
X172466000Y-123063000D02*
X172466000Y-121158000D01*
X179705000Y-117126000D02*
X178427000Y-117126000D01*
X178427000Y-117126000D02*
X176744000Y-115443000D01*
X179705000Y-117126000D02*
X178911000Y-117126000D01*
X201208000Y-123190000D02*
X201208000Y-125262000D01*
X206268000Y-117241000D02*
X205740000Y-117241000D01*
X175514000Y-121242000D02*
X175514000Y-122301000D01*
X174157000Y-123658000D02*
X174157000Y-124841000D01*
X175514000Y-122301000D02*
X174157000Y-123658000D01*
X201208000Y-123190000D02*
X201208000Y-122642000D01*
X201208000Y-122642000D02*
X201422000Y-122428000D01*
X201422000Y-122428000D02*
X201208000Y-123190000D01*
X201208000Y-123063000D02*
X201208000Y-122642000D01*
X201208000Y-122642000D02*
X202438000Y-121412000D01*
X202819000Y-112308000D02*
X202819000Y-113070000D01*
X202819000Y-113070000D02*
X203668000Y-113919000D01*
D37*
X191262000Y-114447000D02*
X191008000Y-114193000D01*
X191008000Y-114193000D02*
X191008000Y-113812000D01*
X191008000Y-113812000D02*
X191262000Y-114447000D01*
X191262000Y-114066000D02*
X191536000Y-113792000D01*
X191536000Y-113792000D02*
X194056000Y-113792000D01*
X194945000Y-112696000D02*
X195119000Y-112522000D01*
X195119000Y-112522000D02*
X196215000Y-112522000D01*
X196215000Y-112522000D02*
X196215000Y-112435000D01*
X179705000Y-117126000D02*
X178109000Y-115530000D01*
X178109000Y-115530000D02*
X176530000Y-115530000D01*
D36*
X191262000Y-114066000D02*
X190734000Y-113538000D01*
X190734000Y-113538000D02*
X190246000Y-113538000D01*
D37*
X191008000Y-113812000D02*
X190490000Y-113294000D01*
X190490000Y-113294000D02*
X190246000Y-113538000D01*
X183134000Y-115082000D02*
X182880000Y-114828000D01*
X182880000Y-114828000D02*
X182880000Y-113030000D01*
D36*
X202692000Y-112435000D02*
X202819000Y-112308000D01*
X196215000Y-112435000D02*
X202692000Y-112435000D01*
X176530000Y-115530000D02*
X176744000Y-115316000D01*
X176744000Y-115316000D02*
X177292000Y-115316000D01*
X177292000Y-115316000D02*
X178689000Y-113919000D01*
X189738000Y-115443000D02*
X188361000Y-115443000D01*
X188361000Y-115443000D02*
X188214000Y-115590000D01*
X191349000Y-112435000D02*
X191363600Y-112435000D01*
X191363600Y-112435000D02*
X196215000Y-112435000D01*
X188214000Y-115570000D02*
X190246000Y-113538000D01*
X190246000Y-113538000D02*
X191349000Y-112435000D01*
X188214000Y-115590000D02*
X188214000Y-115570000D01*
D37*
X184488000Y-121158000D02*
X184488000Y-119464000D01*
X184488000Y-119464000D02*
X184150000Y-119126000D01*
D36*
X202438000Y-121412000D02*
X202438000Y-119845000D01*
X183946800Y-110896400D02*
X183946800Y-111074200D01*
X183946800Y-111074200D02*
X183070500Y-111950500D01*
X184353200Y-109880400D02*
X184353200Y-110896400D01*
X184353200Y-110896400D02*
X183489600Y-111760000D01*
X183489600Y-111760000D02*
X183261000Y-111760000D01*
X183261000Y-111760000D02*
X183070500Y-111950500D01*
X176530000Y-113030000D02*
X177736500Y-113030000D01*
X177736500Y-113030000D02*
X178244500Y-112522000D01*
X178244500Y-112522000D02*
X178816000Y-111950500D01*
X183070500Y-111950500D02*
X178816000Y-111950500D01*
X186690000Y-116205000D02*
X186690000Y-116014500D01*
X186690000Y-116566000D02*
X188214000Y-118090000D01*
X186690000Y-116566000D02*
X186690000Y-116205000D01*
X183070500Y-111950500D02*
X186690000Y-115570000D01*
X186690000Y-115570000D02*
X186690000Y-115824000D01*
X186690000Y-115824000D02*
X186690000Y-116014500D01*
X174244000Y-115443000D02*
X174244000Y-115316000D01*
X174244000Y-115316000D02*
X176530000Y-113030000D01*
X174244000Y-115443000D02*
X174244000Y-118722000D01*
X174244000Y-118722000D02*
X174564000Y-119042000D01*
D37*
X188214000Y-118090000D02*
X188214000Y-118491000D01*
X188214000Y-118491000D02*
X188488000Y-118765000D01*
X188488000Y-118765000D02*
X188214000Y-118090000D01*
X188488000Y-121158000D02*
X188488000Y-118765000D01*
X212156500Y-124976000D02*
X212156500Y-124330000D01*
X213042500Y-123444000D02*
X213042500Y-122936000D01*
X212156500Y-124330000D02*
X213042500Y-123444000D01*
X210248500Y-122428000D02*
X210256500Y-122428000D01*
X210256500Y-122428000D02*
X210248500Y-122428000D01*
X210248500Y-122428000D02*
X210256500Y-122428000D01*
X212156500Y-124976000D02*
X212156500Y-125476000D01*
X210256500Y-124076000D02*
X210256500Y-122428000D01*
X210256500Y-122428000D02*
X210256500Y-121293000D01*
X210256500Y-121293000D02*
X209550000Y-120586500D01*
D35*
X209677000Y-120459500D02*
X209550000Y-120586500D01*
X209677000Y-113665000D02*
X209677000Y-114300000D01*
X205645000Y-103791000D02*
X209677000Y-107823000D01*
X209677000Y-107823000D02*
X209677000Y-113665000D01*
X205645000Y-101346000D02*
X205645000Y-103791000D01*
X209740500Y-118427500D02*
X209804000Y-118364000D01*
X209677000Y-118364000D02*
X209740500Y-118427500D01*
X205645000Y-101346000D02*
X202787000Y-101346000D01*
X202787000Y-101346000D02*
X202723500Y-101282500D01*
D37*
X208653000Y-124976000D02*
X208653000Y-125420500D01*
X209356500Y-124976000D02*
X208653000Y-124976000D01*
X208653000Y-125420500D02*
X208597500Y-125476000D01*
D36*
X208229200Y-125933200D02*
X208229200Y-125844300D01*
X208229200Y-125844300D02*
X208597500Y-125476000D01*
D37*
X208229200Y-125844300D02*
X208597500Y-125476000D01*
D36*
X205422500Y-127889000D02*
X206273400Y-127889000D01*
X206273400Y-127889000D02*
X208229200Y-125933200D01*
D37*
X203657200Y-133350000D02*
X203657200Y-135566400D01*
X203657200Y-135566400D02*
X202266800Y-136956800D01*
D36*
X203657200Y-133350000D02*
X205790800Y-133350000D01*
X205790800Y-133350000D02*
X208076800Y-131064000D01*
X202501500Y-131445000D02*
X202501500Y-132194300D01*
X202501500Y-132194300D02*
X203657200Y-133350000D01*
X201625200Y-130657600D02*
X201714100Y-130657600D01*
X201714100Y-130657600D02*
X202501500Y-131445000D01*
X196291200Y-130606800D02*
X196342000Y-130657600D01*
X196342000Y-130657600D02*
X201625200Y-130657600D01*
D37*
X209356500Y-125476000D02*
X208597500Y-125476000D01*
D36*
X186944000Y-105918000D02*
X189166500Y-105918000D01*
X177546000Y-105918000D02*
X186944000Y-105918000D01*
X189166500Y-105918000D02*
X189293500Y-106045000D01*
X189134500Y-105886000D02*
X189134500Y-104076500D01*
X189293500Y-106045000D02*
X189134500Y-105886000D01*
X189134500Y-101473000D02*
X189134500Y-104076500D01*
X189134500Y-98933000D02*
X189134500Y-101473000D01*
X189134500Y-96393000D02*
X189134500Y-98933000D01*
X189134500Y-93853000D02*
X189134500Y-96393000D01*
D37*
X169914500Y-112637500D02*
X169787500Y-112637500D01*
X169787500Y-112637500D02*
X168148000Y-110998000D01*
X174974000Y-109728000D02*
X172815000Y-111887000D01*
X172815000Y-111887000D02*
X170665000Y-111887000D01*
X170665000Y-111887000D02*
X169914500Y-112637500D01*
X169914500Y-112637500D02*
X169903000Y-112649000D01*
D36*
X174564000Y-121242000D02*
X174564000Y-121346000D01*
X174564000Y-121346000D02*
X173355000Y-122555000D01*
X176657000Y-124841000D02*
X176657000Y-121435000D01*
X176657000Y-121435000D02*
X176464000Y-121242000D01*
X201488000Y-119845000D02*
X201488000Y-120838000D01*
X203708000Y-123063000D02*
X203708000Y-122301000D01*
X203708000Y-122301000D02*
X204597000Y-121412000D01*
X203708000Y-123063000D02*
X203708000Y-120165000D01*
X203708000Y-120165000D02*
X203388000Y-119845000D01*
D37*
X176657000Y-104997000D02*
X174974000Y-106680000D01*
X174974000Y-106680000D02*
X174974000Y-107315000D01*
X174974000Y-109728000D02*
X174974000Y-107315000D01*
D36*
X201488000Y-120838000D02*
X201168000Y-121158000D01*
X176657000Y-105029000D02*
X177546000Y-105918000D01*
X176657000Y-104997000D02*
X176657000Y-105029000D01*
X189134500Y-91313000D02*
X189134500Y-93853000D01*
X204571600Y-97942400D02*
X205181200Y-97942400D01*
X205181200Y-97942400D02*
X208584800Y-101346000D01*
X208584800Y-101346000D02*
X209645000Y-101346000D01*
D35*
X213868000Y-97429000D02*
X213213000Y-97429000D01*
X213213000Y-97429000D02*
X209645000Y-100997000D01*
X209645000Y-100997000D02*
X209645000Y-101346000D01*
X214200000Y-90591500D02*
X212688688Y-90591500D01*
X212688688Y-90591500D02*
X210504594Y-92775594D01*
X213848000Y-97409000D02*
X213868000Y-97429000D01*
X213836000Y-94424500D02*
X213836000Y-97397000D01*
X213836000Y-97397000D02*
X213868000Y-97429000D01*
X213836000Y-94424500D02*
X213836000Y-90955500D01*
X213836000Y-90955500D02*
X214200000Y-90591500D01*
D36*
X176464000Y-117922000D02*
X176464000Y-119042000D01*
X176657000Y-117729000D02*
X176464000Y-117922000D01*
X177546000Y-117729000D02*
X176657000Y-117729000D01*
X203388000Y-117645000D02*
X203497000Y-117645000D01*
X203497000Y-117645000D02*
X205593000Y-119741000D01*
X205593000Y-119741000D02*
X205740000Y-119741000D01*
D37*
X212191600Y-137085200D02*
X210844000Y-137085200D01*
X210844000Y-137085200D02*
X210820000Y-137109200D01*
X206268000Y-134670800D02*
X206268000Y-136955600D01*
X206268000Y-136955600D02*
X206266800Y-136956800D01*
X206266800Y-136956800D02*
X208811600Y-136956800D01*
X208811600Y-136956800D02*
X208942800Y-137088000D01*
X196443600Y-129387600D02*
X196088000Y-129743200D01*
X201320400Y-129387600D02*
X196443600Y-129387600D01*
X201777600Y-129844800D02*
X201320400Y-129387600D01*
D36*
X169338000Y-101045000D02*
X169338000Y-103124000D01*
X170688000Y-99695000D02*
X169338000Y-101045000D01*
X170688000Y-98044000D02*
X170688000Y-99695000D01*
D37*
X169338000Y-103124000D02*
X169291000Y-103077000D01*
X184988000Y-121158000D02*
X184988000Y-118694000D01*
X184988000Y-118694000D02*
X184404000Y-118110000D01*
X185293000Y-116840000D02*
X185039000Y-116586000D01*
X185988000Y-117535000D02*
X185293000Y-116840000D01*
X185988000Y-121158000D02*
X185988000Y-118170000D01*
X185988000Y-118170000D02*
X185988000Y-117535000D01*
X185039000Y-116586000D02*
X184658000Y-116586000D01*
X184912000Y-115824000D02*
X184658000Y-115570000D01*
X188658500Y-112966500D02*
X187452000Y-114173000D01*
X187452000Y-114173000D02*
X186753500Y-114173000D01*
X188658500Y-112966500D02*
X188531500Y-112966500D01*
X194611000Y-116332000D02*
X194484000Y-116459000D01*
X194484000Y-116459000D02*
X193882000Y-116459000D01*
X193882000Y-116459000D02*
X194611000Y-116332000D01*
X193882000Y-116459000D02*
X193294000Y-116459000D01*
X185420000Y-116078000D02*
X185420000Y-116141500D01*
X185166000Y-115824000D02*
X185420000Y-116078000D01*
X185102500Y-115824000D02*
X185166000Y-115824000D01*
X184912000Y-115824000D02*
X185102500Y-115824000D01*
X186499500Y-117284500D02*
X186499500Y-117221000D01*
X185420000Y-116141500D02*
X185737500Y-116459000D01*
X186499500Y-117665500D02*
X186499500Y-117284500D01*
X186499500Y-117602000D02*
X186499500Y-117665500D01*
X186499500Y-117602000D02*
X186499500Y-118872000D01*
X186499500Y-117221000D02*
X185737500Y-116459000D01*
X185293000Y-116014500D02*
X185420000Y-116141500D01*
X186488000Y-121158000D02*
X186499500Y-121146500D01*
X186499500Y-121146500D02*
X186499500Y-118872000D01*
X186499500Y-118872000D02*
X186499500Y-118808500D01*
X186182000Y-122289996D02*
X183503996Y-122289996D01*
X186988000Y-121158000D02*
X186988000Y-122245996D01*
X186988000Y-122245996D02*
X186944000Y-122289996D01*
X186182000Y-122289996D02*
X186944000Y-122289996D01*
X183134000Y-121920000D02*
X183134000Y-121412000D01*
X183503996Y-122289996D02*
X183134000Y-121920000D01*
X181356000Y-121412000D02*
X181070000Y-121126000D01*
X181070000Y-121126000D02*
X179705000Y-121126000D01*
X182499000Y-121539000D02*
X182372000Y-121412000D01*
X183134000Y-122783600D02*
X182499000Y-122148600D01*
X182499000Y-122148600D02*
X182499000Y-122047000D01*
X183642000Y-122739998D02*
X183598398Y-122783600D01*
X183642000Y-122739998D02*
X185674000Y-122739998D01*
X187198000Y-122682000D02*
X187140002Y-122739998D01*
X187451301Y-122300301D02*
X187452000Y-122301000D01*
X187451301Y-121194699D02*
X187451301Y-122300301D01*
X187452000Y-122301000D02*
X187452000Y-122428000D01*
X187198000Y-122682000D02*
X187452000Y-122428000D01*
X187140002Y-122739998D02*
X186436000Y-122739998D01*
X185674000Y-122739998D02*
X186436000Y-122739998D01*
X183598398Y-122783600D02*
X183134000Y-122783600D01*
X182499000Y-121539000D02*
X182499000Y-122047000D01*
X182372000Y-121412000D02*
X181356000Y-121412000D01*
X181356000Y-121412000D02*
X181229000Y-121412000D01*
X187488000Y-121158000D02*
X187451301Y-121194699D01*
X187488000Y-121158000D02*
X187515500Y-121130500D01*
X183388000Y-123444000D02*
X183515000Y-123317000D01*
X183515000Y-123317000D02*
X183642000Y-123317000D01*
X183642000Y-123317000D02*
X184721500Y-123317000D01*
X184721500Y-123317000D02*
X184848500Y-123190000D01*
X187960000Y-122682000D02*
X187988000Y-122654000D01*
X187198000Y-123190000D02*
X184848500Y-123190000D01*
X187960000Y-122682000D02*
X187452000Y-123190000D01*
X187452000Y-123190000D02*
X187198000Y-123190000D01*
X187988000Y-121158000D02*
X187988000Y-122400000D01*
X187988000Y-122654000D02*
X187988000Y-122400000D01*
X187988000Y-121158000D02*
X187988000Y-122146000D01*
X183896000Y-124079000D02*
X188087000Y-124079000D01*
X188087000Y-124079000D02*
X188468000Y-123698000D01*
X188976000Y-123190000D02*
X188468000Y-123698000D01*
X188976000Y-123190000D02*
X189484000Y-122682000D01*
X189484000Y-122682000D02*
X189484000Y-121162000D01*
X189484000Y-121162000D02*
X189488000Y-121158000D01*
X189988000Y-119892000D02*
X189988000Y-121158000D01*
X190754000Y-119126000D02*
X189988000Y-119892000D01*
X191262000Y-119126000D02*
X190754000Y-119126000D01*
X188976000Y-124460000D02*
X188595000Y-124841000D01*
X190488000Y-122948000D02*
X188976000Y-124460000D01*
X190488000Y-121158000D02*
X190488000Y-122948000D01*
X188595000Y-124841000D02*
X183388000Y-124841000D01*
X191516000Y-123698000D02*
X191516000Y-124460000D01*
X183896000Y-125730000D02*
X189484000Y-125730000D01*
X191516000Y-121186000D02*
X191516000Y-123698000D01*
X190246000Y-125730000D02*
X189484000Y-125730000D01*
X191516000Y-124460000D02*
X190246000Y-125730000D01*
X191516000Y-121186000D02*
X191488000Y-121158000D01*
X191988000Y-121158000D02*
X191988000Y-126456000D01*
X191988000Y-126456000D02*
X192024000Y-126492000D01*
X192532000Y-125984000D02*
X193040000Y-126492000D01*
X189992000Y-127000000D02*
X183896000Y-127000000D01*
X192488000Y-125940000D02*
X192532000Y-125984000D01*
X192488000Y-125940000D02*
X192488000Y-124460000D01*
X190246000Y-127254000D02*
X189992000Y-127000000D01*
X192786000Y-127254000D02*
X190246000Y-127254000D01*
X193040000Y-127000000D02*
X192786000Y-127254000D01*
X193040000Y-126492000D02*
X193040000Y-127000000D01*
X192488000Y-124504000D02*
X192488000Y-124460000D01*
X192488000Y-124460000D02*
X192488000Y-121158000D01*
X192988000Y-121158000D02*
X192988000Y-117908000D01*
X193167000Y-117729000D02*
X192988000Y-117908000D01*
X194437000Y-117729000D02*
X193167000Y-117729000D01*
X193488000Y-123130000D02*
X193488000Y-121158000D01*
X193802000Y-123444000D02*
X193488000Y-123130000D01*
X193988000Y-119702000D02*
X193988000Y-121158000D01*
X194310000Y-119380000D02*
X193988000Y-119702000D01*
X194488000Y-121158000D02*
X194488000Y-122606000D01*
X194488000Y-122606000D02*
X194564000Y-122682000D01*
X207518000Y-125425200D02*
X207314800Y-125628400D01*
X205181200Y-126593600D02*
X206146400Y-125628400D01*
X206146400Y-125628400D02*
X206502000Y-125628400D01*
X204063600Y-126593600D02*
X205181200Y-126593600D01*
X208026000Y-124917200D02*
X207518000Y-125425200D01*
X208229200Y-124409200D02*
X208229200Y-124053600D01*
X208229200Y-124409200D02*
X208026000Y-124612400D01*
X208026000Y-124612400D02*
X208026000Y-124917200D01*
X207314800Y-125628400D02*
X206502000Y-125628400D01*
X208229200Y-124053600D02*
X208229200Y-123901200D01*
X204063600Y-126593600D02*
X204114400Y-126593600D01*
X203657200Y-127000000D02*
X204063600Y-126593600D01*
X202488800Y-127000000D02*
X203657200Y-127000000D01*
X202285600Y-127203200D02*
X202488800Y-127000000D01*
X205435200Y-125120400D02*
X206705200Y-125120400D01*
X206705200Y-125120400D02*
X206705200Y-125069600D01*
X206705200Y-125069600D02*
X207264000Y-124510800D01*
X204927200Y-125628400D02*
X205435200Y-125120400D01*
X203911200Y-125628400D02*
X204927200Y-125628400D01*
X203911200Y-125628400D02*
X204317600Y-125628400D01*
X212026500Y-127571500D02*
X211856320Y-127571500D01*
X212026500Y-127571500D02*
X211963000Y-127571500D01*
X211963000Y-127571500D02*
X212156500Y-127765000D01*
X212156500Y-127765000D02*
X211856320Y-129413000D01*
X212156500Y-125976000D02*
X212156500Y-129112820D01*
X212156500Y-129112820D02*
X211856320Y-129413000D01*
X211856320Y-129413000D02*
X211856320Y-127571500D01*
X211856320Y-127571500D02*
X211856320Y-127475820D01*
X211856320Y-127475820D02*
X211256500Y-126876000D01*
X209356500Y-127508000D02*
X209804000Y-127508000D01*
X209740500Y-127508000D02*
X209740500Y-127571500D01*
X209804000Y-127508000D02*
X209740500Y-127508000D01*
X209356500Y-127635000D02*
X209534760Y-127635000D01*
X209534760Y-127635000D02*
X209605880Y-127706120D01*
X209359500Y-127762000D02*
X209550000Y-127762000D01*
X209550000Y-127762000D02*
X209605880Y-127706120D01*
X209356500Y-127762000D02*
X209359500Y-127762000D01*
X209550000Y-127762000D02*
X209605880Y-127706120D01*
X209356500Y-125976000D02*
X209356500Y-127508000D01*
X209356500Y-127508000D02*
X209356500Y-127635000D01*
X209356500Y-127635000D02*
X209356500Y-127762000D01*
X209356500Y-127762000D02*
X209356500Y-129163620D01*
X209356500Y-129163620D02*
X209605880Y-129413000D01*
X210256500Y-126876000D02*
X210256500Y-127055500D01*
X210256500Y-127055500D02*
X209740500Y-127571500D01*
X209740500Y-127571500D02*
X209605880Y-127706120D01*
X209605880Y-127706120D02*
X209605880Y-129413000D01*
X198780400Y-96469200D02*
X198780400Y-95250000D01*
X198780400Y-95250000D02*
X198723500Y-95193100D01*
D35*
X200896786Y-90279786D02*
X200896786Y-90377714D01*
X200896786Y-90377714D02*
X198723500Y-92551000D01*
X198723500Y-92551000D02*
X198723500Y-95193100D01*
X198723500Y-95193100D02*
X198723500Y-101282500D01*
X194422000Y-90091500D02*
X197119000Y-90091500D01*
X199961500Y-89344500D02*
X200896786Y-90279786D01*
X197866000Y-89344500D02*
X199961500Y-89344500D01*
X197119000Y-90091500D02*
X197866000Y-89344500D01*
X192200000Y-90091500D02*
X194422000Y-90091500D01*
D37*
X171754800Y-137186800D02*
X170714800Y-137186800D01*
X170714800Y-137186800D02*
X170637200Y-137109200D01*
X192836800Y-127787400D02*
X192888998Y-127787400D01*
X192888998Y-127787400D02*
X194590798Y-126085600D01*
X194868800Y-126085600D02*
X199720200Y-121234200D01*
X194590798Y-126085600D02*
X194868800Y-126085600D01*
X190271400Y-127787400D02*
X192836800Y-127787400D01*
X189534800Y-127965200D02*
X190093600Y-127965200D01*
X190093600Y-127965200D02*
X190271400Y-127787400D01*
X190271400Y-127787400D02*
X190296800Y-127762000D01*
X199212200Y-115493800D02*
X198729600Y-115011200D01*
X198729600Y-115011200D02*
X197053200Y-115011200D01*
X199720200Y-121234200D02*
X199720200Y-116001800D01*
X199720200Y-116001800D02*
X199212200Y-115493800D01*
X199212200Y-115493800D02*
X199186800Y-115468400D01*
X182778400Y-127965200D02*
X189534800Y-127965200D01*
X177850800Y-133197600D02*
X182778400Y-128270000D01*
X182778400Y-128270000D02*
X182778400Y-127965200D01*
X199720200Y-121234200D02*
X199745600Y-121208800D01*
X194691000Y-101600000D02*
X194754500Y-101600000D01*
X194754500Y-101600000D02*
X194691000Y-101600000D01*
X194691000Y-101600000D02*
X194754500Y-101600000D01*
X195135500Y-107505500D02*
X196977000Y-105664000D01*
X178689000Y-110490000D02*
X178689000Y-109220000D01*
X177032498Y-112146502D02*
X178689000Y-110490000D01*
X176339500Y-112146502D02*
X177032498Y-112146502D01*
X178689000Y-109220000D02*
X180403500Y-107505500D01*
X180403500Y-107505500D02*
X195135500Y-107505500D01*
X208595406Y-90866406D02*
X205293406Y-90866406D01*
X194754500Y-94297500D02*
X194754500Y-101600000D01*
X195961000Y-93091000D02*
X194754500Y-94297500D01*
X205293406Y-90866406D02*
X204724000Y-90297000D01*
X206499906Y-92263406D02*
X207261906Y-92263406D01*
D35*
X208595406Y-90866406D02*
X208595406Y-90929906D01*
X208595406Y-90929906D02*
X207261906Y-92263406D01*
D37*
X176466500Y-112146502D02*
X176339500Y-112146502D01*
X174498000Y-112268000D02*
X176218002Y-112268000D01*
X176218002Y-112268000D02*
X176339500Y-112146502D01*
X173037500Y-113728500D02*
X173926500Y-112839500D01*
X171577000Y-113728500D02*
X173037500Y-113728500D01*
X170815000Y-114490500D02*
X171577000Y-113728500D01*
X173926500Y-112839500D02*
X174498000Y-112268000D01*
X171323000Y-117221000D02*
X170878500Y-117221000D01*
X173037500Y-127952500D02*
X171958000Y-126873000D01*
X171958000Y-126873000D02*
X171513500Y-126428500D01*
X171513500Y-126428500D02*
X171513500Y-117411500D01*
X171513500Y-117411500D02*
X171323000Y-117221000D01*
X176276000Y-130683000D02*
X175768000Y-130683000D01*
X175768000Y-130683000D02*
X173545500Y-128460500D01*
X178117500Y-128841500D02*
X176657000Y-130302000D01*
X178117500Y-127508000D02*
X178117500Y-128841500D01*
X176657000Y-130302000D02*
X176276000Y-130683000D01*
X173545500Y-128460500D02*
X173037500Y-127952500D01*
X170878500Y-117221000D02*
X170815000Y-117157500D01*
D35*
X203725214Y-93108214D02*
X205532286Y-94915286D01*
D37*
X202057000Y-94234000D02*
X203182786Y-93108214D01*
X195580000Y-101473000D02*
X195580000Y-95123000D01*
X195580000Y-102171500D02*
X195580000Y-101473000D01*
X179705000Y-106934000D02*
X177990500Y-108648500D01*
X194056000Y-106934000D02*
X179832000Y-106934000D01*
X195389500Y-105600500D02*
X194056000Y-106934000D01*
X179832000Y-106934000D02*
X179705000Y-106934000D01*
X177990500Y-108648500D02*
X177990500Y-110299500D01*
X172910500Y-112966500D02*
X171640500Y-112966500D01*
X173736000Y-112141000D02*
X172910500Y-112966500D01*
X171640500Y-112966500D02*
X170751500Y-113855500D01*
X175196500Y-130810000D02*
X175577500Y-131191000D01*
X175196500Y-130810000D02*
X170688000Y-126301500D01*
X170624500Y-126238000D02*
X170688000Y-126301500D01*
X176530000Y-131191000D02*
X178212750Y-129508250D01*
X175577500Y-131191000D02*
X176530000Y-131191000D01*
X170624500Y-126238000D02*
X170307000Y-125920500D01*
X170116500Y-125730000D02*
X170307000Y-125920500D01*
X170116500Y-116649500D02*
X170116500Y-125730000D01*
X170116500Y-113855500D02*
X170751500Y-113855500D01*
X174180500Y-111696500D02*
X173736000Y-112141000D01*
X176530000Y-111696500D02*
X174180500Y-111696500D01*
X176593500Y-111696500D02*
X177990500Y-110299500D01*
X176530000Y-111696500D02*
X176593500Y-111696500D01*
X195580000Y-95123000D02*
X196977000Y-93726000D01*
X203182786Y-93108214D02*
X203725214Y-93108214D01*
X178212750Y-129508250D02*
X178943000Y-128778000D01*
X178943000Y-126555500D02*
X178625500Y-126238000D01*
X178943000Y-128778000D02*
X178943000Y-126555500D01*
X178244500Y-129476500D02*
X178212750Y-129508250D01*
X170053000Y-104902000D02*
X170688000Y-104902000D01*
X170974000Y-107315000D02*
X169672000Y-106013000D01*
X169672000Y-105283000D02*
X169926000Y-105029000D01*
X169672000Y-105537000D02*
X169672000Y-105283000D01*
X169672000Y-106013000D02*
X169672000Y-105537000D01*
X169926000Y-105029000D02*
X170053000Y-104902000D01*
X168300400Y-109728000D02*
X170974000Y-109728000D01*
X168097200Y-109524800D02*
X168300400Y-109728000D01*
X170847000Y-109601000D02*
X170974000Y-109728000D01*
X170847000Y-109601000D02*
X170974000Y-109728000D01*
X170720000Y-109474000D02*
X170974000Y-109728000D01*
X170847000Y-109601000D02*
X170974000Y-109728000D01*
X170974000Y-109728000D02*
X170720000Y-109474000D01*
X185134500Y-93853000D02*
X185674000Y-93853000D01*
X185674000Y-93853000D02*
X186753500Y-94932500D01*
D36*
X172038000Y-103124000D02*
X172038000Y-103585000D01*
X172038000Y-103585000D02*
X172720000Y-104267000D01*
D37*
X172720000Y-103806000D02*
X172038000Y-103124000D01*
X172720000Y-104267000D02*
X172720000Y-103806000D01*
X185134500Y-96393000D02*
X185737500Y-96393000D01*
X185737500Y-96393000D02*
X186690000Y-97345500D01*
X185134500Y-101473000D02*
X185610500Y-101473000D01*
X185610500Y-101473000D02*
X186690000Y-102552500D01*
X185134500Y-104076500D02*
X185610500Y-104076500D01*
X185610500Y-104076500D02*
X186626500Y-105092500D01*
X185134500Y-91313000D02*
X185737500Y-91313000D01*
X185737500Y-91313000D02*
X186563000Y-92138500D01*
X185134500Y-91313000D02*
X184277000Y-91313000D01*
X176631600Y-100920800D02*
X176631600Y-100685600D01*
X176631600Y-100685600D02*
X175387000Y-99441000D01*
X176657000Y-100997000D02*
X175387000Y-99727000D01*
X175387000Y-99727000D02*
X175387000Y-99441000D01*
X175387000Y-99441000D02*
X175387000Y-102997000D01*
X175387000Y-102997000D02*
X174371000Y-104013000D01*
X185134500Y-98933000D02*
X186055000Y-98933000D01*
X186055000Y-98933000D02*
X186944000Y-99822000D01*
D38*
G36*
X208281068Y-89276603D02*
X208066886Y-89418648D01*
X207379128Y-90106406D01*
X205656920Y-90106406D01*
X205517117Y-89768057D01*
X205254327Y-89504808D01*
X204910799Y-89362162D01*
X204538833Y-89361838D01*
X204195057Y-89503883D01*
X203931808Y-89766673D01*
X203789162Y-90110201D01*
X203788838Y-90482167D01*
X203930883Y-90825943D01*
X204193673Y-91089192D01*
X204537201Y-91231838D01*
X204584077Y-91231879D01*
X204756005Y-91403807D01*
X205002567Y-91568554D01*
X205293406Y-91626406D01*
X205922628Y-91626406D01*
X205814148Y-91734886D01*
X205679063Y-91932589D01*
X205624579Y-92183751D01*
X205672103Y-92436322D01*
X205814148Y-92650504D01*
X205958586Y-92794942D01*
X205962505Y-92800807D01*
X205968370Y-92804726D01*
X206874808Y-93711164D01*
X207072511Y-93846249D01*
X207323673Y-93900733D01*
X207576244Y-93853209D01*
X207604626Y-93834386D01*
X207546144Y-93975574D01*
X207546145Y-94228193D01*
X207642818Y-94461582D01*
X208060406Y-94879170D01*
X208284912Y-94879170D01*
X208991489Y-94172594D01*
X208977347Y-94158452D01*
X209156952Y-93978847D01*
X209171094Y-93992989D01*
X209185236Y-93978846D01*
X209364842Y-94158452D01*
X209350699Y-94172594D01*
X210127986Y-94949881D01*
X210352493Y-94949881D01*
X210520742Y-94781631D01*
X210699371Y-94603003D01*
X210796004Y-94369711D01*
X210818932Y-94365397D01*
X211033114Y-94223352D01*
X211952352Y-93304114D01*
X212087437Y-93106411D01*
X212120017Y-92956223D01*
X212412583Y-92663656D01*
X212448110Y-92687931D01*
X212566000Y-92711804D01*
X212566000Y-96363244D01*
X212314974Y-96530974D01*
X209047388Y-99798560D01*
X208395000Y-99798560D01*
X208310496Y-99814460D01*
X207267353Y-98771317D01*
X207512716Y-98771317D01*
X207512716Y-98995823D01*
X208107081Y-99590188D01*
X208340470Y-99686861D01*
X208593089Y-99686862D01*
X208826478Y-99590189D01*
X209314778Y-99101889D01*
X209314778Y-98877383D01*
X208360714Y-97923319D01*
X207512716Y-98771317D01*
X207267353Y-98771317D01*
X206476567Y-97980531D01*
X206476632Y-97906553D01*
X206514240Y-97997347D01*
X207108605Y-98591712D01*
X207333111Y-98591712D01*
X208181109Y-97743714D01*
X208540319Y-97743714D01*
X209494383Y-98697778D01*
X209718889Y-98697778D01*
X210207189Y-98209478D01*
X210303862Y-97976089D01*
X210303861Y-97723470D01*
X210207188Y-97490081D01*
X209612823Y-96895716D01*
X209388317Y-96895716D01*
X208540319Y-97743714D01*
X208181109Y-97743714D01*
X207227045Y-96789650D01*
X207002539Y-96789650D01*
X206514239Y-97277950D01*
X206436157Y-97466457D01*
X206187522Y-96864714D01*
X206040934Y-96717870D01*
X206096161Y-96681243D01*
X206391865Y-96385539D01*
X207406650Y-96385539D01*
X207406650Y-96610045D01*
X208360714Y-97564109D01*
X209208712Y-96716111D01*
X209208712Y-96491605D01*
X208614347Y-95897240D01*
X208380958Y-95800567D01*
X208128339Y-95800566D01*
X207894950Y-95897239D01*
X207406650Y-96385539D01*
X206391865Y-96385539D01*
X207298243Y-95479161D01*
X207433328Y-95281458D01*
X207481633Y-95058776D01*
X208464518Y-95058776D01*
X208464518Y-95283282D01*
X208882106Y-95700870D01*
X209115495Y-95797543D01*
X209368114Y-95797544D01*
X209601503Y-95700871D01*
X209780131Y-95522242D01*
X209948381Y-95353993D01*
X209948381Y-95129486D01*
X209171094Y-94352199D01*
X208464518Y-95058776D01*
X207481633Y-95058776D01*
X207487812Y-95030296D01*
X207440288Y-94777725D01*
X207298243Y-94563543D01*
X205884029Y-93149329D01*
X205686326Y-93014244D01*
X205639507Y-93004088D01*
X205633216Y-92970653D01*
X205491171Y-92756471D01*
X204076957Y-91342257D01*
X203879254Y-91207172D01*
X203628092Y-91152688D01*
X203375521Y-91200212D01*
X203161339Y-91342257D01*
X201959257Y-92544339D01*
X201824172Y-92742042D01*
X201769688Y-92993204D01*
X201817212Y-93245775D01*
X201856582Y-93305139D01*
X201528057Y-93440883D01*
X201264808Y-93703673D01*
X201122162Y-94047201D01*
X201121838Y-94419167D01*
X201263883Y-94762943D01*
X201526673Y-95026192D01*
X201870201Y-95168838D01*
X202242167Y-95169162D01*
X202585943Y-95027117D01*
X202849192Y-94764327D01*
X202970789Y-94471489D01*
X203373471Y-94874171D01*
X203571174Y-95009256D01*
X203617993Y-95019412D01*
X203624284Y-95052847D01*
X203766329Y-95267029D01*
X204536669Y-96037369D01*
X204194335Y-96037070D01*
X203493914Y-96326478D01*
X202957561Y-96861895D01*
X202666932Y-97561810D01*
X202666270Y-98319665D01*
X202955678Y-99020086D01*
X203491095Y-99556439D01*
X203921264Y-99735060D01*
X201473500Y-99735060D01*
X201238183Y-99779338D01*
X201022059Y-99918410D01*
X200877069Y-100130610D01*
X200826060Y-100382500D01*
X200826060Y-102182500D01*
X200870338Y-102417817D01*
X201009410Y-102633941D01*
X201221610Y-102778931D01*
X201473500Y-102829940D01*
X203973500Y-102829940D01*
X204092153Y-102807614D01*
X204143110Y-102842431D01*
X204375000Y-102889390D01*
X204375000Y-103790995D01*
X204374999Y-103791000D01*
X204471673Y-104277008D01*
X204746974Y-104689026D01*
X208407000Y-108349052D01*
X208407000Y-114300000D01*
X208503673Y-114786008D01*
X208778974Y-115198026D01*
X209190992Y-115473327D01*
X209677000Y-115570000D01*
X210163008Y-115473327D01*
X210575026Y-115198026D01*
X210850327Y-114786008D01*
X210947000Y-114300000D01*
X210947000Y-110299500D01*
X211196591Y-110299500D01*
X211321048Y-110925187D01*
X211675471Y-111455620D01*
X212205904Y-111810043D01*
X212831591Y-111934500D01*
X213507409Y-111934500D01*
X214133096Y-111810043D01*
X214663529Y-111455620D01*
X215017952Y-110925187D01*
X215142409Y-110299500D01*
X215017952Y-109673813D01*
X214778407Y-109315308D01*
X214920941Y-109223590D01*
X215065931Y-109011390D01*
X215116940Y-108759500D01*
X215116940Y-106759500D01*
X215072662Y-106524183D01*
X214933590Y-106308059D01*
X214721390Y-106163069D01*
X214469500Y-106112060D01*
X211869500Y-106112060D01*
X211634183Y-106156338D01*
X211418059Y-106295410D01*
X211273069Y-106507610D01*
X211222060Y-106759500D01*
X211222060Y-108759500D01*
X211266338Y-108994817D01*
X211405410Y-109210941D01*
X211559829Y-109316451D01*
X211321048Y-109673813D01*
X211196591Y-110299500D01*
X210947000Y-110299500D01*
X210947000Y-107823000D01*
X210850327Y-107336992D01*
X210575026Y-106924974D01*
X207527302Y-103877250D01*
X212065000Y-103877250D01*
X212065000Y-105217810D01*
X212161673Y-105451199D01*
X212340302Y-105629827D01*
X212573691Y-105726500D01*
X213914250Y-105726500D01*
X214073000Y-105567750D01*
X214073000Y-103718500D01*
X212223750Y-103718500D01*
X212065000Y-103877250D01*
X207527302Y-103877250D01*
X206915000Y-103264948D01*
X206915000Y-102889677D01*
X207130317Y-102849162D01*
X207346441Y-102710090D01*
X207491431Y-102497890D01*
X207542440Y-102246000D01*
X207542440Y-101560876D01*
X207747560Y-101765996D01*
X207747560Y-102246000D01*
X207791838Y-102481317D01*
X207930910Y-102697441D01*
X208143110Y-102842431D01*
X208395000Y-102893440D01*
X210895000Y-102893440D01*
X211130317Y-102849162D01*
X211346441Y-102710090D01*
X211491431Y-102497890D01*
X211542440Y-102246000D01*
X211542440Y-101965190D01*
X212065000Y-101965190D01*
X212065000Y-103305750D01*
X212223750Y-103464500D01*
X214073000Y-103464500D01*
X214073000Y-101615250D01*
X213914250Y-101456500D01*
X212573691Y-101456500D01*
X212340302Y-101553173D01*
X212161673Y-101731801D01*
X212065000Y-101965190D01*
X211542440Y-101965190D01*
X211542440Y-100895612D01*
X212223302Y-100214750D01*
X212608000Y-100214750D01*
X212608000Y-100805309D01*
X212704673Y-101038698D01*
X212883301Y-101217327D01*
X213116690Y-101314000D01*
X213582250Y-101314000D01*
X213741000Y-101155250D01*
X213741000Y-100056000D01*
X213995000Y-100056000D01*
X213995000Y-101155250D01*
X214153750Y-101314000D01*
X214619310Y-101314000D01*
X214852699Y-101217327D01*
X215031327Y-101038698D01*
X215128000Y-100805309D01*
X215128000Y-100214750D01*
X214969250Y-100056000D01*
X213995000Y-100056000D01*
X213741000Y-100056000D01*
X212766750Y-100056000D01*
X212608000Y-100214750D01*
X212223302Y-100214750D01*
X212701401Y-99736651D01*
X212766750Y-99802000D01*
X213741000Y-99802000D01*
X213741000Y-99782000D01*
X213995000Y-99782000D01*
X213995000Y-99802000D01*
X214969250Y-99802000D01*
X215128000Y-99643250D01*
X215128000Y-99052691D01*
X215031327Y-98819302D01*
X214890090Y-98678064D01*
X214944441Y-98643090D01*
X215089431Y-98430890D01*
X215140440Y-98179000D01*
X215140440Y-96679000D01*
X215106000Y-96495967D01*
X215106000Y-92738940D01*
X215700000Y-92738940D01*
X215935317Y-92694662D01*
X216151441Y-92555590D01*
X216206000Y-92475740D01*
X216206000Y-101699474D01*
X216059698Y-101553173D01*
X215826309Y-101456500D01*
X214485750Y-101456500D01*
X214327000Y-101615250D01*
X214327000Y-103464500D01*
X214347000Y-103464500D01*
X214347000Y-103718500D01*
X214327000Y-103718500D01*
X214327000Y-105567750D01*
X214485750Y-105726500D01*
X215826309Y-105726500D01*
X216059698Y-105629827D01*
X216206000Y-105483526D01*
X216206000Y-120370147D01*
X216064747Y-120158746D01*
X215582978Y-119836839D01*
X215014693Y-119723800D01*
X214956507Y-119723800D01*
X214388222Y-119836839D01*
X213906453Y-120158746D01*
X213584546Y-120640515D01*
X213471507Y-121208800D01*
X213584546Y-121777085D01*
X213906453Y-122258854D01*
X214235626Y-122478800D01*
X213945390Y-122672729D01*
X213835617Y-122407057D01*
X213572827Y-122143808D01*
X213229299Y-122001162D01*
X212857333Y-122000838D01*
X212513557Y-122142883D01*
X212250308Y-122405673D01*
X212107662Y-122749201D01*
X212107338Y-123121167D01*
X212160900Y-123250798D01*
X211956605Y-123455093D01*
X211919827Y-123366302D01*
X211741199Y-123187673D01*
X211507810Y-123091000D01*
X211477750Y-123091000D01*
X211319000Y-123249750D01*
X211319000Y-123265474D01*
X211241199Y-123187673D01*
X211054653Y-123110403D01*
X211035250Y-123091000D01*
X211016500Y-123091000D01*
X211016500Y-122982477D01*
X211040692Y-122958327D01*
X211183338Y-122614799D01*
X211183662Y-122242833D01*
X211041617Y-121899057D01*
X211016500Y-121873896D01*
X211016500Y-121594245D01*
X211221861Y-121594245D01*
X211295995Y-121840364D01*
X211833223Y-122033465D01*
X212403454Y-122006278D01*
X212804005Y-121840364D01*
X212878139Y-121594245D01*
X212050000Y-120766105D01*
X211221861Y-121594245D01*
X211016500Y-121594245D01*
X211016500Y-121406881D01*
X211042255Y-121414639D01*
X211870395Y-120586500D01*
X212229605Y-120586500D01*
X213057745Y-121414639D01*
X213303864Y-121340505D01*
X213496965Y-120803277D01*
X213469778Y-120233046D01*
X213303864Y-119832495D01*
X213057745Y-119758361D01*
X212229605Y-120586500D01*
X211870395Y-120586500D01*
X211042255Y-119758361D01*
X210994833Y-119772645D01*
X210958351Y-119578755D01*
X211221861Y-119578755D01*
X212050000Y-120406895D01*
X212878139Y-119578755D01*
X212804005Y-119332636D01*
X212266777Y-119139535D01*
X211696546Y-119166722D01*
X211295995Y-119332636D01*
X211221861Y-119578755D01*
X210958351Y-119578755D01*
X210953162Y-119551183D01*
X210814090Y-119335059D01*
X210703648Y-119259597D01*
X210977327Y-118850008D01*
X211074001Y-118364000D01*
X210977327Y-117877992D01*
X210702026Y-117465974D01*
X210290008Y-117190673D01*
X209804000Y-117093999D01*
X209740500Y-117106630D01*
X209677000Y-117093999D01*
X209190992Y-117190673D01*
X208778974Y-117465974D01*
X208503673Y-117877992D01*
X208406999Y-118364000D01*
X208503673Y-118850008D01*
X208702751Y-119147950D01*
X208514683Y-119183338D01*
X208298559Y-119322410D01*
X208153569Y-119534610D01*
X208102560Y-119786500D01*
X208102560Y-121386500D01*
X208146838Y-121621817D01*
X208285910Y-121837941D01*
X208498110Y-121982931D01*
X208750000Y-122033940D01*
X209399725Y-122033940D01*
X209313662Y-122241201D01*
X209313338Y-122613167D01*
X209455383Y-122956943D01*
X209496500Y-122998132D01*
X209496500Y-123664569D01*
X209484060Y-123726000D01*
X209484060Y-124184335D01*
X209480059Y-124186910D01*
X209468683Y-124203560D01*
X209164070Y-124203560D01*
X209164362Y-123868433D01*
X209022317Y-123524657D01*
X208759527Y-123261408D01*
X208415999Y-123118762D01*
X208044033Y-123118438D01*
X207700257Y-123260483D01*
X207437008Y-123523273D01*
X207415142Y-123575931D01*
X207078833Y-123575638D01*
X206735057Y-123717683D01*
X206471808Y-123980473D01*
X206329162Y-124324001D01*
X206329130Y-124360400D01*
X205435200Y-124360400D01*
X205144361Y-124418252D01*
X205084874Y-124458000D01*
X204897799Y-124582999D01*
X204612398Y-124868400D01*
X204473663Y-124868400D01*
X204441527Y-124836208D01*
X204097999Y-124693562D01*
X203726033Y-124693238D01*
X203382257Y-124835283D01*
X203119008Y-125098073D01*
X202976362Y-125441601D01*
X202976038Y-125813567D01*
X203118083Y-126157343D01*
X203200596Y-126240000D01*
X202488800Y-126240000D01*
X202346766Y-126268253D01*
X202100433Y-126268038D01*
X201756657Y-126410083D01*
X201493408Y-126672873D01*
X201350762Y-127016401D01*
X201350438Y-127388367D01*
X201492483Y-127732143D01*
X201755273Y-127995392D01*
X202098801Y-128138038D01*
X202470767Y-128138362D01*
X202814543Y-127996317D01*
X203051273Y-127760000D01*
X203657200Y-127760000D01*
X203948039Y-127702148D01*
X203975060Y-127684093D01*
X203975060Y-128689000D01*
X204019338Y-128924317D01*
X204158410Y-129140441D01*
X204370610Y-129285431D01*
X204608701Y-129333646D01*
X204594361Y-129381255D01*
X205422500Y-130209395D01*
X206250639Y-129381255D01*
X206236355Y-129333833D01*
X206457817Y-129292162D01*
X206673941Y-129153090D01*
X206818931Y-128940890D01*
X206869940Y-128689000D01*
X206869940Y-128539052D01*
X206902018Y-128517618D01*
X208596500Y-126823136D01*
X208596500Y-127310931D01*
X208459539Y-127511380D01*
X208408530Y-127763270D01*
X208408530Y-130189343D01*
X208263599Y-130129162D01*
X207891633Y-130128838D01*
X207547857Y-130270883D01*
X207284608Y-130533673D01*
X207238251Y-130645313D01*
X205422564Y-132461000D01*
X205351085Y-132461000D01*
X205273122Y-132272314D01*
X204737705Y-131735961D01*
X204037790Y-131445332D01*
X203436501Y-131444807D01*
X203436542Y-131396745D01*
X204594361Y-131396745D01*
X204668495Y-131642864D01*
X205205723Y-131835965D01*
X205775954Y-131808778D01*
X206176505Y-131642864D01*
X206250639Y-131396745D01*
X205422500Y-130568605D01*
X204594361Y-131396745D01*
X203436542Y-131396745D01*
X203436662Y-131259833D01*
X203294617Y-130916057D01*
X203031827Y-130652808D01*
X202920187Y-130606451D01*
X202604728Y-130290992D01*
X202654045Y-130172223D01*
X203975535Y-130172223D01*
X204002722Y-130742454D01*
X204168636Y-131143005D01*
X204414755Y-131217139D01*
X205242895Y-130389000D01*
X205602105Y-130389000D01*
X206430245Y-131217139D01*
X206676364Y-131143005D01*
X206869465Y-130605777D01*
X206842278Y-130035546D01*
X206676364Y-129634995D01*
X206430245Y-129560861D01*
X205602105Y-130389000D01*
X205242895Y-130389000D01*
X204414755Y-129560861D01*
X204168636Y-129634995D01*
X203975535Y-130172223D01*
X202654045Y-130172223D01*
X202712438Y-130031599D01*
X202712762Y-129659633D01*
X202570717Y-129315857D01*
X202307927Y-129052608D01*
X201964399Y-128909962D01*
X201917523Y-128909921D01*
X201857801Y-128850199D01*
X201611239Y-128685452D01*
X201320400Y-128627600D01*
X196443600Y-128627600D01*
X196152760Y-128685452D01*
X195969211Y-128808096D01*
X195902833Y-128808038D01*
X195559057Y-128950083D01*
X195295808Y-129212873D01*
X195153162Y-129556401D01*
X195152838Y-129928367D01*
X195294883Y-130272143D01*
X195381662Y-130359073D01*
X195356362Y-130420001D01*
X195356038Y-130791967D01*
X195498083Y-131135743D01*
X195760873Y-131398992D01*
X196104401Y-131541638D01*
X196317990Y-131541824D01*
X196342000Y-131546600D01*
X201345864Y-131546600D01*
X201612500Y-131813236D01*
X201612500Y-132194300D01*
X201680171Y-132534506D01*
X201769808Y-132668657D01*
X201836173Y-132767979D01*
X201752532Y-132969410D01*
X201751870Y-133727265D01*
X202041278Y-134427686D01*
X202576695Y-134964039D01*
X202897200Y-135097124D01*
X202897200Y-135251598D01*
X202689438Y-135459360D01*
X201266800Y-135459360D01*
X201031483Y-135503638D01*
X200815359Y-135642710D01*
X200670369Y-135854910D01*
X200619360Y-136106800D01*
X200619360Y-137783500D01*
X199009000Y-137783500D01*
X199009000Y-132080000D01*
X199000315Y-132033841D01*
X198973035Y-131991447D01*
X198931410Y-131963006D01*
X198882000Y-131953000D01*
X180594000Y-131953000D01*
X180547841Y-131961685D01*
X180505447Y-131988965D01*
X180477006Y-132030590D01*
X180467000Y-132080000D01*
X180467000Y-137783500D01*
X176472865Y-137783500D01*
X176638316Y-137385048D01*
X176638884Y-136734605D01*
X176390494Y-136133457D01*
X175930963Y-135673122D01*
X175330248Y-135423684D01*
X174679805Y-135423116D01*
X174078657Y-135671506D01*
X173618322Y-136131037D01*
X173368884Y-136731752D01*
X173368316Y-137382195D01*
X173534132Y-137783500D01*
X172203454Y-137783500D01*
X172292201Y-137724201D01*
X172456948Y-137477639D01*
X172514800Y-137186800D01*
X172456948Y-136895961D01*
X172292201Y-136649399D01*
X172045639Y-136484652D01*
X171754800Y-136426800D01*
X171277128Y-136426800D01*
X171167527Y-136317008D01*
X170823999Y-136174362D01*
X170452033Y-136174038D01*
X170108257Y-136316083D01*
X170007509Y-136416655D01*
X169890494Y-136133457D01*
X169430963Y-135673122D01*
X168830248Y-135423684D01*
X168179805Y-135423116D01*
X167651500Y-135641408D01*
X167651500Y-133986021D01*
X168239061Y-134204308D01*
X168889060Y-134180256D01*
X169377864Y-133977787D01*
X169476527Y-133710932D01*
X174030673Y-133710932D01*
X174129336Y-133977787D01*
X174739061Y-134204308D01*
X175389060Y-134180256D01*
X175877864Y-133977787D01*
X175976527Y-133710932D01*
X175003600Y-132738005D01*
X174030673Y-133710932D01*
X169476527Y-133710932D01*
X168503600Y-132738005D01*
X168489458Y-132752148D01*
X168309853Y-132572543D01*
X168323995Y-132558400D01*
X168309853Y-132544258D01*
X168489458Y-132364653D01*
X168503600Y-132378795D01*
X168517743Y-132364653D01*
X168697348Y-132544258D01*
X168683205Y-132558400D01*
X169656132Y-133531327D01*
X169922987Y-133432664D01*
X170149508Y-132822939D01*
X170129931Y-132293861D01*
X173357692Y-132293861D01*
X173381744Y-132943860D01*
X173584213Y-133432664D01*
X173851068Y-133531327D01*
X174823995Y-132558400D01*
X173851068Y-131585473D01*
X173584213Y-131684136D01*
X173357692Y-132293861D01*
X170129931Y-132293861D01*
X170125456Y-132172940D01*
X169922987Y-131684136D01*
X169656134Y-131585474D01*
X169749892Y-131491716D01*
X170025454Y-131478578D01*
X170426005Y-131312664D01*
X170500139Y-131066545D01*
X169672000Y-130238405D01*
X169657858Y-130252548D01*
X169478252Y-130072942D01*
X169492395Y-130058800D01*
X169851605Y-130058800D01*
X170679745Y-130886939D01*
X170925864Y-130812805D01*
X171118965Y-130275577D01*
X171091778Y-129705346D01*
X170925864Y-129304795D01*
X170679745Y-129230661D01*
X169851605Y-130058800D01*
X169492395Y-130058800D01*
X168664255Y-129230661D01*
X168418136Y-129304795D01*
X168225035Y-129842023D01*
X168252222Y-130412254D01*
X168418136Y-130812805D01*
X168664253Y-130886939D01*
X168633726Y-130917466D01*
X168118140Y-130936544D01*
X167651500Y-131129832D01*
X167651500Y-111804238D01*
X167961201Y-111932838D01*
X168008077Y-111932879D01*
X169250099Y-113174901D01*
X169384729Y-113264858D01*
X169324308Y-113325173D01*
X169181662Y-113668701D01*
X169181338Y-114040667D01*
X169323383Y-114384443D01*
X169586173Y-114647692D01*
X169926705Y-114789094D01*
X170021883Y-115019443D01*
X170284673Y-115282692D01*
X170628201Y-115425338D01*
X171000167Y-115425662D01*
X171343943Y-115283617D01*
X171607192Y-115020827D01*
X171749838Y-114677299D01*
X171749879Y-114630423D01*
X171891802Y-114488500D01*
X172827847Y-114488500D01*
X172796560Y-114643000D01*
X172796560Y-116243000D01*
X172840838Y-116478317D01*
X172979910Y-116694441D01*
X173192110Y-116839431D01*
X173355000Y-116872417D01*
X173355000Y-118722000D01*
X173422671Y-119062206D01*
X173556186Y-119262025D01*
X173591560Y-119314966D01*
X173591560Y-119572000D01*
X173635838Y-119807317D01*
X173774910Y-120023441D01*
X173950232Y-120143233D01*
X173787559Y-120247910D01*
X173642569Y-120460110D01*
X173591560Y-120712000D01*
X173591560Y-121061204D01*
X172936526Y-121716238D01*
X172826057Y-121761883D01*
X172562808Y-122024673D01*
X172420162Y-122368201D01*
X172419838Y-122740167D01*
X172561883Y-123083943D01*
X172824673Y-123347192D01*
X173168201Y-123489838D01*
X173540167Y-123490162D01*
X173883943Y-123348117D01*
X174147192Y-123085327D01*
X174193549Y-122973687D01*
X174747796Y-122419440D01*
X174889000Y-122419440D01*
X175029086Y-122393081D01*
X175062690Y-122407000D01*
X175228250Y-122407000D01*
X175387000Y-122248250D01*
X175387000Y-122167949D01*
X175485431Y-122023890D01*
X175513176Y-121886880D01*
X175535838Y-122007317D01*
X175641000Y-122170743D01*
X175641000Y-122248250D01*
X175768000Y-122375250D01*
X175768000Y-123410307D01*
X175621683Y-123437838D01*
X175405559Y-123576910D01*
X175260569Y-123789110D01*
X175212354Y-124027201D01*
X175164745Y-124012861D01*
X174336605Y-124841000D01*
X175164745Y-125669139D01*
X175212167Y-125654855D01*
X175253838Y-125876317D01*
X175392910Y-126092441D01*
X175605110Y-126237431D01*
X175857000Y-126288440D01*
X177457000Y-126288440D01*
X177690494Y-126244505D01*
X177690338Y-126423167D01*
X177778452Y-126636420D01*
X177588557Y-126714883D01*
X177325308Y-126977673D01*
X177182662Y-127321201D01*
X177182338Y-127693167D01*
X177324383Y-128036943D01*
X177357500Y-128070118D01*
X177357500Y-128526698D01*
X176022000Y-129862198D01*
X172273500Y-126113698D01*
X172273500Y-125848745D01*
X173328861Y-125848745D01*
X173402995Y-126094864D01*
X173940223Y-126287965D01*
X174510454Y-126260778D01*
X174911005Y-126094864D01*
X174985139Y-125848745D01*
X174157000Y-125020605D01*
X173328861Y-125848745D01*
X172273500Y-125848745D01*
X172273500Y-124624223D01*
X172710035Y-124624223D01*
X172737222Y-125194454D01*
X172903136Y-125595005D01*
X173149255Y-125669139D01*
X173977395Y-124841000D01*
X173149255Y-124012861D01*
X172903136Y-124086995D01*
X172710035Y-124624223D01*
X172273500Y-124624223D01*
X172273500Y-123833255D01*
X173328861Y-123833255D01*
X174157000Y-124661395D01*
X174985139Y-123833255D01*
X174911005Y-123587136D01*
X174373777Y-123394035D01*
X173803546Y-123421222D01*
X173402995Y-123587136D01*
X173328861Y-123833255D01*
X172273500Y-123833255D01*
X172273500Y-117411500D01*
X172215648Y-117120661D01*
X172050901Y-116874099D01*
X171860401Y-116683599D01*
X171613839Y-116518852D01*
X171470052Y-116490251D01*
X171345327Y-116365308D01*
X171001799Y-116222662D01*
X170951788Y-116222618D01*
X170909617Y-116120557D01*
X170646827Y-115857308D01*
X170303299Y-115714662D01*
X169931333Y-115714338D01*
X169587557Y-115856383D01*
X169324308Y-116119173D01*
X169181662Y-116462701D01*
X169181338Y-116834667D01*
X169323383Y-117178443D01*
X169356500Y-117211618D01*
X169356500Y-125730000D01*
X169414352Y-126020839D01*
X169474836Y-126111360D01*
X168872000Y-126111360D01*
X168636683Y-126155638D01*
X168420559Y-126294710D01*
X168275569Y-126506910D01*
X168224560Y-126758800D01*
X168224560Y-128358800D01*
X168268838Y-128594117D01*
X168407910Y-128810241D01*
X168620110Y-128955231D01*
X168858201Y-129003446D01*
X168843861Y-129051055D01*
X169672000Y-129879195D01*
X170500139Y-129051055D01*
X170485855Y-129003633D01*
X170707317Y-128961962D01*
X170923441Y-128822890D01*
X171068431Y-128610690D01*
X171119440Y-128358800D01*
X171119440Y-127807742D01*
X174356583Y-131044885D01*
X174129336Y-131139013D01*
X174030673Y-131405868D01*
X175003600Y-132378795D01*
X175017743Y-132364653D01*
X175197348Y-132544258D01*
X175183205Y-132558400D01*
X176156132Y-133531327D01*
X176422987Y-133432664D01*
X176649508Y-132822939D01*
X176625456Y-132172940D01*
X176533257Y-131950352D01*
X176820839Y-131893148D01*
X177067401Y-131728401D01*
X179480401Y-129315401D01*
X179645148Y-129068840D01*
X179657600Y-129006240D01*
X179703000Y-128778000D01*
X179703000Y-126555500D01*
X179645148Y-126264661D01*
X179560588Y-126138107D01*
X179560662Y-126052833D01*
X179418617Y-125709057D01*
X179155827Y-125445808D01*
X178812299Y-125303162D01*
X178440333Y-125302838D01*
X178104440Y-125441626D01*
X178104440Y-124041000D01*
X178060162Y-123805683D01*
X177921090Y-123589559D01*
X177708890Y-123444569D01*
X177546000Y-123411583D01*
X177546000Y-121435000D01*
X177478329Y-121094794D01*
X177436440Y-121032103D01*
X177436440Y-120712000D01*
X177392162Y-120476683D01*
X177253090Y-120260559D01*
X177077768Y-120140767D01*
X177240441Y-120036090D01*
X177385431Y-119823890D01*
X177436440Y-119572000D01*
X177436440Y-118663905D01*
X177731167Y-118664162D01*
X178074943Y-118522117D01*
X178256632Y-118340745D01*
X178316673Y-118485698D01*
X178495301Y-118664327D01*
X178728690Y-118761000D01*
X179419250Y-118761000D01*
X179578000Y-118602250D01*
X179578000Y-117253000D01*
X179832000Y-117253000D01*
X179832000Y-118602250D01*
X179990750Y-118761000D01*
X180681310Y-118761000D01*
X180914699Y-118664327D01*
X181093327Y-118485698D01*
X181190000Y-118252309D01*
X181190000Y-117411750D01*
X181031250Y-117253000D01*
X179832000Y-117253000D01*
X179578000Y-117253000D01*
X179558000Y-117253000D01*
X179558000Y-116999000D01*
X179578000Y-116999000D01*
X179578000Y-115649750D01*
X179832000Y-115649750D01*
X179832000Y-116999000D01*
X181031250Y-116999000D01*
X181190000Y-116840250D01*
X181190000Y-115999691D01*
X181093327Y-115766302D01*
X180914699Y-115587673D01*
X180681310Y-115491000D01*
X179990750Y-115491000D01*
X179832000Y-115649750D01*
X179578000Y-115649750D01*
X179419250Y-115491000D01*
X178728690Y-115491000D01*
X178495301Y-115587673D01*
X178316673Y-115766302D01*
X178220000Y-115999691D01*
X178220000Y-116840250D01*
X178378748Y-116998998D01*
X178220000Y-116998998D01*
X178220000Y-117080732D01*
X178076327Y-116936808D01*
X177732799Y-116794162D01*
X177360833Y-116793838D01*
X177249112Y-116840000D01*
X177152445Y-116840000D01*
X177498005Y-116696864D01*
X177572139Y-116450745D01*
X176744000Y-115622605D01*
X175915861Y-116450745D01*
X175989995Y-116696864D01*
X176483969Y-116874418D01*
X176316794Y-116907671D01*
X176111867Y-117044599D01*
X176028382Y-117100382D01*
X175835382Y-117293382D01*
X175642671Y-117581794D01*
X175575000Y-117922000D01*
X175575000Y-118212646D01*
X175542569Y-118260110D01*
X175514824Y-118397120D01*
X175492162Y-118276683D01*
X175353090Y-118060559D01*
X175140890Y-117915569D01*
X175133000Y-117913971D01*
X175133000Y-116873693D01*
X175279317Y-116846162D01*
X175495441Y-116707090D01*
X175640431Y-116494890D01*
X175688646Y-116256799D01*
X175736255Y-116271139D01*
X176564395Y-115443000D01*
X176923605Y-115443000D01*
X177751745Y-116271139D01*
X177997864Y-116197005D01*
X178190965Y-115659777D01*
X178163778Y-115089546D01*
X177997864Y-114688995D01*
X177751745Y-114614861D01*
X176923605Y-115443000D01*
X176564395Y-115443000D01*
X176550252Y-115428858D01*
X176729858Y-115249252D01*
X176744000Y-115263395D01*
X177572139Y-114435255D01*
X177502992Y-114205691D01*
X181874000Y-114205691D01*
X181874000Y-114796250D01*
X182032750Y-114955000D01*
X183007000Y-114955000D01*
X183007000Y-113855750D01*
X182848250Y-113697000D01*
X182382690Y-113697000D01*
X182149301Y-113793673D01*
X181970673Y-113972302D01*
X181874000Y-114205691D01*
X177502992Y-114205691D01*
X177498005Y-114189136D01*
X176960777Y-113996035D01*
X176814213Y-114003023D01*
X176898236Y-113919000D01*
X177736500Y-113919000D01*
X178076706Y-113851329D01*
X178365118Y-113658618D01*
X179184236Y-112839500D01*
X182702264Y-112839500D01*
X183559764Y-113697000D01*
X183419750Y-113697000D01*
X183261000Y-113855750D01*
X183261000Y-114955000D01*
X183281000Y-114955000D01*
X183281000Y-115209000D01*
X183261000Y-115209000D01*
X183261000Y-115229000D01*
X183007000Y-115229000D01*
X183007000Y-115209000D01*
X182032750Y-115209000D01*
X181874000Y-115367750D01*
X181874000Y-115958309D01*
X181970673Y-116191698D01*
X182111910Y-116332936D01*
X182057559Y-116367910D01*
X181912569Y-116580110D01*
X181861560Y-116832000D01*
X181861560Y-118210560D01*
X181638000Y-118210560D01*
X181402683Y-118254838D01*
X181186559Y-118393910D01*
X181041569Y-118606110D01*
X180990560Y-118858000D01*
X180990560Y-119655065D01*
X180806890Y-119529569D01*
X180555000Y-119478560D01*
X178855000Y-119478560D01*
X178619683Y-119522838D01*
X178403559Y-119661910D01*
X178258569Y-119874110D01*
X178207560Y-120126000D01*
X178207560Y-122126000D01*
X178251838Y-122361317D01*
X178390910Y-122577441D01*
X178603110Y-122722431D01*
X178855000Y-122773440D01*
X180555000Y-122773440D01*
X180790317Y-122729162D01*
X181006441Y-122590090D01*
X181151431Y-122377890D01*
X181194514Y-122165140D01*
X181229000Y-122172000D01*
X181743655Y-122172000D01*
X181796852Y-122439439D01*
X181961599Y-122686001D01*
X182476528Y-123200930D01*
X182453162Y-123257201D01*
X182452838Y-123629167D01*
X182594883Y-123972943D01*
X182764209Y-124142565D01*
X182595808Y-124310673D01*
X182453162Y-124654201D01*
X182452838Y-125026167D01*
X182594883Y-125369943D01*
X182857673Y-125633192D01*
X182961046Y-125676117D01*
X182960838Y-125915167D01*
X183102883Y-126258943D01*
X183208710Y-126364954D01*
X183103808Y-126469673D01*
X182961162Y-126813201D01*
X182960838Y-127185167D01*
X182969115Y-127205200D01*
X182778400Y-127205200D01*
X182487561Y-127263052D01*
X182240999Y-127427799D01*
X182076252Y-127674361D01*
X182020884Y-127952714D01*
X177711120Y-132262478D01*
X177665633Y-132262438D01*
X177321857Y-132404483D01*
X177058608Y-132667273D01*
X176915962Y-133010801D01*
X176915638Y-133382767D01*
X177057683Y-133726543D01*
X177320473Y-133989792D01*
X177664001Y-134132438D01*
X178035967Y-134132762D01*
X178379743Y-133990717D01*
X178642992Y-133727927D01*
X178785638Y-133384399D01*
X178785679Y-133337523D01*
X183315801Y-128807401D01*
X183370726Y-128725200D01*
X190093600Y-128725200D01*
X190384439Y-128667348D01*
X190563954Y-128547400D01*
X192888998Y-128547400D01*
X193179837Y-128489548D01*
X193426399Y-128324801D01*
X194914738Y-126836462D01*
X195159639Y-126787748D01*
X195406201Y-126623001D01*
X197831457Y-124197745D01*
X200379861Y-124197745D01*
X200453995Y-124443864D01*
X200991223Y-124636965D01*
X201561454Y-124609778D01*
X201962005Y-124443864D01*
X202036139Y-124197745D01*
X201208000Y-123369605D01*
X200379861Y-124197745D01*
X197831457Y-124197745D01*
X199055979Y-122973223D01*
X199761035Y-122973223D01*
X199788222Y-123543454D01*
X199954136Y-123944005D01*
X200200255Y-124018139D01*
X201028395Y-123190000D01*
X200200255Y-122361861D01*
X199954136Y-122435995D01*
X199761035Y-122973223D01*
X199055979Y-122973223D01*
X200283001Y-121746201D01*
X200354904Y-121638590D01*
X200374883Y-121686943D01*
X200574014Y-121886422D01*
X200453995Y-121936136D01*
X200379861Y-122182255D01*
X201208000Y-123010395D01*
X202036139Y-122182255D01*
X201962005Y-121936136D01*
X201778150Y-121870051D01*
X201960192Y-121688327D01*
X202006549Y-121576687D01*
X202116618Y-121466618D01*
X202309329Y-121178206D01*
X202377000Y-120838000D01*
X202377000Y-120674354D01*
X202409431Y-120626890D01*
X202437176Y-120489880D01*
X202459838Y-120610317D01*
X202565000Y-120773743D01*
X202565000Y-120851250D01*
X202723750Y-121010000D01*
X202819000Y-121010000D01*
X202819000Y-121759307D01*
X202672683Y-121786838D01*
X202456559Y-121925910D01*
X202311569Y-122138110D01*
X202263354Y-122376201D01*
X202215745Y-122361861D01*
X201387605Y-123190000D01*
X202215745Y-124018139D01*
X202263167Y-124003855D01*
X202304838Y-124225317D01*
X202443910Y-124441441D01*
X202656110Y-124586431D01*
X202908000Y-124637440D01*
X204508000Y-124637440D01*
X204743317Y-124593162D01*
X204959441Y-124454090D01*
X205104431Y-124241890D01*
X205155440Y-123990000D01*
X205155440Y-122390000D01*
X205121034Y-122207146D01*
X205125943Y-122205117D01*
X205389192Y-121942327D01*
X205531838Y-121598799D01*
X205532162Y-121226833D01*
X205495639Y-121138440D01*
X206365000Y-121138440D01*
X206600317Y-121094162D01*
X206816441Y-120955090D01*
X206961431Y-120742890D01*
X207012440Y-120491000D01*
X207012440Y-118991000D01*
X206968162Y-118755683D01*
X206829090Y-118539559D01*
X206760994Y-118493031D01*
X206903327Y-118350698D01*
X207000000Y-118117309D01*
X207000000Y-117526750D01*
X206841250Y-117368000D01*
X205867000Y-117368000D01*
X205867000Y-117388000D01*
X205613000Y-117388000D01*
X205613000Y-117368000D01*
X204638750Y-117368000D01*
X204557993Y-117448757D01*
X204360440Y-117251204D01*
X204360440Y-117115000D01*
X204316162Y-116879683D01*
X204177090Y-116663559D01*
X203964890Y-116518569D01*
X203713000Y-116467560D01*
X203063000Y-116467560D01*
X202827683Y-116511838D01*
X202611559Y-116650910D01*
X202466569Y-116863110D01*
X202438824Y-117000120D01*
X202416162Y-116879683D01*
X202277090Y-116663559D01*
X202064890Y-116518569D01*
X202057000Y-116516971D01*
X202057000Y-116364691D01*
X204480000Y-116364691D01*
X204480000Y-116955250D01*
X204638750Y-117114000D01*
X205613000Y-117114000D01*
X205613000Y-116014750D01*
X205867000Y-116014750D01*
X205867000Y-117114000D01*
X206841250Y-117114000D01*
X207000000Y-116955250D01*
X207000000Y-116364691D01*
X206903327Y-116131302D01*
X206724699Y-115952673D01*
X206491310Y-115856000D01*
X206025750Y-115856000D01*
X205867000Y-116014750D01*
X205613000Y-116014750D01*
X205454250Y-115856000D01*
X204988690Y-115856000D01*
X204755301Y-115952673D01*
X204576673Y-116131302D01*
X204480000Y-116364691D01*
X202057000Y-116364691D01*
X202057000Y-115349693D01*
X202203317Y-115322162D01*
X202419441Y-115183090D01*
X202564431Y-114970890D01*
X202573370Y-114926745D01*
X202839861Y-114926745D01*
X202913995Y-115172864D01*
X203451223Y-115365965D01*
X204021454Y-115338778D01*
X204422005Y-115172864D01*
X204496139Y-114926745D01*
X203668000Y-114098605D01*
X202839861Y-114926745D01*
X202573370Y-114926745D01*
X202612646Y-114732799D01*
X202660255Y-114747139D01*
X203488395Y-113919000D01*
X203847605Y-113919000D01*
X204675745Y-114747139D01*
X204921864Y-114673005D01*
X205114965Y-114135777D01*
X205087778Y-113565546D01*
X204921864Y-113164995D01*
X204675745Y-113090861D01*
X203847605Y-113919000D01*
X203488395Y-113919000D01*
X202660255Y-113090861D01*
X202612833Y-113105145D01*
X202576351Y-112911255D01*
X202839861Y-112911255D01*
X203668000Y-113739395D01*
X204496139Y-112911255D01*
X204422005Y-112665136D01*
X203884777Y-112472035D01*
X203314546Y-112499222D01*
X202913995Y-112665136D01*
X202839861Y-112911255D01*
X202576351Y-112911255D01*
X202571162Y-112883683D01*
X202432090Y-112667559D01*
X202219890Y-112522569D01*
X201968000Y-112471560D01*
X200368000Y-112471560D01*
X200132683Y-112515838D01*
X199916559Y-112654910D01*
X199771569Y-112867110D01*
X199738583Y-113030000D01*
X198755000Y-113030000D01*
X198414794Y-113097671D01*
X198135933Y-113284000D01*
X194945000Y-113284000D01*
X194604794Y-113351671D01*
X194316382Y-113544382D01*
X194068764Y-113792000D01*
X193147000Y-113792000D01*
X192806795Y-113859670D01*
X192522000Y-114049965D01*
X192522000Y-113570691D01*
X192425327Y-113337302D01*
X192246699Y-113158673D01*
X192013310Y-113062000D01*
X191796724Y-113062000D01*
X192452632Y-113044836D01*
X193060480Y-112793057D01*
X193192172Y-112498177D01*
X192024000Y-111330005D01*
X192009858Y-111344148D01*
X191830253Y-111164543D01*
X191844395Y-111150400D01*
X192203605Y-111150400D01*
X193371777Y-112318572D01*
X193666657Y-112186880D01*
X193938261Y-111479364D01*
X193918436Y-110721768D01*
X193666657Y-110113920D01*
X193371777Y-109982228D01*
X192203605Y-111150400D01*
X191844395Y-111150400D01*
X190676223Y-109982228D01*
X190381343Y-110113920D01*
X190109739Y-110821436D01*
X190123451Y-111345415D01*
X189706218Y-110928182D01*
X189417805Y-110735471D01*
X189204778Y-110693097D01*
X189204930Y-110519135D01*
X188915522Y-109818714D01*
X188899460Y-109802623D01*
X190855828Y-109802623D01*
X192024000Y-110970795D01*
X193192172Y-109802623D01*
X193060480Y-109507743D01*
X192352964Y-109236139D01*
X191595368Y-109255964D01*
X190987520Y-109507743D01*
X190855828Y-109802623D01*
X188899460Y-109802623D01*
X188380105Y-109282361D01*
X187680190Y-108991732D01*
X186922335Y-108991070D01*
X186221914Y-109280478D01*
X185685561Y-109815895D01*
X185623406Y-109965581D01*
X185562722Y-109818714D01*
X185027305Y-109282361D01*
X184992629Y-109267963D01*
X184981818Y-109251782D01*
X184693406Y-109059071D01*
X184353200Y-108991400D01*
X184335209Y-108994979D01*
X184327390Y-108991732D01*
X183569535Y-108991070D01*
X182869114Y-109280478D01*
X182332761Y-109815895D01*
X182042132Y-110515810D01*
X182041655Y-111061500D01*
X179192302Y-111061500D01*
X179226401Y-111027401D01*
X179391148Y-110780839D01*
X179449000Y-110490000D01*
X179449000Y-109534802D01*
X180718302Y-108265500D01*
X195135500Y-108265500D01*
X195426339Y-108207648D01*
X195672901Y-108042901D01*
X197116680Y-106599122D01*
X197162167Y-106599162D01*
X197505943Y-106457117D01*
X197769192Y-106194327D01*
X197911838Y-105850799D01*
X197912162Y-105478833D01*
X197770117Y-105135057D01*
X197507327Y-104871808D01*
X197163799Y-104729162D01*
X196791833Y-104728838D01*
X196448057Y-104870883D01*
X196201428Y-105117082D01*
X196182617Y-105071557D01*
X195919827Y-104808308D01*
X195576299Y-104665662D01*
X195204333Y-104665338D01*
X194860557Y-104807383D01*
X194597308Y-105070173D01*
X194454662Y-105413701D01*
X194454621Y-105460577D01*
X193741198Y-106174000D01*
X190228388Y-106174000D01*
X190228662Y-105859833D01*
X190094791Y-105535840D01*
X190147200Y-105535840D01*
X190329009Y-105501630D01*
X190411673Y-105701199D01*
X190590302Y-105879827D01*
X190823691Y-105976500D01*
X191914250Y-105976500D01*
X192073000Y-105817750D01*
X192073000Y-104218500D01*
X192327000Y-104218500D01*
X192327000Y-105817750D01*
X192485750Y-105976500D01*
X193576309Y-105976500D01*
X193809698Y-105879827D01*
X193988327Y-105701199D01*
X194085000Y-105467810D01*
X194085000Y-104377250D01*
X193926250Y-104218500D01*
X192327000Y-104218500D01*
X192073000Y-104218500D01*
X192053000Y-104218500D01*
X192053000Y-103964500D01*
X192073000Y-103964500D01*
X192073000Y-103944500D01*
X192327000Y-103944500D01*
X192327000Y-103964500D01*
X193926250Y-103964500D01*
X194085000Y-103805750D01*
X194085000Y-102715190D01*
X193988327Y-102481801D01*
X193966662Y-102460136D01*
X194046431Y-102343390D01*
X194057482Y-102288820D01*
X194160673Y-102392192D01*
X194504201Y-102534838D01*
X194718534Y-102535025D01*
X194786883Y-102700443D01*
X195049673Y-102963692D01*
X195393201Y-103106338D01*
X195765167Y-103106662D01*
X196108943Y-102964617D01*
X196372192Y-102701827D01*
X196514838Y-102358299D01*
X196515162Y-101986333D01*
X196373117Y-101642557D01*
X196340000Y-101609382D01*
X196340000Y-95437802D01*
X197116680Y-94661122D01*
X197162167Y-94661162D01*
X197453500Y-94540786D01*
X197453500Y-95102057D01*
X197166361Y-95388695D01*
X196875732Y-96088610D01*
X196875070Y-96846465D01*
X197164478Y-97546886D01*
X197453500Y-97836413D01*
X197453500Y-99738823D01*
X197238183Y-99779338D01*
X197022059Y-99918410D01*
X196877069Y-100130610D01*
X196826060Y-100382500D01*
X196826060Y-102182500D01*
X196870338Y-102417817D01*
X197009410Y-102633941D01*
X197221610Y-102778931D01*
X197473500Y-102829940D01*
X199973500Y-102829940D01*
X200208817Y-102785662D01*
X200424941Y-102646590D01*
X200569931Y-102434390D01*
X200620940Y-102182500D01*
X200620940Y-100382500D01*
X200576662Y-100147183D01*
X200437590Y-99931059D01*
X200225390Y-99786069D01*
X199993500Y-99739110D01*
X199993500Y-97949944D01*
X200394439Y-97549705D01*
X200685068Y-96849790D01*
X200685730Y-96091935D01*
X200396322Y-95391514D01*
X199993500Y-94987988D01*
X199993500Y-93077052D01*
X200863523Y-92207028D01*
X200993908Y-92235312D01*
X201246479Y-92187788D01*
X201460661Y-92045743D01*
X202662743Y-90843661D01*
X202797828Y-90645958D01*
X202852312Y-90394796D01*
X202804788Y-90142225D01*
X202662743Y-89928043D01*
X201964200Y-89229500D01*
X208531402Y-89229500D01*
X208281068Y-89276603D01*
X208281068Y-89276603D01*
G37*
X208281068Y-89276603D02*
X208066886Y-89418648D01*
X207379128Y-90106406D01*
X205656920Y-90106406D01*
X205517117Y-89768057D01*
X205254327Y-89504808D01*
X204910799Y-89362162D01*
X204538833Y-89361838D01*
X204195057Y-89503883D01*
X203931808Y-89766673D01*
X203789162Y-90110201D01*
X203788838Y-90482167D01*
X203930883Y-90825943D01*
X204193673Y-91089192D01*
X204537201Y-91231838D01*
X204584077Y-91231879D01*
X204756005Y-91403807D01*
X205002567Y-91568554D01*
X205293406Y-91626406D01*
X205922628Y-91626406D01*
X205814148Y-91734886D01*
X205679063Y-91932589D01*
X205624579Y-92183751D01*
X205672103Y-92436322D01*
X205814148Y-92650504D01*
X205958586Y-92794942D01*
X205962505Y-92800807D01*
X205968370Y-92804726D01*
X206874808Y-93711164D01*
X207072511Y-93846249D01*
X207323673Y-93900733D01*
X207576244Y-93853209D01*
X207604626Y-93834386D01*
X207546144Y-93975574D01*
X207546145Y-94228193D01*
X207642818Y-94461582D01*
X208060406Y-94879170D01*
X208284912Y-94879170D01*
X208991489Y-94172594D01*
X208977347Y-94158452D01*
X209156952Y-93978847D01*
X209171094Y-93992989D01*
X209185236Y-93978846D01*
X209364842Y-94158452D01*
X209350699Y-94172594D01*
X210127986Y-94949881D01*
X210352493Y-94949881D01*
X210520742Y-94781631D01*
X210699371Y-94603003D01*
X210796004Y-94369711D01*
X210818932Y-94365397D01*
X211033114Y-94223352D01*
X211952352Y-93304114D01*
X212087437Y-93106411D01*
X212120017Y-92956223D01*
X212412583Y-92663656D01*
X212448110Y-92687931D01*
X212566000Y-92711804D01*
X212566000Y-96363244D01*
X212314974Y-96530974D01*
X209047388Y-99798560D01*
X208395000Y-99798560D01*
X208310496Y-99814460D01*
X207267353Y-98771317D01*
X207512716Y-98771317D01*
X207512716Y-98995823D01*
X208107081Y-99590188D01*
X208340470Y-99686861D01*
X208593089Y-99686862D01*
X208826478Y-99590189D01*
X209314778Y-99101889D01*
X209314778Y-98877383D01*
X208360714Y-97923319D01*
X207512716Y-98771317D01*
X207267353Y-98771317D01*
X206476567Y-97980531D01*
X206476632Y-97906553D01*
X206514240Y-97997347D01*
X207108605Y-98591712D01*
X207333111Y-98591712D01*
X208181109Y-97743714D01*
X208540319Y-97743714D01*
X209494383Y-98697778D01*
X209718889Y-98697778D01*
X210207189Y-98209478D01*
X210303862Y-97976089D01*
X210303861Y-97723470D01*
X210207188Y-97490081D01*
X209612823Y-96895716D01*
X209388317Y-96895716D01*
X208540319Y-97743714D01*
X208181109Y-97743714D01*
X207227045Y-96789650D01*
X207002539Y-96789650D01*
X206514239Y-97277950D01*
X206436157Y-97466457D01*
X206187522Y-96864714D01*
X206040934Y-96717870D01*
X206096161Y-96681243D01*
X206391865Y-96385539D01*
X207406650Y-96385539D01*
X207406650Y-96610045D01*
X208360714Y-97564109D01*
X209208712Y-96716111D01*
X209208712Y-96491605D01*
X208614347Y-95897240D01*
X208380958Y-95800567D01*
X208128339Y-95800566D01*
X207894950Y-95897239D01*
X207406650Y-96385539D01*
X206391865Y-96385539D01*
X207298243Y-95479161D01*
X207433328Y-95281458D01*
X207481633Y-95058776D01*
X208464518Y-95058776D01*
X208464518Y-95283282D01*
X208882106Y-95700870D01*
X209115495Y-95797543D01*
X209368114Y-95797544D01*
X209601503Y-95700871D01*
X209780131Y-95522242D01*
X209948381Y-95353993D01*
X209948381Y-95129486D01*
X209171094Y-94352199D01*
X208464518Y-95058776D01*
X207481633Y-95058776D01*
X207487812Y-95030296D01*
X207440288Y-94777725D01*
X207298243Y-94563543D01*
X205884029Y-93149329D01*
X205686326Y-93014244D01*
X205639507Y-93004088D01*
X205633216Y-92970653D01*
X205491171Y-92756471D01*
X204076957Y-91342257D01*
X203879254Y-91207172D01*
X203628092Y-91152688D01*
X203375521Y-91200212D01*
X203161339Y-91342257D01*
X201959257Y-92544339D01*
X201824172Y-92742042D01*
X201769688Y-92993204D01*
X201817212Y-93245775D01*
X201856582Y-93305139D01*
X201528057Y-93440883D01*
X201264808Y-93703673D01*
X201122162Y-94047201D01*
X201121838Y-94419167D01*
X201263883Y-94762943D01*
X201526673Y-95026192D01*
X201870201Y-95168838D01*
X202242167Y-95169162D01*
X202585943Y-95027117D01*
X202849192Y-94764327D01*
X202970789Y-94471489D01*
X203373471Y-94874171D01*
X203571174Y-95009256D01*
X203617993Y-95019412D01*
X203624284Y-95052847D01*
X203766329Y-95267029D01*
X204536669Y-96037369D01*
X204194335Y-96037070D01*
X203493914Y-96326478D01*
X202957561Y-96861895D01*
X202666932Y-97561810D01*
X202666270Y-98319665D01*
X202955678Y-99020086D01*
X203491095Y-99556439D01*
X203921264Y-99735060D01*
X201473500Y-99735060D01*
X201238183Y-99779338D01*
X201022059Y-99918410D01*
X200877069Y-100130610D01*
X200826060Y-100382500D01*
X200826060Y-102182500D01*
X200870338Y-102417817D01*
X201009410Y-102633941D01*
X201221610Y-102778931D01*
X201473500Y-102829940D01*
X203973500Y-102829940D01*
X204092153Y-102807614D01*
X204143110Y-102842431D01*
X204375000Y-102889390D01*
X204375000Y-103790995D01*
X204374999Y-103791000D01*
X204471673Y-104277008D01*
X204746974Y-104689026D01*
X208407000Y-108349052D01*
X208407000Y-114300000D01*
X208503673Y-114786008D01*
X208778974Y-115198026D01*
X209190992Y-115473327D01*
X209677000Y-115570000D01*
X210163008Y-115473327D01*
X210575026Y-115198026D01*
X210850327Y-114786008D01*
X210947000Y-114300000D01*
X210947000Y-110299500D01*
X211196591Y-110299500D01*
X211321048Y-110925187D01*
X211675471Y-111455620D01*
X212205904Y-111810043D01*
X212831591Y-111934500D01*
X213507409Y-111934500D01*
X214133096Y-111810043D01*
X214663529Y-111455620D01*
X215017952Y-110925187D01*
X215142409Y-110299500D01*
X215017952Y-109673813D01*
X214778407Y-109315308D01*
X214920941Y-109223590D01*
X215065931Y-109011390D01*
X215116940Y-108759500D01*
X215116940Y-106759500D01*
X215072662Y-106524183D01*
X214933590Y-106308059D01*
X214721390Y-106163069D01*
X214469500Y-106112060D01*
X211869500Y-106112060D01*
X211634183Y-106156338D01*
X211418059Y-106295410D01*
X211273069Y-106507610D01*
X211222060Y-106759500D01*
X211222060Y-108759500D01*
X211266338Y-108994817D01*
X211405410Y-109210941D01*
X211559829Y-109316451D01*
X211321048Y-109673813D01*
X211196591Y-110299500D01*
X210947000Y-110299500D01*
X210947000Y-107823000D01*
X210850327Y-107336992D01*
X210575026Y-106924974D01*
X207527302Y-103877250D01*
X212065000Y-103877250D01*
X212065000Y-105217810D01*
X212161673Y-105451199D01*
X212340302Y-105629827D01*
X212573691Y-105726500D01*
X213914250Y-105726500D01*
X214073000Y-105567750D01*
X214073000Y-103718500D01*
X212223750Y-103718500D01*
X212065000Y-103877250D01*
X207527302Y-103877250D01*
X206915000Y-103264948D01*
X206915000Y-102889677D01*
X207130317Y-102849162D01*
X207346441Y-102710090D01*
X207491431Y-102497890D01*
X207542440Y-102246000D01*
X207542440Y-101560876D01*
X207747560Y-101765996D01*
X207747560Y-102246000D01*
X207791838Y-102481317D01*
X207930910Y-102697441D01*
X208143110Y-102842431D01*
X208395000Y-102893440D01*
X210895000Y-102893440D01*
X211130317Y-102849162D01*
X211346441Y-102710090D01*
X211491431Y-102497890D01*
X211542440Y-102246000D01*
X211542440Y-101965190D01*
X212065000Y-101965190D01*
X212065000Y-103305750D01*
X212223750Y-103464500D01*
X214073000Y-103464500D01*
X214073000Y-101615250D01*
X213914250Y-101456500D01*
X212573691Y-101456500D01*
X212340302Y-101553173D01*
X212161673Y-101731801D01*
X212065000Y-101965190D01*
X211542440Y-101965190D01*
X211542440Y-100895612D01*
X212223302Y-100214750D01*
X212608000Y-100214750D01*
X212608000Y-100805309D01*
X212704673Y-101038698D01*
X212883301Y-101217327D01*
X213116690Y-101314000D01*
X213582250Y-101314000D01*
X213741000Y-101155250D01*
X213741000Y-100056000D01*
X213995000Y-100056000D01*
X213995000Y-101155250D01*
X214153750Y-101314000D01*
X214619310Y-101314000D01*
X214852699Y-101217327D01*
X215031327Y-101038698D01*
X215128000Y-100805309D01*
X215128000Y-100214750D01*
X214969250Y-100056000D01*
X213995000Y-100056000D01*
X213741000Y-100056000D01*
X212766750Y-100056000D01*
X212608000Y-100214750D01*
X212223302Y-100214750D01*
X212701401Y-99736651D01*
X212766750Y-99802000D01*
X213741000Y-99802000D01*
X213741000Y-99782000D01*
X213995000Y-99782000D01*
X213995000Y-99802000D01*
X214969250Y-99802000D01*
X215128000Y-99643250D01*
X215128000Y-99052691D01*
X215031327Y-98819302D01*
X214890090Y-98678064D01*
X214944441Y-98643090D01*
X215089431Y-98430890D01*
X215140440Y-98179000D01*
X215140440Y-96679000D01*
X215106000Y-96495967D01*
X215106000Y-92738940D01*
X215700000Y-92738940D01*
X215935317Y-92694662D01*
X216151441Y-92555590D01*
X216206000Y-92475740D01*
X216206000Y-101699474D01*
X216059698Y-101553173D01*
X215826309Y-101456500D01*
X214485750Y-101456500D01*
X214327000Y-101615250D01*
X214327000Y-103464500D01*
X214347000Y-103464500D01*
X214347000Y-103718500D01*
X214327000Y-103718500D01*
X214327000Y-105567750D01*
X214485750Y-105726500D01*
X215826309Y-105726500D01*
X216059698Y-105629827D01*
X216206000Y-105483526D01*
X216206000Y-120370147D01*
X216064747Y-120158746D01*
X215582978Y-119836839D01*
X215014693Y-119723800D01*
X214956507Y-119723800D01*
X214388222Y-119836839D01*
X213906453Y-120158746D01*
X213584546Y-120640515D01*
X213471507Y-121208800D01*
X213584546Y-121777085D01*
X213906453Y-122258854D01*
X214235626Y-122478800D01*
X213945390Y-122672729D01*
X213835617Y-122407057D01*
X213572827Y-122143808D01*
X213229299Y-122001162D01*
X212857333Y-122000838D01*
X212513557Y-122142883D01*
X212250308Y-122405673D01*
X212107662Y-122749201D01*
X212107338Y-123121167D01*
X212160900Y-123250798D01*
X211956605Y-123455093D01*
X211919827Y-123366302D01*
X211741199Y-123187673D01*
X211507810Y-123091000D01*
X211477750Y-123091000D01*
X211319000Y-123249750D01*
X211319000Y-123265474D01*
X211241199Y-123187673D01*
X211054653Y-123110403D01*
X211035250Y-123091000D01*
X211016500Y-123091000D01*
X211016500Y-122982477D01*
X211040692Y-122958327D01*
X211183338Y-122614799D01*
X211183662Y-122242833D01*
X211041617Y-121899057D01*
X211016500Y-121873896D01*
X211016500Y-121594245D01*
X211221861Y-121594245D01*
X211295995Y-121840364D01*
X211833223Y-122033465D01*
X212403454Y-122006278D01*
X212804005Y-121840364D01*
X212878139Y-121594245D01*
X212050000Y-120766105D01*
X211221861Y-121594245D01*
X211016500Y-121594245D01*
X211016500Y-121406881D01*
X211042255Y-121414639D01*
X211870395Y-120586500D01*
X212229605Y-120586500D01*
X213057745Y-121414639D01*
X213303864Y-121340505D01*
X213496965Y-120803277D01*
X213469778Y-120233046D01*
X213303864Y-119832495D01*
X213057745Y-119758361D01*
X212229605Y-120586500D01*
X211870395Y-120586500D01*
X211042255Y-119758361D01*
X210994833Y-119772645D01*
X210958351Y-119578755D01*
X211221861Y-119578755D01*
X212050000Y-120406895D01*
X212878139Y-119578755D01*
X212804005Y-119332636D01*
X212266777Y-119139535D01*
X211696546Y-119166722D01*
X211295995Y-119332636D01*
X211221861Y-119578755D01*
X210958351Y-119578755D01*
X210953162Y-119551183D01*
X210814090Y-119335059D01*
X210703648Y-119259597D01*
X210977327Y-118850008D01*
X211074001Y-118364000D01*
X210977327Y-117877992D01*
X210702026Y-117465974D01*
X210290008Y-117190673D01*
X209804000Y-117093999D01*
X209740500Y-117106630D01*
X209677000Y-117093999D01*
X209190992Y-117190673D01*
X208778974Y-117465974D01*
X208503673Y-117877992D01*
X208406999Y-118364000D01*
X208503673Y-118850008D01*
X208702751Y-119147950D01*
X208514683Y-119183338D01*
X208298559Y-119322410D01*
X208153569Y-119534610D01*
X208102560Y-119786500D01*
X208102560Y-121386500D01*
X208146838Y-121621817D01*
X208285910Y-121837941D01*
X208498110Y-121982931D01*
X208750000Y-122033940D01*
X209399725Y-122033940D01*
X209313662Y-122241201D01*
X209313338Y-122613167D01*
X209455383Y-122956943D01*
X209496500Y-122998132D01*
X209496500Y-123664569D01*
X209484060Y-123726000D01*
X209484060Y-124184335D01*
X209480059Y-124186910D01*
X209468683Y-124203560D01*
X209164070Y-124203560D01*
X209164362Y-123868433D01*
X209022317Y-123524657D01*
X208759527Y-123261408D01*
X208415999Y-123118762D01*
X208044033Y-123118438D01*
X207700257Y-123260483D01*
X207437008Y-123523273D01*
X207415142Y-123575931D01*
X207078833Y-123575638D01*
X206735057Y-123717683D01*
X206471808Y-123980473D01*
X206329162Y-124324001D01*
X206329130Y-124360400D01*
X205435200Y-124360400D01*
X205144361Y-124418252D01*
X205084874Y-124458000D01*
X204897799Y-124582999D01*
X204612398Y-124868400D01*
X204473663Y-124868400D01*
X204441527Y-124836208D01*
X204097999Y-124693562D01*
X203726033Y-124693238D01*
X203382257Y-124835283D01*
X203119008Y-125098073D01*
X202976362Y-125441601D01*
X202976038Y-125813567D01*
X203118083Y-126157343D01*
X203200596Y-126240000D01*
X202488800Y-126240000D01*
X202346766Y-126268253D01*
X202100433Y-126268038D01*
X201756657Y-126410083D01*
X201493408Y-126672873D01*
X201350762Y-127016401D01*
X201350438Y-127388367D01*
X201492483Y-127732143D01*
X201755273Y-127995392D01*
X202098801Y-128138038D01*
X202470767Y-128138362D01*
X202814543Y-127996317D01*
X203051273Y-127760000D01*
X203657200Y-127760000D01*
X203948039Y-127702148D01*
X203975060Y-127684093D01*
X203975060Y-128689000D01*
X204019338Y-128924317D01*
X204158410Y-129140441D01*
X204370610Y-129285431D01*
X204608701Y-129333646D01*
X204594361Y-129381255D01*
X205422500Y-130209395D01*
X206250639Y-129381255D01*
X206236355Y-129333833D01*
X206457817Y-129292162D01*
X206673941Y-129153090D01*
X206818931Y-128940890D01*
X206869940Y-128689000D01*
X206869940Y-128539052D01*
X206902018Y-128517618D01*
X208596500Y-126823136D01*
X208596500Y-127310931D01*
X208459539Y-127511380D01*
X208408530Y-127763270D01*
X208408530Y-130189343D01*
X208263599Y-130129162D01*
X207891633Y-130128838D01*
X207547857Y-130270883D01*
X207284608Y-130533673D01*
X207238251Y-130645313D01*
X205422564Y-132461000D01*
X205351085Y-132461000D01*
X205273122Y-132272314D01*
X204737705Y-131735961D01*
X204037790Y-131445332D01*
X203436501Y-131444807D01*
X203436542Y-131396745D01*
X204594361Y-131396745D01*
X204668495Y-131642864D01*
X205205723Y-131835965D01*
X205775954Y-131808778D01*
X206176505Y-131642864D01*
X206250639Y-131396745D01*
X205422500Y-130568605D01*
X204594361Y-131396745D01*
X203436542Y-131396745D01*
X203436662Y-131259833D01*
X203294617Y-130916057D01*
X203031827Y-130652808D01*
X202920187Y-130606451D01*
X202604728Y-130290992D01*
X202654045Y-130172223D01*
X203975535Y-130172223D01*
X204002722Y-130742454D01*
X204168636Y-131143005D01*
X204414755Y-131217139D01*
X205242895Y-130389000D01*
X205602105Y-130389000D01*
X206430245Y-131217139D01*
X206676364Y-131143005D01*
X206869465Y-130605777D01*
X206842278Y-130035546D01*
X206676364Y-129634995D01*
X206430245Y-129560861D01*
X205602105Y-130389000D01*
X205242895Y-130389000D01*
X204414755Y-129560861D01*
X204168636Y-129634995D01*
X203975535Y-130172223D01*
X202654045Y-130172223D01*
X202712438Y-130031599D01*
X202712762Y-129659633D01*
X202570717Y-129315857D01*
X202307927Y-129052608D01*
X201964399Y-128909962D01*
X201917523Y-128909921D01*
X201857801Y-128850199D01*
X201611239Y-128685452D01*
X201320400Y-128627600D01*
X196443600Y-128627600D01*
X196152760Y-128685452D01*
X195969211Y-128808096D01*
X195902833Y-128808038D01*
X195559057Y-128950083D01*
X195295808Y-129212873D01*
X195153162Y-129556401D01*
X195152838Y-129928367D01*
X195294883Y-130272143D01*
X195381662Y-130359073D01*
X195356362Y-130420001D01*
X195356038Y-130791967D01*
X195498083Y-131135743D01*
X195760873Y-131398992D01*
X196104401Y-131541638D01*
X196317990Y-131541824D01*
X196342000Y-131546600D01*
X201345864Y-131546600D01*
X201612500Y-131813236D01*
X201612500Y-132194300D01*
X201680171Y-132534506D01*
X201769808Y-132668657D01*
X201836173Y-132767979D01*
X201752532Y-132969410D01*
X201751870Y-133727265D01*
X202041278Y-134427686D01*
X202576695Y-134964039D01*
X202897200Y-135097124D01*
X202897200Y-135251598D01*
X202689438Y-135459360D01*
X201266800Y-135459360D01*
X201031483Y-135503638D01*
X200815359Y-135642710D01*
X200670369Y-135854910D01*
X200619360Y-136106800D01*
X200619360Y-137783500D01*
X199009000Y-137783500D01*
X199009000Y-132080000D01*
X199000315Y-132033841D01*
X198973035Y-131991447D01*
X198931410Y-131963006D01*
X198882000Y-131953000D01*
X180594000Y-131953000D01*
X180547841Y-131961685D01*
X180505447Y-131988965D01*
X180477006Y-132030590D01*
X180467000Y-132080000D01*
X180467000Y-137783500D01*
X176472865Y-137783500D01*
X176638316Y-137385048D01*
X176638884Y-136734605D01*
X176390494Y-136133457D01*
X175930963Y-135673122D01*
X175330248Y-135423684D01*
X174679805Y-135423116D01*
X174078657Y-135671506D01*
X173618322Y-136131037D01*
X173368884Y-136731752D01*
X173368316Y-137382195D01*
X173534132Y-137783500D01*
X172203454Y-137783500D01*
X172292201Y-137724201D01*
X172456948Y-137477639D01*
X172514800Y-137186800D01*
X172456948Y-136895961D01*
X172292201Y-136649399D01*
X172045639Y-136484652D01*
X171754800Y-136426800D01*
X171277128Y-136426800D01*
X171167527Y-136317008D01*
X170823999Y-136174362D01*
X170452033Y-136174038D01*
X170108257Y-136316083D01*
X170007509Y-136416655D01*
X169890494Y-136133457D01*
X169430963Y-135673122D01*
X168830248Y-135423684D01*
X168179805Y-135423116D01*
X167651500Y-135641408D01*
X167651500Y-133986021D01*
X168239061Y-134204308D01*
X168889060Y-134180256D01*
X169377864Y-133977787D01*
X169476527Y-133710932D01*
X174030673Y-133710932D01*
X174129336Y-133977787D01*
X174739061Y-134204308D01*
X175389060Y-134180256D01*
X175877864Y-133977787D01*
X175976527Y-133710932D01*
X175003600Y-132738005D01*
X174030673Y-133710932D01*
X169476527Y-133710932D01*
X168503600Y-132738005D01*
X168489458Y-132752148D01*
X168309853Y-132572543D01*
X168323995Y-132558400D01*
X168309853Y-132544258D01*
X168489458Y-132364653D01*
X168503600Y-132378795D01*
X168517743Y-132364653D01*
X168697348Y-132544258D01*
X168683205Y-132558400D01*
X169656132Y-133531327D01*
X169922987Y-133432664D01*
X170149508Y-132822939D01*
X170129931Y-132293861D01*
X173357692Y-132293861D01*
X173381744Y-132943860D01*
X173584213Y-133432664D01*
X173851068Y-133531327D01*
X174823995Y-132558400D01*
X173851068Y-131585473D01*
X173584213Y-131684136D01*
X173357692Y-132293861D01*
X170129931Y-132293861D01*
X170125456Y-132172940D01*
X169922987Y-131684136D01*
X169656134Y-131585474D01*
X169749892Y-131491716D01*
X170025454Y-131478578D01*
X170426005Y-131312664D01*
X170500139Y-131066545D01*
X169672000Y-130238405D01*
X169657858Y-130252548D01*
X169478252Y-130072942D01*
X169492395Y-130058800D01*
X169851605Y-130058800D01*
X170679745Y-130886939D01*
X170925864Y-130812805D01*
X171118965Y-130275577D01*
X171091778Y-129705346D01*
X170925864Y-129304795D01*
X170679745Y-129230661D01*
X169851605Y-130058800D01*
X169492395Y-130058800D01*
X168664255Y-129230661D01*
X168418136Y-129304795D01*
X168225035Y-129842023D01*
X168252222Y-130412254D01*
X168418136Y-130812805D01*
X168664253Y-130886939D01*
X168633726Y-130917466D01*
X168118140Y-130936544D01*
X167651500Y-131129832D01*
X167651500Y-111804238D01*
X167961201Y-111932838D01*
X168008077Y-111932879D01*
X169250099Y-113174901D01*
X169384729Y-113264858D01*
X169324308Y-113325173D01*
X169181662Y-113668701D01*
X169181338Y-114040667D01*
X169323383Y-114384443D01*
X169586173Y-114647692D01*
X169926705Y-114789094D01*
X170021883Y-115019443D01*
X170284673Y-115282692D01*
X170628201Y-115425338D01*
X171000167Y-115425662D01*
X171343943Y-115283617D01*
X171607192Y-115020827D01*
X171749838Y-114677299D01*
X171749879Y-114630423D01*
X171891802Y-114488500D01*
X172827847Y-114488500D01*
X172796560Y-114643000D01*
X172796560Y-116243000D01*
X172840838Y-116478317D01*
X172979910Y-116694441D01*
X173192110Y-116839431D01*
X173355000Y-116872417D01*
X173355000Y-118722000D01*
X173422671Y-119062206D01*
X173556186Y-119262025D01*
X173591560Y-119314966D01*
X173591560Y-119572000D01*
X173635838Y-119807317D01*
X173774910Y-120023441D01*
X173950232Y-120143233D01*
X173787559Y-120247910D01*
X173642569Y-120460110D01*
X173591560Y-120712000D01*
X173591560Y-121061204D01*
X172936526Y-121716238D01*
X172826057Y-121761883D01*
X172562808Y-122024673D01*
X172420162Y-122368201D01*
X172419838Y-122740167D01*
X172561883Y-123083943D01*
X172824673Y-123347192D01*
X173168201Y-123489838D01*
X173540167Y-123490162D01*
X173883943Y-123348117D01*
X174147192Y-123085327D01*
X174193549Y-122973687D01*
X174747796Y-122419440D01*
X174889000Y-122419440D01*
X175029086Y-122393081D01*
X175062690Y-122407000D01*
X175228250Y-122407000D01*
X175387000Y-122248250D01*
X175387000Y-122167949D01*
X175485431Y-122023890D01*
X175513176Y-121886880D01*
X175535838Y-122007317D01*
X175641000Y-122170743D01*
X175641000Y-122248250D01*
X175768000Y-122375250D01*
X175768000Y-123410307D01*
X175621683Y-123437838D01*
X175405559Y-123576910D01*
X175260569Y-123789110D01*
X175212354Y-124027201D01*
X175164745Y-124012861D01*
X174336605Y-124841000D01*
X175164745Y-125669139D01*
X175212167Y-125654855D01*
X175253838Y-125876317D01*
X175392910Y-126092441D01*
X175605110Y-126237431D01*
X175857000Y-126288440D01*
X177457000Y-126288440D01*
X177690494Y-126244505D01*
X177690338Y-126423167D01*
X177778452Y-126636420D01*
X177588557Y-126714883D01*
X177325308Y-126977673D01*
X177182662Y-127321201D01*
X177182338Y-127693167D01*
X177324383Y-128036943D01*
X177357500Y-128070118D01*
X177357500Y-128526698D01*
X176022000Y-129862198D01*
X172273500Y-126113698D01*
X172273500Y-125848745D01*
X173328861Y-125848745D01*
X173402995Y-126094864D01*
X173940223Y-126287965D01*
X174510454Y-126260778D01*
X174911005Y-126094864D01*
X174985139Y-125848745D01*
X174157000Y-125020605D01*
X173328861Y-125848745D01*
X172273500Y-125848745D01*
X172273500Y-124624223D01*
X172710035Y-124624223D01*
X172737222Y-125194454D01*
X172903136Y-125595005D01*
X173149255Y-125669139D01*
X173977395Y-124841000D01*
X173149255Y-124012861D01*
X172903136Y-124086995D01*
X172710035Y-124624223D01*
X172273500Y-124624223D01*
X172273500Y-123833255D01*
X173328861Y-123833255D01*
X174157000Y-124661395D01*
X174985139Y-123833255D01*
X174911005Y-123587136D01*
X174373777Y-123394035D01*
X173803546Y-123421222D01*
X173402995Y-123587136D01*
X173328861Y-123833255D01*
X172273500Y-123833255D01*
X172273500Y-117411500D01*
X172215648Y-117120661D01*
X172050901Y-116874099D01*
X171860401Y-116683599D01*
X171613839Y-116518852D01*
X171470052Y-116490251D01*
X171345327Y-116365308D01*
X171001799Y-116222662D01*
X170951788Y-116222618D01*
X170909617Y-116120557D01*
X170646827Y-115857308D01*
X170303299Y-115714662D01*
X169931333Y-115714338D01*
X169587557Y-115856383D01*
X169324308Y-116119173D01*
X169181662Y-116462701D01*
X169181338Y-116834667D01*
X169323383Y-117178443D01*
X169356500Y-117211618D01*
X169356500Y-125730000D01*
X169414352Y-126020839D01*
X169474836Y-126111360D01*
X168872000Y-126111360D01*
X168636683Y-126155638D01*
X168420559Y-126294710D01*
X168275569Y-126506910D01*
X168224560Y-126758800D01*
X168224560Y-128358800D01*
X168268838Y-128594117D01*
X168407910Y-128810241D01*
X168620110Y-128955231D01*
X168858201Y-129003446D01*
X168843861Y-129051055D01*
X169672000Y-129879195D01*
X170500139Y-129051055D01*
X170485855Y-129003633D01*
X170707317Y-128961962D01*
X170923441Y-128822890D01*
X171068431Y-128610690D01*
X171119440Y-128358800D01*
X171119440Y-127807742D01*
X174356583Y-131044885D01*
X174129336Y-131139013D01*
X174030673Y-131405868D01*
X175003600Y-132378795D01*
X175017743Y-132364653D01*
X175197348Y-132544258D01*
X175183205Y-132558400D01*
X176156132Y-133531327D01*
X176422987Y-133432664D01*
X176649508Y-132822939D01*
X176625456Y-132172940D01*
X176533257Y-131950352D01*
X176820839Y-131893148D01*
X177067401Y-131728401D01*
X179480401Y-129315401D01*
X179645148Y-129068840D01*
X179657600Y-129006240D01*
X179703000Y-128778000D01*
X179703000Y-126555500D01*
X179645148Y-126264661D01*
X179560588Y-126138107D01*
X179560662Y-126052833D01*
X179418617Y-125709057D01*
X179155827Y-125445808D01*
X178812299Y-125303162D01*
X178440333Y-125302838D01*
X178104440Y-125441626D01*
X178104440Y-124041000D01*
X178060162Y-123805683D01*
X177921090Y-123589559D01*
X177708890Y-123444569D01*
X177546000Y-123411583D01*
X177546000Y-121435000D01*
X177478329Y-121094794D01*
X177436440Y-121032103D01*
X177436440Y-120712000D01*
X177392162Y-120476683D01*
X177253090Y-120260559D01*
X177077768Y-120140767D01*
X177240441Y-120036090D01*
X177385431Y-119823890D01*
X177436440Y-119572000D01*
X177436440Y-118663905D01*
X177731167Y-118664162D01*
X178074943Y-118522117D01*
X178256632Y-118340745D01*
X178316673Y-118485698D01*
X178495301Y-118664327D01*
X178728690Y-118761000D01*
X179419250Y-118761000D01*
X179578000Y-118602250D01*
X179578000Y-117253000D01*
X179832000Y-117253000D01*
X179832000Y-118602250D01*
X179990750Y-118761000D01*
X180681310Y-118761000D01*
X180914699Y-118664327D01*
X181093327Y-118485698D01*
X181190000Y-118252309D01*
X181190000Y-117411750D01*
X181031250Y-117253000D01*
X179832000Y-117253000D01*
X179578000Y-117253000D01*
X179558000Y-117253000D01*
X179558000Y-116999000D01*
X179578000Y-116999000D01*
X179578000Y-115649750D01*
X179832000Y-115649750D01*
X179832000Y-116999000D01*
X181031250Y-116999000D01*
X181190000Y-116840250D01*
X181190000Y-115999691D01*
X181093327Y-115766302D01*
X180914699Y-115587673D01*
X180681310Y-115491000D01*
X179990750Y-115491000D01*
X179832000Y-115649750D01*
X179578000Y-115649750D01*
X179419250Y-115491000D01*
X178728690Y-115491000D01*
X178495301Y-115587673D01*
X178316673Y-115766302D01*
X178220000Y-115999691D01*
X178220000Y-116840250D01*
X178378748Y-116998998D01*
X178220000Y-116998998D01*
X178220000Y-117080732D01*
X178076327Y-116936808D01*
X177732799Y-116794162D01*
X177360833Y-116793838D01*
X177249112Y-116840000D01*
X177152445Y-116840000D01*
X177498005Y-116696864D01*
X177572139Y-116450745D01*
X176744000Y-115622605D01*
X175915861Y-116450745D01*
X175989995Y-116696864D01*
X176483969Y-116874418D01*
X176316794Y-116907671D01*
X176111867Y-117044599D01*
X176028382Y-117100382D01*
X175835382Y-117293382D01*
X175642671Y-117581794D01*
X175575000Y-117922000D01*
X175575000Y-118212646D01*
X175542569Y-118260110D01*
X175514824Y-118397120D01*
X175492162Y-118276683D01*
X175353090Y-118060559D01*
X175140890Y-117915569D01*
X175133000Y-117913971D01*
X175133000Y-116873693D01*
X175279317Y-116846162D01*
X175495441Y-116707090D01*
X175640431Y-116494890D01*
X175688646Y-116256799D01*
X175736255Y-116271139D01*
X176564395Y-115443000D01*
X176923605Y-115443000D01*
X177751745Y-116271139D01*
X177997864Y-116197005D01*
X178190965Y-115659777D01*
X178163778Y-115089546D01*
X177997864Y-114688995D01*
X177751745Y-114614861D01*
X176923605Y-115443000D01*
X176564395Y-115443000D01*
X176550252Y-115428858D01*
X176729858Y-115249252D01*
X176744000Y-115263395D01*
X177572139Y-114435255D01*
X177502992Y-114205691D01*
X181874000Y-114205691D01*
X181874000Y-114796250D01*
X182032750Y-114955000D01*
X183007000Y-114955000D01*
X183007000Y-113855750D01*
X182848250Y-113697000D01*
X182382690Y-113697000D01*
X182149301Y-113793673D01*
X181970673Y-113972302D01*
X181874000Y-114205691D01*
X177502992Y-114205691D01*
X177498005Y-114189136D01*
X176960777Y-113996035D01*
X176814213Y-114003023D01*
X176898236Y-113919000D01*
X177736500Y-113919000D01*
X178076706Y-113851329D01*
X178365118Y-113658618D01*
X179184236Y-112839500D01*
X182702264Y-112839500D01*
X183559764Y-113697000D01*
X183419750Y-113697000D01*
X183261000Y-113855750D01*
X183261000Y-114955000D01*
X183281000Y-114955000D01*
X183281000Y-115209000D01*
X183261000Y-115209000D01*
X183261000Y-115229000D01*
X183007000Y-115229000D01*
X183007000Y-115209000D01*
X182032750Y-115209000D01*
X181874000Y-115367750D01*
X181874000Y-115958309D01*
X181970673Y-116191698D01*
X182111910Y-116332936D01*
X182057559Y-116367910D01*
X181912569Y-116580110D01*
X181861560Y-116832000D01*
X181861560Y-118210560D01*
X181638000Y-118210560D01*
X181402683Y-118254838D01*
X181186559Y-118393910D01*
X181041569Y-118606110D01*
X180990560Y-118858000D01*
X180990560Y-119655065D01*
X180806890Y-119529569D01*
X180555000Y-119478560D01*
X178855000Y-119478560D01*
X178619683Y-119522838D01*
X178403559Y-119661910D01*
X178258569Y-119874110D01*
X178207560Y-120126000D01*
X178207560Y-122126000D01*
X178251838Y-122361317D01*
X178390910Y-122577441D01*
X178603110Y-122722431D01*
X178855000Y-122773440D01*
X180555000Y-122773440D01*
X180790317Y-122729162D01*
X181006441Y-122590090D01*
X181151431Y-122377890D01*
X181194514Y-122165140D01*
X181229000Y-122172000D01*
X181743655Y-122172000D01*
X181796852Y-122439439D01*
X181961599Y-122686001D01*
X182476528Y-123200930D01*
X182453162Y-123257201D01*
X182452838Y-123629167D01*
X182594883Y-123972943D01*
X182764209Y-124142565D01*
X182595808Y-124310673D01*
X182453162Y-124654201D01*
X182452838Y-125026167D01*
X182594883Y-125369943D01*
X182857673Y-125633192D01*
X182961046Y-125676117D01*
X182960838Y-125915167D01*
X183102883Y-126258943D01*
X183208710Y-126364954D01*
X183103808Y-126469673D01*
X182961162Y-126813201D01*
X182960838Y-127185167D01*
X182969115Y-127205200D01*
X182778400Y-127205200D01*
X182487561Y-127263052D01*
X182240999Y-127427799D01*
X182076252Y-127674361D01*
X182020884Y-127952714D01*
X177711120Y-132262478D01*
X177665633Y-132262438D01*
X177321857Y-132404483D01*
X177058608Y-132667273D01*
X176915962Y-133010801D01*
X176915638Y-133382767D01*
X177057683Y-133726543D01*
X177320473Y-133989792D01*
X177664001Y-134132438D01*
X178035967Y-134132762D01*
X178379743Y-133990717D01*
X178642992Y-133727927D01*
X178785638Y-133384399D01*
X178785679Y-133337523D01*
X183315801Y-128807401D01*
X183370726Y-128725200D01*
X190093600Y-128725200D01*
X190384439Y-128667348D01*
X190563954Y-128547400D01*
X192888998Y-128547400D01*
X193179837Y-128489548D01*
X193426399Y-128324801D01*
X194914738Y-126836462D01*
X195159639Y-126787748D01*
X195406201Y-126623001D01*
X197831457Y-124197745D01*
X200379861Y-124197745D01*
X200453995Y-124443864D01*
X200991223Y-124636965D01*
X201561454Y-124609778D01*
X201962005Y-124443864D01*
X202036139Y-124197745D01*
X201208000Y-123369605D01*
X200379861Y-124197745D01*
X197831457Y-124197745D01*
X199055979Y-122973223D01*
X199761035Y-122973223D01*
X199788222Y-123543454D01*
X199954136Y-123944005D01*
X200200255Y-124018139D01*
X201028395Y-123190000D01*
X200200255Y-122361861D01*
X199954136Y-122435995D01*
X199761035Y-122973223D01*
X199055979Y-122973223D01*
X200283001Y-121746201D01*
X200354904Y-121638590D01*
X200374883Y-121686943D01*
X200574014Y-121886422D01*
X200453995Y-121936136D01*
X200379861Y-122182255D01*
X201208000Y-123010395D01*
X202036139Y-122182255D01*
X201962005Y-121936136D01*
X201778150Y-121870051D01*
X201960192Y-121688327D01*
X202006549Y-121576687D01*
X202116618Y-121466618D01*
X202309329Y-121178206D01*
X202377000Y-120838000D01*
X202377000Y-120674354D01*
X202409431Y-120626890D01*
X202437176Y-120489880D01*
X202459838Y-120610317D01*
X202565000Y-120773743D01*
X202565000Y-120851250D01*
X202723750Y-121010000D01*
X202819000Y-121010000D01*
X202819000Y-121759307D01*
X202672683Y-121786838D01*
X202456559Y-121925910D01*
X202311569Y-122138110D01*
X202263354Y-122376201D01*
X202215745Y-122361861D01*
X201387605Y-123190000D01*
X202215745Y-124018139D01*
X202263167Y-124003855D01*
X202304838Y-124225317D01*
X202443910Y-124441441D01*
X202656110Y-124586431D01*
X202908000Y-124637440D01*
X204508000Y-124637440D01*
X204743317Y-124593162D01*
X204959441Y-124454090D01*
X205104431Y-124241890D01*
X205155440Y-123990000D01*
X205155440Y-122390000D01*
X205121034Y-122207146D01*
X205125943Y-122205117D01*
X205389192Y-121942327D01*
X205531838Y-121598799D01*
X205532162Y-121226833D01*
X205495639Y-121138440D01*
X206365000Y-121138440D01*
X206600317Y-121094162D01*
X206816441Y-120955090D01*
X206961431Y-120742890D01*
X207012440Y-120491000D01*
X207012440Y-118991000D01*
X206968162Y-118755683D01*
X206829090Y-118539559D01*
X206760994Y-118493031D01*
X206903327Y-118350698D01*
X207000000Y-118117309D01*
X207000000Y-117526750D01*
X206841250Y-117368000D01*
X205867000Y-117368000D01*
X205867000Y-117388000D01*
X205613000Y-117388000D01*
X205613000Y-117368000D01*
X204638750Y-117368000D01*
X204557993Y-117448757D01*
X204360440Y-117251204D01*
X204360440Y-117115000D01*
X204316162Y-116879683D01*
X204177090Y-116663559D01*
X203964890Y-116518569D01*
X203713000Y-116467560D01*
X203063000Y-116467560D01*
X202827683Y-116511838D01*
X202611559Y-116650910D01*
X202466569Y-116863110D01*
X202438824Y-117000120D01*
X202416162Y-116879683D01*
X202277090Y-116663559D01*
X202064890Y-116518569D01*
X202057000Y-116516971D01*
X202057000Y-116364691D01*
X204480000Y-116364691D01*
X204480000Y-116955250D01*
X204638750Y-117114000D01*
X205613000Y-117114000D01*
X205613000Y-116014750D01*
X205867000Y-116014750D01*
X205867000Y-117114000D01*
X206841250Y-117114000D01*
X207000000Y-116955250D01*
X207000000Y-116364691D01*
X206903327Y-116131302D01*
X206724699Y-115952673D01*
X206491310Y-115856000D01*
X206025750Y-115856000D01*
X205867000Y-116014750D01*
X205613000Y-116014750D01*
X205454250Y-115856000D01*
X204988690Y-115856000D01*
X204755301Y-115952673D01*
X204576673Y-116131302D01*
X204480000Y-116364691D01*
X202057000Y-116364691D01*
X202057000Y-115349693D01*
X202203317Y-115322162D01*
X202419441Y-115183090D01*
X202564431Y-114970890D01*
X202573370Y-114926745D01*
X202839861Y-114926745D01*
X202913995Y-115172864D01*
X203451223Y-115365965D01*
X204021454Y-115338778D01*
X204422005Y-115172864D01*
X204496139Y-114926745D01*
X203668000Y-114098605D01*
X202839861Y-114926745D01*
X202573370Y-114926745D01*
X202612646Y-114732799D01*
X202660255Y-114747139D01*
X203488395Y-113919000D01*
X203847605Y-113919000D01*
X204675745Y-114747139D01*
X204921864Y-114673005D01*
X205114965Y-114135777D01*
X205087778Y-113565546D01*
X204921864Y-113164995D01*
X204675745Y-113090861D01*
X203847605Y-113919000D01*
X203488395Y-113919000D01*
X202660255Y-113090861D01*
X202612833Y-113105145D01*
X202576351Y-112911255D01*
X202839861Y-112911255D01*
X203668000Y-113739395D01*
X204496139Y-112911255D01*
X204422005Y-112665136D01*
X203884777Y-112472035D01*
X203314546Y-112499222D01*
X202913995Y-112665136D01*
X202839861Y-112911255D01*
X202576351Y-112911255D01*
X202571162Y-112883683D01*
X202432090Y-112667559D01*
X202219890Y-112522569D01*
X201968000Y-112471560D01*
X200368000Y-112471560D01*
X200132683Y-112515838D01*
X199916559Y-112654910D01*
X199771569Y-112867110D01*
X199738583Y-113030000D01*
X198755000Y-113030000D01*
X198414794Y-113097671D01*
X198135933Y-113284000D01*
X194945000Y-113284000D01*
X194604794Y-113351671D01*
X194316382Y-113544382D01*
X194068764Y-113792000D01*
X193147000Y-113792000D01*
X192806795Y-113859670D01*
X192522000Y-114049965D01*
X192522000Y-113570691D01*
X192425327Y-113337302D01*
X192246699Y-113158673D01*
X192013310Y-113062000D01*
X191796724Y-113062000D01*
X192452632Y-113044836D01*
X193060480Y-112793057D01*
X193192172Y-112498177D01*
X192024000Y-111330005D01*
X192009858Y-111344148D01*
X191830253Y-111164543D01*
X191844395Y-111150400D01*
X192203605Y-111150400D01*
X193371777Y-112318572D01*
X193666657Y-112186880D01*
X193938261Y-111479364D01*
X193918436Y-110721768D01*
X193666657Y-110113920D01*
X193371777Y-109982228D01*
X192203605Y-111150400D01*
X191844395Y-111150400D01*
X190676223Y-109982228D01*
X190381343Y-110113920D01*
X190109739Y-110821436D01*
X190123451Y-111345415D01*
X189706218Y-110928182D01*
X189417805Y-110735471D01*
X189204778Y-110693097D01*
X189204930Y-110519135D01*
X188915522Y-109818714D01*
X188899460Y-109802623D01*
X190855828Y-109802623D01*
X192024000Y-110970795D01*
X193192172Y-109802623D01*
X193060480Y-109507743D01*
X192352964Y-109236139D01*
X191595368Y-109255964D01*
X190987520Y-109507743D01*
X190855828Y-109802623D01*
X188899460Y-109802623D01*
X188380105Y-109282361D01*
X187680190Y-108991732D01*
X186922335Y-108991070D01*
X186221914Y-109280478D01*
X185685561Y-109815895D01*
X185623406Y-109965581D01*
X185562722Y-109818714D01*
X185027305Y-109282361D01*
X184992629Y-109267963D01*
X184981818Y-109251782D01*
X184693406Y-109059071D01*
X184353200Y-108991400D01*
X184335209Y-108994979D01*
X184327390Y-108991732D01*
X183569535Y-108991070D01*
X182869114Y-109280478D01*
X182332761Y-109815895D01*
X182042132Y-110515810D01*
X182041655Y-111061500D01*
X179192302Y-111061500D01*
X179226401Y-111027401D01*
X179391148Y-110780839D01*
X179449000Y-110490000D01*
X179449000Y-109534802D01*
X180718302Y-108265500D01*
X195135500Y-108265500D01*
X195426339Y-108207648D01*
X195672901Y-108042901D01*
X197116680Y-106599122D01*
X197162167Y-106599162D01*
X197505943Y-106457117D01*
X197769192Y-106194327D01*
X197911838Y-105850799D01*
X197912162Y-105478833D01*
X197770117Y-105135057D01*
X197507327Y-104871808D01*
X197163799Y-104729162D01*
X196791833Y-104728838D01*
X196448057Y-104870883D01*
X196201428Y-105117082D01*
X196182617Y-105071557D01*
X195919827Y-104808308D01*
X195576299Y-104665662D01*
X195204333Y-104665338D01*
X194860557Y-104807383D01*
X194597308Y-105070173D01*
X194454662Y-105413701D01*
X194454621Y-105460577D01*
X193741198Y-106174000D01*
X190228388Y-106174000D01*
X190228662Y-105859833D01*
X190094791Y-105535840D01*
X190147200Y-105535840D01*
X190329009Y-105501630D01*
X190411673Y-105701199D01*
X190590302Y-105879827D01*
X190823691Y-105976500D01*
X191914250Y-105976500D01*
X192073000Y-105817750D01*
X192073000Y-104218500D01*
X192327000Y-104218500D01*
X192327000Y-105817750D01*
X192485750Y-105976500D01*
X193576309Y-105976500D01*
X193809698Y-105879827D01*
X193988327Y-105701199D01*
X194085000Y-105467810D01*
X194085000Y-104377250D01*
X193926250Y-104218500D01*
X192327000Y-104218500D01*
X192073000Y-104218500D01*
X192053000Y-104218500D01*
X192053000Y-103964500D01*
X192073000Y-103964500D01*
X192073000Y-103944500D01*
X192327000Y-103944500D01*
X192327000Y-103964500D01*
X193926250Y-103964500D01*
X194085000Y-103805750D01*
X194085000Y-102715190D01*
X193988327Y-102481801D01*
X193966662Y-102460136D01*
X194046431Y-102343390D01*
X194057482Y-102288820D01*
X194160673Y-102392192D01*
X194504201Y-102534838D01*
X194718534Y-102535025D01*
X194786883Y-102700443D01*
X195049673Y-102963692D01*
X195393201Y-103106338D01*
X195765167Y-103106662D01*
X196108943Y-102964617D01*
X196372192Y-102701827D01*
X196514838Y-102358299D01*
X196515162Y-101986333D01*
X196373117Y-101642557D01*
X196340000Y-101609382D01*
X196340000Y-95437802D01*
X197116680Y-94661122D01*
X197162167Y-94661162D01*
X197453500Y-94540786D01*
X197453500Y-95102057D01*
X197166361Y-95388695D01*
X196875732Y-96088610D01*
X196875070Y-96846465D01*
X197164478Y-97546886D01*
X197453500Y-97836413D01*
X197453500Y-99738823D01*
X197238183Y-99779338D01*
X197022059Y-99918410D01*
X196877069Y-100130610D01*
X196826060Y-100382500D01*
X196826060Y-102182500D01*
X196870338Y-102417817D01*
X197009410Y-102633941D01*
X197221610Y-102778931D01*
X197473500Y-102829940D01*
X199973500Y-102829940D01*
X200208817Y-102785662D01*
X200424941Y-102646590D01*
X200569931Y-102434390D01*
X200620940Y-102182500D01*
X200620940Y-100382500D01*
X200576662Y-100147183D01*
X200437590Y-99931059D01*
X200225390Y-99786069D01*
X199993500Y-99739110D01*
X199993500Y-97949944D01*
X200394439Y-97549705D01*
X200685068Y-96849790D01*
X200685730Y-96091935D01*
X200396322Y-95391514D01*
X199993500Y-94987988D01*
X199993500Y-93077052D01*
X200863523Y-92207028D01*
X200993908Y-92235312D01*
X201246479Y-92187788D01*
X201460661Y-92045743D01*
X202662743Y-90843661D01*
X202797828Y-90645958D01*
X202852312Y-90394796D01*
X202804788Y-90142225D01*
X202662743Y-89928043D01*
X201964200Y-89229500D01*
X208531402Y-89229500D01*
X208281068Y-89276603D01*
G36*
X213584546Y-124317085D02*
X213906453Y-124798854D01*
X214235626Y-125018800D01*
X213906453Y-125238746D01*
X213584546Y-125720515D01*
X213471507Y-126288800D01*
X213584546Y-126857085D01*
X213906453Y-127338854D01*
X213950377Y-127368203D01*
X213775902Y-127440473D01*
X213597273Y-127619101D01*
X213500600Y-127852490D01*
X213500600Y-128543050D01*
X213659350Y-128701800D01*
X214858600Y-128701800D01*
X214858600Y-128681800D01*
X215112600Y-128681800D01*
X215112600Y-128701800D01*
X215132600Y-128701800D01*
X215132600Y-128955800D01*
X215112600Y-128955800D01*
X215112600Y-130155050D01*
X215271350Y-130313800D01*
X215961909Y-130313800D01*
X216195298Y-130217127D01*
X216206000Y-130206425D01*
X216206000Y-131127351D01*
X215707339Y-130942092D01*
X215057340Y-130966144D01*
X214568536Y-131168613D01*
X214469873Y-131435468D01*
X215442800Y-132408395D01*
X215456943Y-132394253D01*
X215636548Y-132573858D01*
X215622405Y-132588000D01*
X215636548Y-132602143D01*
X215456943Y-132781748D01*
X215442800Y-132767605D01*
X214469873Y-133740532D01*
X214568536Y-134007387D01*
X215178261Y-134233908D01*
X215828260Y-134209856D01*
X216206000Y-134053391D01*
X216206000Y-135634556D01*
X215769448Y-135453284D01*
X215119005Y-135452716D01*
X214517857Y-135701106D01*
X214057522Y-136160637D01*
X213808084Y-136761352D01*
X213807516Y-137411795D01*
X213961102Y-137783500D01*
X212488198Y-137783500D01*
X212729001Y-137622601D01*
X212893748Y-137376039D01*
X212951600Y-137085200D01*
X212893748Y-136794361D01*
X212729001Y-136547799D01*
X212482439Y-136383052D01*
X212191600Y-136325200D01*
X211358505Y-136325200D01*
X211350327Y-136317008D01*
X211006799Y-136174362D01*
X210634833Y-136174038D01*
X210378068Y-136280131D01*
X210329694Y-136163057D01*
X209939572Y-135772253D01*
X210056327Y-135655499D01*
X210153000Y-135422110D01*
X210153000Y-134956550D01*
X209994250Y-134797800D01*
X208895000Y-134797800D01*
X208895000Y-134817800D01*
X208641000Y-134817800D01*
X208641000Y-134797800D01*
X208621000Y-134797800D01*
X208621000Y-134543800D01*
X208641000Y-134543800D01*
X208641000Y-134523800D01*
X208895000Y-134523800D01*
X208895000Y-134543800D01*
X209994250Y-134543800D01*
X210153000Y-134385050D01*
X210153000Y-133919490D01*
X210056327Y-133686101D01*
X209877698Y-133507473D01*
X209644309Y-133410800D01*
X209585995Y-133410800D01*
X208942800Y-132767605D01*
X208928658Y-132781748D01*
X208749053Y-132602143D01*
X208763195Y-132588000D01*
X208749053Y-132573858D01*
X208928658Y-132394253D01*
X208942800Y-132408395D01*
X208956943Y-132394253D01*
X209136548Y-132573858D01*
X209122405Y-132588000D01*
X210095332Y-133560927D01*
X210362187Y-133462264D01*
X210588708Y-132852539D01*
X210569131Y-132323461D01*
X213796892Y-132323461D01*
X213820944Y-132973460D01*
X214023413Y-133462264D01*
X214290268Y-133560927D01*
X215263195Y-132588000D01*
X214290268Y-131615073D01*
X214023413Y-131713736D01*
X213796892Y-132323461D01*
X210569131Y-132323461D01*
X210564656Y-132202540D01*
X210362187Y-131713736D01*
X210286182Y-131685635D01*
X210391107Y-131665892D01*
X210607231Y-131526820D01*
X210732492Y-131343494D01*
X210842320Y-131514171D01*
X211054520Y-131659161D01*
X211306410Y-131710170D01*
X212406230Y-131710170D01*
X212641547Y-131665892D01*
X212857671Y-131526820D01*
X213002661Y-131314620D01*
X213053670Y-131062730D01*
X213053670Y-129114550D01*
X213500600Y-129114550D01*
X213500600Y-129805110D01*
X213597273Y-130038499D01*
X213775902Y-130217127D01*
X214009291Y-130313800D01*
X214699850Y-130313800D01*
X214858600Y-130155050D01*
X214858600Y-128955800D01*
X213659350Y-128955800D01*
X213500600Y-129114550D01*
X213053670Y-129114550D01*
X213053670Y-127763270D01*
X213009392Y-127527953D01*
X212916500Y-127383595D01*
X212916500Y-126591757D01*
X212957941Y-126565090D01*
X213102931Y-126352890D01*
X213153940Y-126101000D01*
X213153940Y-125851000D01*
X213129556Y-125721411D01*
X213153940Y-125601000D01*
X213153940Y-125351000D01*
X213129556Y-125221411D01*
X213153940Y-125101000D01*
X213153940Y-124851000D01*
X213109662Y-124615683D01*
X213045433Y-124515869D01*
X213528082Y-124033220D01*
X213584546Y-124317085D01*
X213584546Y-124317085D01*
G37*
X213584546Y-124317085D02*
X213906453Y-124798854D01*
X214235626Y-125018800D01*
X213906453Y-125238746D01*
X213584546Y-125720515D01*
X213471507Y-126288800D01*
X213584546Y-126857085D01*
X213906453Y-127338854D01*
X213950377Y-127368203D01*
X213775902Y-127440473D01*
X213597273Y-127619101D01*
X213500600Y-127852490D01*
X213500600Y-128543050D01*
X213659350Y-128701800D01*
X214858600Y-128701800D01*
X214858600Y-128681800D01*
X215112600Y-128681800D01*
X215112600Y-128701800D01*
X215132600Y-128701800D01*
X215132600Y-128955800D01*
X215112600Y-128955800D01*
X215112600Y-130155050D01*
X215271350Y-130313800D01*
X215961909Y-130313800D01*
X216195298Y-130217127D01*
X216206000Y-130206425D01*
X216206000Y-131127351D01*
X215707339Y-130942092D01*
X215057340Y-130966144D01*
X214568536Y-131168613D01*
X214469873Y-131435468D01*
X215442800Y-132408395D01*
X215456943Y-132394253D01*
X215636548Y-132573858D01*
X215622405Y-132588000D01*
X215636548Y-132602143D01*
X215456943Y-132781748D01*
X215442800Y-132767605D01*
X214469873Y-133740532D01*
X214568536Y-134007387D01*
X215178261Y-134233908D01*
X215828260Y-134209856D01*
X216206000Y-134053391D01*
X216206000Y-135634556D01*
X215769448Y-135453284D01*
X215119005Y-135452716D01*
X214517857Y-135701106D01*
X214057522Y-136160637D01*
X213808084Y-136761352D01*
X213807516Y-137411795D01*
X213961102Y-137783500D01*
X212488198Y-137783500D01*
X212729001Y-137622601D01*
X212893748Y-137376039D01*
X212951600Y-137085200D01*
X212893748Y-136794361D01*
X212729001Y-136547799D01*
X212482439Y-136383052D01*
X212191600Y-136325200D01*
X211358505Y-136325200D01*
X211350327Y-136317008D01*
X211006799Y-136174362D01*
X210634833Y-136174038D01*
X210378068Y-136280131D01*
X210329694Y-136163057D01*
X209939572Y-135772253D01*
X210056327Y-135655499D01*
X210153000Y-135422110D01*
X210153000Y-134956550D01*
X209994250Y-134797800D01*
X208895000Y-134797800D01*
X208895000Y-134817800D01*
X208641000Y-134817800D01*
X208641000Y-134797800D01*
X208621000Y-134797800D01*
X208621000Y-134543800D01*
X208641000Y-134543800D01*
X208641000Y-134523800D01*
X208895000Y-134523800D01*
X208895000Y-134543800D01*
X209994250Y-134543800D01*
X210153000Y-134385050D01*
X210153000Y-133919490D01*
X210056327Y-133686101D01*
X209877698Y-133507473D01*
X209644309Y-133410800D01*
X209585995Y-133410800D01*
X208942800Y-132767605D01*
X208928658Y-132781748D01*
X208749053Y-132602143D01*
X208763195Y-132588000D01*
X208749053Y-132573858D01*
X208928658Y-132394253D01*
X208942800Y-132408395D01*
X208956943Y-132394253D01*
X209136548Y-132573858D01*
X209122405Y-132588000D01*
X210095332Y-133560927D01*
X210362187Y-133462264D01*
X210588708Y-132852539D01*
X210569131Y-132323461D01*
X213796892Y-132323461D01*
X213820944Y-132973460D01*
X214023413Y-133462264D01*
X214290268Y-133560927D01*
X215263195Y-132588000D01*
X214290268Y-131615073D01*
X214023413Y-131713736D01*
X213796892Y-132323461D01*
X210569131Y-132323461D01*
X210564656Y-132202540D01*
X210362187Y-131713736D01*
X210286182Y-131685635D01*
X210391107Y-131665892D01*
X210607231Y-131526820D01*
X210732492Y-131343494D01*
X210842320Y-131514171D01*
X211054520Y-131659161D01*
X211306410Y-131710170D01*
X212406230Y-131710170D01*
X212641547Y-131665892D01*
X212857671Y-131526820D01*
X213002661Y-131314620D01*
X213053670Y-131062730D01*
X213053670Y-129114550D01*
X213500600Y-129114550D01*
X213500600Y-129805110D01*
X213597273Y-130038499D01*
X213775902Y-130217127D01*
X214009291Y-130313800D01*
X214699850Y-130313800D01*
X214858600Y-130155050D01*
X214858600Y-128955800D01*
X213659350Y-128955800D01*
X213500600Y-129114550D01*
X213053670Y-129114550D01*
X213053670Y-127763270D01*
X213009392Y-127527953D01*
X212916500Y-127383595D01*
X212916500Y-126591757D01*
X212957941Y-126565090D01*
X213102931Y-126352890D01*
X213153940Y-126101000D01*
X213153940Y-125851000D01*
X213129556Y-125721411D01*
X213153940Y-125601000D01*
X213153940Y-125351000D01*
X213129556Y-125221411D01*
X213153940Y-125101000D01*
X213153940Y-124851000D01*
X213109662Y-124615683D01*
X213045433Y-124515869D01*
X213528082Y-124033220D01*
X213584546Y-124317085D01*
G36*
X198960200Y-116316602D02*
X198960200Y-120919398D01*
X194544860Y-125334738D01*
X194299959Y-125383452D01*
X194053397Y-125548199D01*
X193605277Y-125996319D01*
X193577401Y-125954599D01*
X193248000Y-125625198D01*
X193248000Y-124212478D01*
X193271673Y-124236192D01*
X193615201Y-124378838D01*
X193987167Y-124379162D01*
X194330943Y-124237117D01*
X194594192Y-123974327D01*
X194736838Y-123630799D01*
X194736850Y-123617151D01*
X194749167Y-123617162D01*
X195092943Y-123475117D01*
X195356192Y-123212327D01*
X195498838Y-122868799D01*
X195499067Y-122605440D01*
X195613000Y-122605440D01*
X195848317Y-122561162D01*
X196064441Y-122422090D01*
X196209431Y-122209890D01*
X196260440Y-121958000D01*
X196260440Y-121489734D01*
X196338000Y-121505440D01*
X197838000Y-121505440D01*
X198073317Y-121461162D01*
X198289441Y-121322090D01*
X198434431Y-121109890D01*
X198485440Y-120858000D01*
X198485440Y-118858000D01*
X198441162Y-118622683D01*
X198302090Y-118406559D01*
X198089890Y-118261569D01*
X197838000Y-118210560D01*
X196338000Y-118210560D01*
X196102683Y-118254838D01*
X195886559Y-118393910D01*
X195741569Y-118606110D01*
X195690560Y-118858000D01*
X195690560Y-119726266D01*
X195613000Y-119710560D01*
X195363000Y-119710560D01*
X195233411Y-119734944D01*
X195179547Y-119724036D01*
X195244838Y-119566799D01*
X195245162Y-119194833D01*
X195103117Y-118851057D01*
X194840327Y-118587808D01*
X194823684Y-118580897D01*
X194965943Y-118522117D01*
X195229192Y-118259327D01*
X195371838Y-117915799D01*
X195372089Y-117627353D01*
X195596317Y-117585162D01*
X195812441Y-117446090D01*
X195957431Y-117233890D01*
X195964191Y-117200510D01*
X196022673Y-117341699D01*
X196201302Y-117520327D01*
X196434691Y-117617000D01*
X197025250Y-117617000D01*
X197184000Y-117458250D01*
X197184000Y-116459000D01*
X197438000Y-116459000D01*
X197438000Y-117458250D01*
X197596750Y-117617000D01*
X198187309Y-117617000D01*
X198420698Y-117520327D01*
X198599327Y-117341699D01*
X198696000Y-117108310D01*
X198696000Y-116617750D01*
X198537250Y-116459000D01*
X197438000Y-116459000D01*
X197184000Y-116459000D01*
X197164000Y-116459000D01*
X197164000Y-116205000D01*
X197184000Y-116205000D01*
X197184000Y-116185000D01*
X197438000Y-116185000D01*
X197438000Y-116205000D01*
X198537250Y-116205000D01*
X198692924Y-116049326D01*
X198960200Y-116316602D01*
X198960200Y-116316602D01*
G37*
X198960200Y-116316602D02*
X198960200Y-120919398D01*
X194544860Y-125334738D01*
X194299959Y-125383452D01*
X194053397Y-125548199D01*
X193605277Y-125996319D01*
X193577401Y-125954599D01*
X193248000Y-125625198D01*
X193248000Y-124212478D01*
X193271673Y-124236192D01*
X193615201Y-124378838D01*
X193987167Y-124379162D01*
X194330943Y-124237117D01*
X194594192Y-123974327D01*
X194736838Y-123630799D01*
X194736850Y-123617151D01*
X194749167Y-123617162D01*
X195092943Y-123475117D01*
X195356192Y-123212327D01*
X195498838Y-122868799D01*
X195499067Y-122605440D01*
X195613000Y-122605440D01*
X195848317Y-122561162D01*
X196064441Y-122422090D01*
X196209431Y-122209890D01*
X196260440Y-121958000D01*
X196260440Y-121489734D01*
X196338000Y-121505440D01*
X197838000Y-121505440D01*
X198073317Y-121461162D01*
X198289441Y-121322090D01*
X198434431Y-121109890D01*
X198485440Y-120858000D01*
X198485440Y-118858000D01*
X198441162Y-118622683D01*
X198302090Y-118406559D01*
X198089890Y-118261569D01*
X197838000Y-118210560D01*
X196338000Y-118210560D01*
X196102683Y-118254838D01*
X195886559Y-118393910D01*
X195741569Y-118606110D01*
X195690560Y-118858000D01*
X195690560Y-119726266D01*
X195613000Y-119710560D01*
X195363000Y-119710560D01*
X195233411Y-119734944D01*
X195179547Y-119724036D01*
X195244838Y-119566799D01*
X195245162Y-119194833D01*
X195103117Y-118851057D01*
X194840327Y-118587808D01*
X194823684Y-118580897D01*
X194965943Y-118522117D01*
X195229192Y-118259327D01*
X195371838Y-117915799D01*
X195372089Y-117627353D01*
X195596317Y-117585162D01*
X195812441Y-117446090D01*
X195957431Y-117233890D01*
X195964191Y-117200510D01*
X196022673Y-117341699D01*
X196201302Y-117520327D01*
X196434691Y-117617000D01*
X197025250Y-117617000D01*
X197184000Y-117458250D01*
X197184000Y-116459000D01*
X197438000Y-116459000D01*
X197438000Y-117458250D01*
X197596750Y-117617000D01*
X198187309Y-117617000D01*
X198420698Y-117520327D01*
X198599327Y-117341699D01*
X198696000Y-117108310D01*
X198696000Y-116617750D01*
X198537250Y-116459000D01*
X197438000Y-116459000D01*
X197184000Y-116459000D01*
X197164000Y-116459000D01*
X197164000Y-116205000D01*
X197184000Y-116205000D01*
X197184000Y-116185000D01*
X197438000Y-116185000D01*
X197438000Y-116205000D01*
X198537250Y-116205000D01*
X198692924Y-116049326D01*
X198960200Y-116316602D01*
G36*
X190756000Y-124145198D02*
X189931198Y-124970000D01*
X189540802Y-124970000D01*
X190756000Y-123754802D01*
X190756000Y-124145198D01*
X190756000Y-124145198D01*
G37*
X190756000Y-124145198D02*
X189931198Y-124970000D01*
X189540802Y-124970000D01*
X190756000Y-123754802D01*
X190756000Y-124145198D01*
G36*
X184217201Y-119044838D02*
X184228000Y-119044847D01*
X184228000Y-119726600D01*
X184216247Y-119731468D01*
X184113000Y-119710560D01*
X183863000Y-119710560D01*
X183785440Y-119725154D01*
X183785440Y-118974465D01*
X183965935Y-118940503D01*
X184217201Y-119044838D01*
X184217201Y-119044838D01*
G37*
X184217201Y-119044838D02*
X184228000Y-119044847D01*
X184228000Y-119726600D01*
X184216247Y-119731468D01*
X184113000Y-119710560D01*
X183863000Y-119710560D01*
X183785440Y-119725154D01*
X183785440Y-118974465D01*
X183965935Y-118940503D01*
X184217201Y-119044838D01*
G36*
X190987520Y-112793057D02*
X191688104Y-113062000D01*
X191547750Y-113062000D01*
X191389000Y-113220750D01*
X191389000Y-114320000D01*
X191409000Y-114320000D01*
X191409000Y-114574000D01*
X191389000Y-114574000D01*
X191389000Y-114594000D01*
X191135000Y-114594000D01*
X191135000Y-114574000D01*
X190160750Y-114574000D01*
X190002000Y-114732750D01*
X190002000Y-115323309D01*
X190098673Y-115556698D01*
X190239910Y-115697936D01*
X190185559Y-115732910D01*
X190040569Y-115945110D01*
X190020995Y-116041769D01*
X189501868Y-116560896D01*
X189420976Y-116594320D01*
X189474000Y-116466309D01*
X189474000Y-115875750D01*
X189315250Y-115717000D01*
X188341000Y-115717000D01*
X188341000Y-115737000D01*
X188087000Y-115737000D01*
X188087000Y-115717000D01*
X188067000Y-115717000D01*
X188067000Y-115463000D01*
X188087000Y-115463000D01*
X188087000Y-115443000D01*
X188341000Y-115443000D01*
X188341000Y-115463000D01*
X189315250Y-115463000D01*
X189474000Y-115304250D01*
X189474000Y-114713691D01*
X189377327Y-114480302D01*
X189198699Y-114301673D01*
X188965310Y-114205000D01*
X188499750Y-114205000D01*
X188341002Y-114363748D01*
X188341002Y-114358800D01*
X188798180Y-113901622D01*
X188843667Y-113901662D01*
X189187443Y-113759617D01*
X189450692Y-113496827D01*
X189545504Y-113268496D01*
X189754401Y-113355238D01*
X190091122Y-113355531D01*
X190002000Y-113570691D01*
X190002000Y-114161250D01*
X190160750Y-114320000D01*
X191135000Y-114320000D01*
X191135000Y-113220750D01*
X190976250Y-113062000D01*
X190621925Y-113062000D01*
X190733392Y-112950727D01*
X190876038Y-112607199D01*
X190876093Y-112543555D01*
X190987520Y-112793057D01*
X190987520Y-112793057D01*
G37*
X190987520Y-112793057D02*
X191688104Y-113062000D01*
X191547750Y-113062000D01*
X191389000Y-113220750D01*
X191389000Y-114320000D01*
X191409000Y-114320000D01*
X191409000Y-114574000D01*
X191389000Y-114574000D01*
X191389000Y-114594000D01*
X191135000Y-114594000D01*
X191135000Y-114574000D01*
X190160750Y-114574000D01*
X190002000Y-114732750D01*
X190002000Y-115323309D01*
X190098673Y-115556698D01*
X190239910Y-115697936D01*
X190185559Y-115732910D01*
X190040569Y-115945110D01*
X190020995Y-116041769D01*
X189501868Y-116560896D01*
X189420976Y-116594320D01*
X189474000Y-116466309D01*
X189474000Y-115875750D01*
X189315250Y-115717000D01*
X188341000Y-115717000D01*
X188341000Y-115737000D01*
X188087000Y-115737000D01*
X188087000Y-115717000D01*
X188067000Y-115717000D01*
X188067000Y-115463000D01*
X188087000Y-115463000D01*
X188087000Y-115443000D01*
X188341000Y-115443000D01*
X188341000Y-115463000D01*
X189315250Y-115463000D01*
X189474000Y-115304250D01*
X189474000Y-114713691D01*
X189377327Y-114480302D01*
X189198699Y-114301673D01*
X188965310Y-114205000D01*
X188499750Y-114205000D01*
X188341002Y-114363748D01*
X188341002Y-114358800D01*
X188798180Y-113901622D01*
X188843667Y-113901662D01*
X189187443Y-113759617D01*
X189450692Y-113496827D01*
X189545504Y-113268496D01*
X189754401Y-113355238D01*
X190091122Y-113355531D01*
X190002000Y-113570691D01*
X190002000Y-114161250D01*
X190160750Y-114320000D01*
X191135000Y-114320000D01*
X191135000Y-113220750D01*
X190976250Y-113062000D01*
X190621925Y-113062000D01*
X190733392Y-112950727D01*
X190876038Y-112607199D01*
X190876093Y-112543555D01*
X190987520Y-112793057D01*
G36*
X196118038Y-115196367D02*
X196126976Y-115217999D01*
X196022673Y-115322301D01*
X195966346Y-115458287D01*
X195964162Y-115446683D01*
X195825090Y-115230559D01*
X195612890Y-115085569D01*
X195496503Y-115062000D01*
X196118155Y-115062000D01*
X196118038Y-115196367D01*
X196118038Y-115196367D01*
G37*
X196118038Y-115196367D02*
X196126976Y-115217999D01*
X196022673Y-115322301D01*
X195966346Y-115458287D01*
X195964162Y-115446683D01*
X195825090Y-115230559D01*
X195612890Y-115085569D01*
X195496503Y-115062000D01*
X196118155Y-115062000D01*
X196118038Y-115196367D01*
G36*
X171334686Y-89313794D02*
X171448966Y-89428074D01*
X171182113Y-89526736D01*
X170955592Y-90136461D01*
X170979644Y-90786460D01*
X171182113Y-91275264D01*
X171448968Y-91373927D01*
X172421895Y-90401000D01*
X172407753Y-90386858D01*
X172587358Y-90207253D01*
X172601500Y-90221395D01*
X172615643Y-90207253D01*
X172795248Y-90386858D01*
X172781105Y-90401000D01*
X173754032Y-91373927D01*
X174020887Y-91275264D01*
X174247408Y-90665539D01*
X174223356Y-90015540D01*
X174020887Y-89526736D01*
X173754034Y-89428074D01*
X173868314Y-89313794D01*
X173784020Y-89229500D01*
X175960786Y-89229500D01*
X175716222Y-89473637D01*
X175466784Y-90074352D01*
X175466216Y-90724795D01*
X175714606Y-91325943D01*
X176174137Y-91786278D01*
X176774852Y-92035716D01*
X177425295Y-92036284D01*
X178026443Y-91787894D01*
X178486778Y-91328363D01*
X178736216Y-90727648D01*
X178736784Y-90077205D01*
X178488394Y-89476057D01*
X178242268Y-89229500D01*
X190302560Y-89229500D01*
X190302560Y-89844633D01*
X190297490Y-89841169D01*
X190045600Y-89790160D01*
X188045600Y-89790160D01*
X187810283Y-89834438D01*
X187594159Y-89973510D01*
X187449169Y-90185710D01*
X187398160Y-90437600D01*
X187398160Y-91711309D01*
X187356117Y-91609557D01*
X187093327Y-91346308D01*
X186749799Y-91203662D01*
X186702923Y-91203621D01*
X186693040Y-91193738D01*
X186693040Y-90437600D01*
X186648762Y-90202283D01*
X186509690Y-89986159D01*
X186297490Y-89841169D01*
X186045600Y-89790160D01*
X184045600Y-89790160D01*
X183810283Y-89834438D01*
X183594159Y-89973510D01*
X183449169Y-90185710D01*
X183398160Y-90437600D01*
X183398160Y-92137600D01*
X183442438Y-92372917D01*
X183581510Y-92589041D01*
X183613245Y-92610725D01*
X183499969Y-92776510D01*
X183448960Y-93028400D01*
X183448960Y-94728400D01*
X183493238Y-94963717D01*
X183613415Y-95150477D01*
X183499969Y-95316510D01*
X183448960Y-95568400D01*
X183448960Y-97268400D01*
X183493238Y-97503717D01*
X183596580Y-97664315D01*
X183499969Y-97805710D01*
X183448960Y-98057600D01*
X183448960Y-99757600D01*
X183493238Y-99992917D01*
X183632310Y-100209041D01*
X183640382Y-100214557D01*
X183550769Y-100345710D01*
X183499760Y-100597600D01*
X183499760Y-102297600D01*
X183544038Y-102532917D01*
X183681049Y-102745838D01*
X183550769Y-102936510D01*
X183499760Y-103188400D01*
X183499760Y-104888400D01*
X183526216Y-105029000D01*
X178129040Y-105029000D01*
X178129040Y-103920800D01*
X178084762Y-103685483D01*
X177945690Y-103469359D01*
X177733490Y-103324369D01*
X177481600Y-103273360D01*
X176092028Y-103273360D01*
X176147000Y-102997000D01*
X176147000Y-102568240D01*
X177481600Y-102568240D01*
X177716917Y-102523962D01*
X177933041Y-102384890D01*
X178078031Y-102172690D01*
X178129040Y-101920800D01*
X178129040Y-99920800D01*
X178084762Y-99685483D01*
X177945690Y-99469359D01*
X177733490Y-99324369D01*
X177481600Y-99273360D01*
X176322147Y-99273360D01*
X176322162Y-99255833D01*
X176180117Y-98912057D01*
X175917327Y-98648808D01*
X175573799Y-98506162D01*
X175201833Y-98505838D01*
X174858057Y-98647883D01*
X174594808Y-98910673D01*
X174452162Y-99254201D01*
X174451838Y-99626167D01*
X174593883Y-99969943D01*
X174627000Y-100003118D01*
X174627000Y-102682198D01*
X174231320Y-103077878D01*
X174185833Y-103077838D01*
X173842057Y-103219883D01*
X173578808Y-103482673D01*
X173486240Y-103705600D01*
X173486240Y-102626400D01*
X173441962Y-102391083D01*
X173302890Y-102174959D01*
X173090690Y-102029969D01*
X172838800Y-101978960D01*
X171338800Y-101978960D01*
X171103483Y-102023238D01*
X170887359Y-102162310D01*
X170742369Y-102374510D01*
X170739719Y-102387597D01*
X170602890Y-102174959D01*
X170390690Y-102029969D01*
X170227000Y-101996821D01*
X170227000Y-101413236D01*
X171316618Y-100323618D01*
X171509329Y-100035206D01*
X171577000Y-99695000D01*
X171577000Y-98341189D01*
X171622838Y-98230799D01*
X171622988Y-98059120D01*
X171628574Y-98053534D01*
X171727236Y-98320387D01*
X172336961Y-98546908D01*
X172986960Y-98522856D01*
X173475764Y-98320387D01*
X173574427Y-98053532D01*
X172601500Y-97080605D01*
X172587358Y-97094748D01*
X172407753Y-96915143D01*
X172421895Y-96901000D01*
X172781105Y-96901000D01*
X173754032Y-97873927D01*
X174020887Y-97775264D01*
X174225393Y-97224795D01*
X175466216Y-97224795D01*
X175714606Y-97825943D01*
X176174137Y-98286278D01*
X176774852Y-98535716D01*
X177425295Y-98536284D01*
X178026443Y-98287894D01*
X178486778Y-97828363D01*
X178736216Y-97227648D01*
X178736784Y-96577205D01*
X178488394Y-95976057D01*
X178028863Y-95515722D01*
X177428148Y-95266284D01*
X176777705Y-95265716D01*
X176176557Y-95514106D01*
X175716222Y-95973637D01*
X175466784Y-96574352D01*
X175466216Y-97224795D01*
X174225393Y-97224795D01*
X174247408Y-97165539D01*
X174223356Y-96515540D01*
X174020887Y-96026736D01*
X173754032Y-95928073D01*
X172781105Y-96901000D01*
X172421895Y-96901000D01*
X171448968Y-95928073D01*
X171182113Y-96026736D01*
X170955592Y-96636461D01*
X170974617Y-97150610D01*
X170874799Y-97109162D01*
X170502833Y-97108838D01*
X170159057Y-97250883D01*
X169895808Y-97513673D01*
X169753162Y-97857201D01*
X169752838Y-98229167D01*
X169799000Y-98340888D01*
X169799000Y-99326764D01*
X168709382Y-100416382D01*
X168516671Y-100704794D01*
X168449000Y-101045000D01*
X168449000Y-102014673D01*
X168403483Y-102023238D01*
X168187359Y-102162310D01*
X168042369Y-102374510D01*
X167991360Y-102626400D01*
X167991360Y-103926400D01*
X168035638Y-104161717D01*
X168174710Y-104377841D01*
X168386910Y-104522831D01*
X168638800Y-104573840D01*
X169306358Y-104573840D01*
X169134599Y-104745599D01*
X168969852Y-104992161D01*
X168912000Y-105283000D01*
X168912000Y-106013000D01*
X168969852Y-106303839D01*
X169134599Y-106550401D01*
X169326560Y-106742362D01*
X169326560Y-108165000D01*
X169370838Y-108400317D01*
X169448928Y-108521672D01*
X169377569Y-108626110D01*
X169326560Y-108878000D01*
X169326560Y-108968000D01*
X168862509Y-108968000D01*
X168627527Y-108732608D01*
X168283999Y-108589962D01*
X167912033Y-108589638D01*
X167651500Y-108697288D01*
X167651500Y-95748468D01*
X171628573Y-95748468D01*
X172601500Y-96721395D01*
X173574427Y-95748468D01*
X173475764Y-95481613D01*
X172866039Y-95255092D01*
X172216040Y-95279144D01*
X171727236Y-95481613D01*
X171628573Y-95748468D01*
X167651500Y-95748468D01*
X167651500Y-91553532D01*
X171628573Y-91553532D01*
X171727236Y-91820387D01*
X172336961Y-92046908D01*
X172986960Y-92022856D01*
X173475764Y-91820387D01*
X173574427Y-91553532D01*
X172601500Y-90580605D01*
X171628573Y-91553532D01*
X167651500Y-91553532D01*
X167651500Y-89229500D01*
X171418980Y-89229500D01*
X171334686Y-89313794D01*
X171334686Y-89313794D01*
G37*
X171334686Y-89313794D02*
X171448966Y-89428074D01*
X171182113Y-89526736D01*
X170955592Y-90136461D01*
X170979644Y-90786460D01*
X171182113Y-91275264D01*
X171448968Y-91373927D01*
X172421895Y-90401000D01*
X172407753Y-90386858D01*
X172587358Y-90207253D01*
X172601500Y-90221395D01*
X172615643Y-90207253D01*
X172795248Y-90386858D01*
X172781105Y-90401000D01*
X173754032Y-91373927D01*
X174020887Y-91275264D01*
X174247408Y-90665539D01*
X174223356Y-90015540D01*
X174020887Y-89526736D01*
X173754034Y-89428074D01*
X173868314Y-89313794D01*
X173784020Y-89229500D01*
X175960786Y-89229500D01*
X175716222Y-89473637D01*
X175466784Y-90074352D01*
X175466216Y-90724795D01*
X175714606Y-91325943D01*
X176174137Y-91786278D01*
X176774852Y-92035716D01*
X177425295Y-92036284D01*
X178026443Y-91787894D01*
X178486778Y-91328363D01*
X178736216Y-90727648D01*
X178736784Y-90077205D01*
X178488394Y-89476057D01*
X178242268Y-89229500D01*
X190302560Y-89229500D01*
X190302560Y-89844633D01*
X190297490Y-89841169D01*
X190045600Y-89790160D01*
X188045600Y-89790160D01*
X187810283Y-89834438D01*
X187594159Y-89973510D01*
X187449169Y-90185710D01*
X187398160Y-90437600D01*
X187398160Y-91711309D01*
X187356117Y-91609557D01*
X187093327Y-91346308D01*
X186749799Y-91203662D01*
X186702923Y-91203621D01*
X186693040Y-91193738D01*
X186693040Y-90437600D01*
X186648762Y-90202283D01*
X186509690Y-89986159D01*
X186297490Y-89841169D01*
X186045600Y-89790160D01*
X184045600Y-89790160D01*
X183810283Y-89834438D01*
X183594159Y-89973510D01*
X183449169Y-90185710D01*
X183398160Y-90437600D01*
X183398160Y-92137600D01*
X183442438Y-92372917D01*
X183581510Y-92589041D01*
X183613245Y-92610725D01*
X183499969Y-92776510D01*
X183448960Y-93028400D01*
X183448960Y-94728400D01*
X183493238Y-94963717D01*
X183613415Y-95150477D01*
X183499969Y-95316510D01*
X183448960Y-95568400D01*
X183448960Y-97268400D01*
X183493238Y-97503717D01*
X183596580Y-97664315D01*
X183499969Y-97805710D01*
X183448960Y-98057600D01*
X183448960Y-99757600D01*
X183493238Y-99992917D01*
X183632310Y-100209041D01*
X183640382Y-100214557D01*
X183550769Y-100345710D01*
X183499760Y-100597600D01*
X183499760Y-102297600D01*
X183544038Y-102532917D01*
X183681049Y-102745838D01*
X183550769Y-102936510D01*
X183499760Y-103188400D01*
X183499760Y-104888400D01*
X183526216Y-105029000D01*
X178129040Y-105029000D01*
X178129040Y-103920800D01*
X178084762Y-103685483D01*
X177945690Y-103469359D01*
X177733490Y-103324369D01*
X177481600Y-103273360D01*
X176092028Y-103273360D01*
X176147000Y-102997000D01*
X176147000Y-102568240D01*
X177481600Y-102568240D01*
X177716917Y-102523962D01*
X177933041Y-102384890D01*
X178078031Y-102172690D01*
X178129040Y-101920800D01*
X178129040Y-99920800D01*
X178084762Y-99685483D01*
X177945690Y-99469359D01*
X177733490Y-99324369D01*
X177481600Y-99273360D01*
X176322147Y-99273360D01*
X176322162Y-99255833D01*
X176180117Y-98912057D01*
X175917327Y-98648808D01*
X175573799Y-98506162D01*
X175201833Y-98505838D01*
X174858057Y-98647883D01*
X174594808Y-98910673D01*
X174452162Y-99254201D01*
X174451838Y-99626167D01*
X174593883Y-99969943D01*
X174627000Y-100003118D01*
X174627000Y-102682198D01*
X174231320Y-103077878D01*
X174185833Y-103077838D01*
X173842057Y-103219883D01*
X173578808Y-103482673D01*
X173486240Y-103705600D01*
X173486240Y-102626400D01*
X173441962Y-102391083D01*
X173302890Y-102174959D01*
X173090690Y-102029969D01*
X172838800Y-101978960D01*
X171338800Y-101978960D01*
X171103483Y-102023238D01*
X170887359Y-102162310D01*
X170742369Y-102374510D01*
X170739719Y-102387597D01*
X170602890Y-102174959D01*
X170390690Y-102029969D01*
X170227000Y-101996821D01*
X170227000Y-101413236D01*
X171316618Y-100323618D01*
X171509329Y-100035206D01*
X171577000Y-99695000D01*
X171577000Y-98341189D01*
X171622838Y-98230799D01*
X171622988Y-98059120D01*
X171628574Y-98053534D01*
X171727236Y-98320387D01*
X172336961Y-98546908D01*
X172986960Y-98522856D01*
X173475764Y-98320387D01*
X173574427Y-98053532D01*
X172601500Y-97080605D01*
X172587358Y-97094748D01*
X172407753Y-96915143D01*
X172421895Y-96901000D01*
X172781105Y-96901000D01*
X173754032Y-97873927D01*
X174020887Y-97775264D01*
X174225393Y-97224795D01*
X175466216Y-97224795D01*
X175714606Y-97825943D01*
X176174137Y-98286278D01*
X176774852Y-98535716D01*
X177425295Y-98536284D01*
X178026443Y-98287894D01*
X178486778Y-97828363D01*
X178736216Y-97227648D01*
X178736784Y-96577205D01*
X178488394Y-95976057D01*
X178028863Y-95515722D01*
X177428148Y-95266284D01*
X176777705Y-95265716D01*
X176176557Y-95514106D01*
X175716222Y-95973637D01*
X175466784Y-96574352D01*
X175466216Y-97224795D01*
X174225393Y-97224795D01*
X174247408Y-97165539D01*
X174223356Y-96515540D01*
X174020887Y-96026736D01*
X173754032Y-95928073D01*
X172781105Y-96901000D01*
X172421895Y-96901000D01*
X171448968Y-95928073D01*
X171182113Y-96026736D01*
X170955592Y-96636461D01*
X170974617Y-97150610D01*
X170874799Y-97109162D01*
X170502833Y-97108838D01*
X170159057Y-97250883D01*
X169895808Y-97513673D01*
X169753162Y-97857201D01*
X169752838Y-98229167D01*
X169799000Y-98340888D01*
X169799000Y-99326764D01*
X168709382Y-100416382D01*
X168516671Y-100704794D01*
X168449000Y-101045000D01*
X168449000Y-102014673D01*
X168403483Y-102023238D01*
X168187359Y-102162310D01*
X168042369Y-102374510D01*
X167991360Y-102626400D01*
X167991360Y-103926400D01*
X168035638Y-104161717D01*
X168174710Y-104377841D01*
X168386910Y-104522831D01*
X168638800Y-104573840D01*
X169306358Y-104573840D01*
X169134599Y-104745599D01*
X168969852Y-104992161D01*
X168912000Y-105283000D01*
X168912000Y-106013000D01*
X168969852Y-106303839D01*
X169134599Y-106550401D01*
X169326560Y-106742362D01*
X169326560Y-108165000D01*
X169370838Y-108400317D01*
X169448928Y-108521672D01*
X169377569Y-108626110D01*
X169326560Y-108878000D01*
X169326560Y-108968000D01*
X168862509Y-108968000D01*
X168627527Y-108732608D01*
X168283999Y-108589962D01*
X167912033Y-108589638D01*
X167651500Y-108697288D01*
X167651500Y-95748468D01*
X171628573Y-95748468D01*
X172601500Y-96721395D01*
X173574427Y-95748468D01*
X173475764Y-95481613D01*
X172866039Y-95255092D01*
X172216040Y-95279144D01*
X171727236Y-95481613D01*
X171628573Y-95748468D01*
X167651500Y-95748468D01*
X167651500Y-91553532D01*
X171628573Y-91553532D01*
X171727236Y-91820387D01*
X172336961Y-92046908D01*
X172986960Y-92022856D01*
X173475764Y-91820387D01*
X173574427Y-91553532D01*
X172601500Y-90580605D01*
X171628573Y-91553532D01*
X167651500Y-91553532D01*
X167651500Y-89229500D01*
X171418980Y-89229500D01*
X171334686Y-89313794D01*
M02*
