G04 #@! TF.FileFunction,Soldermask,Bot*
%FSLAX46Y46*%
G04 Gerber Fmt 4.6, Leading zero omitted, Abs format (unit mm)*
G04 Created by KiCad (PCBNEW 4.0.6) date 10/19/17 05:59:14*
%MOMM*%
%LPD*%
G01*
G04 APERTURE LIST*
%ADD10C,0.100000*%
%ADD11O,2.900000X1.300000*%
%ADD12R,6.400000X6.400000*%
%ADD13C,2.400000*%
%ADD14R,3.400000X3.400000*%
%ADD15R,2.900000X2.900000*%
%ADD16R,2.000000X2.000000*%
%ADD17C,2.000000*%
%ADD18R,3.000000X2.400000*%
%ADD19O,3.000000X2.400000*%
%ADD20R,1.650000X1.900000*%
%ADD21R,1.900000X1.650000*%
%ADD22R,2.100000X2.400000*%
%ADD23R,1.900000X0.850000*%
%ADD24R,2.840000X1.520000*%
%ADD25R,2.100000X2.100000*%
%ADD26O,2.100000X2.100000*%
G04 APERTURE END LIST*
D10*
D11*
X198734000Y-130726000D03*
X198734000Y-129456000D03*
X198734000Y-128186000D03*
X198734000Y-126916000D03*
X198734000Y-125646000D03*
X198734000Y-124376000D03*
X198734000Y-123106000D03*
X198734000Y-121836000D03*
X198734000Y-120566000D03*
X198734000Y-119296000D03*
X198734000Y-118026000D03*
X198734000Y-116756000D03*
X198734000Y-115486000D03*
X198734000Y-114216000D03*
X198734000Y-112976000D03*
X198734000Y-111726000D03*
X198734000Y-110476000D03*
X198734000Y-109226000D03*
X198734000Y-107976000D03*
X180734000Y-107976000D03*
X180734000Y-109226000D03*
X180734000Y-110476000D03*
X180734000Y-111726000D03*
X180734000Y-112976000D03*
X180734000Y-114216000D03*
X180734000Y-115486000D03*
X180734000Y-116756000D03*
X180734000Y-118026000D03*
X180734000Y-119296000D03*
X180734000Y-120566000D03*
X180734000Y-121836000D03*
X180734000Y-123106000D03*
X180734000Y-124376000D03*
X180734000Y-125646000D03*
X180734000Y-126916000D03*
X180734000Y-128186000D03*
X180734000Y-129456000D03*
X180734000Y-130726000D03*
D12*
X188434000Y-123026000D03*
D13*
X215442800Y-137088000D03*
X215442800Y-132588000D03*
X208942800Y-137088000D03*
X208942800Y-132588000D03*
D14*
X214200000Y-90591500D03*
X214200000Y-103591500D03*
D15*
X192200000Y-104091500D03*
X192200000Y-90091500D03*
X192200000Y-93341500D03*
X192200000Y-100841500D03*
D16*
X176657000Y-124841000D03*
D17*
X174157000Y-124841000D03*
D18*
X213169500Y-107759500D03*
D19*
X213169500Y-110299500D03*
D16*
X209550000Y-120586500D03*
D17*
X212050000Y-120586500D03*
D16*
X169672000Y-127558800D03*
D17*
X169672000Y-130058800D03*
D20*
X178117500Y-129115500D03*
X178117500Y-131615500D03*
D16*
X205422500Y-127889000D03*
D17*
X205422500Y-130389000D03*
D16*
X203708000Y-123190000D03*
D17*
X201208000Y-123190000D03*
D21*
X178034000Y-120015000D03*
X175534000Y-120015000D03*
D16*
X174244000Y-115443000D03*
D17*
X176744000Y-115443000D03*
D16*
X201168000Y-113919000D03*
D17*
X203668000Y-113919000D03*
D21*
X169882500Y-112458500D03*
X172382500Y-112458500D03*
D22*
X169037000Y-95028000D03*
X169037000Y-99028000D03*
D13*
X172601500Y-96901000D03*
X177101500Y-96901000D03*
X172601500Y-90401000D03*
X177101500Y-90401000D03*
X168503600Y-132558400D03*
X168503600Y-137058400D03*
X175003600Y-132558400D03*
X175003600Y-137058400D03*
D23*
X169897000Y-110860000D03*
X169897000Y-110210000D03*
X169897000Y-109560000D03*
X169897000Y-108910000D03*
X169897000Y-108260000D03*
X169897000Y-107610000D03*
X169897000Y-106960000D03*
X169897000Y-106310000D03*
X175797000Y-106310000D03*
X175797000Y-106960000D03*
X175797000Y-107610000D03*
X175797000Y-108260000D03*
X175797000Y-108910000D03*
X175797000Y-109560000D03*
X175797000Y-110210000D03*
X175797000Y-110860000D03*
D24*
X188899500Y-91313000D03*
X180289500Y-104013000D03*
X188899500Y-93853000D03*
X180289500Y-101473000D03*
X188899500Y-96393000D03*
X180289500Y-98933000D03*
X188899500Y-98933000D03*
X180289500Y-96393000D03*
X188899500Y-101473000D03*
X180289500Y-93853000D03*
X188899500Y-104013000D03*
X180289500Y-91313000D03*
D25*
X214985600Y-128828800D03*
D26*
X214985600Y-126288800D03*
X214985600Y-123748800D03*
X214985600Y-121208800D03*
M02*
