G04 #@! TF.FileFunction,Copper,L2,Bot,Signal*
%FSLAX46Y46*%
G04 Gerber Fmt 4.6, Leading zero omitted, Abs format (unit mm)*
G04 Created by KiCad (PCBNEW 4.0.6) date 10/19/17 05:59:14*
%MOMM*%
%LPD*%
G01*
G04 APERTURE LIST*
%ADD10C,0.100000*%
%ADD11O,2.500000X0.900000*%
%ADD12R,6.000000X6.000000*%
%ADD13C,2.000000*%
%ADD14R,3.000000X3.000000*%
%ADD15R,2.500000X2.500000*%
%ADD16R,1.600000X1.600000*%
%ADD17C,1.600000*%
%ADD18R,2.600000X2.000000*%
%ADD19O,2.600000X2.000000*%
%ADD20R,1.250000X1.500000*%
%ADD21R,1.500000X1.250000*%
%ADD22R,1.700000X2.000000*%
%ADD23R,1.500000X0.450000*%
%ADD24R,2.440000X1.120000*%
%ADD25R,1.700000X1.700000*%
%ADD26O,1.700000X1.700000*%
%ADD27C,0.600000*%
%ADD28C,0.250000*%
%ADD29C,1.270000*%
%ADD30C,0.508000*%
%ADD31C,0.254000*%
G04 APERTURE END LIST*
D10*
D11*
X198734000Y-130726000D03*
X198734000Y-129456000D03*
X198734000Y-128186000D03*
X198734000Y-126916000D03*
X198734000Y-125646000D03*
X198734000Y-124376000D03*
X198734000Y-123106000D03*
X198734000Y-121836000D03*
X198734000Y-120566000D03*
X198734000Y-119296000D03*
X198734000Y-118026000D03*
X198734000Y-116756000D03*
X198734000Y-115486000D03*
X198734000Y-114216000D03*
X198734000Y-112976000D03*
X198734000Y-111726000D03*
X198734000Y-110476000D03*
X198734000Y-109226000D03*
X198734000Y-107976000D03*
X180734000Y-107976000D03*
X180734000Y-109226000D03*
X180734000Y-110476000D03*
X180734000Y-111726000D03*
X180734000Y-112976000D03*
X180734000Y-114216000D03*
X180734000Y-115486000D03*
X180734000Y-116756000D03*
X180734000Y-118026000D03*
X180734000Y-119296000D03*
X180734000Y-120566000D03*
X180734000Y-121836000D03*
X180734000Y-123106000D03*
X180734000Y-124376000D03*
X180734000Y-125646000D03*
X180734000Y-126916000D03*
X180734000Y-128186000D03*
X180734000Y-129456000D03*
X180734000Y-130726000D03*
D12*
X188434000Y-123026000D03*
D13*
X215442800Y-137088000D03*
X215442800Y-132588000D03*
X208942800Y-137088000D03*
X208942800Y-132588000D03*
D14*
X214200000Y-90591500D03*
X214200000Y-103591500D03*
D15*
X192200000Y-104091500D03*
X192200000Y-90091500D03*
X192200000Y-93341500D03*
X192200000Y-100841500D03*
D16*
X176657000Y-124841000D03*
D17*
X174157000Y-124841000D03*
D18*
X213169500Y-107759500D03*
D19*
X213169500Y-110299500D03*
D16*
X209550000Y-120586500D03*
D17*
X212050000Y-120586500D03*
D16*
X169672000Y-127558800D03*
D17*
X169672000Y-130058800D03*
D20*
X178117500Y-129115500D03*
X178117500Y-131615500D03*
D16*
X205422500Y-127889000D03*
D17*
X205422500Y-130389000D03*
D16*
X203708000Y-123190000D03*
D17*
X201208000Y-123190000D03*
D21*
X178034000Y-120015000D03*
X175534000Y-120015000D03*
D16*
X174244000Y-115443000D03*
D17*
X176744000Y-115443000D03*
D16*
X201168000Y-113919000D03*
D17*
X203668000Y-113919000D03*
D21*
X169882500Y-112458500D03*
X172382500Y-112458500D03*
D22*
X169037000Y-95028000D03*
X169037000Y-99028000D03*
D13*
X172601500Y-96901000D03*
X177101500Y-96901000D03*
X172601500Y-90401000D03*
X177101500Y-90401000D03*
X168503600Y-132558400D03*
X168503600Y-137058400D03*
X175003600Y-132558400D03*
X175003600Y-137058400D03*
D23*
X169897000Y-110860000D03*
X169897000Y-110210000D03*
X169897000Y-109560000D03*
X169897000Y-108910000D03*
X169897000Y-108260000D03*
X169897000Y-107610000D03*
X169897000Y-106960000D03*
X169897000Y-106310000D03*
X175797000Y-106310000D03*
X175797000Y-106960000D03*
X175797000Y-107610000D03*
X175797000Y-108260000D03*
X175797000Y-108910000D03*
X175797000Y-109560000D03*
X175797000Y-110210000D03*
X175797000Y-110860000D03*
D24*
X188899500Y-91313000D03*
X180289500Y-104013000D03*
X188899500Y-93853000D03*
X180289500Y-101473000D03*
X188899500Y-96393000D03*
X180289500Y-98933000D03*
X188899500Y-98933000D03*
X180289500Y-96393000D03*
X188899500Y-101473000D03*
X180289500Y-93853000D03*
X188899500Y-104013000D03*
X180289500Y-91313000D03*
D25*
X214985600Y-128828800D03*
D26*
X214985600Y-126288800D03*
X214985600Y-123748800D03*
X214985600Y-121208800D03*
D27*
X189941200Y-112420400D03*
X189738000Y-117475000D03*
X185166000Y-117729000D03*
X196697600Y-117856000D03*
X190500000Y-124206000D03*
X167449500Y-96520000D03*
X201218800Y-127609600D03*
X195884800Y-115112800D03*
X211010500Y-123317000D03*
X210756500Y-127635000D03*
X211391500Y-96075500D03*
X215900000Y-94170500D03*
X182689500Y-103949500D03*
X182689500Y-101346000D03*
X182689500Y-98933000D03*
X182689500Y-96329500D03*
X182753000Y-93853000D03*
X182753000Y-91313000D03*
X193344800Y-131521200D03*
X193294000Y-128714500D03*
X176085500Y-129794000D03*
X167449500Y-110172500D03*
X172466000Y-118300500D03*
X172466000Y-121158000D03*
X194056000Y-113792000D03*
X182880000Y-113030000D03*
X178689000Y-113919000D03*
X189738000Y-115443000D03*
X184150000Y-119126000D03*
X210248500Y-122428000D03*
X213042500Y-122936000D03*
X209677000Y-118364000D03*
X209677000Y-114300000D03*
X208076800Y-131064000D03*
X196291200Y-130606800D03*
X202501500Y-131445000D03*
X189293500Y-106045000D03*
X168148000Y-110998000D03*
X173355000Y-122555000D03*
X204597000Y-121412000D03*
X201168000Y-121158000D03*
X177546000Y-117729000D03*
X210820000Y-137109200D03*
X196088000Y-129743200D03*
X201777600Y-129844800D03*
X170688000Y-98044000D03*
X184404000Y-118110000D03*
X184658000Y-116586000D03*
X184658000Y-115570000D03*
X186753500Y-114173000D03*
X188658500Y-112966500D03*
X193294000Y-116459000D03*
X183134000Y-121412000D03*
X183388000Y-123444000D03*
X183896000Y-124079000D03*
X191262000Y-119126000D03*
X183388000Y-124841000D03*
X183896000Y-125730000D03*
X192024000Y-126492000D03*
X183896000Y-127000000D03*
X194437000Y-117729000D03*
X193802000Y-123444000D03*
X194310000Y-119380000D03*
X194564000Y-122682000D03*
X208229200Y-124053600D03*
X202285600Y-127203200D03*
X207264000Y-124510800D03*
X203911200Y-125628400D03*
X170637200Y-137109200D03*
X197053200Y-115011200D03*
X177850800Y-133197600D03*
X194691000Y-101600000D03*
X196977000Y-105664000D03*
X195961000Y-93091000D03*
X204724000Y-90297000D03*
X170815000Y-114490500D03*
X178117500Y-127508000D03*
X170815000Y-117157500D03*
X202057000Y-94234000D03*
X196977000Y-93726000D03*
X195389500Y-105600500D03*
X195580000Y-102171500D03*
X170116500Y-116649500D03*
X170116500Y-113855500D03*
X178625500Y-126238000D03*
X170688000Y-104902000D03*
X168097200Y-109524800D03*
X186753500Y-94932500D03*
X172720000Y-104267000D03*
X186690000Y-97345500D03*
X186690000Y-102552500D03*
X186626500Y-105092500D03*
X186563000Y-92138500D03*
X175387000Y-99441000D03*
X174371000Y-104013000D03*
X186944000Y-99822000D03*
D28*
X185948000Y-118872000D02*
X185948000Y-118511000D01*
X214985600Y-118668800D02*
X214985600Y-118618000D01*
D29*
X192200000Y-93341500D02*
X192200000Y-94473500D01*
X192200000Y-94473500D02*
X194246500Y-96520000D01*
X194246500Y-96520000D02*
X200596500Y-96520000D01*
X213169500Y-107759500D02*
X211836000Y-107759500D01*
X211836000Y-107759500D02*
X200596500Y-96520000D01*
X192838500Y-100203000D02*
X200152000Y-100203000D01*
X210248500Y-110299500D02*
X200152000Y-100203000D01*
X210248500Y-110299500D02*
X213169500Y-110299500D01*
X192838500Y-100203000D02*
X192200000Y-100841500D01*
D30*
X189941200Y-112420400D02*
X191008000Y-113487200D01*
X191008000Y-113487200D02*
X191008000Y-116205000D01*
X191008000Y-116205000D02*
X189738000Y-117475000D01*
D28*
X185420000Y-117475000D02*
X189738000Y-117475000D01*
X185166000Y-117729000D02*
X185420000Y-117475000D01*
D30*
X201218800Y-128524000D02*
X201218800Y-127609600D01*
D28*
X201218800Y-128524000D02*
X201218800Y-128676400D01*
X201218800Y-128676400D02*
X201208000Y-128687200D01*
X198734000Y-130726000D02*
X197938800Y-131521200D01*
X198734000Y-130726000D02*
X199728000Y-130726000D01*
X199728000Y-130726000D02*
X200355200Y-130098800D01*
X200355200Y-130098800D02*
X200355200Y-130149600D01*
X188434000Y-123026000D02*
X188434000Y-124172000D01*
X188434000Y-124172000D02*
X190881000Y-126619000D01*
X188434000Y-123026000D02*
X188434000Y-120176000D01*
X188434000Y-120176000D02*
X190398400Y-118211600D01*
X196037200Y-118516400D02*
X196697600Y-117856000D01*
X193649600Y-118516400D02*
X196037200Y-118516400D01*
X193344800Y-118211600D02*
X193649600Y-118516400D01*
X190398400Y-118211600D02*
X193344800Y-118211600D01*
X190500000Y-124206000D02*
X189320000Y-123026000D01*
D30*
X167449500Y-96520000D02*
X168941500Y-95028000D01*
X192405000Y-127952500D02*
X193167000Y-128714500D01*
X199778800Y-130726000D02*
X200355200Y-130149600D01*
X200355200Y-130149600D02*
X201208000Y-129296800D01*
X201208000Y-128687200D02*
X201208000Y-129296800D01*
X199778800Y-130726000D02*
X198734000Y-130726000D01*
X208942800Y-132588000D02*
X215442800Y-132588000D01*
D28*
X208942800Y-132588000D02*
X207621500Y-132588000D01*
X207621500Y-132588000D02*
X205422500Y-130389000D01*
X195884800Y-115112800D02*
X195707000Y-114935000D01*
X195707000Y-114935000D02*
X195707000Y-114681000D01*
D30*
X175003600Y-132558400D02*
X168503600Y-132558400D01*
X169672000Y-130058800D02*
X169672000Y-131390000D01*
X169672000Y-131390000D02*
X168503600Y-132558400D01*
X176085500Y-129794000D02*
X169936800Y-129794000D01*
X169936800Y-129794000D02*
X169672000Y-130058800D01*
X197510400Y-131521200D02*
X197938800Y-131521200D01*
X181475200Y-130726000D02*
X182270400Y-131521200D01*
X182270400Y-131521200D02*
X197510400Y-131521200D01*
X180734000Y-130726000D02*
X181475200Y-130726000D01*
X198205500Y-131254500D02*
X198734000Y-130726000D01*
X210756500Y-127635000D02*
X208470500Y-127635000D01*
X208470500Y-127635000D02*
X205716500Y-130389000D01*
X205716500Y-130389000D02*
X205422500Y-130389000D01*
D28*
X210756500Y-124142500D02*
X210756500Y-123571000D01*
X210756500Y-123571000D02*
X211010500Y-123317000D01*
X210756500Y-127635000D02*
X210756500Y-124142500D01*
X210756500Y-124142500D02*
X210756500Y-124079000D01*
D29*
X212407500Y-95059500D02*
X211391500Y-96075500D01*
X215011000Y-95059500D02*
X212407500Y-95059500D01*
X215900000Y-94170500D02*
X215011000Y-95059500D01*
D30*
X178117500Y-131615500D02*
X177970500Y-131615500D01*
X180734000Y-130726000D02*
X179007000Y-130726000D01*
X179007000Y-130726000D02*
X178117500Y-131615500D01*
X178371500Y-88900000D02*
X182562500Y-88900000D01*
X182562500Y-91122500D02*
X182753000Y-91313000D01*
X182562500Y-88900000D02*
X182562500Y-91122500D01*
X182689500Y-103949500D02*
X180353000Y-103949500D01*
X180353000Y-103949500D02*
X180289500Y-104013000D01*
X182689500Y-101346000D02*
X180416500Y-101346000D01*
X180416500Y-101346000D02*
X180289500Y-101473000D01*
X182689500Y-98933000D02*
X180289500Y-98933000D01*
X180416500Y-98806000D02*
X180289500Y-98933000D01*
X182689500Y-96329500D02*
X180353000Y-96329500D01*
X180353000Y-96329500D02*
X180289500Y-96393000D01*
X180289500Y-91313000D02*
X182753000Y-91313000D01*
X182753000Y-93853000D02*
X180289500Y-93853000D01*
X174102500Y-88900000D02*
X178371500Y-88900000D01*
X174102500Y-88900000D02*
X172601500Y-90401000D01*
X180289500Y-90818000D02*
X180289500Y-91313000D01*
X169037000Y-95028000D02*
X170021500Y-94043500D01*
X172085000Y-94043500D02*
X172601500Y-93527000D01*
X170021500Y-94043500D02*
X172085000Y-94043500D01*
X172601500Y-90401000D02*
X172601500Y-93527000D01*
X172601500Y-93527000D02*
X172601500Y-96901000D01*
X180734000Y-130726000D02*
X180840500Y-130619500D01*
X190881000Y-126619000D02*
X191071500Y-126619000D01*
X191071500Y-126619000D02*
X192405000Y-127952500D01*
X190881000Y-125473000D02*
X190881000Y-126619000D01*
X193167000Y-128714500D02*
X193294000Y-128714500D01*
X188434000Y-123026000D02*
X190881000Y-125473000D01*
X198734000Y-130726000D02*
X198627500Y-130619500D01*
X180734000Y-130726000D02*
X180691000Y-130683000D01*
X180691000Y-130683000D02*
X176974500Y-130683000D01*
X176974500Y-130683000D02*
X176085500Y-129794000D01*
D28*
X169897000Y-110210000D02*
X169859500Y-110172500D01*
X169859500Y-110172500D02*
X167449500Y-110172500D01*
D30*
X168941500Y-95028000D02*
X169037000Y-95028000D01*
X172466000Y-118300500D02*
X172466000Y-118491000D01*
X172466000Y-118491000D02*
X172466000Y-113982500D01*
X172382500Y-113899000D02*
X172382500Y-112458500D01*
X172466000Y-113982500D02*
X172382500Y-113899000D01*
X172466000Y-121158000D02*
X172466000Y-121412000D01*
X176744000Y-115443000D02*
X176744000Y-116245000D01*
X176744000Y-116245000D02*
X175768000Y-117221000D01*
X175768000Y-117221000D02*
X173736000Y-117221000D01*
X173736000Y-117221000D02*
X172466000Y-118491000D01*
X172466000Y-118491000D02*
X172466000Y-121412000D01*
X175534000Y-120015000D02*
X173863000Y-120015000D01*
X173863000Y-120015000D02*
X172466000Y-121412000D01*
X172466000Y-123150000D02*
X174157000Y-124841000D01*
X172466000Y-121412000D02*
X172466000Y-123150000D01*
D28*
X169897000Y-110210000D02*
X169871000Y-110236000D01*
X171958000Y-109474000D02*
X171222000Y-110210000D01*
X169908000Y-106299000D02*
X171323000Y-106299000D01*
X171450000Y-106299000D02*
X171958000Y-106807000D01*
X171323000Y-106299000D02*
X171450000Y-106299000D01*
X171958000Y-109474000D02*
X171958000Y-106807000D01*
X171222000Y-110210000D02*
X169897000Y-110210000D01*
X169897000Y-106310000D02*
X169908000Y-106299000D01*
X169897000Y-106310000D02*
X169886000Y-106299000D01*
X195707000Y-113792000D02*
X195707000Y-114681000D01*
X194056000Y-113792000D02*
X195707000Y-113792000D01*
D30*
X180734000Y-112976000D02*
X180788000Y-113030000D01*
X180788000Y-113030000D02*
X182880000Y-113030000D01*
X182880000Y-113030000D02*
X187325000Y-113030000D01*
X187325000Y-113030000D02*
X189738000Y-115443000D01*
X178689000Y-113919000D02*
X178689000Y-113157000D01*
X178689000Y-113157000D02*
X180553000Y-113157000D01*
X180553000Y-113157000D02*
X180734000Y-112976000D01*
D28*
X188434000Y-123026000D02*
X188434000Y-120811000D01*
X188448000Y-123012000D02*
X188434000Y-123026000D01*
X184150000Y-119126000D02*
X188050000Y-123026000D01*
X188050000Y-123026000D02*
X188434000Y-123026000D01*
X189320000Y-123026000D02*
X188434000Y-123026000D01*
X212534500Y-122428000D02*
X210248500Y-122428000D01*
X213042500Y-122936000D02*
X212534500Y-122428000D01*
D29*
X209677000Y-118364000D02*
X209677000Y-120459500D01*
X209677000Y-120459500D02*
X209550000Y-120586500D01*
X209677000Y-120459500D02*
X209550000Y-120586500D01*
X209677000Y-114300000D02*
X209677000Y-118364000D01*
D30*
X214985600Y-126288800D02*
X214884000Y-126288800D01*
X214884000Y-126288800D02*
X213563200Y-127609600D01*
X213563200Y-127609600D02*
X213563200Y-127711200D01*
X210515200Y-130759200D02*
X213563200Y-127711200D01*
X213563200Y-127711200D02*
X213817200Y-127457200D01*
X208381600Y-130759200D02*
X210515200Y-130759200D01*
X208076800Y-131064000D02*
X208381600Y-130759200D01*
X171958000Y-127635000D02*
X169748200Y-127635000D01*
X169748200Y-127635000D02*
X169672000Y-127558800D01*
X173482000Y-127635000D02*
X171958000Y-127635000D01*
X171958000Y-127635000D02*
X171831000Y-127635000D01*
X194462400Y-130657600D02*
X196240400Y-130657600D01*
X196240400Y-130657600D02*
X196291200Y-130606800D01*
X188739600Y-129456000D02*
X180734000Y-129456000D01*
X189941200Y-130657600D02*
X194462400Y-130657600D01*
X188739600Y-129456000D02*
X189941200Y-130657600D01*
X202501500Y-131508500D02*
X202565000Y-131508500D01*
X202501500Y-131445000D02*
X202501500Y-131508500D01*
X203517500Y-127889000D02*
X202565000Y-128841500D01*
X205422500Y-127889000D02*
X203517500Y-127889000D01*
X202565000Y-128841500D02*
X202565000Y-131508500D01*
X205422500Y-127889000D02*
X205422500Y-124904500D01*
X205422500Y-124904500D02*
X203708000Y-123190000D01*
X205422500Y-127889000D02*
X205422500Y-125095000D01*
X206248000Y-123063000D02*
X204597000Y-121412000D01*
X206248000Y-124269500D02*
X206248000Y-123063000D01*
X205422500Y-125095000D02*
X206248000Y-124269500D01*
X180734000Y-129456000D02*
X178458000Y-129456000D01*
X178458000Y-129456000D02*
X178117500Y-129115500D01*
X200152000Y-106553000D02*
X189801500Y-106553000D01*
X203644500Y-110553500D02*
X203644500Y-110045500D01*
X205613000Y-112522000D02*
X203644500Y-110553500D01*
X204597000Y-121412000D02*
X204597000Y-116141500D01*
X205613000Y-115125500D02*
X205613000Y-112585500D01*
X204597000Y-116141500D02*
X205613000Y-115125500D01*
X205613000Y-112585500D02*
X205613000Y-112522000D01*
X203644500Y-110045500D02*
X200152000Y-106553000D01*
X189801500Y-106553000D02*
X189293500Y-106045000D01*
X180734000Y-129456000D02*
X180713500Y-129476500D01*
X180713500Y-129476500D02*
X178371500Y-129476500D01*
X178371500Y-129476500D02*
X176339500Y-127444500D01*
D28*
X168148000Y-110998000D02*
X168116250Y-111029750D01*
D30*
X171577000Y-117010500D02*
X171577000Y-114153000D01*
X171577000Y-114153000D02*
X169882500Y-112458500D01*
X168116250Y-111029750D02*
X168286000Y-110860000D01*
D28*
X168286000Y-110860000D02*
X169897000Y-110860000D01*
D30*
X169882500Y-112458500D02*
X169545000Y-112458500D01*
X169545000Y-112458500D02*
X168116250Y-111029750D01*
X171577000Y-118364000D02*
X171577000Y-117010500D01*
X171577000Y-123825000D02*
X171577000Y-118364000D01*
X176657000Y-124841000D02*
X176657000Y-127127000D01*
X171577000Y-125730000D02*
X171577000Y-123825000D01*
X171577000Y-123825000D02*
X171577000Y-123698000D01*
X173482000Y-127635000D02*
X171577000Y-125730000D01*
X176149000Y-127635000D02*
X173482000Y-127635000D01*
X176657000Y-127127000D02*
X176339500Y-127444500D01*
X176339500Y-127444500D02*
X176149000Y-127635000D01*
X173355000Y-122555000D02*
X173736000Y-122936000D01*
X173736000Y-122936000D02*
X176022000Y-122936000D01*
X176022000Y-122936000D02*
X176657000Y-123571000D01*
X176657000Y-123571000D02*
X176657000Y-124841000D01*
D28*
X175797000Y-110860000D02*
X169897000Y-110860000D01*
D30*
X201168000Y-121158000D02*
X201549000Y-121539000D01*
X201549000Y-121539000D02*
X204470000Y-121539000D01*
X204470000Y-121539000D02*
X204597000Y-121412000D01*
X178034000Y-120015000D02*
X178034000Y-118217000D01*
X178034000Y-118217000D02*
X177546000Y-117729000D01*
D28*
X210769200Y-137109200D02*
X210769200Y-137088000D01*
X210790400Y-137088000D02*
X210769200Y-137109200D01*
X210798800Y-137088000D02*
X210790400Y-137088000D01*
X210820000Y-137109200D02*
X210798800Y-137088000D01*
X201828400Y-130251200D02*
X201828400Y-129895600D01*
X200406000Y-131673600D02*
X201828400Y-130251200D01*
X202539600Y-137088000D02*
X202539600Y-137058400D01*
X202539600Y-137058400D02*
X200406000Y-134924800D01*
X208942800Y-137088000D02*
X202539600Y-137088000D01*
X200406000Y-134924800D02*
X200406000Y-131673600D01*
X201828400Y-129895600D02*
X201777600Y-129844800D01*
X196088000Y-129743200D02*
X196088000Y-129692400D01*
X196088000Y-129692400D02*
X196088000Y-129743200D01*
X196088000Y-129743200D02*
X196088000Y-129692400D01*
D30*
X215442800Y-137088000D02*
X210769200Y-137088000D01*
X210769200Y-137088000D02*
X208942800Y-137088000D01*
D28*
X194564000Y-129997200D02*
X194614800Y-129997200D01*
X194919600Y-129692400D02*
X195884800Y-129692400D01*
X194614800Y-129997200D02*
X194919600Y-129692400D01*
X195884800Y-129692400D02*
X196088000Y-129692400D01*
X194259200Y-129997200D02*
X194564000Y-129997200D01*
X192430400Y-129997200D02*
X194259200Y-129997200D01*
X180734000Y-128186000D02*
X189654000Y-128186000D01*
X191312800Y-129844800D02*
X192278000Y-129844800D01*
X192278000Y-129844800D02*
X192430400Y-129997200D01*
X189654000Y-128186000D02*
X190500000Y-129032000D01*
X190500000Y-129032000D02*
X191312800Y-129844800D01*
D30*
X170021000Y-98044000D02*
X169037000Y-99028000D01*
X170688000Y-98044000D02*
X170021000Y-98044000D01*
D28*
X184320000Y-118026000D02*
X180734000Y-118026000D01*
X184404000Y-118110000D02*
X184320000Y-118026000D01*
X184658000Y-116586000D02*
X182880000Y-116586000D01*
X182118000Y-116840000D02*
X180818000Y-116840000D01*
X182372000Y-116586000D02*
X182118000Y-116840000D01*
X182880000Y-116586000D02*
X182372000Y-116586000D01*
X180818000Y-116840000D02*
X180734000Y-116756000D01*
X184658000Y-116586000D02*
X184574000Y-116502000D01*
X188658500Y-111810800D02*
X188671200Y-111810800D01*
X189280800Y-111201200D02*
X192125600Y-111201200D01*
X188671200Y-111810800D02*
X189280800Y-111201200D01*
X192659000Y-113487200D02*
X192659000Y-113411000D01*
X192659000Y-113411000D02*
X193103500Y-112966500D01*
X198734000Y-112976000D02*
X193900400Y-112976000D01*
X193900400Y-112976000D02*
X192125600Y-111201200D01*
X188658500Y-111810800D02*
X188658500Y-112966500D01*
X186118500Y-114808000D02*
X185420000Y-114808000D01*
X185420000Y-114808000D02*
X184658000Y-115570000D01*
X186753500Y-114173000D02*
X186118500Y-114808000D01*
X186753500Y-114173000D02*
X186753500Y-114236500D01*
X193294000Y-116459000D02*
X192659000Y-115824000D01*
X192659000Y-115824000D02*
X192659000Y-113487200D01*
X198734000Y-112976000D02*
X198724500Y-112966500D01*
X198724500Y-112966500D02*
X193103500Y-112966500D01*
X182796000Y-119296000D02*
X180734000Y-119296000D01*
X183134000Y-119634000D02*
X182796000Y-119296000D01*
X183134000Y-121412000D02*
X183134000Y-119634000D01*
X198734000Y-129456000D02*
X197883600Y-129456000D01*
X197883600Y-129456000D02*
X197154800Y-128727200D01*
X197154800Y-128727200D02*
X196291200Y-128727200D01*
X194818000Y-128727200D02*
X194089200Y-129456000D01*
X196291200Y-128727200D02*
X194818000Y-128727200D01*
X190373000Y-127889000D02*
X189230000Y-126746000D01*
X192956000Y-129456000D02*
X194089200Y-129456000D01*
X192956000Y-129456000D02*
X191452500Y-127952500D01*
X191389000Y-127889000D02*
X190373000Y-127889000D01*
X184150000Y-123444000D02*
X183388000Y-123444000D01*
X184658000Y-123698000D02*
X184404000Y-123698000D01*
X184658000Y-126238000D02*
X184658000Y-123698000D01*
X184404000Y-123698000D02*
X184150000Y-123444000D01*
X184848500Y-126428500D02*
X184658000Y-126238000D01*
X191452500Y-127952500D02*
X191389000Y-127889000D01*
X186245500Y-126428500D02*
X184848500Y-126428500D01*
X186563000Y-126746000D02*
X186245500Y-126428500D01*
X189230000Y-126746000D02*
X186563000Y-126746000D01*
X182880000Y-123825000D02*
X182626000Y-123571000D01*
X180818000Y-123190000D02*
X182118000Y-123190000D01*
X182372000Y-123444000D02*
X182118000Y-123190000D01*
X183261000Y-124079000D02*
X183896000Y-124079000D01*
X183134000Y-124079000D02*
X182880000Y-123825000D01*
X183261000Y-124079000D02*
X183134000Y-124079000D01*
X182499000Y-123571000D02*
X182372000Y-123444000D01*
X182626000Y-123571000D02*
X182499000Y-123571000D01*
X180818000Y-123190000D02*
X180734000Y-123106000D01*
X180818000Y-123190000D02*
X180734000Y-123106000D01*
X183896000Y-124079000D02*
X183812000Y-123995000D01*
X198734000Y-124376000D02*
X193464000Y-124376000D01*
X192278000Y-119126000D02*
X191262000Y-119126000D01*
X193040000Y-119888000D02*
X192278000Y-119126000D01*
X193040000Y-123952000D02*
X193040000Y-119888000D01*
X193464000Y-124376000D02*
X193040000Y-123952000D01*
X180734000Y-124376000D02*
X180945000Y-124587000D01*
X180945000Y-124587000D02*
X183134000Y-124587000D01*
X183134000Y-124587000D02*
X183388000Y-124841000D01*
X183388000Y-124841000D02*
X183304000Y-124757000D01*
X183812000Y-125646000D02*
X183896000Y-125730000D01*
X183812000Y-125646000D02*
X180734000Y-125646000D01*
X193718000Y-128186000D02*
X198734000Y-128186000D01*
X192024000Y-126492000D02*
X193718000Y-128186000D01*
X180734000Y-126916000D02*
X183812000Y-126916000D01*
X183896000Y-127000000D02*
X183812000Y-126916000D01*
X196786500Y-116268500D02*
X196723000Y-116332000D01*
X196723000Y-116332000D02*
X196723000Y-116586000D01*
X196469000Y-116840000D02*
X196723000Y-116586000D01*
X196786500Y-116268500D02*
X197485000Y-115570000D01*
X196723000Y-116586000D02*
X196723000Y-116332000D01*
X197485000Y-115570000D02*
X198650000Y-115570000D01*
X195580000Y-117729000D02*
X194437000Y-117729000D01*
X196469000Y-116840000D02*
X195580000Y-117729000D01*
X198734000Y-115486000D02*
X198650000Y-115570000D01*
X198734000Y-121836000D02*
X197188000Y-121836000D01*
X195580000Y-123444000D02*
X193802000Y-123444000D01*
X197188000Y-121836000D02*
X195580000Y-123444000D01*
X198734000Y-119296000D02*
X194394000Y-119296000D01*
X194394000Y-119296000D02*
X194310000Y-119380000D01*
X195580000Y-122682000D02*
X197696000Y-120566000D01*
X194564000Y-122682000D02*
X195580000Y-122682000D01*
X197696000Y-120566000D02*
X198734000Y-120566000D01*
X208534000Y-113334800D02*
X210718400Y-113334800D01*
X211734400Y-114350800D02*
X210718400Y-113334800D01*
X212674200Y-114350800D02*
X211886800Y-114350800D01*
X212674200Y-114350800D02*
X212674200Y-118795800D01*
X211886800Y-114350800D02*
X211734400Y-114350800D01*
X207518000Y-113842800D02*
X208026000Y-113842800D01*
X207518000Y-121361200D02*
X207492600Y-121386600D01*
X207518000Y-113842800D02*
X207518000Y-121361200D01*
X208026000Y-113842800D02*
X208534000Y-113334800D01*
X207492600Y-121386600D02*
X207492600Y-123215400D01*
X207492600Y-123215400D02*
X208229200Y-123952000D01*
X208229200Y-123952000D02*
X208229200Y-124053600D01*
X201787499Y-126705099D02*
X202285600Y-127203200D01*
X200568299Y-126705099D02*
X201787499Y-126705099D01*
X207492600Y-121386600D02*
X207467200Y-121412000D01*
X212598000Y-118719600D02*
X212674200Y-118795800D01*
X212674200Y-118795800D02*
X213309200Y-119430800D01*
X213512400Y-119634000D02*
X213512400Y-120192800D01*
X213512400Y-119634000D02*
X213309200Y-119430800D01*
X214985600Y-123748800D02*
X214985600Y-123342400D01*
X214985600Y-123342400D02*
X213512400Y-121869200D01*
X213512400Y-121869200D02*
X213512400Y-120192800D01*
X213512400Y-120192800D02*
X213512400Y-120142000D01*
X198734000Y-126916000D02*
X200357398Y-126916000D01*
X200357398Y-126916000D02*
X200568299Y-126705099D01*
X200568299Y-126705099D02*
X200628998Y-126644400D01*
X211937600Y-113690400D02*
X211124800Y-112877600D01*
X206552800Y-113842800D02*
X206552800Y-121615200D01*
X207010000Y-122072400D02*
X206552800Y-121615200D01*
X207010000Y-124256800D02*
X207010000Y-122072400D01*
X207264000Y-124510800D02*
X207010000Y-124256800D01*
X207518000Y-112877600D02*
X206552800Y-113842800D01*
X212191600Y-113893600D02*
X211988400Y-113690400D01*
X211988400Y-113690400D02*
X211937600Y-113690400D01*
X213207600Y-113893600D02*
X212293200Y-113893600D01*
X213207600Y-118668800D02*
X213207600Y-113893600D01*
X213461600Y-118922800D02*
X213207600Y-118668800D01*
X214096600Y-119862600D02*
X214096600Y-119557800D01*
X214096600Y-119557800D02*
X213791800Y-119253000D01*
X213791800Y-119253000D02*
X213461600Y-118922800D01*
X214096600Y-119862600D02*
X214985600Y-120751600D01*
X212293200Y-113893600D02*
X212191600Y-113893600D01*
X207518000Y-112877600D02*
X211124800Y-112877600D01*
X202031600Y-126187200D02*
X203352400Y-126187200D01*
X203352400Y-126187200D02*
X203911200Y-125628400D01*
X200628998Y-125882400D02*
X200628998Y-125902198D01*
X200392598Y-125646000D02*
X200628998Y-125882400D01*
X198734000Y-125646000D02*
X200392598Y-125646000D01*
X200914000Y-126187200D02*
X201726800Y-126187200D01*
X200628998Y-125902198D02*
X200914000Y-126187200D01*
X201726800Y-126187200D02*
X202031600Y-126187200D01*
X214985600Y-121208800D02*
X214985600Y-120751600D01*
X170637200Y-137109200D02*
X170637200Y-137058400D01*
X170637200Y-137058400D02*
X170637200Y-137109200D01*
X170637200Y-137109200D02*
X170637200Y-137058400D01*
X197053200Y-115011200D02*
X197002400Y-114960400D01*
X197002400Y-114960400D02*
X197002400Y-114350800D01*
X197002400Y-114350800D02*
X197137200Y-114216000D01*
X197137200Y-114216000D02*
X198734000Y-114216000D01*
X175003600Y-136044800D02*
X177850800Y-133197600D01*
X175003600Y-137058400D02*
X175003600Y-136044800D01*
D30*
X168503600Y-137058400D02*
X170637200Y-137058400D01*
X170637200Y-137058400D02*
X175003600Y-137058400D01*
D28*
X196596000Y-102679500D02*
X196596000Y-101854000D01*
X196596000Y-101854000D02*
X196119750Y-101377750D01*
X196119750Y-101377750D02*
X194913250Y-101377750D01*
X194913250Y-101377750D02*
X194691000Y-101600000D01*
X196977000Y-105664000D02*
X196977000Y-103124000D01*
X196596000Y-102743000D02*
X196596000Y-102679500D01*
X196977000Y-103124000D02*
X196596000Y-102743000D01*
X195961000Y-90932000D02*
X195961000Y-93091000D01*
X196913500Y-89979500D02*
X195961000Y-90932000D01*
X204406500Y-89979500D02*
X196913500Y-89979500D01*
X204724000Y-90297000D02*
X204406500Y-89979500D01*
X170878500Y-114554000D02*
X170878500Y-115189000D01*
X170878500Y-114554000D02*
X170815000Y-114490500D01*
X177990500Y-122364500D02*
X177990500Y-127381000D01*
X179789000Y-120566000D02*
X179006500Y-121348500D01*
X177990500Y-122364500D02*
X179006500Y-121348500D01*
X177990500Y-127381000D02*
X178117500Y-127508000D01*
X170878500Y-117094000D02*
X170878500Y-115189000D01*
X170878500Y-115189000D02*
X170878500Y-115125500D01*
X170815000Y-117157500D02*
X170878500Y-117094000D01*
X180734000Y-120566000D02*
X179789000Y-120566000D01*
X196977000Y-93726000D02*
X196977000Y-91821000D01*
X198628000Y-91821000D02*
X201041000Y-94234000D01*
X201041000Y-94234000D02*
X202057000Y-94234000D01*
X198501000Y-91694000D02*
X198628000Y-91821000D01*
X197104000Y-91694000D02*
X198501000Y-91694000D01*
X196977000Y-91821000D02*
X197104000Y-91694000D01*
X197104000Y-93853000D02*
X196977000Y-93726000D01*
X195389500Y-102362000D02*
X195389500Y-105600500D01*
X195580000Y-102171500D02*
X195389500Y-102362000D01*
X170116500Y-115125500D02*
X170116500Y-116649500D01*
X170116500Y-115125500D02*
X170116500Y-113855500D01*
X178752500Y-122745500D02*
X179662000Y-121836000D01*
X178752500Y-126111000D02*
X178752500Y-122745500D01*
X178625500Y-126238000D02*
X178752500Y-126111000D01*
X179662000Y-121836000D02*
X180734000Y-121836000D01*
X180734000Y-121836000D02*
X179852500Y-121836000D01*
X172593000Y-105791000D02*
X172593000Y-108585000D01*
X170688000Y-104902000D02*
X171704000Y-104902000D01*
X171704000Y-104902000D02*
X172593000Y-105791000D01*
X172974000Y-108966000D02*
X175741000Y-108966000D01*
X172593000Y-108585000D02*
X172974000Y-108966000D01*
X175741000Y-108966000D02*
X175797000Y-108910000D01*
X169897000Y-109560000D02*
X168132400Y-109560000D01*
X168132400Y-109560000D02*
X168097200Y-109524800D01*
X169897000Y-109560000D02*
X169856000Y-109601000D01*
X169897000Y-109560000D02*
X169811000Y-109474000D01*
X186753500Y-94932500D02*
X187833000Y-93853000D01*
X187833000Y-93853000D02*
X188899500Y-93853000D01*
X178625500Y-100203000D02*
X183515000Y-100203000D01*
X177863500Y-100965000D02*
X175768000Y-100965000D01*
X169767250Y-100996750D02*
X169799000Y-100965000D01*
X168402000Y-107950000D02*
X168529000Y-108077000D01*
X169841000Y-108204000D02*
X168656000Y-108204000D01*
X168529000Y-108077000D02*
X168656000Y-108204000D01*
X167767000Y-107442000D02*
X167767000Y-107569000D01*
X167703500Y-107505500D02*
X167767000Y-107442000D01*
X168402000Y-107950000D02*
X168148000Y-107950000D01*
X168148000Y-107950000D02*
X167767000Y-107569000D01*
X167703500Y-103060500D02*
X167703500Y-107505500D01*
X167703500Y-103060500D02*
X169767250Y-100996750D01*
X175768000Y-100965000D02*
X169799000Y-100965000D01*
X185928000Y-97790000D02*
X183515000Y-100203000D01*
X185928000Y-94551500D02*
X185928000Y-97790000D01*
X186626500Y-93853000D02*
X188899500Y-93853000D01*
X186626500Y-93853000D02*
X185928000Y-94551500D01*
X177863500Y-100965000D02*
X178625500Y-100203000D01*
X169897000Y-108260000D02*
X169841000Y-108204000D01*
D30*
X172720000Y-104267000D02*
X172720000Y-104394000D01*
X172720000Y-104394000D02*
X173355000Y-105029000D01*
D28*
X173355000Y-105029000D02*
X172720000Y-104394000D01*
X173863000Y-108204000D02*
X173355000Y-107696000D01*
X175741000Y-108204000D02*
X173863000Y-108204000D01*
X173355000Y-107696000D02*
X173355000Y-105029000D01*
X173355000Y-105029000D02*
X173355000Y-104902000D01*
X175797000Y-108260000D02*
X175741000Y-108204000D01*
X170053000Y-101663500D02*
X170053000Y-101600000D01*
X170053000Y-101600000D02*
X175895000Y-101600000D01*
X168275000Y-103441500D02*
X170053000Y-101663500D01*
X168275000Y-107188000D02*
X168275000Y-103441500D01*
X168275000Y-107188000D02*
X168697000Y-107610000D01*
X169897000Y-107610000D02*
X168697000Y-107610000D01*
X188899500Y-96393000D02*
X186944000Y-96393000D01*
X186944000Y-96393000D02*
X186695502Y-96393000D01*
X169897000Y-107610000D02*
X169856000Y-107569000D01*
X177863500Y-101600000D02*
X178371500Y-102108000D01*
X177863500Y-101600000D02*
X175895000Y-101600000D01*
X186695502Y-96393000D02*
X186695502Y-97345500D01*
X186690000Y-97345500D02*
X186695502Y-97345500D01*
X186695502Y-97345500D02*
X186690000Y-97345500D01*
X186690000Y-97345500D02*
X186695502Y-97345500D01*
X178752500Y-102743000D02*
X178371500Y-102362000D01*
X178371500Y-102362000D02*
X178371500Y-102108000D01*
X183832500Y-101346000D02*
X182435500Y-102743000D01*
X182435500Y-102743000D02*
X178752500Y-102743000D01*
X186695502Y-98482998D02*
X183832500Y-101346000D01*
X186695502Y-97345500D02*
X186695502Y-98482998D01*
X186690000Y-102552500D02*
X186626500Y-102616000D01*
X186626500Y-102616000D02*
X185293000Y-102616000D01*
X185229500Y-102679500D02*
X185293000Y-102616000D01*
X185293000Y-102616000D02*
X186436000Y-101473000D01*
X185229500Y-104584500D02*
X185229500Y-102679500D01*
X184023000Y-105791000D02*
X185229500Y-104584500D01*
X178689000Y-105918000D02*
X178816000Y-105791000D01*
X176189000Y-105918000D02*
X178689000Y-105918000D01*
X178816000Y-105791000D02*
X184023000Y-105791000D01*
X175797000Y-106310000D02*
X176189000Y-105918000D01*
X186436000Y-101473000D02*
X188899500Y-101473000D01*
X188658500Y-101917500D02*
X188341000Y-101600000D01*
X187833000Y-104013000D02*
X186626500Y-105219500D01*
X187833000Y-104013000D02*
X188899500Y-104013000D01*
X175823000Y-106934000D02*
X178562000Y-106934000D01*
X175797000Y-106960000D02*
X175823000Y-106934000D01*
X186626500Y-105092500D02*
X186690000Y-105156000D01*
X186690000Y-105156000D02*
X186626500Y-105092500D01*
X186626500Y-105092500D02*
X186626500Y-105219500D01*
X186626500Y-105219500D02*
X185356500Y-106489500D01*
X185356500Y-106489500D02*
X183324500Y-106489500D01*
X179006500Y-106489500D02*
X183324500Y-106489500D01*
X178562000Y-106934000D02*
X179006500Y-106489500D01*
X183324500Y-106489500D02*
X183388000Y-106489500D01*
X177292000Y-109601000D02*
X177251000Y-109560000D01*
X179197000Y-111506000D02*
X177292000Y-109601000D01*
X179324000Y-111506000D02*
X179197000Y-111506000D01*
X179324000Y-111633000D02*
X179324000Y-111506000D01*
X180641000Y-111633000D02*
X179324000Y-111633000D01*
X177251000Y-109560000D02*
X175797000Y-109560000D01*
X180734000Y-111726000D02*
X180641000Y-111633000D01*
X177927000Y-114554000D02*
X178054000Y-114681000D01*
X178054000Y-114681000D02*
X178181000Y-114681000D01*
X178562000Y-114681000D02*
X179070000Y-114681000D01*
X180650000Y-114300000D02*
X179451000Y-114300000D01*
X179070000Y-114681000D02*
X179451000Y-114300000D01*
X178562000Y-114681000D02*
X178181000Y-114681000D01*
X177927000Y-114554000D02*
X177927000Y-112776000D01*
X177927000Y-111125000D02*
X177927000Y-112776000D01*
X175823000Y-110236000D02*
X177038000Y-110236000D01*
X177038000Y-110236000D02*
X177927000Y-111125000D01*
X180734000Y-114216000D02*
X180650000Y-114300000D01*
X175797000Y-110210000D02*
X175823000Y-110236000D01*
X168249600Y-108610400D02*
X167792400Y-108610400D01*
X168549200Y-108910000D02*
X168249600Y-108610400D01*
X169897000Y-108910000D02*
X168549200Y-108910000D01*
X167576500Y-108394500D02*
X167227250Y-108045250D01*
X167792400Y-108610400D02*
X167576500Y-108394500D01*
X186563000Y-92202000D02*
X187452000Y-91313000D01*
X186563000Y-92138500D02*
X186594750Y-92170250D01*
X186594750Y-92170250D02*
X186563000Y-92138500D01*
X186563000Y-92138500D02*
X186563000Y-92202000D01*
X185039000Y-93726000D02*
X185070750Y-93694250D01*
X185070750Y-93694250D02*
X186563000Y-92202000D01*
X185039000Y-97028000D02*
X185039000Y-93726000D01*
X184404000Y-97663000D02*
X178816000Y-97663000D01*
X178435000Y-98361500D02*
X178435000Y-98044000D01*
X178435000Y-98044000D02*
X178816000Y-97663000D01*
X176339500Y-100457000D02*
X171005500Y-100457000D01*
X169418000Y-100457000D02*
X171005500Y-100457000D01*
X167195500Y-102679500D02*
X167195500Y-103124000D01*
X167195500Y-107315000D02*
X167195500Y-103124000D01*
X167195500Y-102679500D02*
X169418000Y-100457000D01*
X176339500Y-100457000D02*
X178435000Y-98361500D01*
X184404000Y-97663000D02*
X185039000Y-97028000D01*
X167195500Y-108013500D02*
X167227250Y-108045250D01*
X167195500Y-107315000D02*
X167195500Y-108013500D01*
X167227250Y-108045250D02*
X167259000Y-108077000D01*
X167195500Y-107320502D02*
X167195500Y-107315000D01*
X187452000Y-91313000D02*
X188899500Y-91313000D01*
X169897000Y-108910000D02*
X169889500Y-108902500D01*
X188836000Y-91249500D02*
X188899500Y-91313000D01*
X169897000Y-108910000D02*
X169826000Y-108839000D01*
X175797000Y-107610000D02*
X174412000Y-107610000D01*
X174371000Y-105079800D02*
X174371000Y-104648000D01*
X173990000Y-105460800D02*
X174371000Y-105079800D01*
X173990000Y-107188000D02*
X173990000Y-105460800D01*
X174412000Y-107610000D02*
X173990000Y-107188000D01*
D30*
X177101500Y-96901000D02*
X175387000Y-98615500D01*
X175387000Y-98615500D02*
X175387000Y-99441000D01*
X177101500Y-90401000D02*
X177101500Y-96901000D01*
D28*
X174371000Y-104013000D02*
X174371000Y-104648000D01*
X175797000Y-107610000D02*
X175756000Y-107569000D01*
X186944000Y-99822000D02*
X186817000Y-99695000D01*
X186817000Y-99695000D02*
X186817000Y-99568000D01*
X178498500Y-105283000D02*
X177419000Y-104203500D01*
X170307000Y-102235000D02*
X177419000Y-102235000D01*
X183832500Y-104521000D02*
X183070500Y-105283000D01*
X183832500Y-102552500D02*
X183832500Y-104521000D01*
X187325000Y-99060000D02*
X186817000Y-99568000D01*
X186817000Y-99568000D02*
X183832500Y-102552500D01*
X183070500Y-105283000D02*
X180213000Y-105283000D01*
X178498500Y-105283000D02*
X180213000Y-105283000D01*
X177419000Y-104203500D02*
X177419000Y-102235000D01*
X168783000Y-103759000D02*
X170307000Y-102235000D01*
X168783000Y-106807000D02*
X168783000Y-103759000D01*
X168783000Y-103759000D02*
X168783000Y-103886000D01*
X168783000Y-103886000D02*
X168783000Y-103759000D01*
X168910000Y-106934000D02*
X168783000Y-106807000D01*
X187325000Y-99060000D02*
X188772500Y-99060000D01*
X188899500Y-98933000D02*
X188772500Y-99060000D01*
X169871000Y-106934000D02*
X168910000Y-106934000D01*
X169897000Y-106960000D02*
X169871000Y-106934000D01*
D31*
G36*
X196670914Y-89267754D02*
X196622660Y-89277352D01*
X196376099Y-89442099D01*
X195423599Y-90394599D01*
X195258852Y-90641161D01*
X195201000Y-90932000D01*
X195201000Y-92528537D01*
X195168808Y-92560673D01*
X195026162Y-92904201D01*
X195025838Y-93276167D01*
X195167883Y-93619943D01*
X195430673Y-93883192D01*
X195774201Y-94025838D01*
X196089332Y-94026112D01*
X196183883Y-94254943D01*
X196446673Y-94518192D01*
X196790201Y-94660838D01*
X197162167Y-94661162D01*
X197505943Y-94519117D01*
X197621691Y-94403571D01*
X197641401Y-94390401D01*
X197654456Y-94370863D01*
X197769192Y-94256327D01*
X197911838Y-93912799D01*
X197912162Y-93540833D01*
X197770117Y-93197057D01*
X197737000Y-93163882D01*
X197737000Y-92454000D01*
X198186198Y-92454000D01*
X200503599Y-94771401D01*
X200750160Y-94936148D01*
X201041000Y-94994000D01*
X201494537Y-94994000D01*
X201526673Y-95026192D01*
X201870201Y-95168838D01*
X202242167Y-95169162D01*
X202585943Y-95027117D01*
X202849192Y-94764327D01*
X202991838Y-94420799D01*
X202992162Y-94048833D01*
X202850117Y-93705057D01*
X202587327Y-93441808D01*
X202243799Y-93299162D01*
X201871833Y-93298838D01*
X201528057Y-93440883D01*
X201494882Y-93474000D01*
X201355802Y-93474000D01*
X199038401Y-91156599D01*
X198791839Y-90991852D01*
X198501000Y-90934000D01*
X197104000Y-90934000D01*
X197016371Y-90951431D01*
X197228302Y-90739500D01*
X203895166Y-90739500D01*
X203930883Y-90825943D01*
X204193673Y-91089192D01*
X204537201Y-91231838D01*
X204909167Y-91232162D01*
X205252943Y-91090117D01*
X205516192Y-90827327D01*
X205658838Y-90483799D01*
X205659162Y-90111833D01*
X205517117Y-89768057D01*
X205254327Y-89504808D01*
X204910799Y-89362162D01*
X204824154Y-89362087D01*
X204697339Y-89277352D01*
X204456773Y-89229500D01*
X212052560Y-89229500D01*
X212052560Y-92091500D01*
X212096838Y-92326817D01*
X212235910Y-92542941D01*
X212448110Y-92687931D01*
X212700000Y-92738940D01*
X215700000Y-92738940D01*
X215935317Y-92694662D01*
X216151441Y-92555590D01*
X216206000Y-92475740D01*
X216206000Y-92961367D01*
X215900000Y-92900499D01*
X215413992Y-92997173D01*
X215001974Y-93272474D01*
X214484948Y-93789500D01*
X212407505Y-93789500D01*
X212407500Y-93789499D01*
X211921492Y-93886173D01*
X211509474Y-94161474D01*
X210493474Y-95177474D01*
X210218173Y-95589492D01*
X210121499Y-96075500D01*
X210218173Y-96561508D01*
X210493474Y-96973526D01*
X210905492Y-97248827D01*
X211391500Y-97345501D01*
X211877508Y-97248827D01*
X212289526Y-96973526D01*
X212933552Y-96329500D01*
X215010995Y-96329500D01*
X215011000Y-96329501D01*
X215497008Y-96232827D01*
X215909026Y-95957526D01*
X216206000Y-95660552D01*
X216206000Y-101705189D01*
X216164090Y-101640059D01*
X215951890Y-101495069D01*
X215700000Y-101444060D01*
X212700000Y-101444060D01*
X212464683Y-101488338D01*
X212248559Y-101627410D01*
X212103569Y-101839610D01*
X212052560Y-102091500D01*
X212052560Y-105091500D01*
X212096838Y-105326817D01*
X212235910Y-105542941D01*
X212448110Y-105687931D01*
X212700000Y-105738940D01*
X215700000Y-105738940D01*
X215935317Y-105694662D01*
X216151441Y-105555590D01*
X216206000Y-105475740D01*
X216206000Y-120370147D01*
X216064747Y-120158746D01*
X215582978Y-119836839D01*
X215037049Y-119728247D01*
X214854116Y-119545314D01*
X214837186Y-119460201D01*
X214824569Y-119396769D01*
X214985600Y-119428800D01*
X215276439Y-119370948D01*
X215523001Y-119206201D01*
X215687748Y-118959639D01*
X215745600Y-118668800D01*
X215745600Y-118618000D01*
X215687748Y-118327161D01*
X215523001Y-118080599D01*
X215276439Y-117915852D01*
X214985600Y-117858000D01*
X214694761Y-117915852D01*
X214448199Y-118080599D01*
X214283452Y-118327161D01*
X214226596Y-118612994D01*
X213967600Y-118353998D01*
X213967600Y-113893600D01*
X213909748Y-113602761D01*
X213745001Y-113356199D01*
X213498439Y-113191452D01*
X213207600Y-113133600D01*
X212496768Y-113133600D01*
X212372707Y-113050705D01*
X211662201Y-112340199D01*
X211415639Y-112175452D01*
X211124800Y-112117600D01*
X207518000Y-112117600D01*
X207227161Y-112175452D01*
X206980599Y-112340199D01*
X206015399Y-113305399D01*
X205850652Y-113551961D01*
X205792800Y-113842800D01*
X205792800Y-121615200D01*
X205850652Y-121906039D01*
X206015399Y-122152601D01*
X206250000Y-122387202D01*
X206250000Y-124256800D01*
X206307852Y-124547639D01*
X206328940Y-124579199D01*
X206328838Y-124695967D01*
X206470883Y-125039743D01*
X206733673Y-125302992D01*
X207077201Y-125445638D01*
X207449167Y-125445962D01*
X207792943Y-125303917D01*
X208056192Y-125041127D01*
X208078058Y-124988469D01*
X208414367Y-124988762D01*
X208758143Y-124846717D01*
X209021392Y-124583927D01*
X209164038Y-124240399D01*
X209164362Y-123868433D01*
X209022317Y-123524657D01*
X208759527Y-123261408D01*
X208509653Y-123157651D01*
X208252600Y-122900598D01*
X208252600Y-121786176D01*
X208285910Y-121837941D01*
X208498110Y-121982931D01*
X208750000Y-122033940D01*
X209399725Y-122033940D01*
X209313662Y-122241201D01*
X209313338Y-122613167D01*
X209455383Y-122956943D01*
X209718173Y-123220192D01*
X210039722Y-123353711D01*
X209996500Y-123571000D01*
X209996500Y-126746000D01*
X208470500Y-126746000D01*
X208130294Y-126813671D01*
X207912486Y-126959206D01*
X207841882Y-127006382D01*
X206765507Y-128082757D01*
X206698750Y-128016000D01*
X205549500Y-128016000D01*
X205549500Y-128036000D01*
X205295500Y-128036000D01*
X205295500Y-128016000D01*
X204146250Y-128016000D01*
X203987500Y-128174750D01*
X203987500Y-128815309D01*
X204084173Y-129048698D01*
X204262801Y-129227327D01*
X204469335Y-129312876D01*
X204206676Y-129575077D01*
X203987750Y-130102309D01*
X203987252Y-130673187D01*
X204205257Y-131200800D01*
X204608577Y-131604824D01*
X205135809Y-131823750D01*
X205706687Y-131824248D01*
X205760649Y-131801951D01*
X207084099Y-133125401D01*
X207330661Y-133290148D01*
X207475776Y-133319013D01*
X207555906Y-133512943D01*
X208015437Y-133973278D01*
X208616152Y-134222716D01*
X209266595Y-134223284D01*
X209867743Y-133974894D01*
X210328078Y-133515363D01*
X210344008Y-133477000D01*
X214041055Y-133477000D01*
X214055906Y-133512943D01*
X214515437Y-133973278D01*
X215116152Y-134222716D01*
X215766595Y-134223284D01*
X216206000Y-134041725D01*
X216206000Y-135634556D01*
X215769448Y-135453284D01*
X215119005Y-135452716D01*
X214517857Y-135701106D01*
X214057522Y-136160637D01*
X214041592Y-136199000D01*
X211066134Y-136199000D01*
X211006799Y-136174362D01*
X210634833Y-136174038D01*
X210574420Y-136199000D01*
X210344545Y-136199000D01*
X210329694Y-136163057D01*
X209870163Y-135702722D01*
X209269448Y-135453284D01*
X208619005Y-135452716D01*
X208017857Y-135701106D01*
X207557522Y-136160637D01*
X207488027Y-136328000D01*
X202884002Y-136328000D01*
X201166000Y-134609998D01*
X201166000Y-131988402D01*
X202365801Y-130788601D01*
X202530548Y-130542040D01*
X202562252Y-130382654D01*
X202569792Y-130375127D01*
X202712438Y-130031599D01*
X202712762Y-129659633D01*
X202570717Y-129315857D01*
X202307927Y-129052608D01*
X202097000Y-128965023D01*
X202097000Y-128687200D01*
X202086169Y-128632748D01*
X202107800Y-128524000D01*
X202107800Y-128138046D01*
X202470767Y-128138362D01*
X202814543Y-127996317D01*
X203077792Y-127733527D01*
X203220438Y-127389999D01*
X203220762Y-127018033D01*
X203197895Y-126962691D01*
X203987500Y-126962691D01*
X203987500Y-127603250D01*
X204146250Y-127762000D01*
X205295500Y-127762000D01*
X205295500Y-126612750D01*
X205549500Y-126612750D01*
X205549500Y-127762000D01*
X206698750Y-127762000D01*
X206857500Y-127603250D01*
X206857500Y-126962691D01*
X206760827Y-126729302D01*
X206582199Y-126550673D01*
X206348810Y-126454000D01*
X205708250Y-126454000D01*
X205549500Y-126612750D01*
X205295500Y-126612750D01*
X205136750Y-126454000D01*
X204496190Y-126454000D01*
X204262801Y-126550673D01*
X204084173Y-126729302D01*
X203987500Y-126962691D01*
X203197895Y-126962691D01*
X203191494Y-126947200D01*
X203352400Y-126947200D01*
X203643239Y-126889348D01*
X203889801Y-126724601D01*
X204050880Y-126563522D01*
X204096367Y-126563562D01*
X204440143Y-126421517D01*
X204703392Y-126158727D01*
X204846038Y-125815199D01*
X204846362Y-125443233D01*
X204704317Y-125099457D01*
X204441527Y-124836208D01*
X204097999Y-124693562D01*
X203726033Y-124693238D01*
X203382257Y-124835283D01*
X203119008Y-125098073D01*
X202982342Y-125427200D01*
X201228802Y-125427200D01*
X201206265Y-125404663D01*
X201166399Y-125344999D01*
X200929999Y-125108599D01*
X200683437Y-124943852D01*
X200496229Y-124906614D01*
X200573338Y-124791212D01*
X200630471Y-124503984D01*
X200921309Y-124624750D01*
X201492187Y-124625248D01*
X202019800Y-124407243D01*
X202284187Y-124143317D01*
X202369673Y-124349699D01*
X202548302Y-124528327D01*
X202781691Y-124625000D01*
X203422250Y-124625000D01*
X203581000Y-124466250D01*
X203581000Y-123317000D01*
X203835000Y-123317000D01*
X203835000Y-124466250D01*
X203993750Y-124625000D01*
X204634309Y-124625000D01*
X204867698Y-124528327D01*
X205046327Y-124349699D01*
X205143000Y-124116310D01*
X205143000Y-123475750D01*
X204984250Y-123317000D01*
X203835000Y-123317000D01*
X203581000Y-123317000D01*
X203561000Y-123317000D01*
X203561000Y-123063000D01*
X203581000Y-123063000D01*
X203581000Y-121913750D01*
X203835000Y-121913750D01*
X203835000Y-123063000D01*
X204984250Y-123063000D01*
X205143000Y-122904250D01*
X205143000Y-122263690D01*
X205046327Y-122030301D01*
X204867698Y-121851673D01*
X204634309Y-121755000D01*
X203993750Y-121755000D01*
X203835000Y-121913750D01*
X203581000Y-121913750D01*
X203422250Y-121755000D01*
X202781691Y-121755000D01*
X202548302Y-121851673D01*
X202369673Y-122030301D01*
X202284124Y-122236835D01*
X202021923Y-121974176D01*
X201494691Y-121755250D01*
X200923813Y-121754752D01*
X200649549Y-121868076D01*
X200655929Y-121836000D01*
X200573338Y-121420788D01*
X200426480Y-121201000D01*
X200573338Y-120981212D01*
X200655929Y-120566000D01*
X200573338Y-120150788D01*
X200426480Y-119931000D01*
X200573338Y-119711212D01*
X200655929Y-119296000D01*
X200573338Y-118880788D01*
X200426480Y-118661000D01*
X200573338Y-118441212D01*
X200655929Y-118026000D01*
X200573338Y-117610788D01*
X200426480Y-117391000D01*
X200573338Y-117171212D01*
X200655929Y-116756000D01*
X200573338Y-116340788D01*
X200426480Y-116121000D01*
X200573338Y-115901212D01*
X200655929Y-115486000D01*
X200632147Y-115366440D01*
X201968000Y-115366440D01*
X202203317Y-115322162D01*
X202419441Y-115183090D01*
X202564431Y-114970890D01*
X202585680Y-114865959D01*
X202854077Y-115134824D01*
X203381309Y-115353750D01*
X203952187Y-115354248D01*
X204479800Y-115136243D01*
X204883824Y-114732923D01*
X205102750Y-114205691D01*
X205103248Y-113634813D01*
X204885243Y-113107200D01*
X204481923Y-112703176D01*
X203954691Y-112484250D01*
X203383813Y-112483752D01*
X202856200Y-112701757D01*
X202587417Y-112970072D01*
X202571162Y-112883683D01*
X202432090Y-112667559D01*
X202219890Y-112522569D01*
X201968000Y-112471560D01*
X200513718Y-112471560D01*
X200433162Y-112351000D01*
X200573338Y-112141212D01*
X200655929Y-111726000D01*
X200573338Y-111310788D01*
X200433162Y-111101000D01*
X200573338Y-110891212D01*
X200655929Y-110476000D01*
X200573338Y-110060788D01*
X200433162Y-109851000D01*
X200573338Y-109641212D01*
X200655929Y-109226000D01*
X200573338Y-108810788D01*
X200433162Y-108601000D01*
X200573338Y-108391212D01*
X200655929Y-107976000D01*
X200573338Y-107560788D01*
X200338140Y-107208789D01*
X199986141Y-106973591D01*
X199570929Y-106891000D01*
X197897071Y-106891000D01*
X197481859Y-106973591D01*
X197129860Y-107208789D01*
X196894662Y-107560788D01*
X196812071Y-107976000D01*
X196894662Y-108391212D01*
X197034838Y-108601000D01*
X196894662Y-108810788D01*
X196812071Y-109226000D01*
X196894662Y-109641212D01*
X197034838Y-109851000D01*
X196894662Y-110060788D01*
X196812071Y-110476000D01*
X196894662Y-110891212D01*
X197034838Y-111101000D01*
X196894662Y-111310788D01*
X196812071Y-111726000D01*
X196894662Y-112141212D01*
X196938286Y-112206500D01*
X194205702Y-112206500D01*
X192663001Y-110663799D01*
X192416439Y-110499052D01*
X192125600Y-110441200D01*
X189280800Y-110441200D01*
X188989961Y-110499052D01*
X188743399Y-110663799D01*
X188159372Y-111247826D01*
X188121099Y-111273399D01*
X187956352Y-111519961D01*
X187898500Y-111810800D01*
X187898500Y-112364553D01*
X187862051Y-112340199D01*
X187665206Y-112208671D01*
X187325000Y-112141000D01*
X183177189Y-112141000D01*
X183066799Y-112095162D01*
X182694833Y-112094838D01*
X182583112Y-112141000D01*
X182573380Y-112141000D01*
X182655929Y-111726000D01*
X182573338Y-111310788D01*
X182433162Y-111101000D01*
X182573338Y-110891212D01*
X182655929Y-110476000D01*
X182573338Y-110060788D01*
X182433162Y-109851000D01*
X182573338Y-109641212D01*
X182655929Y-109226000D01*
X182573338Y-108810788D01*
X182433162Y-108601000D01*
X182573338Y-108391212D01*
X182655929Y-107976000D01*
X182573338Y-107560788D01*
X182365342Y-107249500D01*
X185356500Y-107249500D01*
X185647339Y-107191648D01*
X185893901Y-107026901D01*
X186950508Y-105970294D01*
X187155443Y-105885617D01*
X187418692Y-105622827D01*
X187504413Y-105416389D01*
X187700362Y-105220440D01*
X190119500Y-105220440D01*
X190302560Y-105185995D01*
X190302560Y-105341500D01*
X190346838Y-105576817D01*
X190485910Y-105792941D01*
X190698110Y-105937931D01*
X190950000Y-105988940D01*
X193450000Y-105988940D01*
X193685317Y-105944662D01*
X193901441Y-105805590D01*
X194046431Y-105593390D01*
X194097440Y-105341500D01*
X194097440Y-102841500D01*
X194053162Y-102606183D01*
X193962810Y-102465773D01*
X194046431Y-102343390D01*
X194057482Y-102288820D01*
X194160673Y-102392192D01*
X194504201Y-102534838D01*
X194629500Y-102534947D01*
X194629500Y-105038037D01*
X194597308Y-105070173D01*
X194454662Y-105413701D01*
X194454338Y-105785667D01*
X194596383Y-106129443D01*
X194859173Y-106392692D01*
X195202701Y-106535338D01*
X195574667Y-106535662D01*
X195918443Y-106393617D01*
X196165072Y-106147418D01*
X196183883Y-106192943D01*
X196446673Y-106456192D01*
X196790201Y-106598838D01*
X197162167Y-106599162D01*
X197505943Y-106457117D01*
X197769192Y-106194327D01*
X197911838Y-105850799D01*
X197912162Y-105478833D01*
X197770117Y-105135057D01*
X197737000Y-105101882D01*
X197737000Y-103124000D01*
X197706435Y-102970339D01*
X197679148Y-102833160D01*
X197514401Y-102586599D01*
X197356000Y-102428198D01*
X197356000Y-101854000D01*
X197336656Y-101756750D01*
X197298148Y-101563160D01*
X197237905Y-101473000D01*
X199625948Y-101473000D01*
X209350472Y-111197523D01*
X209350474Y-111197526D01*
X209736740Y-111455620D01*
X209762492Y-111472827D01*
X210248500Y-111569500D01*
X211845905Y-111569500D01*
X212205904Y-111810043D01*
X212831591Y-111934500D01*
X213507409Y-111934500D01*
X214133096Y-111810043D01*
X214663529Y-111455620D01*
X215017952Y-110925187D01*
X215142409Y-110299500D01*
X215017952Y-109673813D01*
X214778407Y-109315308D01*
X214920941Y-109223590D01*
X215065931Y-109011390D01*
X215116940Y-108759500D01*
X215116940Y-106759500D01*
X215072662Y-106524183D01*
X214933590Y-106308059D01*
X214721390Y-106163069D01*
X214469500Y-106112060D01*
X211984611Y-106112060D01*
X201494526Y-95621974D01*
X201082508Y-95346673D01*
X200596500Y-95249999D01*
X200596495Y-95250000D01*
X194772552Y-95250000D01*
X194097440Y-94574888D01*
X194097440Y-92091500D01*
X194053162Y-91856183D01*
X193962810Y-91715773D01*
X194046431Y-91593390D01*
X194097440Y-91341500D01*
X194097440Y-89229500D01*
X196863227Y-89229500D01*
X196670914Y-89267754D01*
X196670914Y-89267754D01*
G37*
X196670914Y-89267754D02*
X196622660Y-89277352D01*
X196376099Y-89442099D01*
X195423599Y-90394599D01*
X195258852Y-90641161D01*
X195201000Y-90932000D01*
X195201000Y-92528537D01*
X195168808Y-92560673D01*
X195026162Y-92904201D01*
X195025838Y-93276167D01*
X195167883Y-93619943D01*
X195430673Y-93883192D01*
X195774201Y-94025838D01*
X196089332Y-94026112D01*
X196183883Y-94254943D01*
X196446673Y-94518192D01*
X196790201Y-94660838D01*
X197162167Y-94661162D01*
X197505943Y-94519117D01*
X197621691Y-94403571D01*
X197641401Y-94390401D01*
X197654456Y-94370863D01*
X197769192Y-94256327D01*
X197911838Y-93912799D01*
X197912162Y-93540833D01*
X197770117Y-93197057D01*
X197737000Y-93163882D01*
X197737000Y-92454000D01*
X198186198Y-92454000D01*
X200503599Y-94771401D01*
X200750160Y-94936148D01*
X201041000Y-94994000D01*
X201494537Y-94994000D01*
X201526673Y-95026192D01*
X201870201Y-95168838D01*
X202242167Y-95169162D01*
X202585943Y-95027117D01*
X202849192Y-94764327D01*
X202991838Y-94420799D01*
X202992162Y-94048833D01*
X202850117Y-93705057D01*
X202587327Y-93441808D01*
X202243799Y-93299162D01*
X201871833Y-93298838D01*
X201528057Y-93440883D01*
X201494882Y-93474000D01*
X201355802Y-93474000D01*
X199038401Y-91156599D01*
X198791839Y-90991852D01*
X198501000Y-90934000D01*
X197104000Y-90934000D01*
X197016371Y-90951431D01*
X197228302Y-90739500D01*
X203895166Y-90739500D01*
X203930883Y-90825943D01*
X204193673Y-91089192D01*
X204537201Y-91231838D01*
X204909167Y-91232162D01*
X205252943Y-91090117D01*
X205516192Y-90827327D01*
X205658838Y-90483799D01*
X205659162Y-90111833D01*
X205517117Y-89768057D01*
X205254327Y-89504808D01*
X204910799Y-89362162D01*
X204824154Y-89362087D01*
X204697339Y-89277352D01*
X204456773Y-89229500D01*
X212052560Y-89229500D01*
X212052560Y-92091500D01*
X212096838Y-92326817D01*
X212235910Y-92542941D01*
X212448110Y-92687931D01*
X212700000Y-92738940D01*
X215700000Y-92738940D01*
X215935317Y-92694662D01*
X216151441Y-92555590D01*
X216206000Y-92475740D01*
X216206000Y-92961367D01*
X215900000Y-92900499D01*
X215413992Y-92997173D01*
X215001974Y-93272474D01*
X214484948Y-93789500D01*
X212407505Y-93789500D01*
X212407500Y-93789499D01*
X211921492Y-93886173D01*
X211509474Y-94161474D01*
X210493474Y-95177474D01*
X210218173Y-95589492D01*
X210121499Y-96075500D01*
X210218173Y-96561508D01*
X210493474Y-96973526D01*
X210905492Y-97248827D01*
X211391500Y-97345501D01*
X211877508Y-97248827D01*
X212289526Y-96973526D01*
X212933552Y-96329500D01*
X215010995Y-96329500D01*
X215011000Y-96329501D01*
X215497008Y-96232827D01*
X215909026Y-95957526D01*
X216206000Y-95660552D01*
X216206000Y-101705189D01*
X216164090Y-101640059D01*
X215951890Y-101495069D01*
X215700000Y-101444060D01*
X212700000Y-101444060D01*
X212464683Y-101488338D01*
X212248559Y-101627410D01*
X212103569Y-101839610D01*
X212052560Y-102091500D01*
X212052560Y-105091500D01*
X212096838Y-105326817D01*
X212235910Y-105542941D01*
X212448110Y-105687931D01*
X212700000Y-105738940D01*
X215700000Y-105738940D01*
X215935317Y-105694662D01*
X216151441Y-105555590D01*
X216206000Y-105475740D01*
X216206000Y-120370147D01*
X216064747Y-120158746D01*
X215582978Y-119836839D01*
X215037049Y-119728247D01*
X214854116Y-119545314D01*
X214837186Y-119460201D01*
X214824569Y-119396769D01*
X214985600Y-119428800D01*
X215276439Y-119370948D01*
X215523001Y-119206201D01*
X215687748Y-118959639D01*
X215745600Y-118668800D01*
X215745600Y-118618000D01*
X215687748Y-118327161D01*
X215523001Y-118080599D01*
X215276439Y-117915852D01*
X214985600Y-117858000D01*
X214694761Y-117915852D01*
X214448199Y-118080599D01*
X214283452Y-118327161D01*
X214226596Y-118612994D01*
X213967600Y-118353998D01*
X213967600Y-113893600D01*
X213909748Y-113602761D01*
X213745001Y-113356199D01*
X213498439Y-113191452D01*
X213207600Y-113133600D01*
X212496768Y-113133600D01*
X212372707Y-113050705D01*
X211662201Y-112340199D01*
X211415639Y-112175452D01*
X211124800Y-112117600D01*
X207518000Y-112117600D01*
X207227161Y-112175452D01*
X206980599Y-112340199D01*
X206015399Y-113305399D01*
X205850652Y-113551961D01*
X205792800Y-113842800D01*
X205792800Y-121615200D01*
X205850652Y-121906039D01*
X206015399Y-122152601D01*
X206250000Y-122387202D01*
X206250000Y-124256800D01*
X206307852Y-124547639D01*
X206328940Y-124579199D01*
X206328838Y-124695967D01*
X206470883Y-125039743D01*
X206733673Y-125302992D01*
X207077201Y-125445638D01*
X207449167Y-125445962D01*
X207792943Y-125303917D01*
X208056192Y-125041127D01*
X208078058Y-124988469D01*
X208414367Y-124988762D01*
X208758143Y-124846717D01*
X209021392Y-124583927D01*
X209164038Y-124240399D01*
X209164362Y-123868433D01*
X209022317Y-123524657D01*
X208759527Y-123261408D01*
X208509653Y-123157651D01*
X208252600Y-122900598D01*
X208252600Y-121786176D01*
X208285910Y-121837941D01*
X208498110Y-121982931D01*
X208750000Y-122033940D01*
X209399725Y-122033940D01*
X209313662Y-122241201D01*
X209313338Y-122613167D01*
X209455383Y-122956943D01*
X209718173Y-123220192D01*
X210039722Y-123353711D01*
X209996500Y-123571000D01*
X209996500Y-126746000D01*
X208470500Y-126746000D01*
X208130294Y-126813671D01*
X207912486Y-126959206D01*
X207841882Y-127006382D01*
X206765507Y-128082757D01*
X206698750Y-128016000D01*
X205549500Y-128016000D01*
X205549500Y-128036000D01*
X205295500Y-128036000D01*
X205295500Y-128016000D01*
X204146250Y-128016000D01*
X203987500Y-128174750D01*
X203987500Y-128815309D01*
X204084173Y-129048698D01*
X204262801Y-129227327D01*
X204469335Y-129312876D01*
X204206676Y-129575077D01*
X203987750Y-130102309D01*
X203987252Y-130673187D01*
X204205257Y-131200800D01*
X204608577Y-131604824D01*
X205135809Y-131823750D01*
X205706687Y-131824248D01*
X205760649Y-131801951D01*
X207084099Y-133125401D01*
X207330661Y-133290148D01*
X207475776Y-133319013D01*
X207555906Y-133512943D01*
X208015437Y-133973278D01*
X208616152Y-134222716D01*
X209266595Y-134223284D01*
X209867743Y-133974894D01*
X210328078Y-133515363D01*
X210344008Y-133477000D01*
X214041055Y-133477000D01*
X214055906Y-133512943D01*
X214515437Y-133973278D01*
X215116152Y-134222716D01*
X215766595Y-134223284D01*
X216206000Y-134041725D01*
X216206000Y-135634556D01*
X215769448Y-135453284D01*
X215119005Y-135452716D01*
X214517857Y-135701106D01*
X214057522Y-136160637D01*
X214041592Y-136199000D01*
X211066134Y-136199000D01*
X211006799Y-136174362D01*
X210634833Y-136174038D01*
X210574420Y-136199000D01*
X210344545Y-136199000D01*
X210329694Y-136163057D01*
X209870163Y-135702722D01*
X209269448Y-135453284D01*
X208619005Y-135452716D01*
X208017857Y-135701106D01*
X207557522Y-136160637D01*
X207488027Y-136328000D01*
X202884002Y-136328000D01*
X201166000Y-134609998D01*
X201166000Y-131988402D01*
X202365801Y-130788601D01*
X202530548Y-130542040D01*
X202562252Y-130382654D01*
X202569792Y-130375127D01*
X202712438Y-130031599D01*
X202712762Y-129659633D01*
X202570717Y-129315857D01*
X202307927Y-129052608D01*
X202097000Y-128965023D01*
X202097000Y-128687200D01*
X202086169Y-128632748D01*
X202107800Y-128524000D01*
X202107800Y-128138046D01*
X202470767Y-128138362D01*
X202814543Y-127996317D01*
X203077792Y-127733527D01*
X203220438Y-127389999D01*
X203220762Y-127018033D01*
X203197895Y-126962691D01*
X203987500Y-126962691D01*
X203987500Y-127603250D01*
X204146250Y-127762000D01*
X205295500Y-127762000D01*
X205295500Y-126612750D01*
X205549500Y-126612750D01*
X205549500Y-127762000D01*
X206698750Y-127762000D01*
X206857500Y-127603250D01*
X206857500Y-126962691D01*
X206760827Y-126729302D01*
X206582199Y-126550673D01*
X206348810Y-126454000D01*
X205708250Y-126454000D01*
X205549500Y-126612750D01*
X205295500Y-126612750D01*
X205136750Y-126454000D01*
X204496190Y-126454000D01*
X204262801Y-126550673D01*
X204084173Y-126729302D01*
X203987500Y-126962691D01*
X203197895Y-126962691D01*
X203191494Y-126947200D01*
X203352400Y-126947200D01*
X203643239Y-126889348D01*
X203889801Y-126724601D01*
X204050880Y-126563522D01*
X204096367Y-126563562D01*
X204440143Y-126421517D01*
X204703392Y-126158727D01*
X204846038Y-125815199D01*
X204846362Y-125443233D01*
X204704317Y-125099457D01*
X204441527Y-124836208D01*
X204097999Y-124693562D01*
X203726033Y-124693238D01*
X203382257Y-124835283D01*
X203119008Y-125098073D01*
X202982342Y-125427200D01*
X201228802Y-125427200D01*
X201206265Y-125404663D01*
X201166399Y-125344999D01*
X200929999Y-125108599D01*
X200683437Y-124943852D01*
X200496229Y-124906614D01*
X200573338Y-124791212D01*
X200630471Y-124503984D01*
X200921309Y-124624750D01*
X201492187Y-124625248D01*
X202019800Y-124407243D01*
X202284187Y-124143317D01*
X202369673Y-124349699D01*
X202548302Y-124528327D01*
X202781691Y-124625000D01*
X203422250Y-124625000D01*
X203581000Y-124466250D01*
X203581000Y-123317000D01*
X203835000Y-123317000D01*
X203835000Y-124466250D01*
X203993750Y-124625000D01*
X204634309Y-124625000D01*
X204867698Y-124528327D01*
X205046327Y-124349699D01*
X205143000Y-124116310D01*
X205143000Y-123475750D01*
X204984250Y-123317000D01*
X203835000Y-123317000D01*
X203581000Y-123317000D01*
X203561000Y-123317000D01*
X203561000Y-123063000D01*
X203581000Y-123063000D01*
X203581000Y-121913750D01*
X203835000Y-121913750D01*
X203835000Y-123063000D01*
X204984250Y-123063000D01*
X205143000Y-122904250D01*
X205143000Y-122263690D01*
X205046327Y-122030301D01*
X204867698Y-121851673D01*
X204634309Y-121755000D01*
X203993750Y-121755000D01*
X203835000Y-121913750D01*
X203581000Y-121913750D01*
X203422250Y-121755000D01*
X202781691Y-121755000D01*
X202548302Y-121851673D01*
X202369673Y-122030301D01*
X202284124Y-122236835D01*
X202021923Y-121974176D01*
X201494691Y-121755250D01*
X200923813Y-121754752D01*
X200649549Y-121868076D01*
X200655929Y-121836000D01*
X200573338Y-121420788D01*
X200426480Y-121201000D01*
X200573338Y-120981212D01*
X200655929Y-120566000D01*
X200573338Y-120150788D01*
X200426480Y-119931000D01*
X200573338Y-119711212D01*
X200655929Y-119296000D01*
X200573338Y-118880788D01*
X200426480Y-118661000D01*
X200573338Y-118441212D01*
X200655929Y-118026000D01*
X200573338Y-117610788D01*
X200426480Y-117391000D01*
X200573338Y-117171212D01*
X200655929Y-116756000D01*
X200573338Y-116340788D01*
X200426480Y-116121000D01*
X200573338Y-115901212D01*
X200655929Y-115486000D01*
X200632147Y-115366440D01*
X201968000Y-115366440D01*
X202203317Y-115322162D01*
X202419441Y-115183090D01*
X202564431Y-114970890D01*
X202585680Y-114865959D01*
X202854077Y-115134824D01*
X203381309Y-115353750D01*
X203952187Y-115354248D01*
X204479800Y-115136243D01*
X204883824Y-114732923D01*
X205102750Y-114205691D01*
X205103248Y-113634813D01*
X204885243Y-113107200D01*
X204481923Y-112703176D01*
X203954691Y-112484250D01*
X203383813Y-112483752D01*
X202856200Y-112701757D01*
X202587417Y-112970072D01*
X202571162Y-112883683D01*
X202432090Y-112667559D01*
X202219890Y-112522569D01*
X201968000Y-112471560D01*
X200513718Y-112471560D01*
X200433162Y-112351000D01*
X200573338Y-112141212D01*
X200655929Y-111726000D01*
X200573338Y-111310788D01*
X200433162Y-111101000D01*
X200573338Y-110891212D01*
X200655929Y-110476000D01*
X200573338Y-110060788D01*
X200433162Y-109851000D01*
X200573338Y-109641212D01*
X200655929Y-109226000D01*
X200573338Y-108810788D01*
X200433162Y-108601000D01*
X200573338Y-108391212D01*
X200655929Y-107976000D01*
X200573338Y-107560788D01*
X200338140Y-107208789D01*
X199986141Y-106973591D01*
X199570929Y-106891000D01*
X197897071Y-106891000D01*
X197481859Y-106973591D01*
X197129860Y-107208789D01*
X196894662Y-107560788D01*
X196812071Y-107976000D01*
X196894662Y-108391212D01*
X197034838Y-108601000D01*
X196894662Y-108810788D01*
X196812071Y-109226000D01*
X196894662Y-109641212D01*
X197034838Y-109851000D01*
X196894662Y-110060788D01*
X196812071Y-110476000D01*
X196894662Y-110891212D01*
X197034838Y-111101000D01*
X196894662Y-111310788D01*
X196812071Y-111726000D01*
X196894662Y-112141212D01*
X196938286Y-112206500D01*
X194205702Y-112206500D01*
X192663001Y-110663799D01*
X192416439Y-110499052D01*
X192125600Y-110441200D01*
X189280800Y-110441200D01*
X188989961Y-110499052D01*
X188743399Y-110663799D01*
X188159372Y-111247826D01*
X188121099Y-111273399D01*
X187956352Y-111519961D01*
X187898500Y-111810800D01*
X187898500Y-112364553D01*
X187862051Y-112340199D01*
X187665206Y-112208671D01*
X187325000Y-112141000D01*
X183177189Y-112141000D01*
X183066799Y-112095162D01*
X182694833Y-112094838D01*
X182583112Y-112141000D01*
X182573380Y-112141000D01*
X182655929Y-111726000D01*
X182573338Y-111310788D01*
X182433162Y-111101000D01*
X182573338Y-110891212D01*
X182655929Y-110476000D01*
X182573338Y-110060788D01*
X182433162Y-109851000D01*
X182573338Y-109641212D01*
X182655929Y-109226000D01*
X182573338Y-108810788D01*
X182433162Y-108601000D01*
X182573338Y-108391212D01*
X182655929Y-107976000D01*
X182573338Y-107560788D01*
X182365342Y-107249500D01*
X185356500Y-107249500D01*
X185647339Y-107191648D01*
X185893901Y-107026901D01*
X186950508Y-105970294D01*
X187155443Y-105885617D01*
X187418692Y-105622827D01*
X187504413Y-105416389D01*
X187700362Y-105220440D01*
X190119500Y-105220440D01*
X190302560Y-105185995D01*
X190302560Y-105341500D01*
X190346838Y-105576817D01*
X190485910Y-105792941D01*
X190698110Y-105937931D01*
X190950000Y-105988940D01*
X193450000Y-105988940D01*
X193685317Y-105944662D01*
X193901441Y-105805590D01*
X194046431Y-105593390D01*
X194097440Y-105341500D01*
X194097440Y-102841500D01*
X194053162Y-102606183D01*
X193962810Y-102465773D01*
X194046431Y-102343390D01*
X194057482Y-102288820D01*
X194160673Y-102392192D01*
X194504201Y-102534838D01*
X194629500Y-102534947D01*
X194629500Y-105038037D01*
X194597308Y-105070173D01*
X194454662Y-105413701D01*
X194454338Y-105785667D01*
X194596383Y-106129443D01*
X194859173Y-106392692D01*
X195202701Y-106535338D01*
X195574667Y-106535662D01*
X195918443Y-106393617D01*
X196165072Y-106147418D01*
X196183883Y-106192943D01*
X196446673Y-106456192D01*
X196790201Y-106598838D01*
X197162167Y-106599162D01*
X197505943Y-106457117D01*
X197769192Y-106194327D01*
X197911838Y-105850799D01*
X197912162Y-105478833D01*
X197770117Y-105135057D01*
X197737000Y-105101882D01*
X197737000Y-103124000D01*
X197706435Y-102970339D01*
X197679148Y-102833160D01*
X197514401Y-102586599D01*
X197356000Y-102428198D01*
X197356000Y-101854000D01*
X197336656Y-101756750D01*
X197298148Y-101563160D01*
X197237905Y-101473000D01*
X199625948Y-101473000D01*
X209350472Y-111197523D01*
X209350474Y-111197526D01*
X209736740Y-111455620D01*
X209762492Y-111472827D01*
X210248500Y-111569500D01*
X211845905Y-111569500D01*
X212205904Y-111810043D01*
X212831591Y-111934500D01*
X213507409Y-111934500D01*
X214133096Y-111810043D01*
X214663529Y-111455620D01*
X215017952Y-110925187D01*
X215142409Y-110299500D01*
X215017952Y-109673813D01*
X214778407Y-109315308D01*
X214920941Y-109223590D01*
X215065931Y-109011390D01*
X215116940Y-108759500D01*
X215116940Y-106759500D01*
X215072662Y-106524183D01*
X214933590Y-106308059D01*
X214721390Y-106163069D01*
X214469500Y-106112060D01*
X211984611Y-106112060D01*
X201494526Y-95621974D01*
X201082508Y-95346673D01*
X200596500Y-95249999D01*
X200596495Y-95250000D01*
X194772552Y-95250000D01*
X194097440Y-94574888D01*
X194097440Y-92091500D01*
X194053162Y-91856183D01*
X193962810Y-91715773D01*
X194046431Y-91593390D01*
X194097440Y-91341500D01*
X194097440Y-89229500D01*
X196863227Y-89229500D01*
X196670914Y-89267754D01*
G36*
X212249383Y-123464943D02*
X212512173Y-123728192D01*
X212855701Y-123870838D01*
X213227667Y-123871162D01*
X213475479Y-123768768D01*
X213584546Y-124317085D01*
X213906453Y-124798854D01*
X214247153Y-125026502D01*
X214104242Y-125093617D01*
X213713955Y-125521876D01*
X213544124Y-125931910D01*
X213665445Y-126161800D01*
X214858600Y-126161800D01*
X214858600Y-126141800D01*
X215112600Y-126141800D01*
X215112600Y-126161800D01*
X215132600Y-126161800D01*
X215132600Y-126415800D01*
X215112600Y-126415800D01*
X215112600Y-126435800D01*
X214858600Y-126435800D01*
X214858600Y-126415800D01*
X213665445Y-126415800D01*
X213544124Y-126645690D01*
X213713955Y-127055724D01*
X213990101Y-127358737D01*
X213900283Y-127375638D01*
X213684159Y-127514710D01*
X213539169Y-127726910D01*
X213488160Y-127978800D01*
X213488160Y-129678800D01*
X213532438Y-129914117D01*
X213671510Y-130130241D01*
X213883710Y-130275231D01*
X214135600Y-130326240D01*
X215835600Y-130326240D01*
X216070917Y-130281962D01*
X216206000Y-130195038D01*
X216206000Y-131134556D01*
X215769448Y-130953284D01*
X215119005Y-130952716D01*
X214517857Y-131201106D01*
X214057522Y-131660637D01*
X214041592Y-131699000D01*
X210344545Y-131699000D01*
X210329694Y-131663057D01*
X209870163Y-131202722D01*
X209269448Y-130953284D01*
X208619005Y-130952716D01*
X208017857Y-131201106D01*
X207663323Y-131555021D01*
X206835756Y-130727454D01*
X206857250Y-130675691D01*
X206857399Y-130505337D01*
X208838736Y-128524000D01*
X210459311Y-128524000D01*
X210569701Y-128569838D01*
X210941667Y-128570162D01*
X211285443Y-128428117D01*
X211548692Y-128165327D01*
X211691338Y-127821799D01*
X211691662Y-127449833D01*
X211549617Y-127106057D01*
X211516500Y-127072882D01*
X211516500Y-124119597D01*
X211539443Y-124110117D01*
X211802692Y-123847327D01*
X211945338Y-123503799D01*
X211945613Y-123188000D01*
X212134953Y-123188000D01*
X212249383Y-123464943D01*
X212249383Y-123464943D01*
G37*
X212249383Y-123464943D02*
X212512173Y-123728192D01*
X212855701Y-123870838D01*
X213227667Y-123871162D01*
X213475479Y-123768768D01*
X213584546Y-124317085D01*
X213906453Y-124798854D01*
X214247153Y-125026502D01*
X214104242Y-125093617D01*
X213713955Y-125521876D01*
X213544124Y-125931910D01*
X213665445Y-126161800D01*
X214858600Y-126161800D01*
X214858600Y-126141800D01*
X215112600Y-126141800D01*
X215112600Y-126161800D01*
X215132600Y-126161800D01*
X215132600Y-126415800D01*
X215112600Y-126415800D01*
X215112600Y-126435800D01*
X214858600Y-126435800D01*
X214858600Y-126415800D01*
X213665445Y-126415800D01*
X213544124Y-126645690D01*
X213713955Y-127055724D01*
X213990101Y-127358737D01*
X213900283Y-127375638D01*
X213684159Y-127514710D01*
X213539169Y-127726910D01*
X213488160Y-127978800D01*
X213488160Y-129678800D01*
X213532438Y-129914117D01*
X213671510Y-130130241D01*
X213883710Y-130275231D01*
X214135600Y-130326240D01*
X215835600Y-130326240D01*
X216070917Y-130281962D01*
X216206000Y-130195038D01*
X216206000Y-131134556D01*
X215769448Y-130953284D01*
X215119005Y-130952716D01*
X214517857Y-131201106D01*
X214057522Y-131660637D01*
X214041592Y-131699000D01*
X210344545Y-131699000D01*
X210329694Y-131663057D01*
X209870163Y-131202722D01*
X209269448Y-130953284D01*
X208619005Y-130952716D01*
X208017857Y-131201106D01*
X207663323Y-131555021D01*
X206835756Y-130727454D01*
X206857250Y-130675691D01*
X206857399Y-130505337D01*
X208838736Y-128524000D01*
X210459311Y-128524000D01*
X210569701Y-128569838D01*
X210941667Y-128570162D01*
X211285443Y-128428117D01*
X211548692Y-128165327D01*
X211691338Y-127821799D01*
X211691662Y-127449833D01*
X211549617Y-127106057D01*
X211516500Y-127072882D01*
X211516500Y-124119597D01*
X211539443Y-124110117D01*
X211802692Y-123847327D01*
X211945338Y-123503799D01*
X211945613Y-123188000D01*
X212134953Y-123188000D01*
X212249383Y-123464943D01*
G36*
X168512000Y-110987002D02*
X168656248Y-110987002D01*
X168512000Y-111131250D01*
X168512000Y-111211310D01*
X168608673Y-111444699D01*
X168615974Y-111452000D01*
X168594173Y-111473801D01*
X168497500Y-111707190D01*
X168497500Y-112172750D01*
X168656250Y-112331500D01*
X169755500Y-112331500D01*
X169755500Y-111575750D01*
X169770000Y-111561250D01*
X169770000Y-111082440D01*
X170024000Y-111082440D01*
X170024000Y-111342750D01*
X170009500Y-111357250D01*
X170009500Y-112331500D01*
X170029500Y-112331500D01*
X170029500Y-112585500D01*
X170009500Y-112585500D01*
X170009500Y-112605500D01*
X169755500Y-112605500D01*
X169755500Y-112585500D01*
X168656250Y-112585500D01*
X168497500Y-112744250D01*
X168497500Y-113209810D01*
X168594173Y-113443199D01*
X168772802Y-113621827D01*
X169006191Y-113718500D01*
X169181619Y-113718500D01*
X169181338Y-114040667D01*
X169323383Y-114384443D01*
X169356500Y-114417618D01*
X169356500Y-116087037D01*
X169324308Y-116119173D01*
X169181662Y-116462701D01*
X169181338Y-116834667D01*
X169323383Y-117178443D01*
X169586173Y-117441692D01*
X169929701Y-117584338D01*
X169979712Y-117584382D01*
X170021883Y-117686443D01*
X170284673Y-117949692D01*
X170628201Y-118092338D01*
X171000167Y-118092662D01*
X171343943Y-117950617D01*
X171577000Y-117717966D01*
X171577000Y-118003311D01*
X171531162Y-118113701D01*
X171530838Y-118485667D01*
X171577000Y-118597388D01*
X171577000Y-120860811D01*
X171531162Y-120971201D01*
X171530838Y-121343167D01*
X171577000Y-121454888D01*
X171577000Y-123150000D01*
X171644671Y-123490206D01*
X171808130Y-123734839D01*
X171837382Y-123778618D01*
X172722155Y-124663391D01*
X172721752Y-125125187D01*
X172939757Y-125652800D01*
X173343077Y-126056824D01*
X173870309Y-126275750D01*
X174441187Y-126276248D01*
X174968800Y-126058243D01*
X175233187Y-125794317D01*
X175318673Y-126000699D01*
X175497302Y-126179327D01*
X175730691Y-126276000D01*
X176371250Y-126276000D01*
X176530000Y-126117250D01*
X176530000Y-124968000D01*
X176510000Y-124968000D01*
X176510000Y-124714000D01*
X176530000Y-124714000D01*
X176530000Y-123564750D01*
X176371250Y-123406000D01*
X175730691Y-123406000D01*
X175497302Y-123502673D01*
X175318673Y-123681301D01*
X175233124Y-123887835D01*
X174970923Y-123625176D01*
X174443691Y-123406250D01*
X173979081Y-123405845D01*
X173355000Y-122781764D01*
X173355000Y-121780236D01*
X174211801Y-120923435D01*
X174319910Y-121091441D01*
X174532110Y-121236431D01*
X174784000Y-121287440D01*
X176284000Y-121287440D01*
X176519317Y-121243162D01*
X176735441Y-121104090D01*
X176783134Y-121034289D01*
X176819910Y-121091441D01*
X177032110Y-121236431D01*
X177284000Y-121287440D01*
X177992758Y-121287440D01*
X177453099Y-121827099D01*
X177288352Y-122073661D01*
X177230500Y-122364500D01*
X177230500Y-123406000D01*
X176942750Y-123406000D01*
X176784000Y-123564750D01*
X176784000Y-124714000D01*
X176804000Y-124714000D01*
X176804000Y-124968000D01*
X176784000Y-124968000D01*
X176784000Y-126117250D01*
X176942750Y-126276000D01*
X177230500Y-126276000D01*
X177230500Y-127205995D01*
X177182662Y-127321201D01*
X177182338Y-127693167D01*
X177222377Y-127790069D01*
X177132801Y-127827173D01*
X176954173Y-128005802D01*
X176857500Y-128239191D01*
X176857500Y-128829750D01*
X177016250Y-128988500D01*
X177990500Y-128988500D01*
X177990500Y-128968500D01*
X178244500Y-128968500D01*
X178244500Y-128988500D01*
X178264500Y-128988500D01*
X178264500Y-129242500D01*
X178244500Y-129242500D01*
X178244500Y-129262500D01*
X177990500Y-129262500D01*
X177990500Y-129242500D01*
X177016250Y-129242500D01*
X176912263Y-129346487D01*
X176878617Y-129265057D01*
X176615827Y-129001808D01*
X176272299Y-128859162D01*
X175900333Y-128858838D01*
X175788612Y-128905000D01*
X170812692Y-128905000D01*
X170831699Y-128897127D01*
X171010327Y-128718498D01*
X171107000Y-128485109D01*
X171107000Y-127844550D01*
X170948250Y-127685800D01*
X169799000Y-127685800D01*
X169799000Y-127705800D01*
X169545000Y-127705800D01*
X169545000Y-127685800D01*
X168395750Y-127685800D01*
X168237000Y-127844550D01*
X168237000Y-128485109D01*
X168333673Y-128718498D01*
X168512301Y-128897127D01*
X168718835Y-128982676D01*
X168456176Y-129244877D01*
X168237250Y-129772109D01*
X168236752Y-130342987D01*
X168454757Y-130870600D01*
X168507467Y-130923402D01*
X168179805Y-130923116D01*
X167651500Y-131141408D01*
X167651500Y-126632491D01*
X168237000Y-126632491D01*
X168237000Y-127273050D01*
X168395750Y-127431800D01*
X169545000Y-127431800D01*
X169545000Y-126282550D01*
X169799000Y-126282550D01*
X169799000Y-127431800D01*
X170948250Y-127431800D01*
X171107000Y-127273050D01*
X171107000Y-126632491D01*
X171010327Y-126399102D01*
X170831699Y-126220473D01*
X170598310Y-126123800D01*
X169957750Y-126123800D01*
X169799000Y-126282550D01*
X169545000Y-126282550D01*
X169386250Y-126123800D01*
X168745690Y-126123800D01*
X168512301Y-126220473D01*
X168333673Y-126399102D01*
X168237000Y-126632491D01*
X167651500Y-126632491D01*
X167651500Y-111100707D01*
X167978443Y-110965617D01*
X168011618Y-110932500D01*
X168512000Y-110932500D01*
X168512000Y-110987002D01*
X168512000Y-110987002D01*
G37*
X168512000Y-110987002D02*
X168656248Y-110987002D01*
X168512000Y-111131250D01*
X168512000Y-111211310D01*
X168608673Y-111444699D01*
X168615974Y-111452000D01*
X168594173Y-111473801D01*
X168497500Y-111707190D01*
X168497500Y-112172750D01*
X168656250Y-112331500D01*
X169755500Y-112331500D01*
X169755500Y-111575750D01*
X169770000Y-111561250D01*
X169770000Y-111082440D01*
X170024000Y-111082440D01*
X170024000Y-111342750D01*
X170009500Y-111357250D01*
X170009500Y-112331500D01*
X170029500Y-112331500D01*
X170029500Y-112585500D01*
X170009500Y-112585500D01*
X170009500Y-112605500D01*
X169755500Y-112605500D01*
X169755500Y-112585500D01*
X168656250Y-112585500D01*
X168497500Y-112744250D01*
X168497500Y-113209810D01*
X168594173Y-113443199D01*
X168772802Y-113621827D01*
X169006191Y-113718500D01*
X169181619Y-113718500D01*
X169181338Y-114040667D01*
X169323383Y-114384443D01*
X169356500Y-114417618D01*
X169356500Y-116087037D01*
X169324308Y-116119173D01*
X169181662Y-116462701D01*
X169181338Y-116834667D01*
X169323383Y-117178443D01*
X169586173Y-117441692D01*
X169929701Y-117584338D01*
X169979712Y-117584382D01*
X170021883Y-117686443D01*
X170284673Y-117949692D01*
X170628201Y-118092338D01*
X171000167Y-118092662D01*
X171343943Y-117950617D01*
X171577000Y-117717966D01*
X171577000Y-118003311D01*
X171531162Y-118113701D01*
X171530838Y-118485667D01*
X171577000Y-118597388D01*
X171577000Y-120860811D01*
X171531162Y-120971201D01*
X171530838Y-121343167D01*
X171577000Y-121454888D01*
X171577000Y-123150000D01*
X171644671Y-123490206D01*
X171808130Y-123734839D01*
X171837382Y-123778618D01*
X172722155Y-124663391D01*
X172721752Y-125125187D01*
X172939757Y-125652800D01*
X173343077Y-126056824D01*
X173870309Y-126275750D01*
X174441187Y-126276248D01*
X174968800Y-126058243D01*
X175233187Y-125794317D01*
X175318673Y-126000699D01*
X175497302Y-126179327D01*
X175730691Y-126276000D01*
X176371250Y-126276000D01*
X176530000Y-126117250D01*
X176530000Y-124968000D01*
X176510000Y-124968000D01*
X176510000Y-124714000D01*
X176530000Y-124714000D01*
X176530000Y-123564750D01*
X176371250Y-123406000D01*
X175730691Y-123406000D01*
X175497302Y-123502673D01*
X175318673Y-123681301D01*
X175233124Y-123887835D01*
X174970923Y-123625176D01*
X174443691Y-123406250D01*
X173979081Y-123405845D01*
X173355000Y-122781764D01*
X173355000Y-121780236D01*
X174211801Y-120923435D01*
X174319910Y-121091441D01*
X174532110Y-121236431D01*
X174784000Y-121287440D01*
X176284000Y-121287440D01*
X176519317Y-121243162D01*
X176735441Y-121104090D01*
X176783134Y-121034289D01*
X176819910Y-121091441D01*
X177032110Y-121236431D01*
X177284000Y-121287440D01*
X177992758Y-121287440D01*
X177453099Y-121827099D01*
X177288352Y-122073661D01*
X177230500Y-122364500D01*
X177230500Y-123406000D01*
X176942750Y-123406000D01*
X176784000Y-123564750D01*
X176784000Y-124714000D01*
X176804000Y-124714000D01*
X176804000Y-124968000D01*
X176784000Y-124968000D01*
X176784000Y-126117250D01*
X176942750Y-126276000D01*
X177230500Y-126276000D01*
X177230500Y-127205995D01*
X177182662Y-127321201D01*
X177182338Y-127693167D01*
X177222377Y-127790069D01*
X177132801Y-127827173D01*
X176954173Y-128005802D01*
X176857500Y-128239191D01*
X176857500Y-128829750D01*
X177016250Y-128988500D01*
X177990500Y-128988500D01*
X177990500Y-128968500D01*
X178244500Y-128968500D01*
X178244500Y-128988500D01*
X178264500Y-128988500D01*
X178264500Y-129242500D01*
X178244500Y-129242500D01*
X178244500Y-129262500D01*
X177990500Y-129262500D01*
X177990500Y-129242500D01*
X177016250Y-129242500D01*
X176912263Y-129346487D01*
X176878617Y-129265057D01*
X176615827Y-129001808D01*
X176272299Y-128859162D01*
X175900333Y-128858838D01*
X175788612Y-128905000D01*
X170812692Y-128905000D01*
X170831699Y-128897127D01*
X171010327Y-128718498D01*
X171107000Y-128485109D01*
X171107000Y-127844550D01*
X170948250Y-127685800D01*
X169799000Y-127685800D01*
X169799000Y-127705800D01*
X169545000Y-127705800D01*
X169545000Y-127685800D01*
X168395750Y-127685800D01*
X168237000Y-127844550D01*
X168237000Y-128485109D01*
X168333673Y-128718498D01*
X168512301Y-128897127D01*
X168718835Y-128982676D01*
X168456176Y-129244877D01*
X168237250Y-129772109D01*
X168236752Y-130342987D01*
X168454757Y-130870600D01*
X168507467Y-130923402D01*
X168179805Y-130923116D01*
X167651500Y-131141408D01*
X167651500Y-126632491D01*
X168237000Y-126632491D01*
X168237000Y-127273050D01*
X168395750Y-127431800D01*
X169545000Y-127431800D01*
X169545000Y-126282550D01*
X169799000Y-126282550D01*
X169799000Y-127431800D01*
X170948250Y-127431800D01*
X171107000Y-127273050D01*
X171107000Y-126632491D01*
X171010327Y-126399102D01*
X170831699Y-126220473D01*
X170598310Y-126123800D01*
X169957750Y-126123800D01*
X169799000Y-126282550D01*
X169545000Y-126282550D01*
X169386250Y-126123800D01*
X168745690Y-126123800D01*
X168512301Y-126220473D01*
X168333673Y-126399102D01*
X168237000Y-126632491D01*
X167651500Y-126632491D01*
X167651500Y-111100707D01*
X167978443Y-110965617D01*
X168011618Y-110932500D01*
X168512000Y-110932500D01*
X168512000Y-110987002D01*
G36*
X190775399Y-130382201D02*
X191021961Y-130546948D01*
X191312800Y-130604800D01*
X191998060Y-130604800D01*
X192039067Y-130632200D01*
X182638636Y-130632200D01*
X182636932Y-130630496D01*
X182573338Y-130310788D01*
X182417968Y-130078259D01*
X182578408Y-129750001D01*
X182451502Y-129583000D01*
X180861000Y-129583000D01*
X180861000Y-129603000D01*
X180607000Y-129603000D01*
X180607000Y-129583000D01*
X180587000Y-129583000D01*
X180587000Y-129329000D01*
X180607000Y-129329000D01*
X180607000Y-129309000D01*
X180861000Y-129309000D01*
X180861000Y-129329000D01*
X182451502Y-129329000D01*
X182578408Y-129161999D01*
X182472836Y-128946000D01*
X189339198Y-128946000D01*
X190775399Y-130382201D01*
X190775399Y-130382201D01*
G37*
X190775399Y-130382201D02*
X191021961Y-130546948D01*
X191312800Y-130604800D01*
X191998060Y-130604800D01*
X192039067Y-130632200D01*
X182638636Y-130632200D01*
X182636932Y-130630496D01*
X182573338Y-130310788D01*
X182417968Y-130078259D01*
X182578408Y-129750001D01*
X182451502Y-129583000D01*
X180861000Y-129583000D01*
X180861000Y-129603000D01*
X180607000Y-129603000D01*
X180607000Y-129583000D01*
X180587000Y-129583000D01*
X180587000Y-129329000D01*
X180607000Y-129329000D01*
X180607000Y-129309000D01*
X180861000Y-129309000D01*
X180861000Y-129329000D01*
X182451502Y-129329000D01*
X182578408Y-129161999D01*
X182472836Y-128946000D01*
X189339198Y-128946000D01*
X190775399Y-130382201D01*
M02*
