G04 #@! TF.FileFunction,Legend,Bot*
%FSLAX46Y46*%
G04 Gerber Fmt 4.6, Leading zero omitted, Abs format (unit mm)*
G04 Created by KiCad (PCBNEW 4.0.6) date 10/19/17 05:59:14*
%MOMM*%
%LPD*%
G01*
G04 APERTURE LIST*
%ADD10C,0.100000*%
%ADD11C,0.500000*%
%ADD12C,0.150000*%
%ADD13C,0.120000*%
G04 APERTURE END LIST*
D10*
D11*
X180111981Y-132080000D02*
G75*
G03X180111981Y-132080000I-283981J0D01*
G01*
D12*
X198734000Y-132226000D02*
X180734000Y-132226000D01*
X180734000Y-138226000D02*
X180734000Y-106726000D01*
X198734000Y-138226000D02*
X198734000Y-106726000D01*
X198734000Y-106726000D02*
X180734000Y-106726000D01*
X198734000Y-138226000D02*
X180734000Y-138226000D01*
D13*
X214442800Y-138088000D02*
X209942800Y-138088000D01*
X215692800Y-134088000D02*
X215692800Y-135588000D01*
X209942800Y-131588000D02*
X214442800Y-131588000D01*
X208692800Y-135588000D02*
X208692800Y-134088000D01*
D12*
X216490000Y-105591500D02*
X190500000Y-105591500D01*
X216500000Y-88591500D02*
X190500000Y-88591500D01*
X216970000Y-100451500D02*
X216970000Y-93901500D01*
X216956000Y-100479500D02*
X216448000Y-100479500D01*
X216448000Y-100479500D02*
X216194000Y-99971500D01*
X216194000Y-99971500D02*
X215940000Y-99971500D01*
X216956000Y-93875500D02*
X216448000Y-93875500D01*
X216448000Y-93875500D02*
X216194000Y-94383500D01*
X216194000Y-94383500D02*
X211368000Y-94383500D01*
X211368000Y-94383500D02*
X211368000Y-99971500D01*
X211368000Y-99971500D02*
X215940000Y-99971500D01*
X216496000Y-105591500D02*
X216496000Y-88591500D01*
X190494000Y-88591500D02*
X190494000Y-105591500D01*
D13*
X210149500Y-106389500D02*
X216149500Y-106389500D01*
X216149500Y-106389500D02*
X216149500Y-111669500D01*
X216149500Y-111669500D02*
X210149500Y-111669500D01*
X210149500Y-111669500D02*
X210149500Y-106389500D01*
X216149500Y-107759500D02*
X215149500Y-107759500D01*
X215149500Y-107759500D02*
X215149500Y-110299500D01*
X215149500Y-110299500D02*
X216149500Y-110299500D01*
X215149500Y-107759500D02*
X214719500Y-108009500D01*
X214719500Y-108009500D02*
X214719500Y-110049500D01*
X214719500Y-110049500D02*
X215149500Y-110299500D01*
X216149500Y-108009500D02*
X215149500Y-108009500D01*
X216149500Y-110049500D02*
X215149500Y-110049500D01*
X210149500Y-106959500D02*
X210769500Y-106959500D01*
X210769500Y-106959500D02*
X210769500Y-108559500D01*
X210769500Y-108559500D02*
X210149500Y-108559500D01*
X210149500Y-109499500D02*
X210769500Y-109499500D01*
X210769500Y-109499500D02*
X210769500Y-111099500D01*
X210769500Y-111099500D02*
X210149500Y-111099500D01*
X168492277Y-131114522D02*
G75*
G02X168492000Y-126503220I1179723J2305722D01*
G01*
X170851723Y-131114522D02*
G75*
G03X170852000Y-126503220I-1179723J2305722D01*
G01*
X170851723Y-131114522D02*
G75*
G02X168492000Y-131114380I-1179723J2305722D01*
G01*
X167122000Y-128808800D02*
X172222000Y-128808800D01*
X167122000Y-128848800D02*
X172222000Y-128848800D01*
X167123000Y-128888800D02*
X172221000Y-128888800D01*
X167124000Y-128928800D02*
X172220000Y-128928800D01*
X167126000Y-128968800D02*
X172218000Y-128968800D01*
X167129000Y-129008800D02*
X172215000Y-129008800D01*
X167133000Y-129048800D02*
X172211000Y-129048800D01*
X167137000Y-129088800D02*
X168692000Y-129088800D01*
X170652000Y-129088800D02*
X172207000Y-129088800D01*
X167141000Y-129128800D02*
X168692000Y-129128800D01*
X170652000Y-129128800D02*
X172203000Y-129128800D01*
X167147000Y-129168800D02*
X168692000Y-129168800D01*
X170652000Y-129168800D02*
X172197000Y-129168800D01*
X167153000Y-129208800D02*
X168692000Y-129208800D01*
X170652000Y-129208800D02*
X172191000Y-129208800D01*
X167159000Y-129248800D02*
X168692000Y-129248800D01*
X170652000Y-129248800D02*
X172185000Y-129248800D01*
X167166000Y-129288800D02*
X168692000Y-129288800D01*
X170652000Y-129288800D02*
X172178000Y-129288800D01*
X167174000Y-129328800D02*
X168692000Y-129328800D01*
X170652000Y-129328800D02*
X172170000Y-129328800D01*
X167183000Y-129368800D02*
X168692000Y-129368800D01*
X170652000Y-129368800D02*
X172161000Y-129368800D01*
X167192000Y-129408800D02*
X168692000Y-129408800D01*
X170652000Y-129408800D02*
X172152000Y-129408800D01*
X167202000Y-129448800D02*
X168692000Y-129448800D01*
X170652000Y-129448800D02*
X172142000Y-129448800D01*
X167212000Y-129488800D02*
X168692000Y-129488800D01*
X170652000Y-129488800D02*
X172132000Y-129488800D01*
X167224000Y-129529800D02*
X168692000Y-129529800D01*
X170652000Y-129529800D02*
X172120000Y-129529800D01*
X167236000Y-129569800D02*
X168692000Y-129569800D01*
X170652000Y-129569800D02*
X172108000Y-129569800D01*
X167248000Y-129609800D02*
X168692000Y-129609800D01*
X170652000Y-129609800D02*
X172096000Y-129609800D01*
X167262000Y-129649800D02*
X168692000Y-129649800D01*
X170652000Y-129649800D02*
X172082000Y-129649800D01*
X167276000Y-129689800D02*
X168692000Y-129689800D01*
X170652000Y-129689800D02*
X172068000Y-129689800D01*
X167290000Y-129729800D02*
X168692000Y-129729800D01*
X170652000Y-129729800D02*
X172054000Y-129729800D01*
X167306000Y-129769800D02*
X168692000Y-129769800D01*
X170652000Y-129769800D02*
X172038000Y-129769800D01*
X167322000Y-129809800D02*
X168692000Y-129809800D01*
X170652000Y-129809800D02*
X172022000Y-129809800D01*
X167339000Y-129849800D02*
X168692000Y-129849800D01*
X170652000Y-129849800D02*
X172005000Y-129849800D01*
X167357000Y-129889800D02*
X168692000Y-129889800D01*
X170652000Y-129889800D02*
X171987000Y-129889800D01*
X167376000Y-129929800D02*
X168692000Y-129929800D01*
X170652000Y-129929800D02*
X171968000Y-129929800D01*
X167396000Y-129969800D02*
X168692000Y-129969800D01*
X170652000Y-129969800D02*
X171948000Y-129969800D01*
X167416000Y-130009800D02*
X168692000Y-130009800D01*
X170652000Y-130009800D02*
X171928000Y-130009800D01*
X167438000Y-130049800D02*
X168692000Y-130049800D01*
X170652000Y-130049800D02*
X171906000Y-130049800D01*
X167460000Y-130089800D02*
X168692000Y-130089800D01*
X170652000Y-130089800D02*
X171884000Y-130089800D01*
X167483000Y-130129800D02*
X168692000Y-130129800D01*
X170652000Y-130129800D02*
X171861000Y-130129800D01*
X167507000Y-130169800D02*
X168692000Y-130169800D01*
X170652000Y-130169800D02*
X171837000Y-130169800D01*
X167532000Y-130209800D02*
X168692000Y-130209800D01*
X170652000Y-130209800D02*
X171812000Y-130209800D01*
X167559000Y-130249800D02*
X168692000Y-130249800D01*
X170652000Y-130249800D02*
X171785000Y-130249800D01*
X167586000Y-130289800D02*
X168692000Y-130289800D01*
X170652000Y-130289800D02*
X171758000Y-130289800D01*
X167614000Y-130329800D02*
X168692000Y-130329800D01*
X170652000Y-130329800D02*
X171730000Y-130329800D01*
X167644000Y-130369800D02*
X168692000Y-130369800D01*
X170652000Y-130369800D02*
X171700000Y-130369800D01*
X167675000Y-130409800D02*
X168692000Y-130409800D01*
X170652000Y-130409800D02*
X171669000Y-130409800D01*
X167707000Y-130449800D02*
X168692000Y-130449800D01*
X170652000Y-130449800D02*
X171637000Y-130449800D01*
X167740000Y-130489800D02*
X168692000Y-130489800D01*
X170652000Y-130489800D02*
X171604000Y-130489800D01*
X167775000Y-130529800D02*
X168692000Y-130529800D01*
X170652000Y-130529800D02*
X171569000Y-130529800D01*
X167811000Y-130569800D02*
X168692000Y-130569800D01*
X170652000Y-130569800D02*
X171533000Y-130569800D01*
X167849000Y-130609800D02*
X168692000Y-130609800D01*
X170652000Y-130609800D02*
X171495000Y-130609800D01*
X167889000Y-130649800D02*
X168692000Y-130649800D01*
X170652000Y-130649800D02*
X171455000Y-130649800D01*
X167930000Y-130689800D02*
X168692000Y-130689800D01*
X170652000Y-130689800D02*
X171414000Y-130689800D01*
X167973000Y-130729800D02*
X168692000Y-130729800D01*
X170652000Y-130729800D02*
X171371000Y-130729800D01*
X168018000Y-130769800D02*
X168692000Y-130769800D01*
X170652000Y-130769800D02*
X171326000Y-130769800D01*
X168066000Y-130809800D02*
X168692000Y-130809800D01*
X170652000Y-130809800D02*
X171278000Y-130809800D01*
X168116000Y-130849800D02*
X168692000Y-130849800D01*
X170652000Y-130849800D02*
X171228000Y-130849800D01*
X168168000Y-130889800D02*
X168692000Y-130889800D01*
X170652000Y-130889800D02*
X171176000Y-130889800D01*
X168224000Y-130929800D02*
X168692000Y-130929800D01*
X170652000Y-130929800D02*
X171120000Y-130929800D01*
X168282000Y-130969800D02*
X168692000Y-130969800D01*
X170652000Y-130969800D02*
X171062000Y-130969800D01*
X168345000Y-131009800D02*
X168692000Y-131009800D01*
X170652000Y-131009800D02*
X170999000Y-131009800D01*
X168411000Y-131049800D02*
X170933000Y-131049800D01*
X168483000Y-131089800D02*
X170861000Y-131089800D01*
X168560000Y-131129800D02*
X170784000Y-131129800D01*
X168644000Y-131169800D02*
X170700000Y-131169800D01*
X168738000Y-131209800D02*
X170606000Y-131209800D01*
X168843000Y-131249800D02*
X170501000Y-131249800D01*
X168965000Y-131289800D02*
X170379000Y-131289800D01*
X169113000Y-131329800D02*
X170231000Y-131329800D01*
X169318000Y-131369800D02*
X170026000Y-131369800D01*
X169672000Y-125358800D02*
X169672000Y-126558800D01*
X169022000Y-125958800D02*
X170322000Y-125958800D01*
X177267500Y-130865500D02*
X177267500Y-129865500D01*
X178967500Y-129865500D02*
X178967500Y-130865500D01*
X176284000Y-119165000D02*
X177284000Y-119165000D01*
X177284000Y-120865000D02*
X176284000Y-120865000D01*
X171632500Y-113308500D02*
X170632500Y-113308500D01*
X170632500Y-111608500D02*
X171632500Y-111608500D01*
X168087000Y-93928000D02*
X169987000Y-93928000D01*
X169987000Y-93928000D02*
X169987000Y-98628000D01*
X168087000Y-93928000D02*
X168087000Y-98628000D01*
X171601500Y-95901000D02*
X171601500Y-91401000D01*
X175601500Y-97151000D02*
X174101500Y-97151000D01*
X178101500Y-91401000D02*
X178101500Y-95901000D01*
X174101500Y-90151000D02*
X175601500Y-90151000D01*
X169503600Y-131558400D02*
X174003600Y-131558400D01*
X168253600Y-135558400D02*
X168253600Y-134058400D01*
X174003600Y-138058400D02*
X169503600Y-138058400D01*
X175253600Y-134058400D02*
X175253600Y-135558400D01*
D12*
X170647000Y-105860000D02*
X175047000Y-105860000D01*
X169072000Y-111385000D02*
X175047000Y-111385000D01*
D13*
X187559500Y-89203000D02*
X181629500Y-89203000D01*
X181629500Y-89203000D02*
X181629500Y-106123000D01*
X181629500Y-106123000D02*
X187559500Y-106123000D01*
X187559500Y-106123000D02*
X187559500Y-92583000D01*
X186404500Y-90678000D02*
X186404500Y-91948000D01*
X186404500Y-91948000D02*
X182784500Y-91948000D01*
X182784500Y-91948000D02*
X182784500Y-90678000D01*
X182784500Y-90678000D02*
X186404500Y-90678000D01*
X184594500Y-90678000D02*
X184594500Y-91948000D01*
X186404500Y-93218000D02*
X186404500Y-94488000D01*
X186404500Y-94488000D02*
X182784500Y-94488000D01*
X182784500Y-94488000D02*
X182784500Y-93218000D01*
X182784500Y-93218000D02*
X186404500Y-93218000D01*
X184594500Y-93218000D02*
X184594500Y-94488000D01*
X186404500Y-95758000D02*
X186404500Y-97028000D01*
X186404500Y-97028000D02*
X182784500Y-97028000D01*
X182784500Y-97028000D02*
X182784500Y-95758000D01*
X182784500Y-95758000D02*
X186404500Y-95758000D01*
X184594500Y-95758000D02*
X184594500Y-97028000D01*
X186404500Y-98298000D02*
X186404500Y-99568000D01*
X186404500Y-99568000D02*
X182784500Y-99568000D01*
X182784500Y-99568000D02*
X182784500Y-98298000D01*
X182784500Y-98298000D02*
X186404500Y-98298000D01*
X184594500Y-98298000D02*
X184594500Y-99568000D01*
X186404500Y-100838000D02*
X186404500Y-102108000D01*
X186404500Y-102108000D02*
X182784500Y-102108000D01*
X182784500Y-102108000D02*
X182784500Y-100838000D01*
X182784500Y-100838000D02*
X186404500Y-100838000D01*
X184594500Y-100838000D02*
X184594500Y-102108000D01*
X186404500Y-103378000D02*
X186404500Y-104648000D01*
X186404500Y-104648000D02*
X182784500Y-104648000D01*
X182784500Y-104648000D02*
X182784500Y-103378000D01*
X182784500Y-103378000D02*
X186404500Y-103378000D01*
X184594500Y-103378000D02*
X184594500Y-104648000D01*
X213655600Y-119878800D02*
X216315600Y-119878800D01*
X213655600Y-127558800D02*
X213655600Y-119878800D01*
X216315600Y-127558800D02*
X216315600Y-119878800D01*
X213655600Y-127558800D02*
X216315600Y-127558800D01*
X213655600Y-128828800D02*
X213655600Y-130158800D01*
X213655600Y-130158800D02*
X214985600Y-130158800D01*
D12*
X202052905Y-133945381D02*
X202052905Y-134754905D01*
X202005286Y-134850143D01*
X201957667Y-134897762D01*
X201862429Y-134945381D01*
X201671952Y-134945381D01*
X201576714Y-134897762D01*
X201529095Y-134850143D01*
X201481476Y-134754905D01*
X201481476Y-133945381D01*
X201052905Y-134040619D02*
X201005286Y-133993000D01*
X200910048Y-133945381D01*
X200671952Y-133945381D01*
X200576714Y-133993000D01*
X200529095Y-134040619D01*
X200481476Y-134135857D01*
X200481476Y-134231095D01*
X200529095Y-134373952D01*
X201100524Y-134945381D01*
X200481476Y-134945381D01*
X196520571Y-118015570D02*
X196520571Y-118348904D01*
X197044381Y-118491761D02*
X197044381Y-118015570D01*
X196044381Y-118015570D01*
X196044381Y-118491761D01*
X196996762Y-118872713D02*
X197044381Y-118967951D01*
X197044381Y-119158427D01*
X196996762Y-119253666D01*
X196901524Y-119301285D01*
X196853905Y-119301285D01*
X196758667Y-119253666D01*
X196711048Y-119158427D01*
X196711048Y-119015570D01*
X196663429Y-118920332D01*
X196568190Y-118872713D01*
X196520571Y-118872713D01*
X196425333Y-118920332D01*
X196377714Y-119015570D01*
X196377714Y-119158427D01*
X196425333Y-119253666D01*
X196377714Y-119729856D02*
X197377714Y-119729856D01*
X196425333Y-119729856D02*
X196377714Y-119825094D01*
X196377714Y-120015571D01*
X196425333Y-120110809D01*
X196472952Y-120158428D01*
X196568190Y-120206047D01*
X196853905Y-120206047D01*
X196949143Y-120158428D01*
X196996762Y-120110809D01*
X197044381Y-120015571D01*
X197044381Y-119825094D01*
X196996762Y-119729856D01*
X197044381Y-120634618D02*
X196377714Y-120634618D01*
X196568190Y-120634618D02*
X196472952Y-120682237D01*
X196425333Y-120729856D01*
X196377714Y-120825094D01*
X196377714Y-120920333D01*
X196996762Y-121634619D02*
X197044381Y-121539381D01*
X197044381Y-121348904D01*
X196996762Y-121253666D01*
X196901524Y-121206047D01*
X196520571Y-121206047D01*
X196425333Y-121253666D01*
X196377714Y-121348904D01*
X196377714Y-121539381D01*
X196425333Y-121634619D01*
X196520571Y-121682238D01*
X196615810Y-121682238D01*
X196711048Y-121206047D01*
X196996762Y-122063190D02*
X197044381Y-122158428D01*
X197044381Y-122348904D01*
X196996762Y-122444143D01*
X196901524Y-122491762D01*
X196853905Y-122491762D01*
X196758667Y-122444143D01*
X196711048Y-122348904D01*
X196711048Y-122206047D01*
X196663429Y-122110809D01*
X196568190Y-122063190D01*
X196520571Y-122063190D01*
X196425333Y-122110809D01*
X196377714Y-122206047D01*
X196377714Y-122348904D01*
X196425333Y-122444143D01*
X196996762Y-122872714D02*
X197044381Y-122967952D01*
X197044381Y-123158428D01*
X196996762Y-123253667D01*
X196901524Y-123301286D01*
X196853905Y-123301286D01*
X196758667Y-123253667D01*
X196711048Y-123158428D01*
X196711048Y-123015571D01*
X196663429Y-122920333D01*
X196568190Y-122872714D01*
X196520571Y-122872714D01*
X196425333Y-122920333D01*
X196377714Y-123015571D01*
X196377714Y-123158428D01*
X196425333Y-123253667D01*
X197044381Y-123729857D02*
X196377714Y-123729857D01*
X196044381Y-123729857D02*
X196092000Y-123682238D01*
X196139619Y-123729857D01*
X196092000Y-123777476D01*
X196044381Y-123729857D01*
X196139619Y-123729857D01*
X196377714Y-124063190D02*
X196377714Y-124444142D01*
X197044381Y-124206047D02*
X196187238Y-124206047D01*
X196092000Y-124253666D01*
X196044381Y-124348904D01*
X196044381Y-124444142D01*
X196996762Y-125491762D02*
X197044381Y-125634619D01*
X197044381Y-125872715D01*
X196996762Y-125967953D01*
X196949143Y-126015572D01*
X196853905Y-126063191D01*
X196758667Y-126063191D01*
X196663429Y-126015572D01*
X196615810Y-125967953D01*
X196568190Y-125872715D01*
X196520571Y-125682238D01*
X196472952Y-125587000D01*
X196425333Y-125539381D01*
X196330095Y-125491762D01*
X196234857Y-125491762D01*
X196139619Y-125539381D01*
X196092000Y-125587000D01*
X196044381Y-125682238D01*
X196044381Y-125920334D01*
X196092000Y-126063191D01*
X196377714Y-126396524D02*
X197044381Y-126634619D01*
X196377714Y-126872715D02*
X197044381Y-126634619D01*
X197282476Y-126539381D01*
X197330095Y-126491762D01*
X197377714Y-126396524D01*
X196996762Y-127206048D02*
X197044381Y-127301286D01*
X197044381Y-127491762D01*
X196996762Y-127587001D01*
X196901524Y-127634620D01*
X196853905Y-127634620D01*
X196758667Y-127587001D01*
X196711048Y-127491762D01*
X196711048Y-127348905D01*
X196663429Y-127253667D01*
X196568190Y-127206048D01*
X196520571Y-127206048D01*
X196425333Y-127253667D01*
X196377714Y-127348905D01*
X196377714Y-127491762D01*
X196425333Y-127587001D01*
X196377714Y-127920334D02*
X196377714Y-128301286D01*
X196044381Y-128063191D02*
X196901524Y-128063191D01*
X196996762Y-128110810D01*
X197044381Y-128206048D01*
X197044381Y-128301286D01*
X196996762Y-129015573D02*
X197044381Y-128920335D01*
X197044381Y-128729858D01*
X196996762Y-128634620D01*
X196901524Y-128587001D01*
X196520571Y-128587001D01*
X196425333Y-128634620D01*
X196377714Y-128729858D01*
X196377714Y-128920335D01*
X196425333Y-129015573D01*
X196520571Y-129063192D01*
X196615810Y-129063192D01*
X196711048Y-128587001D01*
X197044381Y-129491763D02*
X196377714Y-129491763D01*
X196472952Y-129491763D02*
X196425333Y-129539382D01*
X196377714Y-129634620D01*
X196377714Y-129777478D01*
X196425333Y-129872716D01*
X196520571Y-129920335D01*
X197044381Y-129920335D01*
X196520571Y-129920335D02*
X196425333Y-129967954D01*
X196377714Y-130063192D01*
X196377714Y-130206049D01*
X196425333Y-130301287D01*
X196520571Y-130348906D01*
X197044381Y-130348906D01*
X196996762Y-130777477D02*
X197044381Y-130872715D01*
X197044381Y-131063191D01*
X196996762Y-131158430D01*
X196901524Y-131206049D01*
X196853905Y-131206049D01*
X196758667Y-131158430D01*
X196711048Y-131063191D01*
X196711048Y-130920334D01*
X196663429Y-130825096D01*
X196568190Y-130777477D01*
X196520571Y-130777477D01*
X196425333Y-130825096D01*
X196377714Y-130920334D01*
X196377714Y-131063191D01*
X196425333Y-131158430D01*
X194869571Y-119991905D02*
X194869571Y-120325239D01*
X195393381Y-120468096D02*
X195393381Y-119991905D01*
X194393381Y-119991905D01*
X194393381Y-120468096D01*
X195345762Y-120849048D02*
X195393381Y-120991905D01*
X195393381Y-121230001D01*
X195345762Y-121325239D01*
X195298143Y-121372858D01*
X195202905Y-121420477D01*
X195107667Y-121420477D01*
X195012429Y-121372858D01*
X194964810Y-121325239D01*
X194917190Y-121230001D01*
X194869571Y-121039524D01*
X194821952Y-120944286D01*
X194774333Y-120896667D01*
X194679095Y-120849048D01*
X194583857Y-120849048D01*
X194488619Y-120896667D01*
X194441000Y-120944286D01*
X194393381Y-121039524D01*
X194393381Y-121277620D01*
X194441000Y-121420477D01*
X195393381Y-121849048D02*
X194393381Y-121849048D01*
X194393381Y-122230001D01*
X194441000Y-122325239D01*
X194488619Y-122372858D01*
X194583857Y-122420477D01*
X194726714Y-122420477D01*
X194821952Y-122372858D01*
X194869571Y-122325239D01*
X194917190Y-122230001D01*
X194917190Y-121849048D01*
X194393381Y-122753810D02*
X194393381Y-123372858D01*
X194774333Y-123039524D01*
X194774333Y-123182382D01*
X194821952Y-123277620D01*
X194869571Y-123325239D01*
X194964810Y-123372858D01*
X195202905Y-123372858D01*
X195298143Y-123325239D01*
X195345762Y-123277620D01*
X195393381Y-123182382D01*
X195393381Y-122896667D01*
X195345762Y-122801429D01*
X195298143Y-122753810D01*
X194488619Y-123753810D02*
X194441000Y-123801429D01*
X194393381Y-123896667D01*
X194393381Y-124134763D01*
X194441000Y-124230001D01*
X194488619Y-124277620D01*
X194583857Y-124325239D01*
X194679095Y-124325239D01*
X194821952Y-124277620D01*
X195393381Y-123706191D01*
X195393381Y-124325239D01*
X195012429Y-124753810D02*
X195012429Y-125515715D01*
X194393381Y-125896667D02*
X195393381Y-126134762D01*
X194679095Y-126325239D01*
X195393381Y-126515715D01*
X194393381Y-126753810D01*
X195393381Y-127706191D02*
X194917190Y-127372857D01*
X195393381Y-127134762D02*
X194393381Y-127134762D01*
X194393381Y-127515715D01*
X194441000Y-127610953D01*
X194488619Y-127658572D01*
X194583857Y-127706191D01*
X194726714Y-127706191D01*
X194821952Y-127658572D01*
X194869571Y-127610953D01*
X194917190Y-127515715D01*
X194917190Y-127134762D01*
X194393381Y-128325238D02*
X194393381Y-128515715D01*
X194441000Y-128610953D01*
X194536238Y-128706191D01*
X194726714Y-128753810D01*
X195060048Y-128753810D01*
X195250524Y-128706191D01*
X195345762Y-128610953D01*
X195393381Y-128515715D01*
X195393381Y-128325238D01*
X195345762Y-128230000D01*
X195250524Y-128134762D01*
X195060048Y-128087143D01*
X194726714Y-128087143D01*
X194536238Y-128134762D01*
X194441000Y-128230000D01*
X194393381Y-128325238D01*
X194393381Y-129039524D02*
X195393381Y-129372857D01*
X194393381Y-129706191D01*
X194869571Y-130039524D02*
X194869571Y-130372858D01*
X195393381Y-130515715D02*
X195393381Y-130039524D01*
X194393381Y-130039524D01*
X194393381Y-130515715D01*
X195393381Y-131515715D02*
X194917190Y-131182381D01*
X195393381Y-130944286D02*
X194393381Y-130944286D01*
X194393381Y-131325239D01*
X194441000Y-131420477D01*
X194488619Y-131468096D01*
X194583857Y-131515715D01*
X194726714Y-131515715D01*
X194821952Y-131468096D01*
X194869571Y-131420477D01*
X194917190Y-131325239D01*
X194917190Y-130944286D01*
X213524933Y-133449962D02*
X213382076Y-133497581D01*
X213143980Y-133497581D01*
X213048742Y-133449962D01*
X213001123Y-133402343D01*
X212953504Y-133307105D01*
X212953504Y-133211867D01*
X213001123Y-133116629D01*
X213048742Y-133069010D01*
X213143980Y-133021390D01*
X213334457Y-132973771D01*
X213429695Y-132926152D01*
X213477314Y-132878533D01*
X213524933Y-132783295D01*
X213524933Y-132688057D01*
X213477314Y-132592819D01*
X213429695Y-132545200D01*
X213334457Y-132497581D01*
X213096361Y-132497581D01*
X212953504Y-132545200D01*
X212620171Y-132497581D02*
X212382076Y-133497581D01*
X212191599Y-132783295D01*
X212001123Y-133497581D01*
X211763028Y-132497581D01*
X211477314Y-132497581D02*
X210858266Y-132497581D01*
X211191600Y-132878533D01*
X211048742Y-132878533D01*
X210953504Y-132926152D01*
X210905885Y-132973771D01*
X210858266Y-133069010D01*
X210858266Y-133307105D01*
X210905885Y-133402343D01*
X210953504Y-133449962D01*
X211048742Y-133497581D01*
X211334457Y-133497581D01*
X211429695Y-133449962D01*
X211477314Y-133402343D01*
X205275524Y-98673881D02*
X205275524Y-97673881D01*
X204942190Y-98388167D01*
X204608857Y-97673881D01*
X204608857Y-98673881D01*
X203608857Y-98673881D02*
X204180286Y-98673881D01*
X203894572Y-98673881D02*
X203894572Y-97673881D01*
X203989810Y-97816738D01*
X204085048Y-97911976D01*
X204180286Y-97959595D01*
X211027543Y-97226381D02*
X211027543Y-96559714D01*
X211027543Y-96654952D02*
X210979924Y-96607333D01*
X210884686Y-96559714D01*
X210741828Y-96559714D01*
X210646590Y-96607333D01*
X210598971Y-96702571D01*
X210598971Y-97226381D01*
X210598971Y-96702571D02*
X210551352Y-96607333D01*
X210456114Y-96559714D01*
X210313257Y-96559714D01*
X210218019Y-96607333D01*
X210170400Y-96702571D01*
X210170400Y-97226381D01*
X209694210Y-97226381D02*
X209694210Y-96559714D01*
X209694210Y-96226381D02*
X209741829Y-96274000D01*
X209694210Y-96321619D01*
X209646591Y-96274000D01*
X209694210Y-96226381D01*
X209694210Y-96321619D01*
X208789448Y-97178762D02*
X208884686Y-97226381D01*
X209075163Y-97226381D01*
X209170401Y-97178762D01*
X209218020Y-97131143D01*
X209265639Y-97035905D01*
X209265639Y-96750190D01*
X209218020Y-96654952D01*
X209170401Y-96607333D01*
X209075163Y-96559714D01*
X208884686Y-96559714D01*
X208789448Y-96607333D01*
X208360877Y-97226381D02*
X208360877Y-96559714D01*
X208360877Y-96750190D02*
X208313258Y-96654952D01*
X208265639Y-96607333D01*
X208170401Y-96559714D01*
X208075162Y-96559714D01*
X207598972Y-97226381D02*
X207694210Y-97178762D01*
X207741829Y-97131143D01*
X207789448Y-97035905D01*
X207789448Y-96750190D01*
X207741829Y-96654952D01*
X207694210Y-96607333D01*
X207598972Y-96559714D01*
X207456114Y-96559714D01*
X207360876Y-96607333D01*
X207313257Y-96654952D01*
X207265638Y-96750190D01*
X207265638Y-97035905D01*
X207313257Y-97131143D01*
X207360876Y-97178762D01*
X207456114Y-97226381D01*
X207598972Y-97226381D01*
X206837067Y-96226381D02*
X206837067Y-97035905D01*
X206789448Y-97131143D01*
X206741829Y-97178762D01*
X206646591Y-97226381D01*
X206456114Y-97226381D01*
X206360876Y-97178762D01*
X206313257Y-97131143D01*
X206265638Y-97035905D01*
X206265638Y-96226381D01*
X205837067Y-97178762D02*
X205694210Y-97226381D01*
X205456114Y-97226381D01*
X205360876Y-97178762D01*
X205313257Y-97131143D01*
X205265638Y-97035905D01*
X205265638Y-96940667D01*
X205313257Y-96845429D01*
X205360876Y-96797810D01*
X205456114Y-96750190D01*
X205646591Y-96702571D01*
X205741829Y-96654952D01*
X205789448Y-96607333D01*
X205837067Y-96512095D01*
X205837067Y-96416857D01*
X205789448Y-96321619D01*
X205741829Y-96274000D01*
X205646591Y-96226381D01*
X205408495Y-96226381D01*
X205265638Y-96274000D01*
X204503733Y-96702571D02*
X204360876Y-96750190D01*
X204313257Y-96797810D01*
X204265638Y-96893048D01*
X204265638Y-97035905D01*
X204313257Y-97131143D01*
X204360876Y-97178762D01*
X204456114Y-97226381D01*
X204837067Y-97226381D01*
X204837067Y-96226381D01*
X204503733Y-96226381D01*
X204408495Y-96274000D01*
X204360876Y-96321619D01*
X204313257Y-96416857D01*
X204313257Y-96512095D01*
X204360876Y-96607333D01*
X204408495Y-96654952D01*
X204503733Y-96702571D01*
X204837067Y-96702571D01*
X193073618Y-98310071D02*
X192930761Y-98357690D01*
X192883142Y-98405310D01*
X192835523Y-98500548D01*
X192835523Y-98643405D01*
X192883142Y-98738643D01*
X192930761Y-98786262D01*
X193025999Y-98833881D01*
X193406952Y-98833881D01*
X193406952Y-97833881D01*
X193073618Y-97833881D01*
X192978380Y-97881500D01*
X192930761Y-97929119D01*
X192883142Y-98024357D01*
X192883142Y-98119595D01*
X192930761Y-98214833D01*
X192978380Y-98262452D01*
X193073618Y-98310071D01*
X193406952Y-98310071D01*
X192406952Y-98452929D02*
X191645047Y-98452929D01*
X193073618Y-95008071D02*
X192930761Y-95055690D01*
X192883142Y-95103310D01*
X192835523Y-95198548D01*
X192835523Y-95341405D01*
X192883142Y-95436643D01*
X192930761Y-95484262D01*
X193025999Y-95531881D01*
X193406952Y-95531881D01*
X193406952Y-94531881D01*
X193073618Y-94531881D01*
X192978380Y-94579500D01*
X192930761Y-94627119D01*
X192883142Y-94722357D01*
X192883142Y-94817595D01*
X192930761Y-94912833D01*
X192978380Y-94960452D01*
X193073618Y-95008071D01*
X193406952Y-95008071D01*
X192406952Y-95150929D02*
X191645047Y-95150929D01*
X192025999Y-95531881D02*
X192025999Y-94769976D01*
X197629048Y-103099881D02*
X197438571Y-103099881D01*
X197343333Y-103147500D01*
X197248095Y-103242738D01*
X197200476Y-103433214D01*
X197200476Y-103766548D01*
X197248095Y-103957024D01*
X197343333Y-104052262D01*
X197438571Y-104099881D01*
X197629048Y-104099881D01*
X197724286Y-104052262D01*
X197819524Y-103957024D01*
X197867143Y-103766548D01*
X197867143Y-103433214D01*
X197819524Y-103242738D01*
X197724286Y-103147500D01*
X197629048Y-103099881D01*
X196771905Y-103099881D02*
X196771905Y-103909405D01*
X196724286Y-104004643D01*
X196676667Y-104052262D01*
X196581429Y-104099881D01*
X196390952Y-104099881D01*
X196295714Y-104052262D01*
X196248095Y-104004643D01*
X196200476Y-103909405D01*
X196200476Y-103099881D01*
X195867143Y-103099881D02*
X195295714Y-103099881D01*
X195581429Y-104099881D02*
X195581429Y-103099881D01*
X194962381Y-103718929D02*
X194200476Y-103718929D01*
X197949048Y-90195881D02*
X197758571Y-90195881D01*
X197663333Y-90243500D01*
X197568095Y-90338738D01*
X197520476Y-90529214D01*
X197520476Y-90862548D01*
X197568095Y-91053024D01*
X197663333Y-91148262D01*
X197758571Y-91195881D01*
X197949048Y-91195881D01*
X198044286Y-91148262D01*
X198139524Y-91053024D01*
X198187143Y-90862548D01*
X198187143Y-90529214D01*
X198139524Y-90338738D01*
X198044286Y-90243500D01*
X197949048Y-90195881D01*
X197091905Y-90195881D02*
X197091905Y-91005405D01*
X197044286Y-91100643D01*
X196996667Y-91148262D01*
X196901429Y-91195881D01*
X196710952Y-91195881D01*
X196615714Y-91148262D01*
X196568095Y-91100643D01*
X196520476Y-91005405D01*
X196520476Y-90195881D01*
X196187143Y-90195881D02*
X195615714Y-90195881D01*
X195901429Y-91195881D02*
X195901429Y-90195881D01*
X195282381Y-90814929D02*
X194520476Y-90814929D01*
X194901428Y-91195881D02*
X194901428Y-90433976D01*
X211242857Y-104303881D02*
X211242857Y-103303881D01*
X210766667Y-104303881D02*
X210766667Y-103303881D01*
X210195238Y-104303881D01*
X210195238Y-103303881D01*
X209719048Y-103922929D02*
X208957143Y-103922929D01*
X211772857Y-91413881D02*
X211772857Y-90413881D01*
X211296667Y-91413881D02*
X211296667Y-90413881D01*
X210725238Y-91413881D01*
X210725238Y-90413881D01*
X210249048Y-91032929D02*
X209487143Y-91032929D01*
X209868095Y-91413881D02*
X209868095Y-90651976D01*
X208598071Y-107973786D02*
X208645690Y-108116643D01*
X208693310Y-108164262D01*
X208788548Y-108211881D01*
X208931405Y-108211881D01*
X209026643Y-108164262D01*
X209074262Y-108116643D01*
X209121881Y-108021405D01*
X209121881Y-107640452D01*
X208121881Y-107640452D01*
X208121881Y-107973786D01*
X208169500Y-108069024D01*
X208217119Y-108116643D01*
X208312357Y-108164262D01*
X208407595Y-108164262D01*
X208502833Y-108116643D01*
X208550452Y-108069024D01*
X208598071Y-107973786D01*
X208598071Y-107640452D01*
X208121881Y-108497595D02*
X208121881Y-109069024D01*
X209121881Y-108783309D02*
X208121881Y-108783309D01*
X209121881Y-109926167D02*
X209121881Y-109354738D01*
X209121881Y-109640452D02*
X208121881Y-109640452D01*
X208264738Y-109545214D01*
X208359976Y-109449976D01*
X208407595Y-109354738D01*
X168403543Y-123480534D02*
X168451162Y-123432915D01*
X168498781Y-123290058D01*
X168498781Y-123194820D01*
X168451162Y-123051962D01*
X168355924Y-122956724D01*
X168260686Y-122909105D01*
X168070210Y-122861486D01*
X167927352Y-122861486D01*
X167736876Y-122909105D01*
X167641638Y-122956724D01*
X167546400Y-123051962D01*
X167498781Y-123194820D01*
X167498781Y-123290058D01*
X167546400Y-123432915D01*
X167594019Y-123480534D01*
X167498781Y-124385296D02*
X167498781Y-123909105D01*
X167974971Y-123861486D01*
X167927352Y-123909105D01*
X167879733Y-124004343D01*
X167879733Y-124242439D01*
X167927352Y-124337677D01*
X167974971Y-124385296D01*
X168070210Y-124432915D01*
X168308305Y-124432915D01*
X168403543Y-124385296D01*
X168451162Y-124337677D01*
X168498781Y-124242439D01*
X168498781Y-124004343D01*
X168451162Y-123909105D01*
X168403543Y-123861486D01*
X176582343Y-129271734D02*
X176629962Y-129224115D01*
X176677581Y-129081258D01*
X176677581Y-128986020D01*
X176629962Y-128843162D01*
X176534724Y-128747924D01*
X176439486Y-128700305D01*
X176249010Y-128652686D01*
X176106152Y-128652686D01*
X175915676Y-128700305D01*
X175820438Y-128747924D01*
X175725200Y-128843162D01*
X175677581Y-128986020D01*
X175677581Y-129081258D01*
X175725200Y-129224115D01*
X175772819Y-129271734D01*
X175677581Y-130128877D02*
X175677581Y-129938400D01*
X175725200Y-129843162D01*
X175772819Y-129795543D01*
X175915676Y-129700305D01*
X176106152Y-129652686D01*
X176487105Y-129652686D01*
X176582343Y-129700305D01*
X176629962Y-129747924D01*
X176677581Y-129843162D01*
X176677581Y-130033639D01*
X176629962Y-130128877D01*
X176582343Y-130176496D01*
X176487105Y-130224115D01*
X176249010Y-130224115D01*
X176153771Y-130176496D01*
X176106152Y-130128877D01*
X176058533Y-130033639D01*
X176058533Y-129843162D01*
X176106152Y-129747924D01*
X176153771Y-129700305D01*
X176249010Y-129652686D01*
X177426857Y-118622143D02*
X177474476Y-118669762D01*
X177617333Y-118717381D01*
X177712571Y-118717381D01*
X177855429Y-118669762D01*
X177950667Y-118574524D01*
X177998286Y-118479286D01*
X178045905Y-118288810D01*
X178045905Y-118145952D01*
X177998286Y-117955476D01*
X177950667Y-117860238D01*
X177855429Y-117765000D01*
X177712571Y-117717381D01*
X177617333Y-117717381D01*
X177474476Y-117765000D01*
X177426857Y-117812619D01*
X176474476Y-118717381D02*
X177045905Y-118717381D01*
X176760191Y-118717381D02*
X176760191Y-117717381D01*
X176855429Y-117860238D01*
X176950667Y-117955476D01*
X177045905Y-118003095D01*
X175522095Y-118717381D02*
X176093524Y-118717381D01*
X175807810Y-118717381D02*
X175807810Y-117717381D01*
X175903048Y-117860238D01*
X175998286Y-117955476D01*
X176093524Y-118003095D01*
X171775357Y-114565643D02*
X171822976Y-114613262D01*
X171965833Y-114660881D01*
X172061071Y-114660881D01*
X172203929Y-114613262D01*
X172299167Y-114518024D01*
X172346786Y-114422786D01*
X172394405Y-114232310D01*
X172394405Y-114089452D01*
X172346786Y-113898976D01*
X172299167Y-113803738D01*
X172203929Y-113708500D01*
X172061071Y-113660881D01*
X171965833Y-113660881D01*
X171822976Y-113708500D01*
X171775357Y-113756119D01*
X170822976Y-114660881D02*
X171394405Y-114660881D01*
X171108691Y-114660881D02*
X171108691Y-113660881D01*
X171203929Y-113803738D01*
X171299167Y-113898976D01*
X171394405Y-113946595D01*
X169918214Y-113660881D02*
X170394405Y-113660881D01*
X170442024Y-114137071D01*
X170394405Y-114089452D01*
X170299167Y-114041833D01*
X170061071Y-114041833D01*
X169965833Y-114089452D01*
X169918214Y-114137071D01*
X169870595Y-114232310D01*
X169870595Y-114470405D01*
X169918214Y-114565643D01*
X169965833Y-114613262D01*
X170061071Y-114660881D01*
X170299167Y-114660881D01*
X170394405Y-114613262D01*
X170442024Y-114565643D01*
X171546781Y-98575905D02*
X170546781Y-98575905D01*
X170546781Y-98814000D01*
X170594400Y-98956858D01*
X170689638Y-99052096D01*
X170784876Y-99099715D01*
X170975352Y-99147334D01*
X171118210Y-99147334D01*
X171308686Y-99099715D01*
X171403924Y-99052096D01*
X171499162Y-98956858D01*
X171546781Y-98814000D01*
X171546781Y-98575905D01*
X170546781Y-99480667D02*
X170546781Y-100099715D01*
X170927733Y-99766381D01*
X170927733Y-99909239D01*
X170975352Y-100004477D01*
X171022971Y-100052096D01*
X171118210Y-100099715D01*
X171356305Y-100099715D01*
X171451543Y-100052096D01*
X171499162Y-100004477D01*
X171546781Y-99909239D01*
X171546781Y-99623524D01*
X171499162Y-99528286D01*
X171451543Y-99480667D01*
X179506262Y-92317667D02*
X179553881Y-92460524D01*
X179553881Y-92698620D01*
X179506262Y-92793858D01*
X179458643Y-92841477D01*
X179363405Y-92889096D01*
X179268167Y-92889096D01*
X179172929Y-92841477D01*
X179125310Y-92793858D01*
X179077690Y-92698620D01*
X179030071Y-92508143D01*
X178982452Y-92412905D01*
X178934833Y-92365286D01*
X178839595Y-92317667D01*
X178744357Y-92317667D01*
X178649119Y-92365286D01*
X178601500Y-92412905D01*
X178553881Y-92508143D01*
X178553881Y-92746239D01*
X178601500Y-92889096D01*
X178553881Y-93222429D02*
X179553881Y-93460524D01*
X178839595Y-93651001D01*
X179553881Y-93841477D01*
X178553881Y-94079572D01*
X179553881Y-94984334D02*
X179553881Y-94412905D01*
X179553881Y-94698619D02*
X178553881Y-94698619D01*
X178696738Y-94603381D01*
X178791976Y-94508143D01*
X178839595Y-94412905D01*
X173189733Y-136599562D02*
X173046876Y-136647181D01*
X172808780Y-136647181D01*
X172713542Y-136599562D01*
X172665923Y-136551943D01*
X172618304Y-136456705D01*
X172618304Y-136361467D01*
X172665923Y-136266229D01*
X172713542Y-136218610D01*
X172808780Y-136170990D01*
X172999257Y-136123371D01*
X173094495Y-136075752D01*
X173142114Y-136028133D01*
X173189733Y-135932895D01*
X173189733Y-135837657D01*
X173142114Y-135742419D01*
X173094495Y-135694800D01*
X172999257Y-135647181D01*
X172761161Y-135647181D01*
X172618304Y-135694800D01*
X172284971Y-135647181D02*
X172046876Y-136647181D01*
X171856399Y-135932895D01*
X171665923Y-136647181D01*
X171427828Y-135647181D01*
X170618304Y-135980514D02*
X170618304Y-136647181D01*
X170856400Y-135599562D02*
X171094495Y-136313848D01*
X170475447Y-136313848D01*
X173608905Y-111587381D02*
X173608905Y-112396905D01*
X173561286Y-112492143D01*
X173513667Y-112539762D01*
X173418429Y-112587381D01*
X173227952Y-112587381D01*
X173132714Y-112539762D01*
X173085095Y-112492143D01*
X173037476Y-112396905D01*
X173037476Y-111587381D01*
X172085095Y-111587381D02*
X172561286Y-111587381D01*
X172608905Y-112063571D01*
X172561286Y-112015952D01*
X172466048Y-111968333D01*
X172227952Y-111968333D01*
X172132714Y-112015952D01*
X172085095Y-112063571D01*
X172037476Y-112158810D01*
X172037476Y-112396905D01*
X172085095Y-112492143D01*
X172132714Y-112539762D01*
X172227952Y-112587381D01*
X172466048Y-112587381D01*
X172561286Y-112539762D01*
X172608905Y-112492143D01*
X182130533Y-90168362D02*
X181987676Y-90215981D01*
X181749580Y-90215981D01*
X181654342Y-90168362D01*
X181606723Y-90120743D01*
X181559104Y-90025505D01*
X181559104Y-89930267D01*
X181606723Y-89835029D01*
X181654342Y-89787410D01*
X181749580Y-89739790D01*
X181940057Y-89692171D01*
X182035295Y-89644552D01*
X182082914Y-89596933D01*
X182130533Y-89501695D01*
X182130533Y-89406457D01*
X182082914Y-89311219D01*
X182035295Y-89263600D01*
X181940057Y-89215981D01*
X181701961Y-89215981D01*
X181559104Y-89263600D01*
X181225771Y-89215981D02*
X180987676Y-90215981D01*
X180797199Y-89501695D01*
X180606723Y-90215981D01*
X180368628Y-89215981D01*
X180035295Y-89311219D02*
X179987676Y-89263600D01*
X179892438Y-89215981D01*
X179654342Y-89215981D01*
X179559104Y-89263600D01*
X179511485Y-89311219D01*
X179463866Y-89406457D01*
X179463866Y-89501695D01*
X179511485Y-89644552D01*
X180082914Y-90215981D01*
X179463866Y-90215981D01*
X216436533Y-129957581D02*
X216436533Y-130671867D01*
X216484153Y-130814724D01*
X216579391Y-130909962D01*
X216722248Y-130957581D01*
X216817486Y-130957581D01*
X216007962Y-130052819D02*
X215960343Y-130005200D01*
X215865105Y-129957581D01*
X215627009Y-129957581D01*
X215531771Y-130005200D01*
X215484152Y-130052819D01*
X215436533Y-130148057D01*
X215436533Y-130243295D01*
X215484152Y-130386152D01*
X216055581Y-130957581D01*
X215436533Y-130957581D01*
M02*
