M48
;DRILL file {KiCad 4.0.6} date 10/19/17 05:59:31
;FORMAT={3:3/ absolute / metric / suppress leading zeros}
FMAT,2
METRIC,TZ
T1C0.400
T2C0.800
T3C1.000
T4C1.100
T5C1.200
T6C1.250
%
G90
G05
M71
T1
X167449Y-96520
X167449Y-110173
X168097Y-109525
X168148Y-110998
X170117Y-113856
X170117Y-116649
X170637Y-137109
X170688Y-98044
X170688Y-104902
X170815Y-114491
X170815Y-117158
X172466Y-118301
X172466Y-121158
X172720Y-104267
X173355Y-122555
X174371Y-104013
X175387Y-99441
X176086Y-129794
X177546Y-117729
X177851Y-133198
X178117Y-127508
X178626Y-126238
X178689Y-113919
X182689Y-96329
X182689Y-98933
X182689Y-101346
X182689Y-103949
X182753Y-91313
X182753Y-93853
X182880Y-113030
X183134Y-121412
X183388Y-123444
X183388Y-124841
X183896Y-124079
X183896Y-125730
X183896Y-127000
X184150Y-119126
X184404Y-118110
X184658Y-115570
X184658Y-116586
X185166Y-117729
X186563Y-92139
X186626Y-105093
X186690Y-97346
X186690Y-102552
X186754Y-94933
X186754Y-114173
X186944Y-99822
X188659Y-112967
X189294Y-106045
X189738Y-115443
X189738Y-117475
X189941Y-112420
X190500Y-124206
X191262Y-119126
X192024Y-126492
X193294Y-116459
X193294Y-128715
X193345Y-131521
X193802Y-123444
X194056Y-113792
X194310Y-119380
X194437Y-117729
X194564Y-122682
X194691Y-101600
X195390Y-105601
X195580Y-102172
X195885Y-115113
X195961Y-93091
X196088Y-129743
X196291Y-130607
X196698Y-117856
X196977Y-93726
X196977Y-105664
X197053Y-115011
X201168Y-121158
X201219Y-127610
X201778Y-129845
X202057Y-94234
X202286Y-127203
X202501Y-131445
X203911Y-125628
X204597Y-121412
X204724Y-90297
X207264Y-124511
X208077Y-131064
X208229Y-124054
X209677Y-114300
X209677Y-118364
X210249Y-122428
X210757Y-127635
X210820Y-137109
X211010Y-123317
X211392Y-96076
X213042Y-122936
X215900Y-94171
T2
X169672Y-127559
X169672Y-130059
X174157Y-124841
X174244Y-115443
X176657Y-124841
X176744Y-115443
X201168Y-113919
X201208Y-123190
X203668Y-113919
X203708Y-123190
X205423Y-127889
X205423Y-130389
X209550Y-120587
X212050Y-120587
T3
X214986Y-121209
X214986Y-123749
X214986Y-126289
X214986Y-128829
T4
X168504Y-132558
X168504Y-137058
X172601Y-90401
X172601Y-96901
X175004Y-132558
X175004Y-137058
X177101Y-90401
X177101Y-96901
X208943Y-132588
X208943Y-137088
X215443Y-132588
X215443Y-137088
T5
X213170Y-107759
X213170Y-110299
T6
X192200Y-90092
X192200Y-93342
X192200Y-100842
X192200Y-104092
X214200Y-90592
X214200Y-103592
T0
M30
