G04 #@! TF.FileFunction,Soldermask,Top*
%FSLAX46Y46*%
G04 Gerber Fmt 4.6, Leading zero omitted, Abs format (unit mm)*
G04 Created by KiCad (PCBNEW 4.0.6) date 10/22/17 19:33:14*
%MOMM*%
%LPD*%
G01*
G04 APERTURE LIST*
%ADD10C,0.100000*%
%ADD11R,1.900000X1.650000*%
%ADD12R,1.650000X1.900000*%
%ADD13R,2.400000X2.100000*%
%ADD14R,1.780000X0.850000*%
%ADD15R,2.500000X1.875000*%
%ADD16R,2.300000X2.775000*%
%ADD17R,2.300000X1.575000*%
%ADD18R,3.000000X2.400000*%
%ADD19O,3.000000X2.400000*%
%ADD20R,2.150000X0.850000*%
G04 APERTURE END LIST*
D10*
D11*
X137902000Y-88900000D03*
X135402000Y-88900000D03*
D12*
X136652000Y-94762000D03*
X136652000Y-97262000D03*
D13*
X131858000Y-101600000D03*
X135858000Y-101600000D03*
X125254000Y-101600000D03*
X129254000Y-101600000D03*
D14*
X118484000Y-93696000D03*
X118484000Y-94346000D03*
X118484000Y-94996000D03*
X118484000Y-95646000D03*
X118484000Y-96296000D03*
D15*
X118124000Y-92533500D03*
X118124000Y-97458500D03*
D16*
X115824000Y-92086000D03*
X115824000Y-97906000D03*
D17*
X115824000Y-94156000D03*
X115824000Y-95836000D03*
D18*
X140716000Y-88392000D03*
D19*
X140716000Y-90932000D03*
X140716000Y-93472000D03*
X140716000Y-96012000D03*
X140716000Y-98552000D03*
X140716000Y-101092000D03*
D20*
X124924000Y-90263000D03*
X124924000Y-90913000D03*
X124924000Y-91563000D03*
X124924000Y-92213000D03*
X124924000Y-92863000D03*
X124924000Y-93513000D03*
X124924000Y-94163000D03*
X124924000Y-94813000D03*
X124924000Y-95463000D03*
X124924000Y-96113000D03*
X124924000Y-96763000D03*
X124924000Y-97413000D03*
X124924000Y-98063000D03*
X124924000Y-98713000D03*
X132124000Y-98713000D03*
X132124000Y-98063000D03*
X132124000Y-97413000D03*
X132124000Y-96763000D03*
X132124000Y-96113000D03*
X132124000Y-95463000D03*
X132124000Y-94813000D03*
X132124000Y-94163000D03*
X132124000Y-93513000D03*
X132124000Y-92863000D03*
X132124000Y-92213000D03*
X132124000Y-91563000D03*
X132124000Y-90913000D03*
X132124000Y-90263000D03*
M02*
