G04 #@! TF.FileFunction,Legend,Bot*
%FSLAX46Y46*%
G04 Gerber Fmt 4.6, Leading zero omitted, Abs format (unit mm)*
G04 Created by KiCad (PCBNEW 4.0.6) date 10/22/17 19:33:14*
%MOMM*%
%LPD*%
G01*
G04 APERTURE LIST*
%ADD10C,0.100000*%
%ADD11C,0.120000*%
%ADD12C,0.150000*%
G04 APERTURE END LIST*
D10*
D11*
X138368594Y-98799487D02*
X137661487Y-99506594D01*
X136459406Y-98304513D02*
X137166513Y-97597406D01*
X122340000Y-95242000D02*
X122340000Y-94242000D01*
X124040000Y-94242000D02*
X124040000Y-95242000D01*
X126879513Y-96966594D02*
X126172406Y-96259487D01*
X127374487Y-95057406D02*
X128081594Y-95764513D01*
X134458000Y-100720000D02*
X133258000Y-100720000D01*
X133258000Y-102480000D02*
X134458000Y-102480000D01*
X127854000Y-100720000D02*
X126654000Y-100720000D01*
X126654000Y-102480000D02*
X127854000Y-102480000D01*
X128032000Y-100130000D02*
X130032000Y-100130000D01*
X130032000Y-97990000D02*
X128032000Y-97990000D01*
X129842192Y-96310660D02*
X130733146Y-95419706D01*
X134664660Y-91488192D02*
X133773706Y-92379146D01*
X132500913Y-98969382D02*
X129842192Y-96310660D01*
X138914372Y-95737904D02*
X134664660Y-91488192D01*
X120265000Y-95615000D02*
X120265000Y-93615000D01*
X122305000Y-93615000D02*
X122305000Y-95615000D01*
D12*
X139021826Y-99924125D02*
X139089169Y-99924125D01*
X139223856Y-99856781D01*
X139291200Y-99789438D01*
X139358544Y-99654750D01*
X139358544Y-99520063D01*
X139324872Y-99419048D01*
X139223857Y-99250690D01*
X139122841Y-99149674D01*
X138954482Y-99048659D01*
X138853467Y-99014987D01*
X138718780Y-99014987D01*
X138584093Y-99082331D01*
X138516749Y-99149674D01*
X138449406Y-99284361D01*
X138449406Y-99351705D01*
X138415734Y-100664903D02*
X138819796Y-100260842D01*
X138617765Y-100462872D02*
X137910659Y-99755765D01*
X138079017Y-99789437D01*
X138213704Y-99789437D01*
X138314719Y-99755765D01*
X123483666Y-98147143D02*
X123531285Y-98194762D01*
X123674142Y-98242381D01*
X123769380Y-98242381D01*
X123912238Y-98194762D01*
X124007476Y-98099524D01*
X124055095Y-98004286D01*
X124102714Y-97813810D01*
X124102714Y-97670952D01*
X124055095Y-97480476D01*
X124007476Y-97385238D01*
X123912238Y-97290000D01*
X123769380Y-97242381D01*
X123674142Y-97242381D01*
X123531285Y-97290000D01*
X123483666Y-97337619D01*
X123150333Y-97242381D02*
X122531285Y-97242381D01*
X122864619Y-97623333D01*
X122721761Y-97623333D01*
X122626523Y-97670952D01*
X122578904Y-97718571D01*
X122531285Y-97813810D01*
X122531285Y-98051905D01*
X122578904Y-98147143D01*
X122626523Y-98194762D01*
X122721761Y-98242381D01*
X123007476Y-98242381D01*
X123102714Y-98194762D01*
X123150333Y-98147143D01*
X125754875Y-97619826D02*
X125754875Y-97687169D01*
X125822219Y-97821856D01*
X125889562Y-97889200D01*
X126024250Y-97956544D01*
X126158937Y-97956544D01*
X126259952Y-97922872D01*
X126428310Y-97821857D01*
X126529326Y-97720841D01*
X126630341Y-97552482D01*
X126664013Y-97451467D01*
X126664013Y-97316780D01*
X126596669Y-97182093D01*
X126529326Y-97114749D01*
X126394639Y-97047406D01*
X126327295Y-97047406D01*
X125788547Y-96373971D02*
X125923235Y-96508659D01*
X125956906Y-96609674D01*
X125956906Y-96677017D01*
X125923235Y-96845376D01*
X125822220Y-97013734D01*
X125552845Y-97283109D01*
X125451830Y-97316780D01*
X125384487Y-97316780D01*
X125283471Y-97283109D01*
X125148784Y-97148421D01*
X125115112Y-97047406D01*
X125115112Y-96980063D01*
X125148784Y-96879047D01*
X125317142Y-96710689D01*
X125418158Y-96677016D01*
X125485502Y-96677016D01*
X125586517Y-96710688D01*
X125721204Y-96845376D01*
X125754876Y-96946391D01*
X125754876Y-97013734D01*
X125721204Y-97114750D01*
X134024666Y-103752381D02*
X134358000Y-103276190D01*
X134596095Y-103752381D02*
X134596095Y-102752381D01*
X134215142Y-102752381D01*
X134119904Y-102800000D01*
X134072285Y-102847619D01*
X134024666Y-102942857D01*
X134024666Y-103085714D01*
X134072285Y-103180952D01*
X134119904Y-103228571D01*
X134215142Y-103276190D01*
X134596095Y-103276190D01*
X133072285Y-103752381D02*
X133643714Y-103752381D01*
X133358000Y-103752381D02*
X133358000Y-102752381D01*
X133453238Y-102895238D01*
X133548476Y-102990476D01*
X133643714Y-103038095D01*
X127420666Y-103752381D02*
X127754000Y-103276190D01*
X127992095Y-103752381D02*
X127992095Y-102752381D01*
X127611142Y-102752381D01*
X127515904Y-102800000D01*
X127468285Y-102847619D01*
X127420666Y-102942857D01*
X127420666Y-103085714D01*
X127468285Y-103180952D01*
X127515904Y-103228571D01*
X127611142Y-103276190D01*
X127992095Y-103276190D01*
X127039714Y-102847619D02*
X126992095Y-102800000D01*
X126896857Y-102752381D01*
X126658761Y-102752381D01*
X126563523Y-102800000D01*
X126515904Y-102847619D01*
X126468285Y-102942857D01*
X126468285Y-103038095D01*
X126515904Y-103180952D01*
X127087333Y-103752381D01*
X126468285Y-103752381D01*
X129198666Y-97662381D02*
X129532000Y-97186190D01*
X129770095Y-97662381D02*
X129770095Y-96662381D01*
X129389142Y-96662381D01*
X129293904Y-96710000D01*
X129246285Y-96757619D01*
X129198666Y-96852857D01*
X129198666Y-96995714D01*
X129246285Y-97090952D01*
X129293904Y-97138571D01*
X129389142Y-97186190D01*
X129770095Y-97186190D01*
X128865333Y-96662381D02*
X128246285Y-96662381D01*
X128579619Y-97043333D01*
X128436761Y-97043333D01*
X128341523Y-97090952D01*
X128293904Y-97138571D01*
X128246285Y-97233810D01*
X128246285Y-97471905D01*
X128293904Y-97567143D01*
X128341523Y-97614762D01*
X128436761Y-97662381D01*
X128722476Y-97662381D01*
X128817714Y-97614762D01*
X128865333Y-97567143D01*
X137711954Y-92219542D02*
X137139534Y-92791962D01*
X137038519Y-92825634D01*
X136971176Y-92825634D01*
X136870161Y-92791962D01*
X136735473Y-92657274D01*
X136701801Y-92556259D01*
X136701801Y-92488916D01*
X136735473Y-92387901D01*
X137307893Y-91815481D01*
X135893679Y-91815481D02*
X136297741Y-92219542D01*
X136095710Y-92017512D02*
X136802817Y-91310405D01*
X136769145Y-91478764D01*
X136769145Y-91613450D01*
X136802817Y-91714466D01*
X121451666Y-99036143D02*
X121499285Y-99083762D01*
X121642142Y-99131381D01*
X121737380Y-99131381D01*
X121880238Y-99083762D01*
X121975476Y-98988524D01*
X122023095Y-98893286D01*
X122070714Y-98702810D01*
X122070714Y-98559952D01*
X122023095Y-98369476D01*
X121975476Y-98274238D01*
X121880238Y-98179000D01*
X121737380Y-98131381D01*
X121642142Y-98131381D01*
X121499285Y-98179000D01*
X121451666Y-98226619D01*
X121070714Y-98226619D02*
X121023095Y-98179000D01*
X120927857Y-98131381D01*
X120689761Y-98131381D01*
X120594523Y-98179000D01*
X120546904Y-98226619D01*
X120499285Y-98321857D01*
X120499285Y-98417095D01*
X120546904Y-98559952D01*
X121118333Y-99131381D01*
X120499285Y-99131381D01*
M02*
