G04 #@! TF.FileFunction,Drawing*
%FSLAX46Y46*%
G04 Gerber Fmt 4.6, Leading zero omitted, Abs format (unit mm)*
G04 Created by KiCad (PCBNEW 4.0.6) date 10/22/17 19:33:14*
%MOMM*%
%LPD*%
G01*
G04 APERTURE LIST*
%ADD10C,0.100000*%
%ADD11C,0.040000*%
G04 APERTURE END LIST*
D10*
D11*
X114534952Y-96367429D02*
X114134952Y-96367429D01*
X114134952Y-96215048D01*
X114154000Y-96176953D01*
X114173048Y-96157905D01*
X114211143Y-96138857D01*
X114268286Y-96138857D01*
X114306381Y-96157905D01*
X114325429Y-96176953D01*
X114344476Y-96215048D01*
X114344476Y-96367429D01*
X114496857Y-95738857D02*
X114515905Y-95757905D01*
X114534952Y-95815048D01*
X114534952Y-95853143D01*
X114515905Y-95910286D01*
X114477810Y-95948381D01*
X114439714Y-95967429D01*
X114363524Y-95986477D01*
X114306381Y-95986477D01*
X114230190Y-95967429D01*
X114192095Y-95948381D01*
X114154000Y-95910286D01*
X114134952Y-95853143D01*
X114134952Y-95815048D01*
X114154000Y-95757905D01*
X114173048Y-95738857D01*
X114325429Y-95434096D02*
X114344476Y-95376953D01*
X114363524Y-95357905D01*
X114401619Y-95338857D01*
X114458762Y-95338857D01*
X114496857Y-95357905D01*
X114515905Y-95376953D01*
X114534952Y-95415048D01*
X114534952Y-95567429D01*
X114134952Y-95567429D01*
X114134952Y-95434096D01*
X114154000Y-95396000D01*
X114173048Y-95376953D01*
X114211143Y-95357905D01*
X114249238Y-95357905D01*
X114287333Y-95376953D01*
X114306381Y-95396000D01*
X114325429Y-95434096D01*
X114325429Y-95567429D01*
X114325429Y-94862667D02*
X114325429Y-94729334D01*
X114534952Y-94672191D02*
X114534952Y-94862667D01*
X114134952Y-94862667D01*
X114134952Y-94672191D01*
X114534952Y-94329333D02*
X114134952Y-94329333D01*
X114515905Y-94329333D02*
X114534952Y-94367429D01*
X114534952Y-94443619D01*
X114515905Y-94481714D01*
X114496857Y-94500762D01*
X114458762Y-94519810D01*
X114344476Y-94519810D01*
X114306381Y-94500762D01*
X114287333Y-94481714D01*
X114268286Y-94443619D01*
X114268286Y-94367429D01*
X114287333Y-94329333D01*
X114268286Y-93967428D02*
X114592095Y-93967428D01*
X114630190Y-93986476D01*
X114649238Y-94005524D01*
X114668286Y-94043619D01*
X114668286Y-94100762D01*
X114649238Y-94138857D01*
X114515905Y-93967428D02*
X114534952Y-94005524D01*
X114534952Y-94081714D01*
X114515905Y-94119809D01*
X114496857Y-94138857D01*
X114458762Y-94157905D01*
X114344476Y-94157905D01*
X114306381Y-94138857D01*
X114287333Y-94119809D01*
X114268286Y-94081714D01*
X114268286Y-94005524D01*
X114287333Y-93967428D01*
X114515905Y-93624571D02*
X114534952Y-93662666D01*
X114534952Y-93738857D01*
X114515905Y-93776952D01*
X114477810Y-93796000D01*
X114325429Y-93796000D01*
X114287333Y-93776952D01*
X114268286Y-93738857D01*
X114268286Y-93662666D01*
X114287333Y-93624571D01*
X114325429Y-93605523D01*
X114363524Y-93605523D01*
X114401619Y-93796000D01*
M02*
