G04 #@! TF.FileFunction,Copper,L1,Top,Signal*
%FSLAX46Y46*%
G04 Gerber Fmt 4.6, Leading zero omitted, Abs format (unit mm)*
G04 Created by KiCad (PCBNEW 4.0.6) date 10/22/17 19:33:14*
%MOMM*%
%LPD*%
G01*
G04 APERTURE LIST*
%ADD10C,0.100000*%
%ADD11R,1.500000X1.250000*%
%ADD12R,1.250000X1.500000*%
%ADD13R,2.000000X1.700000*%
%ADD14R,1.380000X0.450000*%
%ADD15R,2.100000X1.475000*%
%ADD16R,1.900000X2.375000*%
%ADD17R,1.900000X1.175000*%
%ADD18R,2.600000X2.000000*%
%ADD19O,2.600000X2.000000*%
%ADD20R,1.750000X0.450000*%
%ADD21C,0.600000*%
%ADD22C,0.250000*%
%ADD23C,1.270000*%
%ADD24C,0.254000*%
G04 APERTURE END LIST*
D10*
D11*
X137902000Y-88900000D03*
X135402000Y-88900000D03*
D12*
X136652000Y-94762000D03*
X136652000Y-97262000D03*
D13*
X131858000Y-101600000D03*
X135858000Y-101600000D03*
X125254000Y-101600000D03*
X129254000Y-101600000D03*
D14*
X118484000Y-93696000D03*
X118484000Y-94346000D03*
X118484000Y-94996000D03*
X118484000Y-95646000D03*
X118484000Y-96296000D03*
D15*
X118124000Y-92533500D03*
X118124000Y-97458500D03*
D16*
X115824000Y-92086000D03*
X115824000Y-97906000D03*
D17*
X115824000Y-94156000D03*
X115824000Y-95836000D03*
D18*
X140716000Y-88392000D03*
D19*
X140716000Y-90932000D03*
X140716000Y-93472000D03*
X140716000Y-96012000D03*
X140716000Y-98552000D03*
X140716000Y-101092000D03*
D20*
X124924000Y-90263000D03*
X124924000Y-90913000D03*
X124924000Y-91563000D03*
X124924000Y-92213000D03*
X124924000Y-92863000D03*
X124924000Y-93513000D03*
X124924000Y-94163000D03*
X124924000Y-94813000D03*
X124924000Y-95463000D03*
X124924000Y-96113000D03*
X124924000Y-96763000D03*
X124924000Y-97413000D03*
X124924000Y-98063000D03*
X124924000Y-98713000D03*
X132124000Y-98713000D03*
X132124000Y-98063000D03*
X132124000Y-97413000D03*
X132124000Y-96763000D03*
X132124000Y-96113000D03*
X132124000Y-95463000D03*
X132124000Y-94813000D03*
X132124000Y-94163000D03*
X132124000Y-93513000D03*
X132124000Y-92863000D03*
X132124000Y-92213000D03*
X132124000Y-91563000D03*
X132124000Y-90913000D03*
X132124000Y-90263000D03*
D21*
X130556000Y-90297000D03*
X118618000Y-89154000D03*
X138176000Y-100330000D03*
X126492000Y-97409000D03*
X129667000Y-87249000D03*
X119380000Y-100076000D03*
X133985000Y-91059000D03*
X132207000Y-89027000D03*
X135382000Y-93980000D03*
X134366000Y-92964000D03*
X130302000Y-96266000D03*
X127762000Y-95250000D03*
X134366000Y-95758000D03*
X132842000Y-100330000D03*
X135382000Y-100330000D03*
X137668000Y-93218000D03*
X134112000Y-94742000D03*
X129032000Y-100330000D03*
X126746000Y-93218000D03*
X128270000Y-92710000D03*
X123190000Y-89662000D03*
X123190000Y-90932000D03*
X137033000Y-90170000D03*
X124714000Y-99822000D03*
D22*
X120142000Y-89154000D02*
X118618000Y-89154000D01*
X118484000Y-93696000D02*
X119410000Y-93696000D01*
X120142000Y-89154000D02*
X121158000Y-88138000D01*
X128524000Y-87884000D02*
X130556000Y-89916000D01*
X122428000Y-87884000D02*
X128524000Y-87884000D01*
X130556000Y-89916000D02*
X130556000Y-90297000D01*
X121412000Y-87884000D02*
X121158000Y-88138000D01*
X122428000Y-87884000D02*
X121412000Y-87884000D01*
X120142000Y-92964000D02*
X120142000Y-89154000D01*
X119410000Y-93696000D02*
X120142000Y-92964000D01*
X131064000Y-95463000D02*
X130556000Y-95463000D01*
X131064000Y-95463000D02*
X132124000Y-95463000D01*
X130556000Y-90297000D02*
X130556000Y-95504000D01*
X130556000Y-95463000D02*
X130556000Y-95504000D01*
D23*
X138176000Y-102362000D02*
X138176000Y-102489000D01*
X138811000Y-103124000D02*
X142494000Y-103124000D01*
X138176000Y-102489000D02*
X138811000Y-103124000D01*
X142240000Y-88392000D02*
X143256000Y-89408000D01*
X142240000Y-88392000D02*
X140716000Y-88392000D01*
X143256000Y-102362000D02*
X142494000Y-103124000D01*
X143256000Y-89408000D02*
X143256000Y-102362000D01*
X138176000Y-102362000D02*
X138176000Y-100330000D01*
D22*
X132124000Y-91563000D02*
X133092000Y-91563000D01*
X133731000Y-92329000D02*
X133731000Y-92213000D01*
X133742000Y-92318000D02*
X133731000Y-92329000D01*
X133742000Y-92213000D02*
X133742000Y-92318000D01*
X133092000Y-91563000D02*
X133742000Y-92213000D01*
X135402000Y-88900000D02*
X135402000Y-91674000D01*
X135402000Y-91674000D02*
X134874000Y-92202000D01*
X126421000Y-94163000D02*
X124924000Y-94163000D01*
X126492000Y-94234000D02*
X126421000Y-94163000D01*
X126492000Y-97409000D02*
X126492000Y-94234000D01*
X134620000Y-92202000D02*
X134874000Y-92202000D01*
X134874000Y-92202000D02*
X135128000Y-92202000D01*
X135128000Y-92202000D02*
X136652000Y-93726000D01*
X136652000Y-93726000D02*
X136652000Y-94762000D01*
X135255000Y-96139000D02*
X134620000Y-96774000D01*
X134388000Y-96774000D02*
X134377000Y-96763000D01*
X134620000Y-96774000D02*
X134388000Y-96774000D01*
X135255000Y-96139000D02*
X136632000Y-94762000D01*
X136632000Y-94762000D02*
X136652000Y-94762000D01*
X133731000Y-95377000D02*
X133731000Y-96763000D01*
X133604000Y-96774000D02*
X133604000Y-96763000D01*
X133720000Y-96774000D02*
X133604000Y-96774000D01*
X133731000Y-96763000D02*
X133720000Y-96774000D01*
X133858000Y-96763000D02*
X134377000Y-96763000D01*
X133604000Y-96763000D02*
X133858000Y-96763000D01*
X132124000Y-94813000D02*
X133167000Y-94813000D01*
X133167000Y-94813000D02*
X133731000Y-95377000D01*
D23*
X134132000Y-87884000D02*
X135402000Y-88900000D01*
X130810000Y-87884000D02*
X134132000Y-87884000D01*
X129667000Y-87249000D02*
X130810000Y-87884000D01*
D22*
X135402000Y-88900000D02*
X135382000Y-88900000D01*
X135402000Y-88900000D02*
X135402000Y-88880000D01*
X135402000Y-88880000D02*
X136144000Y-88392000D01*
X140716000Y-88392000D02*
X139700000Y-88392000D01*
X139700000Y-88392000D02*
X138938000Y-87630000D01*
X136906000Y-87630000D02*
X136398000Y-88138000D01*
X138938000Y-87630000D02*
X136906000Y-87630000D01*
X140462000Y-88138000D02*
X140716000Y-88392000D01*
D23*
X118124000Y-98820000D02*
X118124000Y-97458500D01*
X119380000Y-100076000D02*
X118124000Y-98820000D01*
D22*
X121920000Y-96012000D02*
X120142000Y-96012000D01*
X124924000Y-94163000D02*
X123769000Y-94163000D01*
X123769000Y-94163000D02*
X121920000Y-96012000D01*
X119858000Y-96296000D02*
X118484000Y-96296000D01*
X120142000Y-96012000D02*
X119858000Y-96296000D01*
X136144000Y-88392000D02*
X136398000Y-88138000D01*
X134620000Y-92202000D02*
X134631000Y-92213000D01*
X134631000Y-92213000D02*
X133731000Y-92213000D01*
X133731000Y-92213000D02*
X132124000Y-92213000D01*
X136601000Y-94813000D02*
X136652000Y-94762000D01*
X132124000Y-96763000D02*
X133604000Y-96763000D01*
X136378000Y-94762000D02*
X136652000Y-94762000D01*
X118484000Y-96296000D02*
X118484000Y-97098500D01*
X118484000Y-97098500D02*
X118124000Y-97458500D01*
X118484000Y-97098500D02*
X118124000Y-97458500D01*
D23*
X115824000Y-92086000D02*
X117676500Y-92086000D01*
X117676500Y-92086000D02*
X118124000Y-92533500D01*
X115824000Y-95836000D02*
X115824000Y-94156000D01*
X115824000Y-97906000D02*
X115824000Y-95836000D01*
X118124000Y-97458500D02*
X116271500Y-97458500D01*
X116271500Y-97458500D02*
X115824000Y-97906000D01*
X118124000Y-92533500D02*
X116271500Y-92533500D01*
X116271500Y-92533500D02*
X115824000Y-92086000D01*
X116271500Y-97458500D02*
X115824000Y-97906000D01*
X115824000Y-92086000D02*
X115824000Y-94156000D01*
D22*
X131953000Y-88900000D02*
X132080000Y-88900000D01*
X133985000Y-91059000D02*
X133985000Y-89662000D01*
X133985000Y-89662000D02*
X133223000Y-88900000D01*
X133223000Y-88900000D02*
X131953000Y-88900000D01*
X132080000Y-88900000D02*
X132207000Y-89027000D01*
X134366000Y-92964000D02*
X134874000Y-93472000D01*
X135382000Y-93980000D02*
X134874000Y-93472000D01*
X137902000Y-88900000D02*
X137902000Y-89896000D01*
X138938000Y-90932000D02*
X140716000Y-90932000D01*
X137902000Y-89896000D02*
X138938000Y-90932000D01*
X132124000Y-97413000D02*
X131195000Y-97413000D01*
X131195000Y-97413000D02*
X130302000Y-96520000D01*
X130302000Y-96520000D02*
X130302000Y-96266000D01*
X126503000Y-92213000D02*
X124924000Y-92213000D01*
X127762000Y-95250000D02*
X127508000Y-94996000D01*
X127508000Y-94996000D02*
X127508000Y-93218000D01*
X127508000Y-93218000D02*
X127508000Y-92710000D01*
X126503000Y-92213000D02*
X126514000Y-92202000D01*
X126514000Y-92202000D02*
X126746000Y-92202000D01*
X126746000Y-92202000D02*
X127254000Y-92710000D01*
X127254000Y-92710000D02*
X127508000Y-92710000D01*
X136652000Y-97262000D02*
X136652000Y-97282000D01*
X134620000Y-97536000D02*
X136378000Y-97536000D01*
X136378000Y-97536000D02*
X136652000Y-97262000D01*
X134497000Y-97413000D02*
X132124000Y-97413000D01*
X134620000Y-97536000D02*
X134497000Y-97413000D01*
X132124000Y-93513000D02*
X133350000Y-93513000D01*
X134874000Y-94996000D02*
X134874000Y-94488000D01*
X134366000Y-95504000D02*
X134874000Y-94996000D01*
X134366000Y-95504000D02*
X134366000Y-95758000D01*
X133350000Y-93513000D02*
X133858000Y-93513000D01*
X133899000Y-93513000D02*
X134874000Y-94488000D01*
X133858000Y-93513000D02*
X133899000Y-93513000D01*
X131858000Y-101314000D02*
X132842000Y-100330000D01*
X131858000Y-101314000D02*
X131858000Y-101600000D01*
X135604000Y-100298000D02*
X135858000Y-101600000D01*
X135382000Y-100330000D02*
X135604000Y-100298000D01*
X132124000Y-94163000D02*
X133533000Y-94163000D01*
X137668000Y-92964000D02*
X137668000Y-93218000D01*
X137668000Y-95504000D02*
X137668000Y-92964000D01*
X134874000Y-99568000D02*
X132588000Y-99568000D01*
X136398000Y-99314000D02*
X136144000Y-99314000D01*
X136906000Y-99314000D02*
X136398000Y-99314000D01*
X135890000Y-99568000D02*
X134874000Y-99568000D01*
X136144000Y-99314000D02*
X135890000Y-99568000D01*
X132588000Y-99568000D02*
X127000000Y-99568000D01*
X127000000Y-99568000D02*
X125254000Y-101314000D01*
X137668000Y-99060000D02*
X137414000Y-99314000D01*
X137668000Y-95504000D02*
X137668000Y-99060000D01*
X137414000Y-99314000D02*
X136906000Y-99314000D01*
X137668000Y-93218000D02*
X137668000Y-93218000D01*
X133533000Y-94163000D02*
X134112000Y-94742000D01*
X125254000Y-101600000D02*
X125254000Y-101314000D01*
X129254000Y-101600000D02*
X129254000Y-100552000D01*
X129254000Y-100552000D02*
X129032000Y-100330000D01*
X129540000Y-89916000D02*
X129540000Y-90170000D01*
X129540000Y-96520000D02*
X129540000Y-90170000D01*
X129540000Y-96520000D02*
X130048000Y-97028000D01*
X118484000Y-94346000D02*
X119776000Y-94346000D01*
X120904000Y-93218000D02*
X120904000Y-92456000D01*
X119776000Y-94346000D02*
X120904000Y-93218000D01*
X120904000Y-89662000D02*
X120904000Y-92456000D01*
X121666000Y-88900000D02*
X120904000Y-89662000D01*
X122174000Y-88392000D02*
X122936000Y-88392000D01*
X121714500Y-88851500D02*
X122174000Y-88392000D01*
X131083000Y-98063000D02*
X132124000Y-98063000D01*
X122936000Y-88392000D02*
X128016000Y-88392000D01*
X128016000Y-88392000D02*
X129540000Y-89916000D01*
X130048000Y-97028000D02*
X131083000Y-98063000D01*
X129540000Y-97536000D02*
X129032000Y-97028000D01*
X129032000Y-97028000D02*
X129032000Y-90424000D01*
X122428000Y-89154000D02*
X121412000Y-90170000D01*
X123444000Y-88900000D02*
X127508000Y-88900000D01*
X127508000Y-88900000D02*
X129032000Y-90424000D01*
X122682000Y-88900000D02*
X122428000Y-89154000D01*
X123444000Y-88900000D02*
X122682000Y-88900000D01*
X119888000Y-94996000D02*
X118484000Y-94996000D01*
X121412000Y-93472000D02*
X119888000Y-94996000D01*
X121412000Y-90170000D02*
X121412000Y-93472000D01*
X129540000Y-97536000D02*
X130717000Y-98713000D01*
X132124000Y-98713000D02*
X130717000Y-98713000D01*
X124924000Y-92863000D02*
X126391000Y-92863000D01*
X126391000Y-92863000D02*
X126746000Y-93218000D01*
X126238000Y-90263000D02*
X126238000Y-90678000D01*
X126238000Y-90678000D02*
X128270000Y-92710000D01*
X124924000Y-90263000D02*
X126238000Y-90263000D01*
X126238000Y-90263000D02*
X126331000Y-90263000D01*
X123190000Y-89662000D02*
X122936000Y-89662000D01*
X123575000Y-91563000D02*
X124924000Y-91563000D01*
X123444000Y-91694000D02*
X123575000Y-91563000D01*
X122174000Y-91694000D02*
X123444000Y-91694000D01*
X122174000Y-90424000D02*
X122174000Y-91694000D01*
X122936000Y-89662000D02*
X122174000Y-90424000D01*
X123190000Y-89662000D02*
X123190000Y-89916000D01*
X138430000Y-92202000D02*
X138430000Y-91567000D01*
X123209000Y-90913000D02*
X123190000Y-90932000D01*
X124924000Y-90913000D02*
X123209000Y-90913000D01*
X138430000Y-92202000D02*
X138430000Y-98806000D01*
X138430000Y-98806000D02*
X140716000Y-101092000D01*
X138430000Y-91567000D02*
X137033000Y-90170000D01*
X124924000Y-98713000D02*
X124924000Y-99612000D01*
X124924000Y-99612000D02*
X124714000Y-99822000D01*
D24*
G36*
X120874599Y-87346599D02*
X119827198Y-88394000D01*
X119180463Y-88394000D01*
X119148327Y-88361808D01*
X118804799Y-88219162D01*
X118432833Y-88218838D01*
X118089057Y-88360883D01*
X117825808Y-88623673D01*
X117683162Y-88967201D01*
X117682838Y-89339167D01*
X117824883Y-89682943D01*
X118087673Y-89946192D01*
X118431201Y-90088838D01*
X118803167Y-90089162D01*
X119146943Y-89947117D01*
X119180118Y-89914000D01*
X119382000Y-89914000D01*
X119382000Y-91194837D01*
X119300310Y-91161000D01*
X118409750Y-91161000D01*
X118251000Y-91319750D01*
X118251000Y-92406500D01*
X118271000Y-92406500D01*
X118271000Y-92660500D01*
X118251000Y-92660500D01*
X118251000Y-92680500D01*
X117997000Y-92680500D01*
X117997000Y-92660500D01*
X117977000Y-92660500D01*
X117977000Y-92406500D01*
X117997000Y-92406500D01*
X117997000Y-91319750D01*
X117838250Y-91161000D01*
X117409000Y-91161000D01*
X117409000Y-90772191D01*
X117312327Y-90538802D01*
X117133699Y-90360173D01*
X116900310Y-90263500D01*
X116109750Y-90263500D01*
X115951000Y-90422250D01*
X115951000Y-91959000D01*
X115971000Y-91959000D01*
X115971000Y-92213000D01*
X115951000Y-92213000D01*
X115951000Y-94029000D01*
X115971000Y-94029000D01*
X115971000Y-94283000D01*
X115951000Y-94283000D01*
X115951000Y-95709000D01*
X115971000Y-95709000D01*
X115971000Y-95963000D01*
X115951000Y-95963000D01*
X115951000Y-97779000D01*
X115971000Y-97779000D01*
X115971000Y-98033000D01*
X115951000Y-98033000D01*
X115951000Y-99569750D01*
X116109750Y-99728500D01*
X116900310Y-99728500D01*
X117133699Y-99631827D01*
X117312327Y-99453198D01*
X117409000Y-99219809D01*
X117409000Y-98831000D01*
X117838250Y-98831000D01*
X117997000Y-98672250D01*
X117997000Y-97585500D01*
X118251000Y-97585500D01*
X118251000Y-98672250D01*
X118409750Y-98831000D01*
X119300310Y-98831000D01*
X119533699Y-98734327D01*
X119712327Y-98555698D01*
X119809000Y-98322309D01*
X119809000Y-97744250D01*
X119650250Y-97585500D01*
X118251000Y-97585500D01*
X117997000Y-97585500D01*
X117977000Y-97585500D01*
X117977000Y-97331500D01*
X117997000Y-97331500D01*
X117997000Y-97311500D01*
X118251000Y-97311500D01*
X118251000Y-97331500D01*
X119650250Y-97331500D01*
X119809000Y-97172750D01*
X119809000Y-96567250D01*
X119789596Y-96547846D01*
X119712327Y-96361302D01*
X119650070Y-96299044D01*
X119770431Y-96122890D01*
X119785558Y-96048192D01*
X119809000Y-96024750D01*
X119809000Y-95944691D01*
X119807332Y-95940665D01*
X119821440Y-95871000D01*
X119821440Y-95756000D01*
X119888000Y-95756000D01*
X120178839Y-95698148D01*
X120425401Y-95533401D01*
X121949401Y-94009401D01*
X122114148Y-93762840D01*
X122127443Y-93696000D01*
X122172000Y-93472000D01*
X122172000Y-92453602D01*
X122174000Y-92454000D01*
X123404571Y-92454000D01*
X123421067Y-92541671D01*
X123401560Y-92638000D01*
X123401560Y-93088000D01*
X123421067Y-93191671D01*
X123401560Y-93288000D01*
X123401560Y-93738000D01*
X123414980Y-93809323D01*
X123414000Y-93811690D01*
X123414000Y-93891750D01*
X123434312Y-93912062D01*
X123445838Y-93973317D01*
X123569329Y-94165227D01*
X123452569Y-94336110D01*
X123437442Y-94410808D01*
X123414000Y-94434250D01*
X123414000Y-94514310D01*
X123415667Y-94518335D01*
X123401560Y-94588000D01*
X123401560Y-95038000D01*
X123421067Y-95141671D01*
X123401560Y-95238000D01*
X123401560Y-95688000D01*
X123421067Y-95791671D01*
X123401560Y-95888000D01*
X123401560Y-96338000D01*
X123421067Y-96441671D01*
X123401560Y-96538000D01*
X123401560Y-96988000D01*
X123421067Y-97091671D01*
X123401560Y-97188000D01*
X123401560Y-97638000D01*
X123421067Y-97741671D01*
X123401560Y-97838000D01*
X123401560Y-98288000D01*
X123421067Y-98391671D01*
X123401560Y-98488000D01*
X123401560Y-98938000D01*
X123445838Y-99173317D01*
X123584910Y-99389441D01*
X123797110Y-99534431D01*
X123819152Y-99538895D01*
X123779162Y-99635201D01*
X123778838Y-100007167D01*
X123874804Y-100239422D01*
X123802559Y-100285910D01*
X123657569Y-100498110D01*
X123606560Y-100750000D01*
X123606560Y-102450000D01*
X123650838Y-102685317D01*
X123789910Y-102901441D01*
X124002110Y-103046431D01*
X124254000Y-103097440D01*
X126254000Y-103097440D01*
X126489317Y-103053162D01*
X126705441Y-102914090D01*
X126850431Y-102701890D01*
X126901440Y-102450000D01*
X126901440Y-100750000D01*
X126900072Y-100742730D01*
X127314802Y-100328000D01*
X127773800Y-100328000D01*
X127657569Y-100498110D01*
X127606560Y-100750000D01*
X127606560Y-102450000D01*
X127650838Y-102685317D01*
X127789910Y-102901441D01*
X128002110Y-103046431D01*
X128254000Y-103097440D01*
X130254000Y-103097440D01*
X130489317Y-103053162D01*
X130554538Y-103011193D01*
X130606110Y-103046431D01*
X130858000Y-103097440D01*
X132858000Y-103097440D01*
X133093317Y-103053162D01*
X133309441Y-102914090D01*
X133454431Y-102701890D01*
X133505440Y-102450000D01*
X133505440Y-100988855D01*
X133634192Y-100860327D01*
X133776838Y-100516799D01*
X133777002Y-100328000D01*
X134377800Y-100328000D01*
X134261569Y-100498110D01*
X134210560Y-100750000D01*
X134210560Y-102450000D01*
X134254838Y-102685317D01*
X134393910Y-102901441D01*
X134606110Y-103046431D01*
X134858000Y-103097440D01*
X136858000Y-103097440D01*
X137093317Y-103053162D01*
X137309441Y-102914090D01*
X137454431Y-102701890D01*
X137505440Y-102450000D01*
X137505440Y-100750000D01*
X137461162Y-100514683D01*
X137322090Y-100298559D01*
X137109890Y-100153569D01*
X136858000Y-100102560D01*
X136430242Y-100102560D01*
X136458802Y-100074000D01*
X137414000Y-100074000D01*
X137704839Y-100016148D01*
X137951401Y-99851401D01*
X138176000Y-99626802D01*
X138926814Y-100377616D01*
X138867548Y-100466313D01*
X138743091Y-101092000D01*
X138867548Y-101717687D01*
X139221971Y-102248120D01*
X139752404Y-102602543D01*
X140378091Y-102727000D01*
X141053909Y-102727000D01*
X141679596Y-102602543D01*
X142210029Y-102248120D01*
X142564452Y-101717687D01*
X142688909Y-101092000D01*
X142564452Y-100466313D01*
X142210029Y-99935880D01*
X142039595Y-99822000D01*
X142210029Y-99708120D01*
X142564452Y-99177687D01*
X142688909Y-98552000D01*
X142564452Y-97926313D01*
X142210029Y-97395880D01*
X142039595Y-97282000D01*
X142210029Y-97168120D01*
X142564452Y-96637687D01*
X142688909Y-96012000D01*
X142564452Y-95386313D01*
X142210029Y-94855880D01*
X142039595Y-94742000D01*
X142210029Y-94628120D01*
X142564452Y-94097687D01*
X142688909Y-93472000D01*
X142564452Y-92846313D01*
X142210029Y-92315880D01*
X142039595Y-92202000D01*
X142210029Y-92088120D01*
X142564452Y-91557687D01*
X142688909Y-90932000D01*
X142564452Y-90306313D01*
X142326769Y-89950594D01*
X142375699Y-89930327D01*
X142554327Y-89751698D01*
X142651000Y-89518309D01*
X142651000Y-88677750D01*
X142492250Y-88519000D01*
X140843000Y-88519000D01*
X140843000Y-88539000D01*
X140589000Y-88539000D01*
X140589000Y-88519000D01*
X140569000Y-88519000D01*
X140569000Y-88265000D01*
X140589000Y-88265000D01*
X140589000Y-88245000D01*
X140843000Y-88245000D01*
X140843000Y-88265000D01*
X142492250Y-88265000D01*
X142651000Y-88106250D01*
X142651000Y-87265691D01*
X142622547Y-87197000D01*
X143562000Y-87197000D01*
X143562000Y-103157000D01*
X113740000Y-103157000D01*
X113740000Y-98191750D01*
X114239000Y-98191750D01*
X114239000Y-99219809D01*
X114335673Y-99453198D01*
X114514301Y-99631827D01*
X114747690Y-99728500D01*
X115538250Y-99728500D01*
X115697000Y-99569750D01*
X115697000Y-98033000D01*
X114397750Y-98033000D01*
X114239000Y-98191750D01*
X113740000Y-98191750D01*
X113740000Y-96121750D01*
X114239000Y-96121750D01*
X114239000Y-96549809D01*
X114247778Y-96571000D01*
X114239000Y-96592191D01*
X114239000Y-97620250D01*
X114397750Y-97779000D01*
X115697000Y-97779000D01*
X115697000Y-95963000D01*
X114397750Y-95963000D01*
X114239000Y-96121750D01*
X113740000Y-96121750D01*
X113740000Y-94441750D01*
X114239000Y-94441750D01*
X114239000Y-94869809D01*
X114291270Y-94996000D01*
X114239000Y-95122191D01*
X114239000Y-95550250D01*
X114397750Y-95709000D01*
X115697000Y-95709000D01*
X115697000Y-94283000D01*
X114397750Y-94283000D01*
X114239000Y-94441750D01*
X113740000Y-94441750D01*
X113740000Y-92371750D01*
X114239000Y-92371750D01*
X114239000Y-93399809D01*
X114247778Y-93421000D01*
X114239000Y-93442191D01*
X114239000Y-93870250D01*
X114397750Y-94029000D01*
X115697000Y-94029000D01*
X115697000Y-92213000D01*
X114397750Y-92213000D01*
X114239000Y-92371750D01*
X113740000Y-92371750D01*
X113740000Y-90772191D01*
X114239000Y-90772191D01*
X114239000Y-91800250D01*
X114397750Y-91959000D01*
X115697000Y-91959000D01*
X115697000Y-90422250D01*
X115538250Y-90263500D01*
X114747690Y-90263500D01*
X114514301Y-90360173D01*
X114335673Y-90538802D01*
X114239000Y-90772191D01*
X113740000Y-90772191D01*
X113740000Y-87197000D01*
X121098489Y-87197000D01*
X120874599Y-87346599D01*
X120874599Y-87346599D01*
G37*
X120874599Y-87346599D02*
X119827198Y-88394000D01*
X119180463Y-88394000D01*
X119148327Y-88361808D01*
X118804799Y-88219162D01*
X118432833Y-88218838D01*
X118089057Y-88360883D01*
X117825808Y-88623673D01*
X117683162Y-88967201D01*
X117682838Y-89339167D01*
X117824883Y-89682943D01*
X118087673Y-89946192D01*
X118431201Y-90088838D01*
X118803167Y-90089162D01*
X119146943Y-89947117D01*
X119180118Y-89914000D01*
X119382000Y-89914000D01*
X119382000Y-91194837D01*
X119300310Y-91161000D01*
X118409750Y-91161000D01*
X118251000Y-91319750D01*
X118251000Y-92406500D01*
X118271000Y-92406500D01*
X118271000Y-92660500D01*
X118251000Y-92660500D01*
X118251000Y-92680500D01*
X117997000Y-92680500D01*
X117997000Y-92660500D01*
X117977000Y-92660500D01*
X117977000Y-92406500D01*
X117997000Y-92406500D01*
X117997000Y-91319750D01*
X117838250Y-91161000D01*
X117409000Y-91161000D01*
X117409000Y-90772191D01*
X117312327Y-90538802D01*
X117133699Y-90360173D01*
X116900310Y-90263500D01*
X116109750Y-90263500D01*
X115951000Y-90422250D01*
X115951000Y-91959000D01*
X115971000Y-91959000D01*
X115971000Y-92213000D01*
X115951000Y-92213000D01*
X115951000Y-94029000D01*
X115971000Y-94029000D01*
X115971000Y-94283000D01*
X115951000Y-94283000D01*
X115951000Y-95709000D01*
X115971000Y-95709000D01*
X115971000Y-95963000D01*
X115951000Y-95963000D01*
X115951000Y-97779000D01*
X115971000Y-97779000D01*
X115971000Y-98033000D01*
X115951000Y-98033000D01*
X115951000Y-99569750D01*
X116109750Y-99728500D01*
X116900310Y-99728500D01*
X117133699Y-99631827D01*
X117312327Y-99453198D01*
X117409000Y-99219809D01*
X117409000Y-98831000D01*
X117838250Y-98831000D01*
X117997000Y-98672250D01*
X117997000Y-97585500D01*
X118251000Y-97585500D01*
X118251000Y-98672250D01*
X118409750Y-98831000D01*
X119300310Y-98831000D01*
X119533699Y-98734327D01*
X119712327Y-98555698D01*
X119809000Y-98322309D01*
X119809000Y-97744250D01*
X119650250Y-97585500D01*
X118251000Y-97585500D01*
X117997000Y-97585500D01*
X117977000Y-97585500D01*
X117977000Y-97331500D01*
X117997000Y-97331500D01*
X117997000Y-97311500D01*
X118251000Y-97311500D01*
X118251000Y-97331500D01*
X119650250Y-97331500D01*
X119809000Y-97172750D01*
X119809000Y-96567250D01*
X119789596Y-96547846D01*
X119712327Y-96361302D01*
X119650070Y-96299044D01*
X119770431Y-96122890D01*
X119785558Y-96048192D01*
X119809000Y-96024750D01*
X119809000Y-95944691D01*
X119807332Y-95940665D01*
X119821440Y-95871000D01*
X119821440Y-95756000D01*
X119888000Y-95756000D01*
X120178839Y-95698148D01*
X120425401Y-95533401D01*
X121949401Y-94009401D01*
X122114148Y-93762840D01*
X122127443Y-93696000D01*
X122172000Y-93472000D01*
X122172000Y-92453602D01*
X122174000Y-92454000D01*
X123404571Y-92454000D01*
X123421067Y-92541671D01*
X123401560Y-92638000D01*
X123401560Y-93088000D01*
X123421067Y-93191671D01*
X123401560Y-93288000D01*
X123401560Y-93738000D01*
X123414980Y-93809323D01*
X123414000Y-93811690D01*
X123414000Y-93891750D01*
X123434312Y-93912062D01*
X123445838Y-93973317D01*
X123569329Y-94165227D01*
X123452569Y-94336110D01*
X123437442Y-94410808D01*
X123414000Y-94434250D01*
X123414000Y-94514310D01*
X123415667Y-94518335D01*
X123401560Y-94588000D01*
X123401560Y-95038000D01*
X123421067Y-95141671D01*
X123401560Y-95238000D01*
X123401560Y-95688000D01*
X123421067Y-95791671D01*
X123401560Y-95888000D01*
X123401560Y-96338000D01*
X123421067Y-96441671D01*
X123401560Y-96538000D01*
X123401560Y-96988000D01*
X123421067Y-97091671D01*
X123401560Y-97188000D01*
X123401560Y-97638000D01*
X123421067Y-97741671D01*
X123401560Y-97838000D01*
X123401560Y-98288000D01*
X123421067Y-98391671D01*
X123401560Y-98488000D01*
X123401560Y-98938000D01*
X123445838Y-99173317D01*
X123584910Y-99389441D01*
X123797110Y-99534431D01*
X123819152Y-99538895D01*
X123779162Y-99635201D01*
X123778838Y-100007167D01*
X123874804Y-100239422D01*
X123802559Y-100285910D01*
X123657569Y-100498110D01*
X123606560Y-100750000D01*
X123606560Y-102450000D01*
X123650838Y-102685317D01*
X123789910Y-102901441D01*
X124002110Y-103046431D01*
X124254000Y-103097440D01*
X126254000Y-103097440D01*
X126489317Y-103053162D01*
X126705441Y-102914090D01*
X126850431Y-102701890D01*
X126901440Y-102450000D01*
X126901440Y-100750000D01*
X126900072Y-100742730D01*
X127314802Y-100328000D01*
X127773800Y-100328000D01*
X127657569Y-100498110D01*
X127606560Y-100750000D01*
X127606560Y-102450000D01*
X127650838Y-102685317D01*
X127789910Y-102901441D01*
X128002110Y-103046431D01*
X128254000Y-103097440D01*
X130254000Y-103097440D01*
X130489317Y-103053162D01*
X130554538Y-103011193D01*
X130606110Y-103046431D01*
X130858000Y-103097440D01*
X132858000Y-103097440D01*
X133093317Y-103053162D01*
X133309441Y-102914090D01*
X133454431Y-102701890D01*
X133505440Y-102450000D01*
X133505440Y-100988855D01*
X133634192Y-100860327D01*
X133776838Y-100516799D01*
X133777002Y-100328000D01*
X134377800Y-100328000D01*
X134261569Y-100498110D01*
X134210560Y-100750000D01*
X134210560Y-102450000D01*
X134254838Y-102685317D01*
X134393910Y-102901441D01*
X134606110Y-103046431D01*
X134858000Y-103097440D01*
X136858000Y-103097440D01*
X137093317Y-103053162D01*
X137309441Y-102914090D01*
X137454431Y-102701890D01*
X137505440Y-102450000D01*
X137505440Y-100750000D01*
X137461162Y-100514683D01*
X137322090Y-100298559D01*
X137109890Y-100153569D01*
X136858000Y-100102560D01*
X136430242Y-100102560D01*
X136458802Y-100074000D01*
X137414000Y-100074000D01*
X137704839Y-100016148D01*
X137951401Y-99851401D01*
X138176000Y-99626802D01*
X138926814Y-100377616D01*
X138867548Y-100466313D01*
X138743091Y-101092000D01*
X138867548Y-101717687D01*
X139221971Y-102248120D01*
X139752404Y-102602543D01*
X140378091Y-102727000D01*
X141053909Y-102727000D01*
X141679596Y-102602543D01*
X142210029Y-102248120D01*
X142564452Y-101717687D01*
X142688909Y-101092000D01*
X142564452Y-100466313D01*
X142210029Y-99935880D01*
X142039595Y-99822000D01*
X142210029Y-99708120D01*
X142564452Y-99177687D01*
X142688909Y-98552000D01*
X142564452Y-97926313D01*
X142210029Y-97395880D01*
X142039595Y-97282000D01*
X142210029Y-97168120D01*
X142564452Y-96637687D01*
X142688909Y-96012000D01*
X142564452Y-95386313D01*
X142210029Y-94855880D01*
X142039595Y-94742000D01*
X142210029Y-94628120D01*
X142564452Y-94097687D01*
X142688909Y-93472000D01*
X142564452Y-92846313D01*
X142210029Y-92315880D01*
X142039595Y-92202000D01*
X142210029Y-92088120D01*
X142564452Y-91557687D01*
X142688909Y-90932000D01*
X142564452Y-90306313D01*
X142326769Y-89950594D01*
X142375699Y-89930327D01*
X142554327Y-89751698D01*
X142651000Y-89518309D01*
X142651000Y-88677750D01*
X142492250Y-88519000D01*
X140843000Y-88519000D01*
X140843000Y-88539000D01*
X140589000Y-88539000D01*
X140589000Y-88519000D01*
X140569000Y-88519000D01*
X140569000Y-88265000D01*
X140589000Y-88265000D01*
X140589000Y-88245000D01*
X140843000Y-88245000D01*
X140843000Y-88265000D01*
X142492250Y-88265000D01*
X142651000Y-88106250D01*
X142651000Y-87265691D01*
X142622547Y-87197000D01*
X143562000Y-87197000D01*
X143562000Y-103157000D01*
X113740000Y-103157000D01*
X113740000Y-98191750D01*
X114239000Y-98191750D01*
X114239000Y-99219809D01*
X114335673Y-99453198D01*
X114514301Y-99631827D01*
X114747690Y-99728500D01*
X115538250Y-99728500D01*
X115697000Y-99569750D01*
X115697000Y-98033000D01*
X114397750Y-98033000D01*
X114239000Y-98191750D01*
X113740000Y-98191750D01*
X113740000Y-96121750D01*
X114239000Y-96121750D01*
X114239000Y-96549809D01*
X114247778Y-96571000D01*
X114239000Y-96592191D01*
X114239000Y-97620250D01*
X114397750Y-97779000D01*
X115697000Y-97779000D01*
X115697000Y-95963000D01*
X114397750Y-95963000D01*
X114239000Y-96121750D01*
X113740000Y-96121750D01*
X113740000Y-94441750D01*
X114239000Y-94441750D01*
X114239000Y-94869809D01*
X114291270Y-94996000D01*
X114239000Y-95122191D01*
X114239000Y-95550250D01*
X114397750Y-95709000D01*
X115697000Y-95709000D01*
X115697000Y-94283000D01*
X114397750Y-94283000D01*
X114239000Y-94441750D01*
X113740000Y-94441750D01*
X113740000Y-92371750D01*
X114239000Y-92371750D01*
X114239000Y-93399809D01*
X114247778Y-93421000D01*
X114239000Y-93442191D01*
X114239000Y-93870250D01*
X114397750Y-94029000D01*
X115697000Y-94029000D01*
X115697000Y-92213000D01*
X114397750Y-92213000D01*
X114239000Y-92371750D01*
X113740000Y-92371750D01*
X113740000Y-90772191D01*
X114239000Y-90772191D01*
X114239000Y-91800250D01*
X114397750Y-91959000D01*
X115697000Y-91959000D01*
X115697000Y-90422250D01*
X115538250Y-90263500D01*
X114747690Y-90263500D01*
X114514301Y-90360173D01*
X114335673Y-90538802D01*
X114239000Y-90772191D01*
X113740000Y-90772191D01*
X113740000Y-87197000D01*
X121098489Y-87197000D01*
X120874599Y-87346599D01*
G36*
X126559201Y-94152838D02*
X126748000Y-94153002D01*
X126748000Y-94996000D01*
X126805852Y-95286839D01*
X126826940Y-95318399D01*
X126826838Y-95435167D01*
X126968883Y-95778943D01*
X127231673Y-96042192D01*
X127575201Y-96184838D01*
X127947167Y-96185162D01*
X128272000Y-96050944D01*
X128272000Y-97028000D01*
X128329852Y-97318839D01*
X128494599Y-97565401D01*
X129737198Y-98808000D01*
X127000000Y-98808000D01*
X126709161Y-98865852D01*
X126462599Y-99030599D01*
X126418823Y-99074375D01*
X126446440Y-98938000D01*
X126446440Y-98488000D01*
X126426933Y-98384329D01*
X126446440Y-98288000D01*
X126446440Y-97838000D01*
X126426933Y-97734329D01*
X126446440Y-97638000D01*
X126446440Y-97188000D01*
X126426933Y-97084329D01*
X126446440Y-96988000D01*
X126446440Y-96538000D01*
X126426933Y-96434329D01*
X126446440Y-96338000D01*
X126446440Y-95888000D01*
X126426933Y-95784329D01*
X126446440Y-95688000D01*
X126446440Y-95238000D01*
X126426933Y-95134329D01*
X126446440Y-95038000D01*
X126446440Y-94588000D01*
X126433020Y-94516677D01*
X126434000Y-94514310D01*
X126434000Y-94434250D01*
X126413688Y-94413938D01*
X126402162Y-94352683D01*
X126278671Y-94160773D01*
X126344896Y-94063850D01*
X126559201Y-94152838D01*
X126559201Y-94152838D01*
G37*
X126559201Y-94152838D02*
X126748000Y-94153002D01*
X126748000Y-94996000D01*
X126805852Y-95286839D01*
X126826940Y-95318399D01*
X126826838Y-95435167D01*
X126968883Y-95778943D01*
X127231673Y-96042192D01*
X127575201Y-96184838D01*
X127947167Y-96185162D01*
X128272000Y-96050944D01*
X128272000Y-97028000D01*
X128329852Y-97318839D01*
X128494599Y-97565401D01*
X129737198Y-98808000D01*
X127000000Y-98808000D01*
X126709161Y-98865852D01*
X126462599Y-99030599D01*
X126418823Y-99074375D01*
X126446440Y-98938000D01*
X126446440Y-98488000D01*
X126426933Y-98384329D01*
X126446440Y-98288000D01*
X126446440Y-97838000D01*
X126426933Y-97734329D01*
X126446440Y-97638000D01*
X126446440Y-97188000D01*
X126426933Y-97084329D01*
X126446440Y-96988000D01*
X126446440Y-96538000D01*
X126426933Y-96434329D01*
X126446440Y-96338000D01*
X126446440Y-95888000D01*
X126426933Y-95784329D01*
X126446440Y-95688000D01*
X126446440Y-95238000D01*
X126426933Y-95134329D01*
X126446440Y-95038000D01*
X126446440Y-94588000D01*
X126433020Y-94516677D01*
X126434000Y-94514310D01*
X126434000Y-94434250D01*
X126413688Y-94413938D01*
X126402162Y-94352683D01*
X126278671Y-94160773D01*
X126344896Y-94063850D01*
X126559201Y-94152838D01*
G36*
X135392000Y-95638309D02*
X135488673Y-95871698D01*
X135629910Y-96012936D01*
X135575559Y-96047910D01*
X135430569Y-96260110D01*
X135379560Y-96512000D01*
X135379560Y-96776000D01*
X134885340Y-96776000D01*
X134787839Y-96710852D01*
X134599177Y-96673325D01*
X134894943Y-96551117D01*
X135158192Y-96288327D01*
X135300838Y-95944799D01*
X135301100Y-95643702D01*
X135392000Y-95552802D01*
X135392000Y-95638309D01*
X135392000Y-95638309D01*
G37*
X135392000Y-95638309D02*
X135488673Y-95871698D01*
X135629910Y-96012936D01*
X135575559Y-96047910D01*
X135430569Y-96260110D01*
X135379560Y-96512000D01*
X135379560Y-96776000D01*
X134885340Y-96776000D01*
X134787839Y-96710852D01*
X134599177Y-96673325D01*
X134894943Y-96551117D01*
X135158192Y-96288327D01*
X135300838Y-95944799D01*
X135301100Y-95643702D01*
X135392000Y-95552802D01*
X135392000Y-95638309D01*
G36*
X138781000Y-87265691D02*
X138781000Y-87653683D01*
X138652000Y-87627560D01*
X137152000Y-87627560D01*
X136916683Y-87671838D01*
X136700559Y-87810910D01*
X136654031Y-87879006D01*
X136511698Y-87736673D01*
X136278309Y-87640000D01*
X135687750Y-87640000D01*
X135529000Y-87798750D01*
X135529000Y-88773000D01*
X135549000Y-88773000D01*
X135549000Y-89027000D01*
X135529000Y-89027000D01*
X135529000Y-90001250D01*
X135687750Y-90160000D01*
X136098008Y-90160000D01*
X136097838Y-90355167D01*
X136239883Y-90698943D01*
X136502673Y-90962192D01*
X136846201Y-91104838D01*
X136893077Y-91104879D01*
X137670000Y-91881802D01*
X137670000Y-92204398D01*
X137668000Y-92204000D01*
X137377161Y-92261852D01*
X137130599Y-92426599D01*
X137117100Y-92446802D01*
X136875808Y-92687673D01*
X136733162Y-93031201D01*
X136732838Y-93403167D01*
X136785100Y-93529650D01*
X136779000Y-93535750D01*
X136779000Y-94635000D01*
X136799000Y-94635000D01*
X136799000Y-94889000D01*
X136779000Y-94889000D01*
X136779000Y-94909000D01*
X136525000Y-94909000D01*
X136525000Y-94889000D01*
X136505000Y-94889000D01*
X136505000Y-94635000D01*
X136525000Y-94635000D01*
X136525000Y-93535750D01*
X136366250Y-93377000D01*
X136101189Y-93377000D01*
X135912327Y-93187808D01*
X135568799Y-93045162D01*
X135521923Y-93045121D01*
X135301122Y-92824320D01*
X135301162Y-92778833D01*
X135159117Y-92435057D01*
X134896327Y-92171808D01*
X134552799Y-92029162D01*
X134180833Y-92028838D01*
X133837057Y-92170883D01*
X133602587Y-92404944D01*
X133602162Y-92402683D01*
X133476941Y-92208084D01*
X133537327Y-92147699D01*
X133614597Y-91961153D01*
X133634000Y-91941750D01*
X133634000Y-91925655D01*
X133798201Y-91993838D01*
X134170167Y-91994162D01*
X134513943Y-91852117D01*
X134777192Y-91589327D01*
X134919838Y-91245799D01*
X134920162Y-90873833D01*
X134778117Y-90530057D01*
X134745000Y-90496882D01*
X134745000Y-90160000D01*
X135116250Y-90160000D01*
X135275000Y-90001250D01*
X135275000Y-89027000D01*
X135255000Y-89027000D01*
X135255000Y-88773000D01*
X135275000Y-88773000D01*
X135275000Y-87798750D01*
X135116250Y-87640000D01*
X134525691Y-87640000D01*
X134292302Y-87736673D01*
X134113673Y-87915301D01*
X134017000Y-88148690D01*
X134017000Y-88614250D01*
X134175748Y-88772998D01*
X134170800Y-88772998D01*
X133760401Y-88362599D01*
X133513839Y-88197852D01*
X133223000Y-88140000D01*
X132509005Y-88140000D01*
X132393799Y-88092162D01*
X132021833Y-88091838D01*
X131860965Y-88158307D01*
X131662161Y-88197852D01*
X131415599Y-88362599D01*
X131250852Y-88609161D01*
X131193000Y-88900000D01*
X131250852Y-89190839D01*
X131282752Y-89238581D01*
X131345548Y-89390560D01*
X131249000Y-89390560D01*
X131117878Y-89415232D01*
X131093401Y-89378599D01*
X129061401Y-87346599D01*
X128837510Y-87197000D01*
X138809453Y-87197000D01*
X138781000Y-87265691D01*
X138781000Y-87265691D01*
G37*
X138781000Y-87265691D02*
X138781000Y-87653683D01*
X138652000Y-87627560D01*
X137152000Y-87627560D01*
X136916683Y-87671838D01*
X136700559Y-87810910D01*
X136654031Y-87879006D01*
X136511698Y-87736673D01*
X136278309Y-87640000D01*
X135687750Y-87640000D01*
X135529000Y-87798750D01*
X135529000Y-88773000D01*
X135549000Y-88773000D01*
X135549000Y-89027000D01*
X135529000Y-89027000D01*
X135529000Y-90001250D01*
X135687750Y-90160000D01*
X136098008Y-90160000D01*
X136097838Y-90355167D01*
X136239883Y-90698943D01*
X136502673Y-90962192D01*
X136846201Y-91104838D01*
X136893077Y-91104879D01*
X137670000Y-91881802D01*
X137670000Y-92204398D01*
X137668000Y-92204000D01*
X137377161Y-92261852D01*
X137130599Y-92426599D01*
X137117100Y-92446802D01*
X136875808Y-92687673D01*
X136733162Y-93031201D01*
X136732838Y-93403167D01*
X136785100Y-93529650D01*
X136779000Y-93535750D01*
X136779000Y-94635000D01*
X136799000Y-94635000D01*
X136799000Y-94889000D01*
X136779000Y-94889000D01*
X136779000Y-94909000D01*
X136525000Y-94909000D01*
X136525000Y-94889000D01*
X136505000Y-94889000D01*
X136505000Y-94635000D01*
X136525000Y-94635000D01*
X136525000Y-93535750D01*
X136366250Y-93377000D01*
X136101189Y-93377000D01*
X135912327Y-93187808D01*
X135568799Y-93045162D01*
X135521923Y-93045121D01*
X135301122Y-92824320D01*
X135301162Y-92778833D01*
X135159117Y-92435057D01*
X134896327Y-92171808D01*
X134552799Y-92029162D01*
X134180833Y-92028838D01*
X133837057Y-92170883D01*
X133602587Y-92404944D01*
X133602162Y-92402683D01*
X133476941Y-92208084D01*
X133537327Y-92147699D01*
X133614597Y-91961153D01*
X133634000Y-91941750D01*
X133634000Y-91925655D01*
X133798201Y-91993838D01*
X134170167Y-91994162D01*
X134513943Y-91852117D01*
X134777192Y-91589327D01*
X134919838Y-91245799D01*
X134920162Y-90873833D01*
X134778117Y-90530057D01*
X134745000Y-90496882D01*
X134745000Y-90160000D01*
X135116250Y-90160000D01*
X135275000Y-90001250D01*
X135275000Y-89027000D01*
X135255000Y-89027000D01*
X135255000Y-88773000D01*
X135275000Y-88773000D01*
X135275000Y-87798750D01*
X135116250Y-87640000D01*
X134525691Y-87640000D01*
X134292302Y-87736673D01*
X134113673Y-87915301D01*
X134017000Y-88148690D01*
X134017000Y-88614250D01*
X134175748Y-88772998D01*
X134170800Y-88772998D01*
X133760401Y-88362599D01*
X133513839Y-88197852D01*
X133223000Y-88140000D01*
X132509005Y-88140000D01*
X132393799Y-88092162D01*
X132021833Y-88091838D01*
X131860965Y-88158307D01*
X131662161Y-88197852D01*
X131415599Y-88362599D01*
X131250852Y-88609161D01*
X131193000Y-88900000D01*
X131250852Y-89190839D01*
X131282752Y-89238581D01*
X131345548Y-89390560D01*
X131249000Y-89390560D01*
X131117878Y-89415232D01*
X131093401Y-89378599D01*
X129061401Y-87346599D01*
X128837510Y-87197000D01*
X138809453Y-87197000D01*
X138781000Y-87265691D01*
M02*
