M48
;DRILL file {KiCad 4.0.6} date 10/22/17 19:33:51
;FORMAT={3:3/ absolute / metric / suppress leading zeros}
FMAT,2
METRIC,TZ
T1C0.400
T2C1.200
%
G90
G05
M71
T1
X118618Y-89154
X119380Y-100076
X123190Y-89662
X123190Y-90932
X124714Y-99822
X126492Y-97409
X126746Y-93218
X127762Y-95250
X128270Y-92710
X129032Y-100330
X129667Y-87249
X130302Y-96266
X130556Y-90297
X132207Y-89027
X132842Y-100330
X133985Y-91059
X134112Y-94742
X134366Y-92964
X134366Y-95758
X135382Y-93980
X135382Y-100330
X137033Y-90170
X137668Y-93218
X138176Y-100330
T2
X140716Y-88392
X140716Y-90932
X140716Y-93472
X140716Y-96012
X140716Y-98552
X140716Y-101092
T0
M30
