G04 #@! TF.FileFunction,Legend,Bot*
%FSLAX46Y46*%
G04 Gerber Fmt 4.6, Leading zero omitted, Abs format (unit mm)*
G04 Created by KiCad (PCBNEW 4.0.6) date 01/04/18 03:56:18*
%MOMM*%
%LPD*%
G01*
G04 APERTURE LIST*
%ADD10C,0.100000*%
%ADD11C,0.500000*%
%ADD12C,0.150000*%
%ADD13C,0.120000*%
G04 APERTURE END LIST*
D10*
D11*
X180111981Y-132080000D02*
G75*
G03X180111981Y-132080000I-283981J0D01*
G01*
D12*
X198734000Y-132226000D02*
X180734000Y-132226000D01*
X180734000Y-138226000D02*
X180734000Y-106726000D01*
X198734000Y-138226000D02*
X198734000Y-106726000D01*
X198734000Y-106726000D02*
X180734000Y-106726000D01*
X198734000Y-138226000D02*
X180734000Y-138226000D01*
D13*
X214442800Y-138088000D02*
X209942800Y-138088000D01*
X215692800Y-134088000D02*
X215692800Y-135588000D01*
X209942800Y-131588000D02*
X214442800Y-131588000D01*
X208692800Y-135588000D02*
X208692800Y-134088000D01*
X210149500Y-106389500D02*
X216149500Y-106389500D01*
X216149500Y-106389500D02*
X216149500Y-111669500D01*
X216149500Y-111669500D02*
X210149500Y-111669500D01*
X210149500Y-111669500D02*
X210149500Y-106389500D01*
X216149500Y-107759500D02*
X215149500Y-107759500D01*
X215149500Y-107759500D02*
X215149500Y-110299500D01*
X215149500Y-110299500D02*
X216149500Y-110299500D01*
X215149500Y-107759500D02*
X214719500Y-108009500D01*
X214719500Y-108009500D02*
X214719500Y-110049500D01*
X214719500Y-110049500D02*
X215149500Y-110299500D01*
X216149500Y-108009500D02*
X215149500Y-108009500D01*
X216149500Y-110049500D02*
X215149500Y-110049500D01*
X210149500Y-106959500D02*
X210769500Y-106959500D01*
X210769500Y-106959500D02*
X210769500Y-108559500D01*
X210769500Y-108559500D02*
X210149500Y-108559500D01*
X210149500Y-109499500D02*
X210769500Y-109499500D01*
X210769500Y-109499500D02*
X210769500Y-111099500D01*
X210769500Y-111099500D02*
X210149500Y-111099500D01*
X177267500Y-130865500D02*
X177267500Y-129865500D01*
X178967500Y-129865500D02*
X178967500Y-130865500D01*
X171632500Y-113308500D02*
X170632500Y-113308500D01*
X170632500Y-111608500D02*
X171632500Y-111608500D01*
X168087000Y-93928000D02*
X169987000Y-93928000D01*
X169987000Y-93928000D02*
X169987000Y-98628000D01*
X168087000Y-93928000D02*
X168087000Y-98628000D01*
X171601500Y-95901000D02*
X171601500Y-91401000D01*
X175601500Y-97151000D02*
X174101500Y-97151000D01*
X178101500Y-91401000D02*
X178101500Y-95901000D01*
X174101500Y-90151000D02*
X175601500Y-90151000D01*
X169503600Y-131558400D02*
X174003600Y-131558400D01*
X168253600Y-135558400D02*
X168253600Y-134058400D01*
X174003600Y-138058400D02*
X169503600Y-138058400D01*
X175253600Y-134058400D02*
X175253600Y-135558400D01*
D12*
X170647000Y-105860000D02*
X175047000Y-105860000D01*
X169072000Y-111385000D02*
X175047000Y-111385000D01*
D13*
X187591000Y-88949000D02*
X181661000Y-88949000D01*
X181661000Y-88949000D02*
X181661000Y-105869000D01*
X181661000Y-105869000D02*
X187591000Y-105869000D01*
X187591000Y-105869000D02*
X187591000Y-92329000D01*
X186436000Y-90424000D02*
X186436000Y-91694000D01*
X186436000Y-91694000D02*
X182816000Y-91694000D01*
X182816000Y-91694000D02*
X182816000Y-90424000D01*
X182816000Y-90424000D02*
X186436000Y-90424000D01*
X184626000Y-90424000D02*
X184626000Y-91694000D01*
X186436000Y-92964000D02*
X186436000Y-94234000D01*
X186436000Y-94234000D02*
X182816000Y-94234000D01*
X182816000Y-94234000D02*
X182816000Y-92964000D01*
X182816000Y-92964000D02*
X186436000Y-92964000D01*
X184626000Y-92964000D02*
X184626000Y-94234000D01*
X186436000Y-95504000D02*
X186436000Y-96774000D01*
X186436000Y-96774000D02*
X182816000Y-96774000D01*
X182816000Y-96774000D02*
X182816000Y-95504000D01*
X182816000Y-95504000D02*
X186436000Y-95504000D01*
X184626000Y-95504000D02*
X184626000Y-96774000D01*
X186436000Y-98044000D02*
X186436000Y-99314000D01*
X186436000Y-99314000D02*
X182816000Y-99314000D01*
X182816000Y-99314000D02*
X182816000Y-98044000D01*
X182816000Y-98044000D02*
X186436000Y-98044000D01*
X184626000Y-98044000D02*
X184626000Y-99314000D01*
X186436000Y-100584000D02*
X186436000Y-101854000D01*
X186436000Y-101854000D02*
X182816000Y-101854000D01*
X182816000Y-101854000D02*
X182816000Y-100584000D01*
X182816000Y-100584000D02*
X186436000Y-100584000D01*
X184626000Y-100584000D02*
X184626000Y-101854000D01*
X186436000Y-103124000D02*
X186436000Y-104394000D01*
X186436000Y-104394000D02*
X182816000Y-104394000D01*
X182816000Y-104394000D02*
X182816000Y-103124000D01*
X182816000Y-103124000D02*
X186436000Y-103124000D01*
X184626000Y-103124000D02*
X184626000Y-104394000D01*
X213655600Y-119878800D02*
X216315600Y-119878800D01*
X213655600Y-127558800D02*
X213655600Y-119878800D01*
X216315600Y-127558800D02*
X216315600Y-119878800D01*
X213655600Y-127558800D02*
X216315600Y-127558800D01*
X213655600Y-128828800D02*
X213655600Y-130158800D01*
X213655600Y-130158800D02*
X214985600Y-130158800D01*
X173648000Y-129278000D02*
X173648000Y-128278000D01*
X175348000Y-128278000D02*
X175348000Y-129278000D01*
X205355000Y-129524000D02*
X205355000Y-127524000D01*
X207395000Y-127524000D02*
X207395000Y-129524000D01*
D12*
X216617000Y-105655000D02*
X190627000Y-105655000D01*
X216627000Y-88655000D02*
X190627000Y-88655000D01*
X217097000Y-100515000D02*
X217097000Y-93965000D01*
X217083000Y-100543000D02*
X216575000Y-100543000D01*
X216575000Y-100543000D02*
X216321000Y-100035000D01*
X216321000Y-100035000D02*
X216067000Y-100035000D01*
X217083000Y-93939000D02*
X216575000Y-93939000D01*
X216575000Y-93939000D02*
X216321000Y-94447000D01*
X216321000Y-94447000D02*
X211495000Y-94447000D01*
X211495000Y-94447000D02*
X211495000Y-100035000D01*
X211495000Y-100035000D02*
X216067000Y-100035000D01*
X216623000Y-105655000D02*
X216623000Y-88655000D01*
X190621000Y-88655000D02*
X190621000Y-105655000D01*
X196436905Y-130008381D02*
X196436905Y-130817905D01*
X196389286Y-130913143D01*
X196341667Y-130960762D01*
X196246429Y-131008381D01*
X196055952Y-131008381D01*
X195960714Y-130960762D01*
X195913095Y-130913143D01*
X195865476Y-130817905D01*
X195865476Y-130008381D01*
X195436905Y-130103619D02*
X195389286Y-130056000D01*
X195294048Y-130008381D01*
X195055952Y-130008381D01*
X194960714Y-130056000D01*
X194913095Y-130103619D01*
X194865476Y-130198857D01*
X194865476Y-130294095D01*
X194913095Y-130436952D01*
X195484524Y-131008381D01*
X194865476Y-131008381D01*
X196520571Y-118015570D02*
X196520571Y-118348904D01*
X197044381Y-118491761D02*
X197044381Y-118015570D01*
X196044381Y-118015570D01*
X196044381Y-118491761D01*
X196996762Y-118872713D02*
X197044381Y-118967951D01*
X197044381Y-119158427D01*
X196996762Y-119253666D01*
X196901524Y-119301285D01*
X196853905Y-119301285D01*
X196758667Y-119253666D01*
X196711048Y-119158427D01*
X196711048Y-119015570D01*
X196663429Y-118920332D01*
X196568190Y-118872713D01*
X196520571Y-118872713D01*
X196425333Y-118920332D01*
X196377714Y-119015570D01*
X196377714Y-119158427D01*
X196425333Y-119253666D01*
X196377714Y-119729856D02*
X197377714Y-119729856D01*
X196425333Y-119729856D02*
X196377714Y-119825094D01*
X196377714Y-120015571D01*
X196425333Y-120110809D01*
X196472952Y-120158428D01*
X196568190Y-120206047D01*
X196853905Y-120206047D01*
X196949143Y-120158428D01*
X196996762Y-120110809D01*
X197044381Y-120015571D01*
X197044381Y-119825094D01*
X196996762Y-119729856D01*
X197044381Y-120634618D02*
X196377714Y-120634618D01*
X196568190Y-120634618D02*
X196472952Y-120682237D01*
X196425333Y-120729856D01*
X196377714Y-120825094D01*
X196377714Y-120920333D01*
X196996762Y-121634619D02*
X197044381Y-121539381D01*
X197044381Y-121348904D01*
X196996762Y-121253666D01*
X196901524Y-121206047D01*
X196520571Y-121206047D01*
X196425333Y-121253666D01*
X196377714Y-121348904D01*
X196377714Y-121539381D01*
X196425333Y-121634619D01*
X196520571Y-121682238D01*
X196615810Y-121682238D01*
X196711048Y-121206047D01*
X196996762Y-122063190D02*
X197044381Y-122158428D01*
X197044381Y-122348904D01*
X196996762Y-122444143D01*
X196901524Y-122491762D01*
X196853905Y-122491762D01*
X196758667Y-122444143D01*
X196711048Y-122348904D01*
X196711048Y-122206047D01*
X196663429Y-122110809D01*
X196568190Y-122063190D01*
X196520571Y-122063190D01*
X196425333Y-122110809D01*
X196377714Y-122206047D01*
X196377714Y-122348904D01*
X196425333Y-122444143D01*
X196996762Y-122872714D02*
X197044381Y-122967952D01*
X197044381Y-123158428D01*
X196996762Y-123253667D01*
X196901524Y-123301286D01*
X196853905Y-123301286D01*
X196758667Y-123253667D01*
X196711048Y-123158428D01*
X196711048Y-123015571D01*
X196663429Y-122920333D01*
X196568190Y-122872714D01*
X196520571Y-122872714D01*
X196425333Y-122920333D01*
X196377714Y-123015571D01*
X196377714Y-123158428D01*
X196425333Y-123253667D01*
X197044381Y-123729857D02*
X196377714Y-123729857D01*
X196044381Y-123729857D02*
X196092000Y-123682238D01*
X196139619Y-123729857D01*
X196092000Y-123777476D01*
X196044381Y-123729857D01*
X196139619Y-123729857D01*
X196377714Y-124063190D02*
X196377714Y-124444142D01*
X197044381Y-124206047D02*
X196187238Y-124206047D01*
X196092000Y-124253666D01*
X196044381Y-124348904D01*
X196044381Y-124444142D01*
X196996762Y-125491762D02*
X197044381Y-125634619D01*
X197044381Y-125872715D01*
X196996762Y-125967953D01*
X196949143Y-126015572D01*
X196853905Y-126063191D01*
X196758667Y-126063191D01*
X196663429Y-126015572D01*
X196615810Y-125967953D01*
X196568190Y-125872715D01*
X196520571Y-125682238D01*
X196472952Y-125587000D01*
X196425333Y-125539381D01*
X196330095Y-125491762D01*
X196234857Y-125491762D01*
X196139619Y-125539381D01*
X196092000Y-125587000D01*
X196044381Y-125682238D01*
X196044381Y-125920334D01*
X196092000Y-126063191D01*
X196377714Y-126396524D02*
X197044381Y-126634619D01*
X196377714Y-126872715D02*
X197044381Y-126634619D01*
X197282476Y-126539381D01*
X197330095Y-126491762D01*
X197377714Y-126396524D01*
X196996762Y-127206048D02*
X197044381Y-127301286D01*
X197044381Y-127491762D01*
X196996762Y-127587001D01*
X196901524Y-127634620D01*
X196853905Y-127634620D01*
X196758667Y-127587001D01*
X196711048Y-127491762D01*
X196711048Y-127348905D01*
X196663429Y-127253667D01*
X196568190Y-127206048D01*
X196520571Y-127206048D01*
X196425333Y-127253667D01*
X196377714Y-127348905D01*
X196377714Y-127491762D01*
X196425333Y-127587001D01*
X196377714Y-127920334D02*
X196377714Y-128301286D01*
X196044381Y-128063191D02*
X196901524Y-128063191D01*
X196996762Y-128110810D01*
X197044381Y-128206048D01*
X197044381Y-128301286D01*
X196996762Y-129015573D02*
X197044381Y-128920335D01*
X197044381Y-128729858D01*
X196996762Y-128634620D01*
X196901524Y-128587001D01*
X196520571Y-128587001D01*
X196425333Y-128634620D01*
X196377714Y-128729858D01*
X196377714Y-128920335D01*
X196425333Y-129015573D01*
X196520571Y-129063192D01*
X196615810Y-129063192D01*
X196711048Y-128587001D01*
X197044381Y-129491763D02*
X196377714Y-129491763D01*
X196472952Y-129491763D02*
X196425333Y-129539382D01*
X196377714Y-129634620D01*
X196377714Y-129777478D01*
X196425333Y-129872716D01*
X196520571Y-129920335D01*
X197044381Y-129920335D01*
X196520571Y-129920335D02*
X196425333Y-129967954D01*
X196377714Y-130063192D01*
X196377714Y-130206049D01*
X196425333Y-130301287D01*
X196520571Y-130348906D01*
X197044381Y-130348906D01*
X196996762Y-130777477D02*
X197044381Y-130872715D01*
X197044381Y-131063191D01*
X196996762Y-131158430D01*
X196901524Y-131206049D01*
X196853905Y-131206049D01*
X196758667Y-131158430D01*
X196711048Y-131063191D01*
X196711048Y-130920334D01*
X196663429Y-130825096D01*
X196568190Y-130777477D01*
X196520571Y-130777477D01*
X196425333Y-130825096D01*
X196377714Y-130920334D01*
X196377714Y-131063191D01*
X196425333Y-131158430D01*
X194869571Y-119991905D02*
X194869571Y-120325239D01*
X195393381Y-120468096D02*
X195393381Y-119991905D01*
X194393381Y-119991905D01*
X194393381Y-120468096D01*
X195345762Y-120849048D02*
X195393381Y-120991905D01*
X195393381Y-121230001D01*
X195345762Y-121325239D01*
X195298143Y-121372858D01*
X195202905Y-121420477D01*
X195107667Y-121420477D01*
X195012429Y-121372858D01*
X194964810Y-121325239D01*
X194917190Y-121230001D01*
X194869571Y-121039524D01*
X194821952Y-120944286D01*
X194774333Y-120896667D01*
X194679095Y-120849048D01*
X194583857Y-120849048D01*
X194488619Y-120896667D01*
X194441000Y-120944286D01*
X194393381Y-121039524D01*
X194393381Y-121277620D01*
X194441000Y-121420477D01*
X195393381Y-121849048D02*
X194393381Y-121849048D01*
X194393381Y-122230001D01*
X194441000Y-122325239D01*
X194488619Y-122372858D01*
X194583857Y-122420477D01*
X194726714Y-122420477D01*
X194821952Y-122372858D01*
X194869571Y-122325239D01*
X194917190Y-122230001D01*
X194917190Y-121849048D01*
X194393381Y-122753810D02*
X194393381Y-123372858D01*
X194774333Y-123039524D01*
X194774333Y-123182382D01*
X194821952Y-123277620D01*
X194869571Y-123325239D01*
X194964810Y-123372858D01*
X195202905Y-123372858D01*
X195298143Y-123325239D01*
X195345762Y-123277620D01*
X195393381Y-123182382D01*
X195393381Y-122896667D01*
X195345762Y-122801429D01*
X195298143Y-122753810D01*
X194488619Y-123753810D02*
X194441000Y-123801429D01*
X194393381Y-123896667D01*
X194393381Y-124134763D01*
X194441000Y-124230001D01*
X194488619Y-124277620D01*
X194583857Y-124325239D01*
X194679095Y-124325239D01*
X194821952Y-124277620D01*
X195393381Y-123706191D01*
X195393381Y-124325239D01*
X195012429Y-124753810D02*
X195012429Y-125515715D01*
X194393381Y-125896667D02*
X195393381Y-126134762D01*
X194679095Y-126325239D01*
X195393381Y-126515715D01*
X194393381Y-126753810D01*
X195393381Y-127706191D02*
X194917190Y-127372857D01*
X195393381Y-127134762D02*
X194393381Y-127134762D01*
X194393381Y-127515715D01*
X194441000Y-127610953D01*
X194488619Y-127658572D01*
X194583857Y-127706191D01*
X194726714Y-127706191D01*
X194821952Y-127658572D01*
X194869571Y-127610953D01*
X194917190Y-127515715D01*
X194917190Y-127134762D01*
X194393381Y-128325238D02*
X194393381Y-128515715D01*
X194441000Y-128610953D01*
X194536238Y-128706191D01*
X194726714Y-128753810D01*
X195060048Y-128753810D01*
X195250524Y-128706191D01*
X195345762Y-128610953D01*
X195393381Y-128515715D01*
X195393381Y-128325238D01*
X195345762Y-128230000D01*
X195250524Y-128134762D01*
X195060048Y-128087143D01*
X194726714Y-128087143D01*
X194536238Y-128134762D01*
X194441000Y-128230000D01*
X194393381Y-128325238D01*
X194393381Y-129039524D02*
X195393381Y-129372857D01*
X194393381Y-129706191D01*
X194869571Y-130039524D02*
X194869571Y-130372858D01*
X195393381Y-130515715D02*
X195393381Y-130039524D01*
X194393381Y-130039524D01*
X194393381Y-130515715D01*
X195393381Y-131515715D02*
X194917190Y-131182381D01*
X195393381Y-130944286D02*
X194393381Y-130944286D01*
X194393381Y-131325239D01*
X194441000Y-131420477D01*
X194488619Y-131468096D01*
X194583857Y-131515715D01*
X194726714Y-131515715D01*
X194821952Y-131468096D01*
X194869571Y-131420477D01*
X194917190Y-131325239D01*
X194917190Y-130944286D01*
X213645333Y-136675762D02*
X213502476Y-136723381D01*
X213264380Y-136723381D01*
X213169142Y-136675762D01*
X213121523Y-136628143D01*
X213073904Y-136532905D01*
X213073904Y-136437667D01*
X213121523Y-136342429D01*
X213169142Y-136294810D01*
X213264380Y-136247190D01*
X213454857Y-136199571D01*
X213550095Y-136151952D01*
X213597714Y-136104333D01*
X213645333Y-136009095D01*
X213645333Y-135913857D01*
X213597714Y-135818619D01*
X213550095Y-135771000D01*
X213454857Y-135723381D01*
X213216761Y-135723381D01*
X213073904Y-135771000D01*
X212740571Y-135723381D02*
X212502476Y-136723381D01*
X212311999Y-136009095D01*
X212121523Y-136723381D01*
X211883428Y-135723381D01*
X211597714Y-135723381D02*
X210978666Y-135723381D01*
X211312000Y-136104333D01*
X211169142Y-136104333D01*
X211073904Y-136151952D01*
X211026285Y-136199571D01*
X210978666Y-136294810D01*
X210978666Y-136532905D01*
X211026285Y-136628143D01*
X211073904Y-136675762D01*
X211169142Y-136723381D01*
X211454857Y-136723381D01*
X211550095Y-136675762D01*
X211597714Y-136628143D01*
X208906714Y-111307571D02*
X208763857Y-111355190D01*
X208716238Y-111402810D01*
X208668619Y-111498048D01*
X208668619Y-111640905D01*
X208716238Y-111736143D01*
X208763857Y-111783762D01*
X208859095Y-111831381D01*
X209240048Y-111831381D01*
X209240048Y-110831381D01*
X208906714Y-110831381D01*
X208811476Y-110879000D01*
X208763857Y-110926619D01*
X208716238Y-111021857D01*
X208716238Y-111117095D01*
X208763857Y-111212333D01*
X208811476Y-111259952D01*
X208906714Y-111307571D01*
X209240048Y-111307571D01*
X208382905Y-110831381D02*
X207811476Y-110831381D01*
X208097191Y-111831381D02*
X208097191Y-110831381D01*
X206954333Y-111831381D02*
X207525762Y-111831381D01*
X207240048Y-111831381D02*
X207240048Y-110831381D01*
X207335286Y-110974238D01*
X207430524Y-111069476D01*
X207525762Y-111117095D01*
X178188666Y-134215143D02*
X178236285Y-134262762D01*
X178379142Y-134310381D01*
X178474380Y-134310381D01*
X178617238Y-134262762D01*
X178712476Y-134167524D01*
X178760095Y-134072286D01*
X178807714Y-133881810D01*
X178807714Y-133738952D01*
X178760095Y-133548476D01*
X178712476Y-133453238D01*
X178617238Y-133358000D01*
X178474380Y-133310381D01*
X178379142Y-133310381D01*
X178236285Y-133358000D01*
X178188666Y-133405619D01*
X177331523Y-133310381D02*
X177522000Y-133310381D01*
X177617238Y-133358000D01*
X177664857Y-133405619D01*
X177760095Y-133548476D01*
X177807714Y-133738952D01*
X177807714Y-134119905D01*
X177760095Y-134215143D01*
X177712476Y-134262762D01*
X177617238Y-134310381D01*
X177426761Y-134310381D01*
X177331523Y-134262762D01*
X177283904Y-134215143D01*
X177236285Y-134119905D01*
X177236285Y-133881810D01*
X177283904Y-133786571D01*
X177331523Y-133738952D01*
X177426761Y-133691333D01*
X177617238Y-133691333D01*
X177712476Y-133738952D01*
X177760095Y-133786571D01*
X177807714Y-133881810D01*
X171775357Y-114565643D02*
X171822976Y-114613262D01*
X171965833Y-114660881D01*
X172061071Y-114660881D01*
X172203929Y-114613262D01*
X172299167Y-114518024D01*
X172346786Y-114422786D01*
X172394405Y-114232310D01*
X172394405Y-114089452D01*
X172346786Y-113898976D01*
X172299167Y-113803738D01*
X172203929Y-113708500D01*
X172061071Y-113660881D01*
X171965833Y-113660881D01*
X171822976Y-113708500D01*
X171775357Y-113756119D01*
X170822976Y-114660881D02*
X171394405Y-114660881D01*
X171108691Y-114660881D02*
X171108691Y-113660881D01*
X171203929Y-113803738D01*
X171299167Y-113898976D01*
X171394405Y-113946595D01*
X169918214Y-113660881D02*
X170394405Y-113660881D01*
X170442024Y-114137071D01*
X170394405Y-114089452D01*
X170299167Y-114041833D01*
X170061071Y-114041833D01*
X169965833Y-114089452D01*
X169918214Y-114137071D01*
X169870595Y-114232310D01*
X169870595Y-114470405D01*
X169918214Y-114565643D01*
X169965833Y-114613262D01*
X170061071Y-114660881D01*
X170299167Y-114660881D01*
X170394405Y-114613262D01*
X170442024Y-114565643D01*
X169870095Y-101925381D02*
X169870095Y-100925381D01*
X169632000Y-100925381D01*
X169489142Y-100973000D01*
X169393904Y-101068238D01*
X169346285Y-101163476D01*
X169298666Y-101353952D01*
X169298666Y-101496810D01*
X169346285Y-101687286D01*
X169393904Y-101782524D01*
X169489142Y-101877762D01*
X169632000Y-101925381D01*
X169870095Y-101925381D01*
X168965333Y-100925381D02*
X168346285Y-100925381D01*
X168679619Y-101306333D01*
X168536761Y-101306333D01*
X168441523Y-101353952D01*
X168393904Y-101401571D01*
X168346285Y-101496810D01*
X168346285Y-101734905D01*
X168393904Y-101830143D01*
X168441523Y-101877762D01*
X168536761Y-101925381D01*
X168822476Y-101925381D01*
X168917714Y-101877762D01*
X168965333Y-101830143D01*
X179506262Y-92317667D02*
X179553881Y-92460524D01*
X179553881Y-92698620D01*
X179506262Y-92793858D01*
X179458643Y-92841477D01*
X179363405Y-92889096D01*
X179268167Y-92889096D01*
X179172929Y-92841477D01*
X179125310Y-92793858D01*
X179077690Y-92698620D01*
X179030071Y-92508143D01*
X178982452Y-92412905D01*
X178934833Y-92365286D01*
X178839595Y-92317667D01*
X178744357Y-92317667D01*
X178649119Y-92365286D01*
X178601500Y-92412905D01*
X178553881Y-92508143D01*
X178553881Y-92746239D01*
X178601500Y-92889096D01*
X178553881Y-93222429D02*
X179553881Y-93460524D01*
X178839595Y-93651001D01*
X179553881Y-93841477D01*
X178553881Y-94079572D01*
X179553881Y-94984334D02*
X179553881Y-94412905D01*
X179553881Y-94698619D02*
X178553881Y-94698619D01*
X178696738Y-94603381D01*
X178791976Y-94508143D01*
X178839595Y-94412905D01*
X173189733Y-136599562D02*
X173046876Y-136647181D01*
X172808780Y-136647181D01*
X172713542Y-136599562D01*
X172665923Y-136551943D01*
X172618304Y-136456705D01*
X172618304Y-136361467D01*
X172665923Y-136266229D01*
X172713542Y-136218610D01*
X172808780Y-136170990D01*
X172999257Y-136123371D01*
X173094495Y-136075752D01*
X173142114Y-136028133D01*
X173189733Y-135932895D01*
X173189733Y-135837657D01*
X173142114Y-135742419D01*
X173094495Y-135694800D01*
X172999257Y-135647181D01*
X172761161Y-135647181D01*
X172618304Y-135694800D01*
X172284971Y-135647181D02*
X172046876Y-136647181D01*
X171856399Y-135932895D01*
X171665923Y-136647181D01*
X171427828Y-135647181D01*
X170618304Y-135980514D02*
X170618304Y-136647181D01*
X170856400Y-135599562D02*
X171094495Y-136313848D01*
X170475447Y-136313848D01*
X176497905Y-111720381D02*
X176497905Y-112529905D01*
X176450286Y-112625143D01*
X176402667Y-112672762D01*
X176307429Y-112720381D01*
X176116952Y-112720381D01*
X176021714Y-112672762D01*
X175974095Y-112625143D01*
X175926476Y-112529905D01*
X175926476Y-111720381D01*
X174974095Y-111720381D02*
X175450286Y-111720381D01*
X175497905Y-112196571D01*
X175450286Y-112148952D01*
X175355048Y-112101333D01*
X175116952Y-112101333D01*
X175021714Y-112148952D01*
X174974095Y-112196571D01*
X174926476Y-112291810D01*
X174926476Y-112529905D01*
X174974095Y-112625143D01*
X175021714Y-112672762D01*
X175116952Y-112720381D01*
X175355048Y-112720381D01*
X175450286Y-112672762D01*
X175497905Y-112625143D01*
X182162033Y-89914362D02*
X182019176Y-89961981D01*
X181781080Y-89961981D01*
X181685842Y-89914362D01*
X181638223Y-89866743D01*
X181590604Y-89771505D01*
X181590604Y-89676267D01*
X181638223Y-89581029D01*
X181685842Y-89533410D01*
X181781080Y-89485790D01*
X181971557Y-89438171D01*
X182066795Y-89390552D01*
X182114414Y-89342933D01*
X182162033Y-89247695D01*
X182162033Y-89152457D01*
X182114414Y-89057219D01*
X182066795Y-89009600D01*
X181971557Y-88961981D01*
X181733461Y-88961981D01*
X181590604Y-89009600D01*
X181257271Y-88961981D02*
X181019176Y-89961981D01*
X180828699Y-89247695D01*
X180638223Y-89961981D01*
X180400128Y-88961981D01*
X180066795Y-89057219D02*
X180019176Y-89009600D01*
X179923938Y-88961981D01*
X179685842Y-88961981D01*
X179590604Y-89009600D01*
X179542985Y-89057219D01*
X179495366Y-89152457D01*
X179495366Y-89247695D01*
X179542985Y-89390552D01*
X180114414Y-89961981D01*
X179495366Y-89961981D01*
X212391333Y-129373381D02*
X212391333Y-130087667D01*
X212438953Y-130230524D01*
X212534191Y-130325762D01*
X212677048Y-130373381D01*
X212772286Y-130373381D01*
X211962762Y-129468619D02*
X211915143Y-129421000D01*
X211819905Y-129373381D01*
X211581809Y-129373381D01*
X211486571Y-129421000D01*
X211438952Y-129468619D01*
X211391333Y-129563857D01*
X211391333Y-129659095D01*
X211438952Y-129801952D01*
X212010381Y-130373381D01*
X211391333Y-130373381D01*
X172981666Y-130659143D02*
X173029285Y-130706762D01*
X173172142Y-130754381D01*
X173267380Y-130754381D01*
X173410238Y-130706762D01*
X173505476Y-130611524D01*
X173553095Y-130516286D01*
X173600714Y-130325810D01*
X173600714Y-130182952D01*
X173553095Y-129992476D01*
X173505476Y-129897238D01*
X173410238Y-129802000D01*
X173267380Y-129754381D01*
X173172142Y-129754381D01*
X173029285Y-129802000D01*
X172981666Y-129849619D01*
X172076904Y-129754381D02*
X172553095Y-129754381D01*
X172600714Y-130230571D01*
X172553095Y-130182952D01*
X172457857Y-130135333D01*
X172219761Y-130135333D01*
X172124523Y-130182952D01*
X172076904Y-130230571D01*
X172029285Y-130325810D01*
X172029285Y-130563905D01*
X172076904Y-130659143D01*
X172124523Y-130706762D01*
X172219761Y-130754381D01*
X172457857Y-130754381D01*
X172553095Y-130706762D01*
X172600714Y-130659143D01*
X206382666Y-133326143D02*
X206430285Y-133373762D01*
X206573142Y-133421381D01*
X206668380Y-133421381D01*
X206811238Y-133373762D01*
X206906476Y-133278524D01*
X206954095Y-133183286D01*
X207001714Y-132992810D01*
X207001714Y-132849952D01*
X206954095Y-132659476D01*
X206906476Y-132564238D01*
X206811238Y-132469000D01*
X206668380Y-132421381D01*
X206573142Y-132421381D01*
X206430285Y-132469000D01*
X206382666Y-132516619D01*
X206049333Y-132421381D02*
X205382666Y-132421381D01*
X205811238Y-133421381D01*
X205402524Y-98737381D02*
X205402524Y-97737381D01*
X205069190Y-98451667D01*
X204735857Y-97737381D01*
X204735857Y-98737381D01*
X203735857Y-98737381D02*
X204307286Y-98737381D01*
X204021572Y-98737381D02*
X204021572Y-97737381D01*
X204116810Y-97880238D01*
X204212048Y-97975476D01*
X204307286Y-98023095D01*
X216122143Y-97693381D02*
X216122143Y-97026714D01*
X216122143Y-97121952D02*
X216074524Y-97074333D01*
X215979286Y-97026714D01*
X215836428Y-97026714D01*
X215741190Y-97074333D01*
X215693571Y-97169571D01*
X215693571Y-97693381D01*
X215693571Y-97169571D02*
X215645952Y-97074333D01*
X215550714Y-97026714D01*
X215407857Y-97026714D01*
X215312619Y-97074333D01*
X215265000Y-97169571D01*
X215265000Y-97693381D01*
X214788810Y-97693381D02*
X214788810Y-97026714D01*
X214788810Y-96693381D02*
X214836429Y-96741000D01*
X214788810Y-96788619D01*
X214741191Y-96741000D01*
X214788810Y-96693381D01*
X214788810Y-96788619D01*
X213884048Y-97645762D02*
X213979286Y-97693381D01*
X214169763Y-97693381D01*
X214265001Y-97645762D01*
X214312620Y-97598143D01*
X214360239Y-97502905D01*
X214360239Y-97217190D01*
X214312620Y-97121952D01*
X214265001Y-97074333D01*
X214169763Y-97026714D01*
X213979286Y-97026714D01*
X213884048Y-97074333D01*
X213455477Y-97693381D02*
X213455477Y-97026714D01*
X213455477Y-97217190D02*
X213407858Y-97121952D01*
X213360239Y-97074333D01*
X213265001Y-97026714D01*
X213169762Y-97026714D01*
X212693572Y-97693381D02*
X212788810Y-97645762D01*
X212836429Y-97598143D01*
X212884048Y-97502905D01*
X212884048Y-97217190D01*
X212836429Y-97121952D01*
X212788810Y-97074333D01*
X212693572Y-97026714D01*
X212550714Y-97026714D01*
X212455476Y-97074333D01*
X212407857Y-97121952D01*
X212360238Y-97217190D01*
X212360238Y-97502905D01*
X212407857Y-97598143D01*
X212455476Y-97645762D01*
X212550714Y-97693381D01*
X212693572Y-97693381D01*
X211931667Y-96693381D02*
X211931667Y-97502905D01*
X211884048Y-97598143D01*
X211836429Y-97645762D01*
X211741191Y-97693381D01*
X211550714Y-97693381D01*
X211455476Y-97645762D01*
X211407857Y-97598143D01*
X211360238Y-97502905D01*
X211360238Y-96693381D01*
X210931667Y-97645762D02*
X210788810Y-97693381D01*
X210550714Y-97693381D01*
X210455476Y-97645762D01*
X210407857Y-97598143D01*
X210360238Y-97502905D01*
X210360238Y-97407667D01*
X210407857Y-97312429D01*
X210455476Y-97264810D01*
X210550714Y-97217190D01*
X210741191Y-97169571D01*
X210836429Y-97121952D01*
X210884048Y-97074333D01*
X210931667Y-96979095D01*
X210931667Y-96883857D01*
X210884048Y-96788619D01*
X210836429Y-96741000D01*
X210741191Y-96693381D01*
X210503095Y-96693381D01*
X210360238Y-96741000D01*
X209598333Y-97169571D02*
X209455476Y-97217190D01*
X209407857Y-97264810D01*
X209360238Y-97360048D01*
X209360238Y-97502905D01*
X209407857Y-97598143D01*
X209455476Y-97645762D01*
X209550714Y-97693381D01*
X209931667Y-97693381D01*
X209931667Y-96693381D01*
X209598333Y-96693381D01*
X209503095Y-96741000D01*
X209455476Y-96788619D01*
X209407857Y-96883857D01*
X209407857Y-96979095D01*
X209455476Y-97074333D01*
X209503095Y-97121952D01*
X209598333Y-97169571D01*
X209931667Y-97169571D01*
X193200618Y-98373571D02*
X193057761Y-98421190D01*
X193010142Y-98468810D01*
X192962523Y-98564048D01*
X192962523Y-98706905D01*
X193010142Y-98802143D01*
X193057761Y-98849762D01*
X193152999Y-98897381D01*
X193533952Y-98897381D01*
X193533952Y-97897381D01*
X193200618Y-97897381D01*
X193105380Y-97945000D01*
X193057761Y-97992619D01*
X193010142Y-98087857D01*
X193010142Y-98183095D01*
X193057761Y-98278333D01*
X193105380Y-98325952D01*
X193200618Y-98373571D01*
X193533952Y-98373571D01*
X192533952Y-98516429D02*
X191772047Y-98516429D01*
X193200618Y-95071571D02*
X193057761Y-95119190D01*
X193010142Y-95166810D01*
X192962523Y-95262048D01*
X192962523Y-95404905D01*
X193010142Y-95500143D01*
X193057761Y-95547762D01*
X193152999Y-95595381D01*
X193533952Y-95595381D01*
X193533952Y-94595381D01*
X193200618Y-94595381D01*
X193105380Y-94643000D01*
X193057761Y-94690619D01*
X193010142Y-94785857D01*
X193010142Y-94881095D01*
X193057761Y-94976333D01*
X193105380Y-95023952D01*
X193200618Y-95071571D01*
X193533952Y-95071571D01*
X192533952Y-95214429D02*
X191772047Y-95214429D01*
X192152999Y-95595381D02*
X192152999Y-94833476D01*
X197756048Y-103163381D02*
X197565571Y-103163381D01*
X197470333Y-103211000D01*
X197375095Y-103306238D01*
X197327476Y-103496714D01*
X197327476Y-103830048D01*
X197375095Y-104020524D01*
X197470333Y-104115762D01*
X197565571Y-104163381D01*
X197756048Y-104163381D01*
X197851286Y-104115762D01*
X197946524Y-104020524D01*
X197994143Y-103830048D01*
X197994143Y-103496714D01*
X197946524Y-103306238D01*
X197851286Y-103211000D01*
X197756048Y-103163381D01*
X196898905Y-103163381D02*
X196898905Y-103972905D01*
X196851286Y-104068143D01*
X196803667Y-104115762D01*
X196708429Y-104163381D01*
X196517952Y-104163381D01*
X196422714Y-104115762D01*
X196375095Y-104068143D01*
X196327476Y-103972905D01*
X196327476Y-103163381D01*
X195994143Y-103163381D02*
X195422714Y-103163381D01*
X195708429Y-104163381D02*
X195708429Y-103163381D01*
X195089381Y-103782429D02*
X194327476Y-103782429D01*
X198076048Y-90259381D02*
X197885571Y-90259381D01*
X197790333Y-90307000D01*
X197695095Y-90402238D01*
X197647476Y-90592714D01*
X197647476Y-90926048D01*
X197695095Y-91116524D01*
X197790333Y-91211762D01*
X197885571Y-91259381D01*
X198076048Y-91259381D01*
X198171286Y-91211762D01*
X198266524Y-91116524D01*
X198314143Y-90926048D01*
X198314143Y-90592714D01*
X198266524Y-90402238D01*
X198171286Y-90307000D01*
X198076048Y-90259381D01*
X197218905Y-90259381D02*
X197218905Y-91068905D01*
X197171286Y-91164143D01*
X197123667Y-91211762D01*
X197028429Y-91259381D01*
X196837952Y-91259381D01*
X196742714Y-91211762D01*
X196695095Y-91164143D01*
X196647476Y-91068905D01*
X196647476Y-90259381D01*
X196314143Y-90259381D02*
X195742714Y-90259381D01*
X196028429Y-91259381D02*
X196028429Y-90259381D01*
X195409381Y-90878429D02*
X194647476Y-90878429D01*
X195028428Y-91259381D02*
X195028428Y-90497476D01*
X212801057Y-104389181D02*
X212801057Y-103389181D01*
X212324867Y-104389181D02*
X212324867Y-103389181D01*
X211753438Y-104389181D01*
X211753438Y-103389181D01*
X211277248Y-104008229D02*
X210515343Y-104008229D01*
X212928057Y-90901781D02*
X212928057Y-89901781D01*
X212451867Y-90901781D02*
X212451867Y-89901781D01*
X211880438Y-90901781D01*
X211880438Y-89901781D01*
X211404248Y-90520829D02*
X210642343Y-90520829D01*
X211023295Y-90901781D02*
X211023295Y-90139876D01*
M02*
