M48
;DRILL file {KiCad 4.0.6} date 01/04/18 03:56:53
;FORMAT={3:3/ absolute / metric / suppress leading zeros}
FMAT,2
METRIC,TZ
T1C0.400
T2C1.000
T3C1.100
T4C1.200
T5C1.250
%
G90
G05
M71
T1
X167449Y-96520
X167449Y-110173
X168097Y-109525
X168148Y-110998
X169894Y-125349
X170117Y-113856
X170637Y-137109
X170688Y-98044
X170688Y-104902
X170783Y-124333
X170815Y-114491
X171672Y-112522
X172307Y-114935
X172720Y-104267
X173196Y-115824
X174371Y-104013
X175101Y-122936
X175387Y-99441
X176086Y-129794
X176911Y-116205
X177851Y-133198
X178117Y-127508
X178626Y-126238
X179197Y-130937
X182626Y-121031
X182689Y-96329
X182689Y-98933
X182689Y-101346
X182689Y-103949
X182721Y-93853
X182753Y-91313
X182753Y-119126
X182880Y-113030
X183642Y-118999
X183864Y-117475
X183991Y-124460
X184118Y-107315
X186055Y-118872
X186531Y-102870
X186658Y-95631
X186658Y-100584
X186690Y-119507
X186785Y-98044
X186912Y-90932
X186912Y-92837
X189611Y-127508
X189642Y-117158
X190246Y-128143
X190976Y-124460
X191008Y-119253
X191008Y-128778
X191643Y-129286
X192024Y-121031
X192024Y-121920
X192151Y-123444
X192151Y-124333
X192532Y-129286
X193294Y-116459
X193294Y-128715
X193345Y-131521
X193675Y-118491
X194183Y-120904
X194183Y-121793
X194437Y-128016
X194691Y-101600
X194818Y-129032
X194945Y-120650
X195390Y-105601
X195580Y-102172
X195580Y-121412
X195961Y-93091
X196088Y-129743
X196215Y-127000
X196291Y-130607
X196310Y-111506
X196977Y-93726
X196977Y-105664
X197053Y-115011
X200882Y-111760
X201219Y-127610
X201644Y-115824
X201778Y-129845
X202057Y-94234
X202286Y-127203
X202501Y-131445
X203168Y-123952
X203911Y-125628
X204597Y-130937
X204724Y-90297
X204978Y-116205
X205613Y-112776
X207264Y-124511
X207899Y-126492
X208077Y-131064
X208229Y-124054
X209677Y-114300
X209677Y-118364
X210249Y-122428
X210757Y-127635
X210820Y-137109
X211010Y-123317
X211392Y-96076
X213042Y-122936
X215900Y-94171
T2
X214986Y-121209
X214986Y-123749
X214986Y-126289
X214986Y-128829
T3
X168504Y-132558
X168504Y-137058
X172601Y-90401
X172601Y-96901
X175004Y-132558
X175004Y-137058
X177101Y-90401
X177101Y-96901
X208943Y-132588
X208943Y-137088
X215443Y-132588
X215443Y-137088
T4
X213170Y-107759
X213170Y-110299
T5
X192327Y-90155
X192327Y-93405
X192327Y-100905
X192327Y-104155
X215011Y-90272
X215011Y-104038
T0
M30
