G04 #@! TF.FileFunction,Soldermask,Top*
%FSLAX46Y46*%
G04 Gerber Fmt 4.6, Leading zero omitted, Abs format (unit mm)*
G04 Created by KiCad (PCBNEW 4.0.6) date 10/19/17 05:59:14*
%MOMM*%
%LPD*%
G01*
G04 APERTURE LIST*
%ADD10C,0.100000*%
%ADD11C,2.400000*%
%ADD12R,3.400000X3.400000*%
%ADD13R,2.900000X2.900000*%
%ADD14R,2.000000X2.000000*%
%ADD15C,2.000000*%
%ADD16R,3.000000X2.400000*%
%ADD17O,3.000000X2.400000*%
%ADD18R,1.650000X1.900000*%
%ADD19R,1.900000X1.650000*%
%ADD20R,0.650000X2.000000*%
%ADD21R,1.900000X2.400000*%
%ADD22R,1.900000X1.700000*%
%ADD23R,2.100000X2.400000*%
%ADD24R,2.400000X2.100000*%
%ADD25R,0.650000X1.100000*%
%ADD26R,1.100000X0.650000*%
%ADD27R,1.225000X1.225000*%
%ADD28R,1.050000X1.460000*%
%ADD29R,2.900000X2.200000*%
%ADD30R,1.499820X3.699460*%
%ADD31C,2.940000*%
%ADD32R,2.100000X2.100000*%
%ADD33O,2.100000X2.100000*%
G04 APERTURE END LIST*
D10*
D11*
X215442800Y-137088000D03*
X215442800Y-132588000D03*
X208942800Y-137088000D03*
X208942800Y-132588000D03*
D12*
X214200000Y-90591500D03*
X214200000Y-103591500D03*
D13*
X192200000Y-104091500D03*
X192200000Y-90091500D03*
X192200000Y-93341500D03*
X192200000Y-100841500D03*
D14*
X176657000Y-124841000D03*
D15*
X174157000Y-124841000D03*
D16*
X213169500Y-107759500D03*
D17*
X213169500Y-110299500D03*
D18*
X183134000Y-117582000D03*
X183134000Y-115082000D03*
X191262000Y-116947000D03*
X191262000Y-114447000D03*
X188214000Y-118090000D03*
X188214000Y-115590000D03*
D14*
X209550000Y-120586500D03*
D15*
X212050000Y-120586500D03*
D14*
X169672000Y-127558800D03*
D15*
X169672000Y-130058800D03*
D14*
X205422500Y-127889000D03*
D15*
X205422500Y-130389000D03*
D14*
X203708000Y-123190000D03*
D15*
X201208000Y-123190000D03*
D18*
X213868000Y-97429000D03*
X213868000Y-99929000D03*
X205740000Y-119741000D03*
X205740000Y-117241000D03*
D14*
X174244000Y-115443000D03*
D15*
X176744000Y-115443000D03*
D14*
X201168000Y-113919000D03*
D15*
X203668000Y-113919000D03*
D19*
X206268000Y-134670800D03*
X208768000Y-134670800D03*
D20*
X183988000Y-121158000D03*
X184488000Y-121158000D03*
X184988000Y-121158000D03*
X185488000Y-121158000D03*
X185988000Y-121158000D03*
X186488000Y-121158000D03*
X186988000Y-121158000D03*
X187488000Y-121158000D03*
X187988000Y-121158000D03*
X188488000Y-121158000D03*
X188988000Y-121158000D03*
X189488000Y-121158000D03*
X189988000Y-121158000D03*
X190488000Y-121158000D03*
X190988000Y-121158000D03*
X191488000Y-121158000D03*
X191988000Y-121158000D03*
X192488000Y-121158000D03*
X192988000Y-121158000D03*
X193488000Y-121158000D03*
X193988000Y-121158000D03*
X194488000Y-121158000D03*
X194988000Y-121158000D03*
X195488000Y-121158000D03*
D21*
X197088000Y-119858000D03*
X182388000Y-119858000D03*
D10*
G36*
X205989114Y-92192695D02*
X207191195Y-90990614D01*
X208534698Y-92334117D01*
X207332617Y-93536198D01*
X205989114Y-92192695D01*
X205989114Y-92192695D01*
G37*
G36*
X207898302Y-94101883D02*
X209100383Y-92899802D01*
X210443886Y-94243305D01*
X209241805Y-95445386D01*
X207898302Y-94101883D01*
X207898302Y-94101883D01*
G37*
G36*
X207322614Y-90795695D02*
X208524695Y-89593614D01*
X209868198Y-90937117D01*
X208666117Y-92139198D01*
X207322614Y-90795695D01*
X207322614Y-90795695D01*
G37*
G36*
X209231802Y-92704883D02*
X210433883Y-91502802D01*
X211777386Y-92846305D01*
X210575305Y-94048386D01*
X209231802Y-92704883D01*
X209231802Y-92704883D01*
G37*
G36*
X205316204Y-93214280D02*
X203831280Y-94699204D01*
X202134224Y-93002148D01*
X203619148Y-91517224D01*
X205316204Y-93214280D01*
X205316204Y-93214280D01*
G37*
G36*
X202487776Y-90385852D02*
X201002852Y-91870776D01*
X199305796Y-90173720D01*
X200790720Y-88688796D01*
X202487776Y-90385852D01*
X202487776Y-90385852D01*
G37*
G36*
X203941296Y-94809220D02*
X205426220Y-93324296D01*
X207123276Y-95021352D01*
X205638352Y-96506276D01*
X203941296Y-94809220D01*
X203941296Y-94809220D01*
G37*
G36*
X206769724Y-97637648D02*
X208254648Y-96152724D01*
X209951704Y-97849780D01*
X208466780Y-99334704D01*
X206769724Y-97637648D01*
X206769724Y-97637648D01*
G37*
D22*
X197311000Y-116332000D03*
X194611000Y-116332000D03*
D23*
X179705000Y-117126000D03*
X179705000Y-121126000D03*
D24*
X170974000Y-107315000D03*
X174974000Y-107315000D03*
X170974000Y-109728000D03*
X174974000Y-109728000D03*
D11*
X172601500Y-96901000D03*
X177101500Y-96901000D03*
X172601500Y-90401000D03*
X177101500Y-90401000D03*
X168503600Y-132558400D03*
X168503600Y-137058400D03*
X175003600Y-132558400D03*
X175003600Y-137058400D03*
D25*
X210256500Y-126876000D03*
X210756500Y-126876000D03*
X211256500Y-126876000D03*
D26*
X212156500Y-125976000D03*
X212156500Y-125476000D03*
X212156500Y-124976000D03*
D25*
X211256500Y-124076000D03*
X210756500Y-124076000D03*
X210256500Y-124076000D03*
D26*
X209356500Y-124976000D03*
X209356500Y-125476000D03*
X209356500Y-125976000D03*
D27*
X211169000Y-125063500D03*
X210344000Y-125063500D03*
X211169000Y-125888500D03*
X210344000Y-125888500D03*
D28*
X174564000Y-121242000D03*
X175514000Y-121242000D03*
X176464000Y-121242000D03*
X176464000Y-119042000D03*
X174564000Y-119042000D03*
X201488000Y-119845000D03*
X202438000Y-119845000D03*
X203388000Y-119845000D03*
X203388000Y-117645000D03*
X201488000Y-117645000D03*
D29*
X205645000Y-101346000D03*
X209645000Y-101346000D03*
X202723500Y-101282500D03*
X198723500Y-101282500D03*
D30*
X211856320Y-129413000D03*
X209605880Y-129413000D03*
D31*
X192024000Y-111150400D03*
X204571600Y-97942400D03*
X203657200Y-133350000D03*
X187299600Y-110896400D03*
X183946800Y-110896400D03*
X198780400Y-96469200D03*
D24*
X185045600Y-91287600D03*
X189045600Y-91287600D03*
D23*
X176631600Y-104920800D03*
X176631600Y-100920800D03*
D24*
X185096400Y-93878400D03*
X189096400Y-93878400D03*
D22*
X169388800Y-103276400D03*
X172088800Y-103276400D03*
D24*
X185096400Y-96418400D03*
X189096400Y-96418400D03*
X185096400Y-98907600D03*
X189096400Y-98907600D03*
X185147200Y-101447600D03*
X189147200Y-101447600D03*
X185147200Y-104038400D03*
X189147200Y-104038400D03*
X206266800Y-136956800D03*
X202266800Y-136956800D03*
D32*
X214985600Y-128828800D03*
D33*
X214985600Y-126288800D03*
X214985600Y-123748800D03*
X214985600Y-121208800D03*
M02*
