G04 #@! TF.FileFunction,Legend,Top*
%FSLAX46Y46*%
G04 Gerber Fmt 4.6, Leading zero omitted, Abs format (unit mm)*
G04 Created by KiCad (PCBNEW 4.0.6) date 10/19/17 05:59:14*
%MOMM*%
%LPD*%
G01*
G04 APERTURE LIST*
%ADD10C,0.100000*%
%ADD11C,0.120000*%
%ADD12C,0.150000*%
%ADD13C,0.152400*%
G04 APERTURE END LIST*
D10*
D11*
X173101278Y-126020723D02*
G75*
G03X177712580Y-126021000I2305722J1179723D01*
G01*
X173101278Y-123661277D02*
G75*
G02X177712580Y-123661000I2305722J-1179723D01*
G01*
X173101278Y-123661277D02*
G75*
G03X173101420Y-126021000I2305722J-1179723D01*
G01*
X175407000Y-127391000D02*
X175407000Y-122291000D01*
X175367000Y-127391000D02*
X175367000Y-122291000D01*
X175327000Y-127390000D02*
X175327000Y-122292000D01*
X175287000Y-127389000D02*
X175287000Y-122293000D01*
X175247000Y-127387000D02*
X175247000Y-122295000D01*
X175207000Y-127384000D02*
X175207000Y-122298000D01*
X175167000Y-127380000D02*
X175167000Y-122302000D01*
X175127000Y-127376000D02*
X175127000Y-125821000D01*
X175127000Y-123861000D02*
X175127000Y-122306000D01*
X175087000Y-127372000D02*
X175087000Y-125821000D01*
X175087000Y-123861000D02*
X175087000Y-122310000D01*
X175047000Y-127366000D02*
X175047000Y-125821000D01*
X175047000Y-123861000D02*
X175047000Y-122316000D01*
X175007000Y-127360000D02*
X175007000Y-125821000D01*
X175007000Y-123861000D02*
X175007000Y-122322000D01*
X174967000Y-127354000D02*
X174967000Y-125821000D01*
X174967000Y-123861000D02*
X174967000Y-122328000D01*
X174927000Y-127347000D02*
X174927000Y-125821000D01*
X174927000Y-123861000D02*
X174927000Y-122335000D01*
X174887000Y-127339000D02*
X174887000Y-125821000D01*
X174887000Y-123861000D02*
X174887000Y-122343000D01*
X174847000Y-127330000D02*
X174847000Y-125821000D01*
X174847000Y-123861000D02*
X174847000Y-122352000D01*
X174807000Y-127321000D02*
X174807000Y-125821000D01*
X174807000Y-123861000D02*
X174807000Y-122361000D01*
X174767000Y-127311000D02*
X174767000Y-125821000D01*
X174767000Y-123861000D02*
X174767000Y-122371000D01*
X174727000Y-127301000D02*
X174727000Y-125821000D01*
X174727000Y-123861000D02*
X174727000Y-122381000D01*
X174686000Y-127289000D02*
X174686000Y-125821000D01*
X174686000Y-123861000D02*
X174686000Y-122393000D01*
X174646000Y-127277000D02*
X174646000Y-125821000D01*
X174646000Y-123861000D02*
X174646000Y-122405000D01*
X174606000Y-127265000D02*
X174606000Y-125821000D01*
X174606000Y-123861000D02*
X174606000Y-122417000D01*
X174566000Y-127251000D02*
X174566000Y-125821000D01*
X174566000Y-123861000D02*
X174566000Y-122431000D01*
X174526000Y-127237000D02*
X174526000Y-125821000D01*
X174526000Y-123861000D02*
X174526000Y-122445000D01*
X174486000Y-127223000D02*
X174486000Y-125821000D01*
X174486000Y-123861000D02*
X174486000Y-122459000D01*
X174446000Y-127207000D02*
X174446000Y-125821000D01*
X174446000Y-123861000D02*
X174446000Y-122475000D01*
X174406000Y-127191000D02*
X174406000Y-125821000D01*
X174406000Y-123861000D02*
X174406000Y-122491000D01*
X174366000Y-127174000D02*
X174366000Y-125821000D01*
X174366000Y-123861000D02*
X174366000Y-122508000D01*
X174326000Y-127156000D02*
X174326000Y-125821000D01*
X174326000Y-123861000D02*
X174326000Y-122526000D01*
X174286000Y-127137000D02*
X174286000Y-125821000D01*
X174286000Y-123861000D02*
X174286000Y-122545000D01*
X174246000Y-127117000D02*
X174246000Y-125821000D01*
X174246000Y-123861000D02*
X174246000Y-122565000D01*
X174206000Y-127097000D02*
X174206000Y-125821000D01*
X174206000Y-123861000D02*
X174206000Y-122585000D01*
X174166000Y-127075000D02*
X174166000Y-125821000D01*
X174166000Y-123861000D02*
X174166000Y-122607000D01*
X174126000Y-127053000D02*
X174126000Y-125821000D01*
X174126000Y-123861000D02*
X174126000Y-122629000D01*
X174086000Y-127030000D02*
X174086000Y-125821000D01*
X174086000Y-123861000D02*
X174086000Y-122652000D01*
X174046000Y-127006000D02*
X174046000Y-125821000D01*
X174046000Y-123861000D02*
X174046000Y-122676000D01*
X174006000Y-126981000D02*
X174006000Y-125821000D01*
X174006000Y-123861000D02*
X174006000Y-122701000D01*
X173966000Y-126954000D02*
X173966000Y-125821000D01*
X173966000Y-123861000D02*
X173966000Y-122728000D01*
X173926000Y-126927000D02*
X173926000Y-125821000D01*
X173926000Y-123861000D02*
X173926000Y-122755000D01*
X173886000Y-126899000D02*
X173886000Y-125821000D01*
X173886000Y-123861000D02*
X173886000Y-122783000D01*
X173846000Y-126869000D02*
X173846000Y-125821000D01*
X173846000Y-123861000D02*
X173846000Y-122813000D01*
X173806000Y-126838000D02*
X173806000Y-125821000D01*
X173806000Y-123861000D02*
X173806000Y-122844000D01*
X173766000Y-126806000D02*
X173766000Y-125821000D01*
X173766000Y-123861000D02*
X173766000Y-122876000D01*
X173726000Y-126773000D02*
X173726000Y-125821000D01*
X173726000Y-123861000D02*
X173726000Y-122909000D01*
X173686000Y-126738000D02*
X173686000Y-125821000D01*
X173686000Y-123861000D02*
X173686000Y-122944000D01*
X173646000Y-126702000D02*
X173646000Y-125821000D01*
X173646000Y-123861000D02*
X173646000Y-122980000D01*
X173606000Y-126664000D02*
X173606000Y-125821000D01*
X173606000Y-123861000D02*
X173606000Y-123018000D01*
X173566000Y-126624000D02*
X173566000Y-125821000D01*
X173566000Y-123861000D02*
X173566000Y-123058000D01*
X173526000Y-126583000D02*
X173526000Y-125821000D01*
X173526000Y-123861000D02*
X173526000Y-123099000D01*
X173486000Y-126540000D02*
X173486000Y-125821000D01*
X173486000Y-123861000D02*
X173486000Y-123142000D01*
X173446000Y-126495000D02*
X173446000Y-125821000D01*
X173446000Y-123861000D02*
X173446000Y-123187000D01*
X173406000Y-126447000D02*
X173406000Y-125821000D01*
X173406000Y-123861000D02*
X173406000Y-123235000D01*
X173366000Y-126397000D02*
X173366000Y-125821000D01*
X173366000Y-123861000D02*
X173366000Y-123285000D01*
X173326000Y-126345000D02*
X173326000Y-125821000D01*
X173326000Y-123861000D02*
X173326000Y-123337000D01*
X173286000Y-126289000D02*
X173286000Y-125821000D01*
X173286000Y-123861000D02*
X173286000Y-123393000D01*
X173246000Y-126231000D02*
X173246000Y-125821000D01*
X173246000Y-123861000D02*
X173246000Y-123451000D01*
X173206000Y-126168000D02*
X173206000Y-125821000D01*
X173206000Y-123861000D02*
X173206000Y-123514000D01*
X173166000Y-126102000D02*
X173166000Y-123580000D01*
X173126000Y-126030000D02*
X173126000Y-123652000D01*
X173086000Y-125953000D02*
X173086000Y-123729000D01*
X173046000Y-125869000D02*
X173046000Y-123813000D01*
X173006000Y-125775000D02*
X173006000Y-123907000D01*
X172966000Y-125670000D02*
X172966000Y-124012000D01*
X172926000Y-125548000D02*
X172926000Y-124134000D01*
X172886000Y-125400000D02*
X172886000Y-124282000D01*
X172846000Y-125195000D02*
X172846000Y-124487000D01*
X178857000Y-124841000D02*
X177657000Y-124841000D01*
X178257000Y-125491000D02*
X178257000Y-124191000D01*
X182284000Y-115832000D02*
X182284000Y-116832000D01*
X183984000Y-116832000D02*
X183984000Y-115832000D01*
X190412000Y-115197000D02*
X190412000Y-116197000D01*
X192112000Y-116197000D02*
X192112000Y-115197000D01*
X187364000Y-116340000D02*
X187364000Y-117340000D01*
X189064000Y-117340000D02*
X189064000Y-116340000D01*
X213105722Y-119406777D02*
G75*
G03X208494420Y-119406500I-2305722J-1179723D01*
G01*
X213105722Y-121766223D02*
G75*
G02X208494420Y-121766500I-2305722J1179723D01*
G01*
X213105722Y-121766223D02*
G75*
G03X213105580Y-119406500I-2305722J1179723D01*
G01*
X210800000Y-118036500D02*
X210800000Y-123136500D01*
X210840000Y-118036500D02*
X210840000Y-123136500D01*
X210880000Y-118037500D02*
X210880000Y-123135500D01*
X210920000Y-118038500D02*
X210920000Y-123134500D01*
X210960000Y-118040500D02*
X210960000Y-123132500D01*
X211000000Y-118043500D02*
X211000000Y-123129500D01*
X211040000Y-118047500D02*
X211040000Y-123125500D01*
X211080000Y-118051500D02*
X211080000Y-119606500D01*
X211080000Y-121566500D02*
X211080000Y-123121500D01*
X211120000Y-118055500D02*
X211120000Y-119606500D01*
X211120000Y-121566500D02*
X211120000Y-123117500D01*
X211160000Y-118061500D02*
X211160000Y-119606500D01*
X211160000Y-121566500D02*
X211160000Y-123111500D01*
X211200000Y-118067500D02*
X211200000Y-119606500D01*
X211200000Y-121566500D02*
X211200000Y-123105500D01*
X211240000Y-118073500D02*
X211240000Y-119606500D01*
X211240000Y-121566500D02*
X211240000Y-123099500D01*
X211280000Y-118080500D02*
X211280000Y-119606500D01*
X211280000Y-121566500D02*
X211280000Y-123092500D01*
X211320000Y-118088500D02*
X211320000Y-119606500D01*
X211320000Y-121566500D02*
X211320000Y-123084500D01*
X211360000Y-118097500D02*
X211360000Y-119606500D01*
X211360000Y-121566500D02*
X211360000Y-123075500D01*
X211400000Y-118106500D02*
X211400000Y-119606500D01*
X211400000Y-121566500D02*
X211400000Y-123066500D01*
X211440000Y-118116500D02*
X211440000Y-119606500D01*
X211440000Y-121566500D02*
X211440000Y-123056500D01*
X211480000Y-118126500D02*
X211480000Y-119606500D01*
X211480000Y-121566500D02*
X211480000Y-123046500D01*
X211521000Y-118138500D02*
X211521000Y-119606500D01*
X211521000Y-121566500D02*
X211521000Y-123034500D01*
X211561000Y-118150500D02*
X211561000Y-119606500D01*
X211561000Y-121566500D02*
X211561000Y-123022500D01*
X211601000Y-118162500D02*
X211601000Y-119606500D01*
X211601000Y-121566500D02*
X211601000Y-123010500D01*
X211641000Y-118176500D02*
X211641000Y-119606500D01*
X211641000Y-121566500D02*
X211641000Y-122996500D01*
X211681000Y-118190500D02*
X211681000Y-119606500D01*
X211681000Y-121566500D02*
X211681000Y-122982500D01*
X211721000Y-118204500D02*
X211721000Y-119606500D01*
X211721000Y-121566500D02*
X211721000Y-122968500D01*
X211761000Y-118220500D02*
X211761000Y-119606500D01*
X211761000Y-121566500D02*
X211761000Y-122952500D01*
X211801000Y-118236500D02*
X211801000Y-119606500D01*
X211801000Y-121566500D02*
X211801000Y-122936500D01*
X211841000Y-118253500D02*
X211841000Y-119606500D01*
X211841000Y-121566500D02*
X211841000Y-122919500D01*
X211881000Y-118271500D02*
X211881000Y-119606500D01*
X211881000Y-121566500D02*
X211881000Y-122901500D01*
X211921000Y-118290500D02*
X211921000Y-119606500D01*
X211921000Y-121566500D02*
X211921000Y-122882500D01*
X211961000Y-118310500D02*
X211961000Y-119606500D01*
X211961000Y-121566500D02*
X211961000Y-122862500D01*
X212001000Y-118330500D02*
X212001000Y-119606500D01*
X212001000Y-121566500D02*
X212001000Y-122842500D01*
X212041000Y-118352500D02*
X212041000Y-119606500D01*
X212041000Y-121566500D02*
X212041000Y-122820500D01*
X212081000Y-118374500D02*
X212081000Y-119606500D01*
X212081000Y-121566500D02*
X212081000Y-122798500D01*
X212121000Y-118397500D02*
X212121000Y-119606500D01*
X212121000Y-121566500D02*
X212121000Y-122775500D01*
X212161000Y-118421500D02*
X212161000Y-119606500D01*
X212161000Y-121566500D02*
X212161000Y-122751500D01*
X212201000Y-118446500D02*
X212201000Y-119606500D01*
X212201000Y-121566500D02*
X212201000Y-122726500D01*
X212241000Y-118473500D02*
X212241000Y-119606500D01*
X212241000Y-121566500D02*
X212241000Y-122699500D01*
X212281000Y-118500500D02*
X212281000Y-119606500D01*
X212281000Y-121566500D02*
X212281000Y-122672500D01*
X212321000Y-118528500D02*
X212321000Y-119606500D01*
X212321000Y-121566500D02*
X212321000Y-122644500D01*
X212361000Y-118558500D02*
X212361000Y-119606500D01*
X212361000Y-121566500D02*
X212361000Y-122614500D01*
X212401000Y-118589500D02*
X212401000Y-119606500D01*
X212401000Y-121566500D02*
X212401000Y-122583500D01*
X212441000Y-118621500D02*
X212441000Y-119606500D01*
X212441000Y-121566500D02*
X212441000Y-122551500D01*
X212481000Y-118654500D02*
X212481000Y-119606500D01*
X212481000Y-121566500D02*
X212481000Y-122518500D01*
X212521000Y-118689500D02*
X212521000Y-119606500D01*
X212521000Y-121566500D02*
X212521000Y-122483500D01*
X212561000Y-118725500D02*
X212561000Y-119606500D01*
X212561000Y-121566500D02*
X212561000Y-122447500D01*
X212601000Y-118763500D02*
X212601000Y-119606500D01*
X212601000Y-121566500D02*
X212601000Y-122409500D01*
X212641000Y-118803500D02*
X212641000Y-119606500D01*
X212641000Y-121566500D02*
X212641000Y-122369500D01*
X212681000Y-118844500D02*
X212681000Y-119606500D01*
X212681000Y-121566500D02*
X212681000Y-122328500D01*
X212721000Y-118887500D02*
X212721000Y-119606500D01*
X212721000Y-121566500D02*
X212721000Y-122285500D01*
X212761000Y-118932500D02*
X212761000Y-119606500D01*
X212761000Y-121566500D02*
X212761000Y-122240500D01*
X212801000Y-118980500D02*
X212801000Y-119606500D01*
X212801000Y-121566500D02*
X212801000Y-122192500D01*
X212841000Y-119030500D02*
X212841000Y-119606500D01*
X212841000Y-121566500D02*
X212841000Y-122142500D01*
X212881000Y-119082500D02*
X212881000Y-119606500D01*
X212881000Y-121566500D02*
X212881000Y-122090500D01*
X212921000Y-119138500D02*
X212921000Y-119606500D01*
X212921000Y-121566500D02*
X212921000Y-122034500D01*
X212961000Y-119196500D02*
X212961000Y-119606500D01*
X212961000Y-121566500D02*
X212961000Y-121976500D01*
X213001000Y-119259500D02*
X213001000Y-119606500D01*
X213001000Y-121566500D02*
X213001000Y-121913500D01*
X213041000Y-119325500D02*
X213041000Y-121847500D01*
X213081000Y-119397500D02*
X213081000Y-121775500D01*
X213121000Y-119474500D02*
X213121000Y-121698500D01*
X213161000Y-119558500D02*
X213161000Y-121614500D01*
X213201000Y-119652500D02*
X213201000Y-121520500D01*
X213241000Y-119757500D02*
X213241000Y-121415500D01*
X213281000Y-119879500D02*
X213281000Y-121293500D01*
X213321000Y-120027500D02*
X213321000Y-121145500D01*
X213361000Y-120232500D02*
X213361000Y-120940500D01*
X207350000Y-120586500D02*
X208550000Y-120586500D01*
X207950000Y-119936500D02*
X207950000Y-121236500D01*
X206602223Y-131444722D02*
G75*
G03X206602500Y-126833420I-1179723J2305722D01*
G01*
X204242777Y-131444722D02*
G75*
G02X204242500Y-126833420I1179723J2305722D01*
G01*
X204242777Y-131444722D02*
G75*
G03X206602500Y-131444580I1179723J2305722D01*
G01*
X207972500Y-129139000D02*
X202872500Y-129139000D01*
X207972500Y-129179000D02*
X202872500Y-129179000D01*
X207971500Y-129219000D02*
X202873500Y-129219000D01*
X207970500Y-129259000D02*
X202874500Y-129259000D01*
X207968500Y-129299000D02*
X202876500Y-129299000D01*
X207965500Y-129339000D02*
X202879500Y-129339000D01*
X207961500Y-129379000D02*
X202883500Y-129379000D01*
X207957500Y-129419000D02*
X206402500Y-129419000D01*
X204442500Y-129419000D02*
X202887500Y-129419000D01*
X207953500Y-129459000D02*
X206402500Y-129459000D01*
X204442500Y-129459000D02*
X202891500Y-129459000D01*
X207947500Y-129499000D02*
X206402500Y-129499000D01*
X204442500Y-129499000D02*
X202897500Y-129499000D01*
X207941500Y-129539000D02*
X206402500Y-129539000D01*
X204442500Y-129539000D02*
X202903500Y-129539000D01*
X207935500Y-129579000D02*
X206402500Y-129579000D01*
X204442500Y-129579000D02*
X202909500Y-129579000D01*
X207928500Y-129619000D02*
X206402500Y-129619000D01*
X204442500Y-129619000D02*
X202916500Y-129619000D01*
X207920500Y-129659000D02*
X206402500Y-129659000D01*
X204442500Y-129659000D02*
X202924500Y-129659000D01*
X207911500Y-129699000D02*
X206402500Y-129699000D01*
X204442500Y-129699000D02*
X202933500Y-129699000D01*
X207902500Y-129739000D02*
X206402500Y-129739000D01*
X204442500Y-129739000D02*
X202942500Y-129739000D01*
X207892500Y-129779000D02*
X206402500Y-129779000D01*
X204442500Y-129779000D02*
X202952500Y-129779000D01*
X207882500Y-129819000D02*
X206402500Y-129819000D01*
X204442500Y-129819000D02*
X202962500Y-129819000D01*
X207870500Y-129860000D02*
X206402500Y-129860000D01*
X204442500Y-129860000D02*
X202974500Y-129860000D01*
X207858500Y-129900000D02*
X206402500Y-129900000D01*
X204442500Y-129900000D02*
X202986500Y-129900000D01*
X207846500Y-129940000D02*
X206402500Y-129940000D01*
X204442500Y-129940000D02*
X202998500Y-129940000D01*
X207832500Y-129980000D02*
X206402500Y-129980000D01*
X204442500Y-129980000D02*
X203012500Y-129980000D01*
X207818500Y-130020000D02*
X206402500Y-130020000D01*
X204442500Y-130020000D02*
X203026500Y-130020000D01*
X207804500Y-130060000D02*
X206402500Y-130060000D01*
X204442500Y-130060000D02*
X203040500Y-130060000D01*
X207788500Y-130100000D02*
X206402500Y-130100000D01*
X204442500Y-130100000D02*
X203056500Y-130100000D01*
X207772500Y-130140000D02*
X206402500Y-130140000D01*
X204442500Y-130140000D02*
X203072500Y-130140000D01*
X207755500Y-130180000D02*
X206402500Y-130180000D01*
X204442500Y-130180000D02*
X203089500Y-130180000D01*
X207737500Y-130220000D02*
X206402500Y-130220000D01*
X204442500Y-130220000D02*
X203107500Y-130220000D01*
X207718500Y-130260000D02*
X206402500Y-130260000D01*
X204442500Y-130260000D02*
X203126500Y-130260000D01*
X207698500Y-130300000D02*
X206402500Y-130300000D01*
X204442500Y-130300000D02*
X203146500Y-130300000D01*
X207678500Y-130340000D02*
X206402500Y-130340000D01*
X204442500Y-130340000D02*
X203166500Y-130340000D01*
X207656500Y-130380000D02*
X206402500Y-130380000D01*
X204442500Y-130380000D02*
X203188500Y-130380000D01*
X207634500Y-130420000D02*
X206402500Y-130420000D01*
X204442500Y-130420000D02*
X203210500Y-130420000D01*
X207611500Y-130460000D02*
X206402500Y-130460000D01*
X204442500Y-130460000D02*
X203233500Y-130460000D01*
X207587500Y-130500000D02*
X206402500Y-130500000D01*
X204442500Y-130500000D02*
X203257500Y-130500000D01*
X207562500Y-130540000D02*
X206402500Y-130540000D01*
X204442500Y-130540000D02*
X203282500Y-130540000D01*
X207535500Y-130580000D02*
X206402500Y-130580000D01*
X204442500Y-130580000D02*
X203309500Y-130580000D01*
X207508500Y-130620000D02*
X206402500Y-130620000D01*
X204442500Y-130620000D02*
X203336500Y-130620000D01*
X207480500Y-130660000D02*
X206402500Y-130660000D01*
X204442500Y-130660000D02*
X203364500Y-130660000D01*
X207450500Y-130700000D02*
X206402500Y-130700000D01*
X204442500Y-130700000D02*
X203394500Y-130700000D01*
X207419500Y-130740000D02*
X206402500Y-130740000D01*
X204442500Y-130740000D02*
X203425500Y-130740000D01*
X207387500Y-130780000D02*
X206402500Y-130780000D01*
X204442500Y-130780000D02*
X203457500Y-130780000D01*
X207354500Y-130820000D02*
X206402500Y-130820000D01*
X204442500Y-130820000D02*
X203490500Y-130820000D01*
X207319500Y-130860000D02*
X206402500Y-130860000D01*
X204442500Y-130860000D02*
X203525500Y-130860000D01*
X207283500Y-130900000D02*
X206402500Y-130900000D01*
X204442500Y-130900000D02*
X203561500Y-130900000D01*
X207245500Y-130940000D02*
X206402500Y-130940000D01*
X204442500Y-130940000D02*
X203599500Y-130940000D01*
X207205500Y-130980000D02*
X206402500Y-130980000D01*
X204442500Y-130980000D02*
X203639500Y-130980000D01*
X207164500Y-131020000D02*
X206402500Y-131020000D01*
X204442500Y-131020000D02*
X203680500Y-131020000D01*
X207121500Y-131060000D02*
X206402500Y-131060000D01*
X204442500Y-131060000D02*
X203723500Y-131060000D01*
X207076500Y-131100000D02*
X206402500Y-131100000D01*
X204442500Y-131100000D02*
X203768500Y-131100000D01*
X207028500Y-131140000D02*
X206402500Y-131140000D01*
X204442500Y-131140000D02*
X203816500Y-131140000D01*
X206978500Y-131180000D02*
X206402500Y-131180000D01*
X204442500Y-131180000D02*
X203866500Y-131180000D01*
X206926500Y-131220000D02*
X206402500Y-131220000D01*
X204442500Y-131220000D02*
X203918500Y-131220000D01*
X206870500Y-131260000D02*
X206402500Y-131260000D01*
X204442500Y-131260000D02*
X203974500Y-131260000D01*
X206812500Y-131300000D02*
X206402500Y-131300000D01*
X204442500Y-131300000D02*
X204032500Y-131300000D01*
X206749500Y-131340000D02*
X206402500Y-131340000D01*
X204442500Y-131340000D02*
X204095500Y-131340000D01*
X206683500Y-131380000D02*
X204161500Y-131380000D01*
X206611500Y-131420000D02*
X204233500Y-131420000D01*
X206534500Y-131460000D02*
X204310500Y-131460000D01*
X206450500Y-131500000D02*
X204394500Y-131500000D01*
X206356500Y-131540000D02*
X204488500Y-131540000D01*
X206251500Y-131580000D02*
X204593500Y-131580000D01*
X206129500Y-131620000D02*
X204715500Y-131620000D01*
X205981500Y-131660000D02*
X204863500Y-131660000D01*
X205776500Y-131700000D02*
X205068500Y-131700000D01*
X205422500Y-125689000D02*
X205422500Y-126889000D01*
X206072500Y-126289000D02*
X204772500Y-126289000D01*
X200152278Y-124369723D02*
G75*
G03X204763580Y-124370000I2305722J1179723D01*
G01*
X200152278Y-122010277D02*
G75*
G02X204763580Y-122010000I2305722J-1179723D01*
G01*
X200152278Y-122010277D02*
G75*
G03X200152420Y-124370000I2305722J-1179723D01*
G01*
X202458000Y-125740000D02*
X202458000Y-120640000D01*
X202418000Y-125740000D02*
X202418000Y-120640000D01*
X202378000Y-125739000D02*
X202378000Y-120641000D01*
X202338000Y-125738000D02*
X202338000Y-120642000D01*
X202298000Y-125736000D02*
X202298000Y-120644000D01*
X202258000Y-125733000D02*
X202258000Y-120647000D01*
X202218000Y-125729000D02*
X202218000Y-120651000D01*
X202178000Y-125725000D02*
X202178000Y-124170000D01*
X202178000Y-122210000D02*
X202178000Y-120655000D01*
X202138000Y-125721000D02*
X202138000Y-124170000D01*
X202138000Y-122210000D02*
X202138000Y-120659000D01*
X202098000Y-125715000D02*
X202098000Y-124170000D01*
X202098000Y-122210000D02*
X202098000Y-120665000D01*
X202058000Y-125709000D02*
X202058000Y-124170000D01*
X202058000Y-122210000D02*
X202058000Y-120671000D01*
X202018000Y-125703000D02*
X202018000Y-124170000D01*
X202018000Y-122210000D02*
X202018000Y-120677000D01*
X201978000Y-125696000D02*
X201978000Y-124170000D01*
X201978000Y-122210000D02*
X201978000Y-120684000D01*
X201938000Y-125688000D02*
X201938000Y-124170000D01*
X201938000Y-122210000D02*
X201938000Y-120692000D01*
X201898000Y-125679000D02*
X201898000Y-124170000D01*
X201898000Y-122210000D02*
X201898000Y-120701000D01*
X201858000Y-125670000D02*
X201858000Y-124170000D01*
X201858000Y-122210000D02*
X201858000Y-120710000D01*
X201818000Y-125660000D02*
X201818000Y-124170000D01*
X201818000Y-122210000D02*
X201818000Y-120720000D01*
X201778000Y-125650000D02*
X201778000Y-124170000D01*
X201778000Y-122210000D02*
X201778000Y-120730000D01*
X201737000Y-125638000D02*
X201737000Y-124170000D01*
X201737000Y-122210000D02*
X201737000Y-120742000D01*
X201697000Y-125626000D02*
X201697000Y-124170000D01*
X201697000Y-122210000D02*
X201697000Y-120754000D01*
X201657000Y-125614000D02*
X201657000Y-124170000D01*
X201657000Y-122210000D02*
X201657000Y-120766000D01*
X201617000Y-125600000D02*
X201617000Y-124170000D01*
X201617000Y-122210000D02*
X201617000Y-120780000D01*
X201577000Y-125586000D02*
X201577000Y-124170000D01*
X201577000Y-122210000D02*
X201577000Y-120794000D01*
X201537000Y-125572000D02*
X201537000Y-124170000D01*
X201537000Y-122210000D02*
X201537000Y-120808000D01*
X201497000Y-125556000D02*
X201497000Y-124170000D01*
X201497000Y-122210000D02*
X201497000Y-120824000D01*
X201457000Y-125540000D02*
X201457000Y-124170000D01*
X201457000Y-122210000D02*
X201457000Y-120840000D01*
X201417000Y-125523000D02*
X201417000Y-124170000D01*
X201417000Y-122210000D02*
X201417000Y-120857000D01*
X201377000Y-125505000D02*
X201377000Y-124170000D01*
X201377000Y-122210000D02*
X201377000Y-120875000D01*
X201337000Y-125486000D02*
X201337000Y-124170000D01*
X201337000Y-122210000D02*
X201337000Y-120894000D01*
X201297000Y-125466000D02*
X201297000Y-124170000D01*
X201297000Y-122210000D02*
X201297000Y-120914000D01*
X201257000Y-125446000D02*
X201257000Y-124170000D01*
X201257000Y-122210000D02*
X201257000Y-120934000D01*
X201217000Y-125424000D02*
X201217000Y-124170000D01*
X201217000Y-122210000D02*
X201217000Y-120956000D01*
X201177000Y-125402000D02*
X201177000Y-124170000D01*
X201177000Y-122210000D02*
X201177000Y-120978000D01*
X201137000Y-125379000D02*
X201137000Y-124170000D01*
X201137000Y-122210000D02*
X201137000Y-121001000D01*
X201097000Y-125355000D02*
X201097000Y-124170000D01*
X201097000Y-122210000D02*
X201097000Y-121025000D01*
X201057000Y-125330000D02*
X201057000Y-124170000D01*
X201057000Y-122210000D02*
X201057000Y-121050000D01*
X201017000Y-125303000D02*
X201017000Y-124170000D01*
X201017000Y-122210000D02*
X201017000Y-121077000D01*
X200977000Y-125276000D02*
X200977000Y-124170000D01*
X200977000Y-122210000D02*
X200977000Y-121104000D01*
X200937000Y-125248000D02*
X200937000Y-124170000D01*
X200937000Y-122210000D02*
X200937000Y-121132000D01*
X200897000Y-125218000D02*
X200897000Y-124170000D01*
X200897000Y-122210000D02*
X200897000Y-121162000D01*
X200857000Y-125187000D02*
X200857000Y-124170000D01*
X200857000Y-122210000D02*
X200857000Y-121193000D01*
X200817000Y-125155000D02*
X200817000Y-124170000D01*
X200817000Y-122210000D02*
X200817000Y-121225000D01*
X200777000Y-125122000D02*
X200777000Y-124170000D01*
X200777000Y-122210000D02*
X200777000Y-121258000D01*
X200737000Y-125087000D02*
X200737000Y-124170000D01*
X200737000Y-122210000D02*
X200737000Y-121293000D01*
X200697000Y-125051000D02*
X200697000Y-124170000D01*
X200697000Y-122210000D02*
X200697000Y-121329000D01*
X200657000Y-125013000D02*
X200657000Y-124170000D01*
X200657000Y-122210000D02*
X200657000Y-121367000D01*
X200617000Y-124973000D02*
X200617000Y-124170000D01*
X200617000Y-122210000D02*
X200617000Y-121407000D01*
X200577000Y-124932000D02*
X200577000Y-124170000D01*
X200577000Y-122210000D02*
X200577000Y-121448000D01*
X200537000Y-124889000D02*
X200537000Y-124170000D01*
X200537000Y-122210000D02*
X200537000Y-121491000D01*
X200497000Y-124844000D02*
X200497000Y-124170000D01*
X200497000Y-122210000D02*
X200497000Y-121536000D01*
X200457000Y-124796000D02*
X200457000Y-124170000D01*
X200457000Y-122210000D02*
X200457000Y-121584000D01*
X200417000Y-124746000D02*
X200417000Y-124170000D01*
X200417000Y-122210000D02*
X200417000Y-121634000D01*
X200377000Y-124694000D02*
X200377000Y-124170000D01*
X200377000Y-122210000D02*
X200377000Y-121686000D01*
X200337000Y-124638000D02*
X200337000Y-124170000D01*
X200337000Y-122210000D02*
X200337000Y-121742000D01*
X200297000Y-124580000D02*
X200297000Y-124170000D01*
X200297000Y-122210000D02*
X200297000Y-121800000D01*
X200257000Y-124517000D02*
X200257000Y-124170000D01*
X200257000Y-122210000D02*
X200257000Y-121863000D01*
X200217000Y-124451000D02*
X200217000Y-121929000D01*
X200177000Y-124379000D02*
X200177000Y-122001000D01*
X200137000Y-124302000D02*
X200137000Y-122078000D01*
X200097000Y-124218000D02*
X200097000Y-122162000D01*
X200057000Y-124124000D02*
X200057000Y-122256000D01*
X200017000Y-124019000D02*
X200017000Y-122361000D01*
X199977000Y-123897000D02*
X199977000Y-122483000D01*
X199937000Y-123749000D02*
X199937000Y-122631000D01*
X199897000Y-123544000D02*
X199897000Y-122836000D01*
X205908000Y-123190000D02*
X204708000Y-123190000D01*
X205308000Y-123840000D02*
X205308000Y-122540000D01*
X214718000Y-99179000D02*
X214718000Y-98179000D01*
X213018000Y-98179000D02*
X213018000Y-99179000D01*
X204890000Y-117991000D02*
X204890000Y-118991000D01*
X206590000Y-118991000D02*
X206590000Y-117991000D01*
X177799722Y-114263277D02*
G75*
G03X173188420Y-114263000I-2305722J-1179723D01*
G01*
X177799722Y-116622723D02*
G75*
G02X173188420Y-116623000I-2305722J1179723D01*
G01*
X177799722Y-116622723D02*
G75*
G03X177799580Y-114263000I-2305722J1179723D01*
G01*
X175494000Y-112893000D02*
X175494000Y-117993000D01*
X175534000Y-112893000D02*
X175534000Y-117993000D01*
X175574000Y-112894000D02*
X175574000Y-117992000D01*
X175614000Y-112895000D02*
X175614000Y-117991000D01*
X175654000Y-112897000D02*
X175654000Y-117989000D01*
X175694000Y-112900000D02*
X175694000Y-117986000D01*
X175734000Y-112904000D02*
X175734000Y-117982000D01*
X175774000Y-112908000D02*
X175774000Y-114463000D01*
X175774000Y-116423000D02*
X175774000Y-117978000D01*
X175814000Y-112912000D02*
X175814000Y-114463000D01*
X175814000Y-116423000D02*
X175814000Y-117974000D01*
X175854000Y-112918000D02*
X175854000Y-114463000D01*
X175854000Y-116423000D02*
X175854000Y-117968000D01*
X175894000Y-112924000D02*
X175894000Y-114463000D01*
X175894000Y-116423000D02*
X175894000Y-117962000D01*
X175934000Y-112930000D02*
X175934000Y-114463000D01*
X175934000Y-116423000D02*
X175934000Y-117956000D01*
X175974000Y-112937000D02*
X175974000Y-114463000D01*
X175974000Y-116423000D02*
X175974000Y-117949000D01*
X176014000Y-112945000D02*
X176014000Y-114463000D01*
X176014000Y-116423000D02*
X176014000Y-117941000D01*
X176054000Y-112954000D02*
X176054000Y-114463000D01*
X176054000Y-116423000D02*
X176054000Y-117932000D01*
X176094000Y-112963000D02*
X176094000Y-114463000D01*
X176094000Y-116423000D02*
X176094000Y-117923000D01*
X176134000Y-112973000D02*
X176134000Y-114463000D01*
X176134000Y-116423000D02*
X176134000Y-117913000D01*
X176174000Y-112983000D02*
X176174000Y-114463000D01*
X176174000Y-116423000D02*
X176174000Y-117903000D01*
X176215000Y-112995000D02*
X176215000Y-114463000D01*
X176215000Y-116423000D02*
X176215000Y-117891000D01*
X176255000Y-113007000D02*
X176255000Y-114463000D01*
X176255000Y-116423000D02*
X176255000Y-117879000D01*
X176295000Y-113019000D02*
X176295000Y-114463000D01*
X176295000Y-116423000D02*
X176295000Y-117867000D01*
X176335000Y-113033000D02*
X176335000Y-114463000D01*
X176335000Y-116423000D02*
X176335000Y-117853000D01*
X176375000Y-113047000D02*
X176375000Y-114463000D01*
X176375000Y-116423000D02*
X176375000Y-117839000D01*
X176415000Y-113061000D02*
X176415000Y-114463000D01*
X176415000Y-116423000D02*
X176415000Y-117825000D01*
X176455000Y-113077000D02*
X176455000Y-114463000D01*
X176455000Y-116423000D02*
X176455000Y-117809000D01*
X176495000Y-113093000D02*
X176495000Y-114463000D01*
X176495000Y-116423000D02*
X176495000Y-117793000D01*
X176535000Y-113110000D02*
X176535000Y-114463000D01*
X176535000Y-116423000D02*
X176535000Y-117776000D01*
X176575000Y-113128000D02*
X176575000Y-114463000D01*
X176575000Y-116423000D02*
X176575000Y-117758000D01*
X176615000Y-113147000D02*
X176615000Y-114463000D01*
X176615000Y-116423000D02*
X176615000Y-117739000D01*
X176655000Y-113167000D02*
X176655000Y-114463000D01*
X176655000Y-116423000D02*
X176655000Y-117719000D01*
X176695000Y-113187000D02*
X176695000Y-114463000D01*
X176695000Y-116423000D02*
X176695000Y-117699000D01*
X176735000Y-113209000D02*
X176735000Y-114463000D01*
X176735000Y-116423000D02*
X176735000Y-117677000D01*
X176775000Y-113231000D02*
X176775000Y-114463000D01*
X176775000Y-116423000D02*
X176775000Y-117655000D01*
X176815000Y-113254000D02*
X176815000Y-114463000D01*
X176815000Y-116423000D02*
X176815000Y-117632000D01*
X176855000Y-113278000D02*
X176855000Y-114463000D01*
X176855000Y-116423000D02*
X176855000Y-117608000D01*
X176895000Y-113303000D02*
X176895000Y-114463000D01*
X176895000Y-116423000D02*
X176895000Y-117583000D01*
X176935000Y-113330000D02*
X176935000Y-114463000D01*
X176935000Y-116423000D02*
X176935000Y-117556000D01*
X176975000Y-113357000D02*
X176975000Y-114463000D01*
X176975000Y-116423000D02*
X176975000Y-117529000D01*
X177015000Y-113385000D02*
X177015000Y-114463000D01*
X177015000Y-116423000D02*
X177015000Y-117501000D01*
X177055000Y-113415000D02*
X177055000Y-114463000D01*
X177055000Y-116423000D02*
X177055000Y-117471000D01*
X177095000Y-113446000D02*
X177095000Y-114463000D01*
X177095000Y-116423000D02*
X177095000Y-117440000D01*
X177135000Y-113478000D02*
X177135000Y-114463000D01*
X177135000Y-116423000D02*
X177135000Y-117408000D01*
X177175000Y-113511000D02*
X177175000Y-114463000D01*
X177175000Y-116423000D02*
X177175000Y-117375000D01*
X177215000Y-113546000D02*
X177215000Y-114463000D01*
X177215000Y-116423000D02*
X177215000Y-117340000D01*
X177255000Y-113582000D02*
X177255000Y-114463000D01*
X177255000Y-116423000D02*
X177255000Y-117304000D01*
X177295000Y-113620000D02*
X177295000Y-114463000D01*
X177295000Y-116423000D02*
X177295000Y-117266000D01*
X177335000Y-113660000D02*
X177335000Y-114463000D01*
X177335000Y-116423000D02*
X177335000Y-117226000D01*
X177375000Y-113701000D02*
X177375000Y-114463000D01*
X177375000Y-116423000D02*
X177375000Y-117185000D01*
X177415000Y-113744000D02*
X177415000Y-114463000D01*
X177415000Y-116423000D02*
X177415000Y-117142000D01*
X177455000Y-113789000D02*
X177455000Y-114463000D01*
X177455000Y-116423000D02*
X177455000Y-117097000D01*
X177495000Y-113837000D02*
X177495000Y-114463000D01*
X177495000Y-116423000D02*
X177495000Y-117049000D01*
X177535000Y-113887000D02*
X177535000Y-114463000D01*
X177535000Y-116423000D02*
X177535000Y-116999000D01*
X177575000Y-113939000D02*
X177575000Y-114463000D01*
X177575000Y-116423000D02*
X177575000Y-116947000D01*
X177615000Y-113995000D02*
X177615000Y-114463000D01*
X177615000Y-116423000D02*
X177615000Y-116891000D01*
X177655000Y-114053000D02*
X177655000Y-114463000D01*
X177655000Y-116423000D02*
X177655000Y-116833000D01*
X177695000Y-114116000D02*
X177695000Y-114463000D01*
X177695000Y-116423000D02*
X177695000Y-116770000D01*
X177735000Y-114182000D02*
X177735000Y-116704000D01*
X177775000Y-114254000D02*
X177775000Y-116632000D01*
X177815000Y-114331000D02*
X177815000Y-116555000D01*
X177855000Y-114415000D02*
X177855000Y-116471000D01*
X177895000Y-114509000D02*
X177895000Y-116377000D01*
X177935000Y-114614000D02*
X177935000Y-116272000D01*
X177975000Y-114736000D02*
X177975000Y-116150000D01*
X178015000Y-114884000D02*
X178015000Y-116002000D01*
X178055000Y-115089000D02*
X178055000Y-115797000D01*
X172044000Y-115443000D02*
X173244000Y-115443000D01*
X172644000Y-114793000D02*
X172644000Y-116093000D01*
X204723722Y-112739277D02*
G75*
G03X200112420Y-112739000I-2305722J-1179723D01*
G01*
X204723722Y-115098723D02*
G75*
G02X200112420Y-115099000I-2305722J1179723D01*
G01*
X204723722Y-115098723D02*
G75*
G03X204723580Y-112739000I-2305722J1179723D01*
G01*
X202418000Y-111369000D02*
X202418000Y-116469000D01*
X202458000Y-111369000D02*
X202458000Y-116469000D01*
X202498000Y-111370000D02*
X202498000Y-116468000D01*
X202538000Y-111371000D02*
X202538000Y-116467000D01*
X202578000Y-111373000D02*
X202578000Y-116465000D01*
X202618000Y-111376000D02*
X202618000Y-116462000D01*
X202658000Y-111380000D02*
X202658000Y-116458000D01*
X202698000Y-111384000D02*
X202698000Y-112939000D01*
X202698000Y-114899000D02*
X202698000Y-116454000D01*
X202738000Y-111388000D02*
X202738000Y-112939000D01*
X202738000Y-114899000D02*
X202738000Y-116450000D01*
X202778000Y-111394000D02*
X202778000Y-112939000D01*
X202778000Y-114899000D02*
X202778000Y-116444000D01*
X202818000Y-111400000D02*
X202818000Y-112939000D01*
X202818000Y-114899000D02*
X202818000Y-116438000D01*
X202858000Y-111406000D02*
X202858000Y-112939000D01*
X202858000Y-114899000D02*
X202858000Y-116432000D01*
X202898000Y-111413000D02*
X202898000Y-112939000D01*
X202898000Y-114899000D02*
X202898000Y-116425000D01*
X202938000Y-111421000D02*
X202938000Y-112939000D01*
X202938000Y-114899000D02*
X202938000Y-116417000D01*
X202978000Y-111430000D02*
X202978000Y-112939000D01*
X202978000Y-114899000D02*
X202978000Y-116408000D01*
X203018000Y-111439000D02*
X203018000Y-112939000D01*
X203018000Y-114899000D02*
X203018000Y-116399000D01*
X203058000Y-111449000D02*
X203058000Y-112939000D01*
X203058000Y-114899000D02*
X203058000Y-116389000D01*
X203098000Y-111459000D02*
X203098000Y-112939000D01*
X203098000Y-114899000D02*
X203098000Y-116379000D01*
X203139000Y-111471000D02*
X203139000Y-112939000D01*
X203139000Y-114899000D02*
X203139000Y-116367000D01*
X203179000Y-111483000D02*
X203179000Y-112939000D01*
X203179000Y-114899000D02*
X203179000Y-116355000D01*
X203219000Y-111495000D02*
X203219000Y-112939000D01*
X203219000Y-114899000D02*
X203219000Y-116343000D01*
X203259000Y-111509000D02*
X203259000Y-112939000D01*
X203259000Y-114899000D02*
X203259000Y-116329000D01*
X203299000Y-111523000D02*
X203299000Y-112939000D01*
X203299000Y-114899000D02*
X203299000Y-116315000D01*
X203339000Y-111537000D02*
X203339000Y-112939000D01*
X203339000Y-114899000D02*
X203339000Y-116301000D01*
X203379000Y-111553000D02*
X203379000Y-112939000D01*
X203379000Y-114899000D02*
X203379000Y-116285000D01*
X203419000Y-111569000D02*
X203419000Y-112939000D01*
X203419000Y-114899000D02*
X203419000Y-116269000D01*
X203459000Y-111586000D02*
X203459000Y-112939000D01*
X203459000Y-114899000D02*
X203459000Y-116252000D01*
X203499000Y-111604000D02*
X203499000Y-112939000D01*
X203499000Y-114899000D02*
X203499000Y-116234000D01*
X203539000Y-111623000D02*
X203539000Y-112939000D01*
X203539000Y-114899000D02*
X203539000Y-116215000D01*
X203579000Y-111643000D02*
X203579000Y-112939000D01*
X203579000Y-114899000D02*
X203579000Y-116195000D01*
X203619000Y-111663000D02*
X203619000Y-112939000D01*
X203619000Y-114899000D02*
X203619000Y-116175000D01*
X203659000Y-111685000D02*
X203659000Y-112939000D01*
X203659000Y-114899000D02*
X203659000Y-116153000D01*
X203699000Y-111707000D02*
X203699000Y-112939000D01*
X203699000Y-114899000D02*
X203699000Y-116131000D01*
X203739000Y-111730000D02*
X203739000Y-112939000D01*
X203739000Y-114899000D02*
X203739000Y-116108000D01*
X203779000Y-111754000D02*
X203779000Y-112939000D01*
X203779000Y-114899000D02*
X203779000Y-116084000D01*
X203819000Y-111779000D02*
X203819000Y-112939000D01*
X203819000Y-114899000D02*
X203819000Y-116059000D01*
X203859000Y-111806000D02*
X203859000Y-112939000D01*
X203859000Y-114899000D02*
X203859000Y-116032000D01*
X203899000Y-111833000D02*
X203899000Y-112939000D01*
X203899000Y-114899000D02*
X203899000Y-116005000D01*
X203939000Y-111861000D02*
X203939000Y-112939000D01*
X203939000Y-114899000D02*
X203939000Y-115977000D01*
X203979000Y-111891000D02*
X203979000Y-112939000D01*
X203979000Y-114899000D02*
X203979000Y-115947000D01*
X204019000Y-111922000D02*
X204019000Y-112939000D01*
X204019000Y-114899000D02*
X204019000Y-115916000D01*
X204059000Y-111954000D02*
X204059000Y-112939000D01*
X204059000Y-114899000D02*
X204059000Y-115884000D01*
X204099000Y-111987000D02*
X204099000Y-112939000D01*
X204099000Y-114899000D02*
X204099000Y-115851000D01*
X204139000Y-112022000D02*
X204139000Y-112939000D01*
X204139000Y-114899000D02*
X204139000Y-115816000D01*
X204179000Y-112058000D02*
X204179000Y-112939000D01*
X204179000Y-114899000D02*
X204179000Y-115780000D01*
X204219000Y-112096000D02*
X204219000Y-112939000D01*
X204219000Y-114899000D02*
X204219000Y-115742000D01*
X204259000Y-112136000D02*
X204259000Y-112939000D01*
X204259000Y-114899000D02*
X204259000Y-115702000D01*
X204299000Y-112177000D02*
X204299000Y-112939000D01*
X204299000Y-114899000D02*
X204299000Y-115661000D01*
X204339000Y-112220000D02*
X204339000Y-112939000D01*
X204339000Y-114899000D02*
X204339000Y-115618000D01*
X204379000Y-112265000D02*
X204379000Y-112939000D01*
X204379000Y-114899000D02*
X204379000Y-115573000D01*
X204419000Y-112313000D02*
X204419000Y-112939000D01*
X204419000Y-114899000D02*
X204419000Y-115525000D01*
X204459000Y-112363000D02*
X204459000Y-112939000D01*
X204459000Y-114899000D02*
X204459000Y-115475000D01*
X204499000Y-112415000D02*
X204499000Y-112939000D01*
X204499000Y-114899000D02*
X204499000Y-115423000D01*
X204539000Y-112471000D02*
X204539000Y-112939000D01*
X204539000Y-114899000D02*
X204539000Y-115367000D01*
X204579000Y-112529000D02*
X204579000Y-112939000D01*
X204579000Y-114899000D02*
X204579000Y-115309000D01*
X204619000Y-112592000D02*
X204619000Y-112939000D01*
X204619000Y-114899000D02*
X204619000Y-115246000D01*
X204659000Y-112658000D02*
X204659000Y-115180000D01*
X204699000Y-112730000D02*
X204699000Y-115108000D01*
X204739000Y-112807000D02*
X204739000Y-115031000D01*
X204779000Y-112891000D02*
X204779000Y-114947000D01*
X204819000Y-112985000D02*
X204819000Y-114853000D01*
X204859000Y-113090000D02*
X204859000Y-114748000D01*
X204899000Y-113212000D02*
X204899000Y-114626000D01*
X204939000Y-113360000D02*
X204939000Y-114478000D01*
X204979000Y-113565000D02*
X204979000Y-114273000D01*
X198968000Y-113919000D02*
X200168000Y-113919000D01*
X199568000Y-113269000D02*
X199568000Y-114569000D01*
X208018000Y-133820800D02*
X207018000Y-133820800D01*
X207018000Y-135520800D02*
X208018000Y-135520800D01*
D12*
X195738000Y-122183000D02*
X183738000Y-122183000D01*
X195738000Y-120133000D02*
X183738000Y-120133000D01*
X195738000Y-120133000D02*
X195738000Y-118708000D01*
X183738000Y-120133000D02*
X183738000Y-118708000D01*
X195738000Y-118708000D02*
X198288000Y-118708000D01*
X183738000Y-118708000D02*
X181188000Y-118708000D01*
X198288000Y-118708000D02*
X198288000Y-121158000D01*
X181188000Y-118708000D02*
X181188000Y-121158000D01*
X198288000Y-121158000D02*
X195738000Y-121158000D01*
X181188000Y-121158000D02*
X183738000Y-121158000D01*
X195738000Y-121158000D02*
X195738000Y-122183000D01*
X183738000Y-121158000D02*
X183738000Y-122183000D01*
D11*
X208018510Y-94264518D02*
X207169982Y-93415990D01*
X208414490Y-92171482D02*
X209263018Y-93020010D01*
X209352010Y-92867518D02*
X208503482Y-92018990D01*
X209747990Y-90774482D02*
X210596518Y-91623010D01*
X202360497Y-90230289D02*
X203774711Y-91644503D01*
X202261503Y-93157711D02*
X200847289Y-91743497D01*
X206897003Y-97793211D02*
X205482789Y-96378997D01*
X206995997Y-94865789D02*
X208410211Y-96280003D01*
X195361000Y-115452000D02*
X196561000Y-115452000D01*
X196561000Y-117212000D02*
X195361000Y-117212000D01*
X178635000Y-120126000D02*
X178635000Y-118126000D01*
X180775000Y-118126000D02*
X180775000Y-120126000D01*
X173974000Y-108385000D02*
X171974000Y-108385000D01*
X171974000Y-106245000D02*
X173974000Y-106245000D01*
X173974000Y-110798000D02*
X171974000Y-110798000D01*
X171974000Y-108658000D02*
X173974000Y-108658000D01*
D12*
X209131500Y-123851000D02*
X209906500Y-123851000D01*
X212381500Y-127101000D02*
X211606500Y-127101000D01*
X212381500Y-123851000D02*
X211606500Y-123851000D01*
X209131500Y-127101000D02*
X209131500Y-126326000D01*
X212381500Y-127101000D02*
X212381500Y-126326000D01*
X212381500Y-123851000D02*
X212381500Y-124626000D01*
X209131500Y-123851000D02*
X209131500Y-124626000D01*
D11*
X177124000Y-121042000D02*
X177124000Y-119242000D01*
X173904000Y-119242000D02*
X173904000Y-121692000D01*
X204048000Y-119645000D02*
X204048000Y-117845000D01*
X200828000Y-117845000D02*
X200828000Y-120295000D01*
X204245000Y-99696000D02*
X204245000Y-102996000D01*
X204245000Y-102996000D02*
X209645000Y-102996000D01*
X204245000Y-99696000D02*
X209645000Y-99696000D01*
X204123500Y-102932500D02*
X204123500Y-99632500D01*
X204123500Y-99632500D02*
X198723500Y-99632500D01*
X204123500Y-102932500D02*
X198723500Y-102932500D01*
D13*
X211256374Y-128313180D02*
G75*
G03X211256374Y-128313180I-248414J0D01*
G01*
X211256880Y-130962400D02*
X210256120Y-130962400D01*
X211256880Y-127911860D02*
X210256120Y-127911860D01*
X212257640Y-127911860D02*
X212056980Y-127911860D01*
X212257640Y-127911860D02*
X212257640Y-128112520D01*
X209255360Y-127911860D02*
X209456020Y-127911860D01*
X209255360Y-127911860D02*
X209255360Y-128112520D01*
X209255360Y-130914140D02*
X209255360Y-130713480D01*
X209255360Y-130914140D02*
X209456020Y-130914140D01*
X212257640Y-130914140D02*
X212257640Y-130713480D01*
X212257640Y-130914140D02*
X212056980Y-130914140D01*
D12*
X193444000Y-111150400D02*
G75*
G03X193444000Y-111150400I-1420000J0D01*
G01*
X205991600Y-97942400D02*
G75*
G03X205991600Y-97942400I-1420000J0D01*
G01*
X205077200Y-133350000D02*
G75*
G03X205077200Y-133350000I-1420000J0D01*
G01*
X188719600Y-110896400D02*
G75*
G03X188719600Y-110896400I-1420000J0D01*
G01*
X185366800Y-110896400D02*
G75*
G03X185366800Y-110896400I-1420000J0D01*
G01*
X200200400Y-96469200D02*
G75*
G03X200200400Y-96469200I-1420000J0D01*
G01*
D11*
X188045600Y-92357600D02*
X186045600Y-92357600D01*
X186045600Y-90217600D02*
X188045600Y-90217600D01*
X177701600Y-101920800D02*
X177701600Y-103920800D01*
X175561600Y-103920800D02*
X175561600Y-101920800D01*
X188096400Y-94948400D02*
X186096400Y-94948400D01*
X186096400Y-92808400D02*
X188096400Y-92808400D01*
X171338800Y-104156400D02*
X170138800Y-104156400D01*
X170138800Y-102396400D02*
X171338800Y-102396400D01*
X188096400Y-97488400D02*
X186096400Y-97488400D01*
X186096400Y-95348400D02*
X188096400Y-95348400D01*
X188096400Y-99977600D02*
X186096400Y-99977600D01*
X186096400Y-97837600D02*
X188096400Y-97837600D01*
X188147200Y-102517600D02*
X186147200Y-102517600D01*
X186147200Y-100377600D02*
X188147200Y-100377600D01*
X188147200Y-105108400D02*
X186147200Y-105108400D01*
X186147200Y-102968400D02*
X188147200Y-102968400D01*
X203266800Y-135886800D02*
X205266800Y-135886800D01*
X205266800Y-138026800D02*
X203266800Y-138026800D01*
D12*
X175240334Y-129008143D02*
X175192715Y-129055762D01*
X175049858Y-129103381D01*
X174954620Y-129103381D01*
X174811762Y-129055762D01*
X174716524Y-128960524D01*
X174668905Y-128865286D01*
X174621286Y-128674810D01*
X174621286Y-128531952D01*
X174668905Y-128341476D01*
X174716524Y-128246238D01*
X174811762Y-128151000D01*
X174954620Y-128103381D01*
X175049858Y-128103381D01*
X175192715Y-128151000D01*
X175240334Y-128198619D01*
X175811762Y-128531952D02*
X175716524Y-128484333D01*
X175668905Y-128436714D01*
X175621286Y-128341476D01*
X175621286Y-128293857D01*
X175668905Y-128198619D01*
X175716524Y-128151000D01*
X175811762Y-128103381D01*
X176002239Y-128103381D01*
X176097477Y-128151000D01*
X176145096Y-128198619D01*
X176192715Y-128293857D01*
X176192715Y-128341476D01*
X176145096Y-128436714D01*
X176097477Y-128484333D01*
X176002239Y-128531952D01*
X175811762Y-128531952D01*
X175716524Y-128579571D01*
X175668905Y-128627190D01*
X175621286Y-128722429D01*
X175621286Y-128912905D01*
X175668905Y-129008143D01*
X175716524Y-129055762D01*
X175811762Y-129103381D01*
X176002239Y-129103381D01*
X176097477Y-129055762D01*
X176145096Y-129008143D01*
X176192715Y-128912905D01*
X176192715Y-128722429D01*
X176145096Y-128627190D01*
X176097477Y-128579571D01*
X176002239Y-128531952D01*
X181741143Y-116498666D02*
X181788762Y-116546285D01*
X181836381Y-116689142D01*
X181836381Y-116784380D01*
X181788762Y-116927238D01*
X181693524Y-117022476D01*
X181598286Y-117070095D01*
X181407810Y-117117714D01*
X181264952Y-117117714D01*
X181074476Y-117070095D01*
X180979238Y-117022476D01*
X180884000Y-116927238D01*
X180836381Y-116784380D01*
X180836381Y-116689142D01*
X180884000Y-116546285D01*
X180931619Y-116498666D01*
X181836381Y-115546285D02*
X181836381Y-116117714D01*
X181836381Y-115832000D02*
X180836381Y-115832000D01*
X180979238Y-115927238D01*
X181074476Y-116022476D01*
X181122095Y-116117714D01*
X192568534Y-119178343D02*
X192520915Y-119225962D01*
X192378058Y-119273581D01*
X192282820Y-119273581D01*
X192139962Y-119225962D01*
X192044724Y-119130724D01*
X191997105Y-119035486D01*
X191949486Y-118845010D01*
X191949486Y-118702152D01*
X191997105Y-118511676D01*
X192044724Y-118416438D01*
X192139962Y-118321200D01*
X192282820Y-118273581D01*
X192378058Y-118273581D01*
X192520915Y-118321200D01*
X192568534Y-118368819D01*
X192949486Y-118368819D02*
X192997105Y-118321200D01*
X193092343Y-118273581D01*
X193330439Y-118273581D01*
X193425677Y-118321200D01*
X193473296Y-118368819D01*
X193520915Y-118464057D01*
X193520915Y-118559295D01*
X193473296Y-118702152D01*
X192901867Y-119273581D01*
X193520915Y-119273581D01*
X186821143Y-117006666D02*
X186868762Y-117054285D01*
X186916381Y-117197142D01*
X186916381Y-117292380D01*
X186868762Y-117435238D01*
X186773524Y-117530476D01*
X186678286Y-117578095D01*
X186487810Y-117625714D01*
X186344952Y-117625714D01*
X186154476Y-117578095D01*
X186059238Y-117530476D01*
X185964000Y-117435238D01*
X185916381Y-117292380D01*
X185916381Y-117197142D01*
X185964000Y-117054285D01*
X186011619Y-117006666D01*
X185916381Y-116673333D02*
X185916381Y-116054285D01*
X186297333Y-116387619D01*
X186297333Y-116244761D01*
X186344952Y-116149523D01*
X186392571Y-116101904D01*
X186487810Y-116054285D01*
X186725905Y-116054285D01*
X186821143Y-116101904D01*
X186868762Y-116149523D01*
X186916381Y-116244761D01*
X186916381Y-116530476D01*
X186868762Y-116625714D01*
X186821143Y-116673333D01*
X210633334Y-117133643D02*
X210585715Y-117181262D01*
X210442858Y-117228881D01*
X210347620Y-117228881D01*
X210204762Y-117181262D01*
X210109524Y-117086024D01*
X210061905Y-116990786D01*
X210014286Y-116800310D01*
X210014286Y-116657452D01*
X210061905Y-116466976D01*
X210109524Y-116371738D01*
X210204762Y-116276500D01*
X210347620Y-116228881D01*
X210442858Y-116228881D01*
X210585715Y-116276500D01*
X210633334Y-116324119D01*
X211490477Y-116562214D02*
X211490477Y-117228881D01*
X211252381Y-116181262D02*
X211014286Y-116895548D01*
X211633334Y-116895548D01*
X200848934Y-131929143D02*
X200801315Y-131976762D01*
X200658458Y-132024381D01*
X200563220Y-132024381D01*
X200420362Y-131976762D01*
X200325124Y-131881524D01*
X200277505Y-131786286D01*
X200229886Y-131595810D01*
X200229886Y-131452952D01*
X200277505Y-131262476D01*
X200325124Y-131167238D01*
X200420362Y-131072000D01*
X200563220Y-131024381D01*
X200658458Y-131024381D01*
X200801315Y-131072000D01*
X200848934Y-131119619D01*
X201182267Y-131024381D02*
X201848934Y-131024381D01*
X201420362Y-132024381D01*
X202291334Y-127357143D02*
X202243715Y-127404762D01*
X202100858Y-127452381D01*
X202005620Y-127452381D01*
X201862762Y-127404762D01*
X201767524Y-127309524D01*
X201719905Y-127214286D01*
X201672286Y-127023810D01*
X201672286Y-126880952D01*
X201719905Y-126690476D01*
X201767524Y-126595238D01*
X201862762Y-126500000D01*
X202005620Y-126452381D01*
X202100858Y-126452381D01*
X202243715Y-126500000D01*
X202291334Y-126547619D01*
X202767524Y-127452381D02*
X202958000Y-127452381D01*
X203053239Y-127404762D01*
X203100858Y-127357143D01*
X203196096Y-127214286D01*
X203243715Y-127023810D01*
X203243715Y-126642857D01*
X203196096Y-126547619D01*
X203148477Y-126500000D01*
X203053239Y-126452381D01*
X202862762Y-126452381D01*
X202767524Y-126500000D01*
X202719905Y-126547619D01*
X202672286Y-126642857D01*
X202672286Y-126880952D01*
X202719905Y-126976190D01*
X202767524Y-127023810D01*
X202862762Y-127071429D01*
X203053239Y-127071429D01*
X203148477Y-127023810D01*
X203196096Y-126976190D01*
X203243715Y-126880952D01*
X215975143Y-99321857D02*
X216022762Y-99369476D01*
X216070381Y-99512333D01*
X216070381Y-99607571D01*
X216022762Y-99750429D01*
X215927524Y-99845667D01*
X215832286Y-99893286D01*
X215641810Y-99940905D01*
X215498952Y-99940905D01*
X215308476Y-99893286D01*
X215213238Y-99845667D01*
X215118000Y-99750429D01*
X215070381Y-99607571D01*
X215070381Y-99512333D01*
X215118000Y-99369476D01*
X215165619Y-99321857D01*
X216070381Y-98369476D02*
X216070381Y-98940905D01*
X216070381Y-98655191D02*
X215070381Y-98655191D01*
X215213238Y-98750429D01*
X215308476Y-98845667D01*
X215356095Y-98940905D01*
X215070381Y-97750429D02*
X215070381Y-97655190D01*
X215118000Y-97559952D01*
X215165619Y-97512333D01*
X215260857Y-97464714D01*
X215451333Y-97417095D01*
X215689429Y-97417095D01*
X215879905Y-97464714D01*
X215975143Y-97512333D01*
X216022762Y-97559952D01*
X216070381Y-97655190D01*
X216070381Y-97750429D01*
X216022762Y-97845667D01*
X215975143Y-97893286D01*
X215879905Y-97940905D01*
X215689429Y-97988524D01*
X215451333Y-97988524D01*
X215260857Y-97940905D01*
X215165619Y-97893286D01*
X215118000Y-97845667D01*
X215070381Y-97750429D01*
X204347143Y-119133857D02*
X204394762Y-119181476D01*
X204442381Y-119324333D01*
X204442381Y-119419571D01*
X204394762Y-119562429D01*
X204299524Y-119657667D01*
X204204286Y-119705286D01*
X204013810Y-119752905D01*
X203870952Y-119752905D01*
X203680476Y-119705286D01*
X203585238Y-119657667D01*
X203490000Y-119562429D01*
X203442381Y-119419571D01*
X203442381Y-119324333D01*
X203490000Y-119181476D01*
X203537619Y-119133857D01*
X204442381Y-118181476D02*
X204442381Y-118752905D01*
X204442381Y-118467191D02*
X203442381Y-118467191D01*
X203585238Y-118562429D01*
X203680476Y-118657667D01*
X203728095Y-118752905D01*
X203537619Y-117800524D02*
X203490000Y-117752905D01*
X203442381Y-117657667D01*
X203442381Y-117419571D01*
X203490000Y-117324333D01*
X203537619Y-117276714D01*
X203632857Y-117229095D01*
X203728095Y-117229095D01*
X203870952Y-117276714D01*
X204442381Y-117848143D01*
X204442381Y-117229095D01*
X176750743Y-112675943D02*
X176703124Y-112723562D01*
X176560267Y-112771181D01*
X176465029Y-112771181D01*
X176322171Y-112723562D01*
X176226933Y-112628324D01*
X176179314Y-112533086D01*
X176131695Y-112342610D01*
X176131695Y-112199752D01*
X176179314Y-112009276D01*
X176226933Y-111914038D01*
X176322171Y-111818800D01*
X176465029Y-111771181D01*
X176560267Y-111771181D01*
X176703124Y-111818800D01*
X176750743Y-111866419D01*
X177703124Y-112771181D02*
X177131695Y-112771181D01*
X177417409Y-112771181D02*
X177417409Y-111771181D01*
X177322171Y-111914038D01*
X177226933Y-112009276D01*
X177131695Y-112056895D01*
X178036457Y-111771181D02*
X178655505Y-111771181D01*
X178322171Y-112152133D01*
X178465029Y-112152133D01*
X178560267Y-112199752D01*
X178607886Y-112247371D01*
X178655505Y-112342610D01*
X178655505Y-112580705D01*
X178607886Y-112675943D01*
X178560267Y-112723562D01*
X178465029Y-112771181D01*
X178179314Y-112771181D01*
X178084076Y-112723562D01*
X178036457Y-112675943D01*
X201775143Y-110466143D02*
X201727524Y-110513762D01*
X201584667Y-110561381D01*
X201489429Y-110561381D01*
X201346571Y-110513762D01*
X201251333Y-110418524D01*
X201203714Y-110323286D01*
X201156095Y-110132810D01*
X201156095Y-109989952D01*
X201203714Y-109799476D01*
X201251333Y-109704238D01*
X201346571Y-109609000D01*
X201489429Y-109561381D01*
X201584667Y-109561381D01*
X201727524Y-109609000D01*
X201775143Y-109656619D01*
X202727524Y-110561381D02*
X202156095Y-110561381D01*
X202441809Y-110561381D02*
X202441809Y-109561381D01*
X202346571Y-109704238D01*
X202251333Y-109799476D01*
X202156095Y-109847095D01*
X203584667Y-109894714D02*
X203584667Y-110561381D01*
X203346571Y-109513762D02*
X203108476Y-110228048D01*
X203727524Y-110228048D01*
X210634343Y-135078743D02*
X210586724Y-135126362D01*
X210443867Y-135173981D01*
X210348629Y-135173981D01*
X210205771Y-135126362D01*
X210110533Y-135031124D01*
X210062914Y-134935886D01*
X210015295Y-134745410D01*
X210015295Y-134602552D01*
X210062914Y-134412076D01*
X210110533Y-134316838D01*
X210205771Y-134221600D01*
X210348629Y-134173981D01*
X210443867Y-134173981D01*
X210586724Y-134221600D01*
X210634343Y-134269219D01*
X211586724Y-135173981D02*
X211015295Y-135173981D01*
X211301009Y-135173981D02*
X211301009Y-134173981D01*
X211205771Y-134316838D01*
X211110533Y-134412076D01*
X211015295Y-134459695D01*
X212443867Y-134173981D02*
X212253390Y-134173981D01*
X212158152Y-134221600D01*
X212110533Y-134269219D01*
X212015295Y-134412076D01*
X211967676Y-134602552D01*
X211967676Y-134983505D01*
X212015295Y-135078743D01*
X212062914Y-135126362D01*
X212158152Y-135173981D01*
X212348629Y-135173981D01*
X212443867Y-135126362D01*
X212491486Y-135078743D01*
X212539105Y-134983505D01*
X212539105Y-134745410D01*
X212491486Y-134650171D01*
X212443867Y-134602552D01*
X212348629Y-134554933D01*
X212158152Y-134554933D01*
X212062914Y-134602552D01*
X212015295Y-134650171D01*
X211967676Y-134745410D01*
X189338000Y-118550857D02*
X189338000Y-119408000D01*
X189280858Y-119579429D01*
X189166572Y-119693714D01*
X188995143Y-119750857D01*
X188880858Y-119750857D01*
X190538001Y-119750857D02*
X189852286Y-119750857D01*
X190195144Y-119750857D02*
X190195144Y-118550857D01*
X190080858Y-118722286D01*
X189966572Y-118836571D01*
X189852286Y-118893714D01*
X205200668Y-90981631D02*
X205301683Y-90409210D01*
X204796606Y-90577570D02*
X205503713Y-89870463D01*
X205773088Y-90139837D01*
X205806759Y-90240853D01*
X205806759Y-90308196D01*
X205773088Y-90409211D01*
X205672072Y-90510226D01*
X205571057Y-90543898D01*
X205503714Y-90543898D01*
X205402699Y-90510226D01*
X205133324Y-90240852D01*
X205874103Y-91655066D02*
X205470041Y-91251005D01*
X205672072Y-91453035D02*
X206379178Y-90745928D01*
X206210820Y-90779600D01*
X206076133Y-90779600D01*
X205975118Y-90745928D01*
X206369068Y-89711631D02*
X206470083Y-89139210D01*
X205965006Y-89307570D02*
X206672113Y-88600463D01*
X206941488Y-88869837D01*
X206975159Y-88970853D01*
X206975159Y-89038196D01*
X206941488Y-89139211D01*
X206840472Y-89240226D01*
X206739457Y-89273898D01*
X206672114Y-89273898D01*
X206571099Y-89240226D01*
X206301724Y-88970852D01*
X207278205Y-89341241D02*
X207345548Y-89341241D01*
X207446563Y-89374913D01*
X207614923Y-89543272D01*
X207648594Y-89644288D01*
X207648594Y-89711631D01*
X207614923Y-89812646D01*
X207547579Y-89879990D01*
X207412892Y-89947333D01*
X206604770Y-89947333D01*
X207042503Y-90385066D01*
X200565120Y-93204179D02*
X200666135Y-92631758D01*
X200161058Y-92800118D02*
X200868165Y-92093011D01*
X201137540Y-92362385D01*
X201171211Y-92463401D01*
X201171211Y-92530744D01*
X201137540Y-92631759D01*
X201036524Y-92732774D01*
X200935509Y-92766446D01*
X200868166Y-92766446D01*
X200767151Y-92732774D01*
X200497776Y-92463400D01*
X201507928Y-92732774D02*
X201945662Y-93170507D01*
X201440585Y-93204178D01*
X201541601Y-93305194D01*
X201575273Y-93406209D01*
X201575273Y-93473553D01*
X201541600Y-93574569D01*
X201373242Y-93742927D01*
X201272226Y-93776599D01*
X201204883Y-93776599D01*
X201103868Y-93742927D01*
X200901837Y-93540896D01*
X200868165Y-93439881D01*
X200868165Y-93372538D01*
X209417068Y-96823631D02*
X209518083Y-96251210D01*
X209013006Y-96419570D02*
X209720113Y-95712463D01*
X209989488Y-95981837D01*
X210023159Y-96082853D01*
X210023159Y-96150196D01*
X209989488Y-96251211D01*
X209888472Y-96352226D01*
X209787457Y-96385898D01*
X209720114Y-96385898D01*
X209619099Y-96352226D01*
X209349724Y-96082852D01*
X210494564Y-96958318D02*
X210023159Y-97429723D01*
X210595578Y-96520585D02*
X209922143Y-96857303D01*
X210359876Y-97295036D01*
X195794334Y-118484381D02*
X195461000Y-118008190D01*
X195222905Y-118484381D02*
X195222905Y-117484381D01*
X195603858Y-117484381D01*
X195699096Y-117532000D01*
X195746715Y-117579619D01*
X195794334Y-117674857D01*
X195794334Y-117817714D01*
X195746715Y-117912952D01*
X195699096Y-117960571D01*
X195603858Y-118008190D01*
X195222905Y-118008190D01*
X196699096Y-117484381D02*
X196222905Y-117484381D01*
X196175286Y-117960571D01*
X196222905Y-117912952D01*
X196318143Y-117865333D01*
X196556239Y-117865333D01*
X196651477Y-117912952D01*
X196699096Y-117960571D01*
X196746715Y-118055810D01*
X196746715Y-118293905D01*
X196699096Y-118389143D01*
X196651477Y-118436762D01*
X196556239Y-118484381D01*
X196318143Y-118484381D01*
X196222905Y-118436762D01*
X196175286Y-118389143D01*
X182007381Y-119292666D02*
X181531190Y-119626000D01*
X182007381Y-119864095D02*
X181007381Y-119864095D01*
X181007381Y-119483142D01*
X181055000Y-119387904D01*
X181102619Y-119340285D01*
X181197857Y-119292666D01*
X181340714Y-119292666D01*
X181435952Y-119340285D01*
X181483571Y-119387904D01*
X181531190Y-119483142D01*
X181531190Y-119864095D01*
X181007381Y-118435523D02*
X181007381Y-118626000D01*
X181055000Y-118721238D01*
X181102619Y-118768857D01*
X181245476Y-118864095D01*
X181435952Y-118911714D01*
X181816905Y-118911714D01*
X181912143Y-118864095D01*
X181959762Y-118816476D01*
X182007381Y-118721238D01*
X182007381Y-118530761D01*
X181959762Y-118435523D01*
X181912143Y-118387904D01*
X181816905Y-118340285D01*
X181578810Y-118340285D01*
X181483571Y-118387904D01*
X181435952Y-118435523D01*
X181388333Y-118530761D01*
X181388333Y-118721238D01*
X181435952Y-118816476D01*
X181483571Y-118864095D01*
X181578810Y-118911714D01*
X177074534Y-107741981D02*
X176741200Y-107265790D01*
X176503105Y-107741981D02*
X176503105Y-106741981D01*
X176884058Y-106741981D01*
X176979296Y-106789600D01*
X177026915Y-106837219D01*
X177074534Y-106932457D01*
X177074534Y-107075314D01*
X177026915Y-107170552D01*
X176979296Y-107218171D01*
X176884058Y-107265790D01*
X176503105Y-107265790D01*
X177407867Y-106741981D02*
X178074534Y-106741981D01*
X177645962Y-107741981D01*
X177074534Y-110231181D02*
X176741200Y-109754990D01*
X176503105Y-110231181D02*
X176503105Y-109231181D01*
X176884058Y-109231181D01*
X176979296Y-109278800D01*
X177026915Y-109326419D01*
X177074534Y-109421657D01*
X177074534Y-109564514D01*
X177026915Y-109659752D01*
X176979296Y-109707371D01*
X176884058Y-109754990D01*
X176503105Y-109754990D01*
X177645962Y-109659752D02*
X177550724Y-109612133D01*
X177503105Y-109564514D01*
X177455486Y-109469276D01*
X177455486Y-109421657D01*
X177503105Y-109326419D01*
X177550724Y-109278800D01*
X177645962Y-109231181D01*
X177836439Y-109231181D01*
X177931677Y-109278800D01*
X177979296Y-109326419D01*
X178026915Y-109421657D01*
X178026915Y-109469276D01*
X177979296Y-109564514D01*
X177931677Y-109612133D01*
X177836439Y-109659752D01*
X177645962Y-109659752D01*
X177550724Y-109707371D01*
X177503105Y-109754990D01*
X177455486Y-109850229D01*
X177455486Y-110040705D01*
X177503105Y-110135943D01*
X177550724Y-110183562D01*
X177645962Y-110231181D01*
X177836439Y-110231181D01*
X177931677Y-110183562D01*
X177979296Y-110135943D01*
X178026915Y-110040705D01*
X178026915Y-109850229D01*
X177979296Y-109754990D01*
X177931677Y-109707371D01*
X177836439Y-109659752D01*
X207458881Y-126237905D02*
X208268405Y-126237905D01*
X208363643Y-126190286D01*
X208411262Y-126142667D01*
X208458881Y-126047429D01*
X208458881Y-125856952D01*
X208411262Y-125761714D01*
X208363643Y-125714095D01*
X208268405Y-125666476D01*
X207458881Y-125666476D01*
X208458881Y-124666476D02*
X208458881Y-125237905D01*
X208458881Y-124952191D02*
X207458881Y-124952191D01*
X207601738Y-125047429D01*
X207696976Y-125142667D01*
X207744595Y-125237905D01*
X172066381Y-120903905D02*
X172875905Y-120903905D01*
X172971143Y-120856286D01*
X173018762Y-120808667D01*
X173066381Y-120713429D01*
X173066381Y-120522952D01*
X173018762Y-120427714D01*
X172971143Y-120380095D01*
X172875905Y-120332476D01*
X172066381Y-120332476D01*
X172066381Y-119951524D02*
X172066381Y-119332476D01*
X172447333Y-119665810D01*
X172447333Y-119522952D01*
X172494952Y-119427714D01*
X172542571Y-119380095D01*
X172637810Y-119332476D01*
X172875905Y-119332476D01*
X172971143Y-119380095D01*
X173018762Y-119427714D01*
X173066381Y-119522952D01*
X173066381Y-119808667D01*
X173018762Y-119903905D01*
X172971143Y-119951524D01*
X198990381Y-119506905D02*
X199799905Y-119506905D01*
X199895143Y-119459286D01*
X199942762Y-119411667D01*
X199990381Y-119316429D01*
X199990381Y-119125952D01*
X199942762Y-119030714D01*
X199895143Y-118983095D01*
X199799905Y-118935476D01*
X198990381Y-118935476D01*
X199323714Y-118030714D02*
X199990381Y-118030714D01*
X198942762Y-118268810D02*
X199657048Y-118506905D01*
X199657048Y-117887857D01*
X210132705Y-104338381D02*
X210132705Y-103338381D01*
X210370800Y-103338381D01*
X210513658Y-103386000D01*
X210608896Y-103481238D01*
X210656515Y-103576476D01*
X210704134Y-103766952D01*
X210704134Y-103909810D01*
X210656515Y-104100286D01*
X210608896Y-104195524D01*
X210513658Y-104290762D01*
X210370800Y-104338381D01*
X210132705Y-104338381D01*
X211656515Y-104338381D02*
X211085086Y-104338381D01*
X211370800Y-104338381D02*
X211370800Y-103338381D01*
X211275562Y-103481238D01*
X211180324Y-103576476D01*
X211085086Y-103624095D01*
X199985405Y-104234881D02*
X199985405Y-103234881D01*
X200223500Y-103234881D01*
X200366358Y-103282500D01*
X200461596Y-103377738D01*
X200509215Y-103472976D01*
X200556834Y-103663452D01*
X200556834Y-103806310D01*
X200509215Y-103996786D01*
X200461596Y-104092024D01*
X200366358Y-104187262D01*
X200223500Y-104234881D01*
X199985405Y-104234881D01*
X200937786Y-103330119D02*
X200985405Y-103282500D01*
X201080643Y-103234881D01*
X201318739Y-103234881D01*
X201413977Y-103282500D01*
X201461596Y-103330119D01*
X201509215Y-103425357D01*
X201509215Y-103520595D01*
X201461596Y-103663452D01*
X200890167Y-104234881D01*
X201509215Y-104234881D01*
X190509715Y-108248257D02*
X191195429Y-108248257D01*
X190852572Y-109448257D02*
X190852572Y-108248257D01*
X191595429Y-109448257D02*
X191595429Y-108248257D01*
X192052572Y-108248257D01*
X192166858Y-108305400D01*
X192224001Y-108362543D01*
X192281144Y-108476829D01*
X192281144Y-108648257D01*
X192224001Y-108762543D01*
X192166858Y-108819686D01*
X192052572Y-108876829D01*
X191595429Y-108876829D01*
X193424001Y-109448257D02*
X192738286Y-109448257D01*
X193081144Y-109448257D02*
X193081144Y-108248257D01*
X192966858Y-108419686D01*
X192852572Y-108533971D01*
X192738286Y-108591114D01*
X200517315Y-95507257D02*
X201203029Y-95507257D01*
X200860172Y-96707257D02*
X200860172Y-95507257D01*
X201603029Y-96707257D02*
X201603029Y-95507257D01*
X202060172Y-95507257D01*
X202174458Y-95564400D01*
X202231601Y-95621543D01*
X202288744Y-95735829D01*
X202288744Y-95907257D01*
X202231601Y-96021543D01*
X202174458Y-96078686D01*
X202060172Y-96135829D01*
X201603029Y-96135829D01*
X202745886Y-95621543D02*
X202803029Y-95564400D01*
X202917315Y-95507257D01*
X203203029Y-95507257D01*
X203317315Y-95564400D01*
X203374458Y-95621543D01*
X203431601Y-95735829D01*
X203431601Y-95850114D01*
X203374458Y-96021543D01*
X202688744Y-96707257D01*
X203431601Y-96707257D01*
X199044115Y-133099257D02*
X199729829Y-133099257D01*
X199386972Y-134299257D02*
X199386972Y-133099257D01*
X200129829Y-134299257D02*
X200129829Y-133099257D01*
X200586972Y-133099257D01*
X200701258Y-133156400D01*
X200758401Y-133213543D01*
X200815544Y-133327829D01*
X200815544Y-133499257D01*
X200758401Y-133613543D01*
X200701258Y-133670686D01*
X200586972Y-133727829D01*
X200129829Y-133727829D01*
X201215544Y-133099257D02*
X201958401Y-133099257D01*
X201558401Y-133556400D01*
X201729829Y-133556400D01*
X201844115Y-133613543D01*
X201901258Y-133670686D01*
X201958401Y-133784971D01*
X201958401Y-134070686D01*
X201901258Y-134184971D01*
X201844115Y-134242114D01*
X201729829Y-134299257D01*
X201386972Y-134299257D01*
X201272686Y-134242114D01*
X201215544Y-134184971D01*
X185785315Y-107994257D02*
X186471029Y-107994257D01*
X186128172Y-109194257D02*
X186128172Y-107994257D01*
X186871029Y-109194257D02*
X186871029Y-107994257D01*
X187328172Y-107994257D01*
X187442458Y-108051400D01*
X187499601Y-108108543D01*
X187556744Y-108222829D01*
X187556744Y-108394257D01*
X187499601Y-108508543D01*
X187442458Y-108565686D01*
X187328172Y-108622829D01*
X186871029Y-108622829D01*
X188585315Y-108394257D02*
X188585315Y-109194257D01*
X188299601Y-107937114D02*
X188013886Y-108794257D01*
X188756744Y-108794257D01*
X182432515Y-107994257D02*
X183118229Y-107994257D01*
X182775372Y-109194257D02*
X182775372Y-107994257D01*
X183518229Y-109194257D02*
X183518229Y-107994257D01*
X183975372Y-107994257D01*
X184089658Y-108051400D01*
X184146801Y-108108543D01*
X184203944Y-108222829D01*
X184203944Y-108394257D01*
X184146801Y-108508543D01*
X184089658Y-108565686D01*
X183975372Y-108622829D01*
X183518229Y-108622829D01*
X185289658Y-107994257D02*
X184718229Y-107994257D01*
X184661086Y-108565686D01*
X184718229Y-108508543D01*
X184832515Y-108451400D01*
X185118229Y-108451400D01*
X185232515Y-108508543D01*
X185289658Y-108565686D01*
X185346801Y-108679971D01*
X185346801Y-108965686D01*
X185289658Y-109079971D01*
X185232515Y-109137114D01*
X185118229Y-109194257D01*
X184832515Y-109194257D01*
X184718229Y-109137114D01*
X184661086Y-109079971D01*
X193202115Y-95659657D02*
X193887829Y-95659657D01*
X193544972Y-96859657D02*
X193544972Y-95659657D01*
X194287829Y-96859657D02*
X194287829Y-95659657D01*
X194744972Y-95659657D01*
X194859258Y-95716800D01*
X194916401Y-95773943D01*
X194973544Y-95888229D01*
X194973544Y-96059657D01*
X194916401Y-96173943D01*
X194859258Y-96231086D01*
X194744972Y-96288229D01*
X194287829Y-96288229D01*
X196002115Y-95659657D02*
X195773544Y-95659657D01*
X195659258Y-95716800D01*
X195602115Y-95773943D01*
X195487829Y-95945371D01*
X195430686Y-96173943D01*
X195430686Y-96631086D01*
X195487829Y-96745371D01*
X195544972Y-96802514D01*
X195659258Y-96859657D01*
X195887829Y-96859657D01*
X196002115Y-96802514D01*
X196059258Y-96745371D01*
X196116401Y-96631086D01*
X196116401Y-96345371D01*
X196059258Y-96231086D01*
X196002115Y-96173943D01*
X195887829Y-96116800D01*
X195659258Y-96116800D01*
X195544972Y-96173943D01*
X195487829Y-96231086D01*
X195430686Y-96345371D01*
X182713334Y-91790781D02*
X182380000Y-91314590D01*
X182141905Y-91790781D02*
X182141905Y-90790781D01*
X182522858Y-90790781D01*
X182618096Y-90838400D01*
X182665715Y-90886019D01*
X182713334Y-90981257D01*
X182713334Y-91124114D01*
X182665715Y-91219352D01*
X182618096Y-91266971D01*
X182522858Y-91314590D01*
X182141905Y-91314590D01*
X183189524Y-91790781D02*
X183380000Y-91790781D01*
X183475239Y-91743162D01*
X183522858Y-91695543D01*
X183618096Y-91552686D01*
X183665715Y-91362210D01*
X183665715Y-90981257D01*
X183618096Y-90886019D01*
X183570477Y-90838400D01*
X183475239Y-90790781D01*
X183284762Y-90790781D01*
X183189524Y-90838400D01*
X183141905Y-90886019D01*
X183094286Y-90981257D01*
X183094286Y-91219352D01*
X183141905Y-91314590D01*
X183189524Y-91362210D01*
X183284762Y-91409829D01*
X183475239Y-91409829D01*
X183570477Y-91362210D01*
X183618096Y-91314590D01*
X183665715Y-91219352D01*
X173347143Y-100833181D02*
X173013809Y-100356990D01*
X172775714Y-100833181D02*
X172775714Y-99833181D01*
X173156667Y-99833181D01*
X173251905Y-99880800D01*
X173299524Y-99928419D01*
X173347143Y-100023657D01*
X173347143Y-100166514D01*
X173299524Y-100261752D01*
X173251905Y-100309371D01*
X173156667Y-100356990D01*
X172775714Y-100356990D01*
X174299524Y-100833181D02*
X173728095Y-100833181D01*
X174013809Y-100833181D02*
X174013809Y-99833181D01*
X173918571Y-99976038D01*
X173823333Y-100071276D01*
X173728095Y-100118895D01*
X174918571Y-99833181D02*
X175013810Y-99833181D01*
X175109048Y-99880800D01*
X175156667Y-99928419D01*
X175204286Y-100023657D01*
X175251905Y-100214133D01*
X175251905Y-100452229D01*
X175204286Y-100642705D01*
X175156667Y-100737943D01*
X175109048Y-100785562D01*
X175013810Y-100833181D01*
X174918571Y-100833181D01*
X174823333Y-100785562D01*
X174775714Y-100737943D01*
X174728095Y-100642705D01*
X174680476Y-100452229D01*
X174680476Y-100214133D01*
X174728095Y-100023657D01*
X174775714Y-99928419D01*
X174823333Y-99880800D01*
X174918571Y-99833181D01*
X182033943Y-94178381D02*
X181700609Y-93702190D01*
X181462514Y-94178381D02*
X181462514Y-93178381D01*
X181843467Y-93178381D01*
X181938705Y-93226000D01*
X181986324Y-93273619D01*
X182033943Y-93368857D01*
X182033943Y-93511714D01*
X181986324Y-93606952D01*
X181938705Y-93654571D01*
X181843467Y-93702190D01*
X181462514Y-93702190D01*
X182986324Y-94178381D02*
X182414895Y-94178381D01*
X182700609Y-94178381D02*
X182700609Y-93178381D01*
X182605371Y-93321238D01*
X182510133Y-93416476D01*
X182414895Y-93464095D01*
X183938705Y-94178381D02*
X183367276Y-94178381D01*
X183652990Y-94178381D02*
X183652990Y-93178381D01*
X183557752Y-93321238D01*
X183462514Y-93416476D01*
X183367276Y-93464095D01*
X170095943Y-102028781D02*
X169762609Y-101552590D01*
X169524514Y-102028781D02*
X169524514Y-101028781D01*
X169905467Y-101028781D01*
X170000705Y-101076400D01*
X170048324Y-101124019D01*
X170095943Y-101219257D01*
X170095943Y-101362114D01*
X170048324Y-101457352D01*
X170000705Y-101504971D01*
X169905467Y-101552590D01*
X169524514Y-101552590D01*
X171048324Y-102028781D02*
X170476895Y-102028781D01*
X170762609Y-102028781D02*
X170762609Y-101028781D01*
X170667371Y-101171638D01*
X170572133Y-101266876D01*
X170476895Y-101314495D01*
X171429276Y-101124019D02*
X171476895Y-101076400D01*
X171572133Y-101028781D01*
X171810229Y-101028781D01*
X171905467Y-101076400D01*
X171953086Y-101124019D01*
X172000705Y-101219257D01*
X172000705Y-101314495D01*
X171953086Y-101457352D01*
X171381657Y-102028781D01*
X172000705Y-102028781D01*
X181729143Y-96870781D02*
X181395809Y-96394590D01*
X181157714Y-96870781D02*
X181157714Y-95870781D01*
X181538667Y-95870781D01*
X181633905Y-95918400D01*
X181681524Y-95966019D01*
X181729143Y-96061257D01*
X181729143Y-96204114D01*
X181681524Y-96299352D01*
X181633905Y-96346971D01*
X181538667Y-96394590D01*
X181157714Y-96394590D01*
X182681524Y-96870781D02*
X182110095Y-96870781D01*
X182395809Y-96870781D02*
X182395809Y-95870781D01*
X182300571Y-96013638D01*
X182205333Y-96108876D01*
X182110095Y-96156495D01*
X183014857Y-95870781D02*
X183633905Y-95870781D01*
X183300571Y-96251733D01*
X183443429Y-96251733D01*
X183538667Y-96299352D01*
X183586286Y-96346971D01*
X183633905Y-96442210D01*
X183633905Y-96680305D01*
X183586286Y-96775543D01*
X183538667Y-96823162D01*
X183443429Y-96870781D01*
X183157714Y-96870781D01*
X183062476Y-96823162D01*
X183014857Y-96775543D01*
X181932343Y-99156781D02*
X181599009Y-98680590D01*
X181360914Y-99156781D02*
X181360914Y-98156781D01*
X181741867Y-98156781D01*
X181837105Y-98204400D01*
X181884724Y-98252019D01*
X181932343Y-98347257D01*
X181932343Y-98490114D01*
X181884724Y-98585352D01*
X181837105Y-98632971D01*
X181741867Y-98680590D01*
X181360914Y-98680590D01*
X182884724Y-99156781D02*
X182313295Y-99156781D01*
X182599009Y-99156781D02*
X182599009Y-98156781D01*
X182503771Y-98299638D01*
X182408533Y-98394876D01*
X182313295Y-98442495D01*
X183741867Y-98490114D02*
X183741867Y-99156781D01*
X183503771Y-98109162D02*
X183265676Y-98823448D01*
X183884724Y-98823448D01*
X181881543Y-101798381D02*
X181548209Y-101322190D01*
X181310114Y-101798381D02*
X181310114Y-100798381D01*
X181691067Y-100798381D01*
X181786305Y-100846000D01*
X181833924Y-100893619D01*
X181881543Y-100988857D01*
X181881543Y-101131714D01*
X181833924Y-101226952D01*
X181786305Y-101274571D01*
X181691067Y-101322190D01*
X181310114Y-101322190D01*
X182833924Y-101798381D02*
X182262495Y-101798381D01*
X182548209Y-101798381D02*
X182548209Y-100798381D01*
X182452971Y-100941238D01*
X182357733Y-101036476D01*
X182262495Y-101084095D01*
X183738686Y-100798381D02*
X183262495Y-100798381D01*
X183214876Y-101274571D01*
X183262495Y-101226952D01*
X183357733Y-101179333D01*
X183595829Y-101179333D01*
X183691067Y-101226952D01*
X183738686Y-101274571D01*
X183786305Y-101369810D01*
X183786305Y-101607905D01*
X183738686Y-101703143D01*
X183691067Y-101750762D01*
X183595829Y-101798381D01*
X183357733Y-101798381D01*
X183262495Y-101750762D01*
X183214876Y-101703143D01*
X181678343Y-104338381D02*
X181345009Y-103862190D01*
X181106914Y-104338381D02*
X181106914Y-103338381D01*
X181487867Y-103338381D01*
X181583105Y-103386000D01*
X181630724Y-103433619D01*
X181678343Y-103528857D01*
X181678343Y-103671714D01*
X181630724Y-103766952D01*
X181583105Y-103814571D01*
X181487867Y-103862190D01*
X181106914Y-103862190D01*
X182630724Y-104338381D02*
X182059295Y-104338381D01*
X182345009Y-104338381D02*
X182345009Y-103338381D01*
X182249771Y-103481238D01*
X182154533Y-103576476D01*
X182059295Y-103624095D01*
X183487867Y-103338381D02*
X183297390Y-103338381D01*
X183202152Y-103386000D01*
X183154533Y-103433619D01*
X183059295Y-103576476D01*
X183011676Y-103766952D01*
X183011676Y-104147905D01*
X183059295Y-104243143D01*
X183106914Y-104290762D01*
X183202152Y-104338381D01*
X183392629Y-104338381D01*
X183487867Y-104290762D01*
X183535486Y-104243143D01*
X183583105Y-104147905D01*
X183583105Y-103909810D01*
X183535486Y-103814571D01*
X183487867Y-103766952D01*
X183392629Y-103719333D01*
X183202152Y-103719333D01*
X183106914Y-103766952D01*
X183059295Y-103814571D01*
X183011676Y-103909810D01*
X199610743Y-135681981D02*
X199277409Y-135205790D01*
X199039314Y-135681981D02*
X199039314Y-134681981D01*
X199420267Y-134681981D01*
X199515505Y-134729600D01*
X199563124Y-134777219D01*
X199610743Y-134872457D01*
X199610743Y-135015314D01*
X199563124Y-135110552D01*
X199515505Y-135158171D01*
X199420267Y-135205790D01*
X199039314Y-135205790D01*
X200563124Y-135681981D02*
X199991695Y-135681981D01*
X200277409Y-135681981D02*
X200277409Y-134681981D01*
X200182171Y-134824838D01*
X200086933Y-134920076D01*
X199991695Y-134967695D01*
X200896457Y-134681981D02*
X201563124Y-134681981D01*
X201134552Y-135681981D01*
M02*
